<svg width="216" height="52" viewBox="0 0 216 52" fill="none" xmlns="http://www.w3.org/2000/svg">
<g clip-path="url(#clip0_812_1670)">
<path fill-rule="evenodd" clip-rule="evenodd" d="M19.4608 36.6155L15.4387 32.5934L19.4621 28.5701L23.4854 32.5921L19.4608 36.6155ZM30.0148 26.0627L25.1249 30.9526L19.4621 25.2898L17.8265 26.9293L13.8031 30.9526L8.91322 26.0666L7.2724 27.7061L12.1584 32.5934L19.4608 39.8958L21.1016 38.2563L25.1249 34.2317L26.7644 32.5921L31.6543 27.7022L30.0148 26.0627Z" fill="#246EB7"/>
<path fill-rule="evenodd" clip-rule="evenodd" d="M19.9253 7.98896C19.8035 8.00314 19.681 8.01009 19.5584 8.00978C19.0658 8.00949 18.5792 7.90162 18.1326 7.69373C17.686 7.48583 17.2902 7.18292 16.9729 6.80617L19.4855 4.29485L21.1094 5.91745L22.0749 6.88294C21.5207 7.50586 20.7544 7.90014 19.9253 7.98896ZM19.4894 0.94165H19.4816L19.1498 1.27476L17.807 2.6163L16.2039 4.22068C16.2039 4.23369 16.2039 4.24801 16.2039 4.26232L16.1857 4.2428L12.4772 7.94602L7.47411 12.9504L5.79686 14.629L1.67855 18.746L0 20.4246L1.67855 22.1018L3.3571 20.4246L7.47281 16.3075L9.15006 14.629L14.1532 9.62457L15.1811 8.59662C15.7058 9.17469 16.3394 9.64342 17.0458 9.9759C17.4403 10.1619 17.8545 10.3029 18.2806 10.3962C18.5481 10.4553 18.8194 10.4954 19.0925 10.5159C19.2448 10.5289 19.3983 10.5341 19.5545 10.5341C19.6547 10.5341 19.7549 10.5341 19.8537 10.5263C20.1158 10.5134 20.3766 10.4825 20.6345 10.4339C21.089 10.3503 21.532 10.2127 21.9539 10.024C22.6714 9.70406 23.3177 9.24398 23.8549 8.67079L37.286 22.0953L38.9645 20.4167L19.4894 0.94165Z" fill="#246EB7"/>
<path fill-rule="evenodd" clip-rule="evenodd" d="M35.273 24.0835L33.6335 25.7243L27.9707 20.0615L27.6324 20.3985V20.3998L25.9928 22.0393L24.3963 23.6593L22.7581 22.0198L24.352 20.3998V20.3985L19.466 15.5125L14.5761 20.4024V20.4037L16.1792 21.9977L14.5397 23.6385L12.9366 22.0432V22.0419L11.2958 20.4037V20.4024L10.9575 20.0654L6.93414 24.0887L5.29462 25.7282L3.65381 24.0874L9.31664 18.4246L10.9575 16.7838L12.9366 18.7629L17.8265 13.873L19.466 12.2322L25.9928 18.759V18.7603L27.9707 16.7812L35.273 24.0835Z" fill="#246EB7"/>
<path fill-rule="evenodd" clip-rule="evenodd" d="M0.105408 43.2436V44.3367H1.51982V49.4478H2.95114V44.3367H4.28617L4.43841 43.2436H0.105408ZM9.21383 49.4478H7.74087L7.46371 48.0958H5.88795L5.6108 49.4478H4.16386L5.8346 43.2436H7.55349L9.21903 49.4478H9.21383ZM6.67648 44.2911L6.10395 47.0666H7.24901L6.67648 44.2911ZM11.5274 43.2502H10.096V48.455C10.1009 48.6861 10.0826 48.9171 10.0414 49.1446C10.0024 49.3106 9.92279 49.4644 9.80978 49.5922C9.6585 49.74 9.47877 49.8556 9.28149 49.9318L9.65754 50.9428C10.1756 50.7786 10.6455 50.49 11.0264 50.1023C11.3582 49.7444 11.5274 49.2162 11.5274 48.5083V43.2436V43.2502ZM12.7635 43.2502V49.4543H14.1948V43.2436L12.7635 43.2502ZM19.8251 43.2502H18.5721V45.8109C18.5718 46.5881 18.638 47.3638 18.7699 48.1297L17.2214 43.2502H15.4492V49.4543H16.7022V47.1342C16.7022 46.6775 16.684 46.265 16.6567 45.9163C16.6294 45.5676 16.5851 45.1824 16.5266 44.753C16.5238 44.6929 16.5177 44.633 16.5084 44.5735L18.0308 49.4439H19.8199V43.2436L19.8251 43.2502ZM23.9617 43.2502L23.004 48.3248L21.963 43.2502H20.4966L22.0723 49.4543H23.881L25.393 43.2502H23.9617ZM26.0644 43.2502V49.4543H29.5555V48.4133H27.497V46.7972H29.1795V45.7953H27.497V44.2716H29.4215L29.5737 43.2502H26.0644ZM32.3492 43.0979C31.9845 43.0904 31.623 43.167 31.2926 43.3217C30.993 43.4601 30.7364 43.6768 30.5496 43.9489C30.3698 44.2289 30.2766 44.5557 30.2816 44.8884C30.2665 45.2972 30.4058 45.6967 30.672 46.0074C30.9322 46.3028 31.3798 46.563 31.9966 46.7881C32.2823 46.8707 32.5481 47.0111 32.7773 47.2006C32.8463 47.2734 32.9 47.3592 32.9353 47.4531C32.9706 47.5469 32.9868 47.6469 32.9829 47.7471C32.9886 47.853 32.9716 47.9588 32.933 48.0576C32.8944 48.1563 32.8351 48.2457 32.7591 48.3196C32.584 48.4721 32.3558 48.5492 32.1241 48.5343C31.88 48.5342 31.6388 48.4823 31.4163 48.3821C31.1732 48.2677 30.9473 48.1201 30.7448 47.9436L30.0474 48.7243C30.3264 49.0129 30.6624 49.2404 31.034 49.3923C31.4056 49.5441 31.8048 49.6171 32.2061 49.6065C32.6225 49.6164 33.0356 49.5305 33.4136 49.3554C33.7359 49.1997 34.0088 48.9579 34.2021 48.6566C34.3842 48.3513 34.477 48.001 34.4702 47.6456C34.4808 47.3314 34.4166 47.0192 34.2828 46.7348C34.1542 46.4901 33.9701 46.2789 33.7454 46.118C33.4535 45.9304 33.1409 45.7771 32.8137 45.6613C32.5868 45.5808 32.3655 45.4852 32.1514 45.375C32.0279 45.3146 31.9208 45.2254 31.8391 45.1148C31.7746 45.0171 31.7431 44.9012 31.7494 44.7843C31.7446 44.6968 31.7598 44.6094 31.7938 44.5287C31.8278 44.4479 31.8798 44.376 31.9458 44.3184C32.0975 44.1967 32.2891 44.1359 32.4832 44.148C32.8853 44.148 33.2887 44.3184 33.6738 44.6489L34.3244 43.8982C34.0762 43.6445 33.7815 43.4409 33.4565 43.2983C33.1035 43.1588 32.7261 43.0916 32.3466 43.1005L32.3492 43.0979ZM34.802 43.2502V44.3432H36.2164V49.4543H37.6477V44.3367H38.9814L39.1337 43.2436L34.802 43.2502Z" fill="#246EB7"/>
</g>
<path d="M59.1904 2.40332H55.5039V9H54.9033V1.89062H59.1904V2.40332ZM59.957 6.28027C59.957 5.77246 60.0547 5.3151 60.25 4.9082C60.4486 4.5013 60.7269 4.18555 61.085 3.96094C61.4463 3.73307 61.8548 3.61914 62.3105 3.61914C63.0137 3.61914 63.5833 3.86654 64.0195 4.36133C64.4557 4.85286 64.6738 5.50553 64.6738 6.31934V6.44141C64.6738 6.95247 64.5745 7.41309 64.376 7.82324C64.1807 8.23014 63.904 8.54427 63.5459 8.76562C63.1878 8.98698 62.7793 9.09766 62.3203 9.09766C61.6204 9.09766 61.0508 8.85189 60.6113 8.36035C60.1751 7.86556 59.957 7.21126 59.957 6.39746V6.28027ZM60.543 6.44141C60.543 7.07292 60.7057 7.59212 61.0312 7.99902C61.36 8.40267 61.7897 8.60449 62.3203 8.60449C62.8477 8.60449 63.2741 8.40267 63.5996 7.99902C63.9284 7.59212 64.0928 7.05664 64.0928 6.39258V6.28027C64.0928 5.87663 64.0179 5.50716 63.8682 5.17188C63.7184 4.83659 63.5085 4.5778 63.2383 4.39551C62.9681 4.20996 62.6589 4.11719 62.3105 4.11719C61.7897 4.11719 61.3649 4.32227 61.0361 4.73242C60.7074 5.13932 60.543 5.67318 60.543 6.33398V6.44141ZM67.8379 8.60449C68.2448 8.60449 68.585 8.49056 68.8584 8.2627C69.1351 8.03158 69.2848 7.73372 69.3076 7.36914H69.8691C69.8529 7.69141 69.752 7.986 69.5664 8.25293C69.3809 8.5166 69.1335 8.72331 68.8242 8.87305C68.5182 9.02279 68.1895 9.09766 67.8379 9.09766C67.1445 9.09766 66.5944 8.85677 66.1875 8.375C65.7839 7.89323 65.582 7.24544 65.582 6.43164V6.25586C65.582 5.73503 65.6732 5.27441 65.8555 4.87402C66.0378 4.47363 66.2982 4.16439 66.6367 3.94629C66.9785 3.72819 67.3773 3.61914 67.833 3.61914C68.4124 3.61914 68.8893 3.79167 69.2637 4.13672C69.6413 4.48177 69.8431 4.93587 69.8691 5.49902H69.3076C69.2816 5.08561 69.1318 4.75195 68.8584 4.49805C68.5882 4.24414 68.2464 4.11719 67.833 4.11719C67.3057 4.11719 66.8955 4.30762 66.6025 4.68848C66.3128 5.06934 66.168 5.60319 66.168 6.29004V6.46094C66.168 7.13477 66.3128 7.66048 66.6025 8.03809C66.8955 8.41569 67.3073 8.60449 67.8379 8.60449ZM72.7158 8.16016L74.2588 3.7168H74.8887L72.6328 9.89844L72.5156 10.1719C72.2259 10.8132 71.7783 11.1338 71.1729 11.1338C71.0329 11.1338 70.8831 11.111 70.7236 11.0654L70.7188 10.582L71.0215 10.6113C71.3079 10.6113 71.5391 10.5397 71.7148 10.3965C71.8939 10.2565 72.0452 10.014 72.1689 9.66895L72.4277 8.95605L70.4355 3.7168H71.0752L72.7158 8.16016ZM75.4014 8.50684L75.6602 8.16992C76.0703 7.61328 76.3063 6.79948 76.3682 5.72852L76.4609 3.7168H79.5811V8.50684H80.1279V10.5527H79.5469V9H75.5771V10.5527H75.0156L75.0205 8.50684H75.4014ZM76.0752 8.50684H78.9951V4.26367H77.0176L76.9541 5.63574C76.8955 6.89551 76.6025 7.85254 76.0752 8.50684ZM84.5908 9C84.5322 8.83398 84.4948 8.58822 84.4785 8.2627C84.2734 8.52962 84.0114 8.73633 83.6924 8.88281C83.3766 9.02604 83.0413 9.09766 82.6865 9.09766C82.1787 9.09766 81.7669 8.95605 81.4512 8.67285C81.1387 8.38965 80.9824 8.03158 80.9824 7.59863C80.9824 7.08431 81.1956 6.67741 81.6221 6.37793C82.0518 6.07845 82.6491 5.92871 83.4141 5.92871H84.4736V5.32812C84.4736 4.95052 84.3564 4.6543 84.1221 4.43945C83.891 4.22135 83.5524 4.1123 83.1064 4.1123C82.6995 4.1123 82.3626 4.21647 82.0957 4.4248C81.8288 4.63314 81.6953 4.88379 81.6953 5.17676L81.1094 5.17188C81.1094 4.75195 81.3047 4.389 81.6953 4.08301C82.0859 3.77376 82.5661 3.61914 83.1357 3.61914C83.7249 3.61914 84.1888 3.76725 84.5273 4.06348C84.8691 4.35645 85.0449 4.7666 85.0547 5.29395V7.79395C85.0547 8.30501 85.1084 8.6875 85.2158 8.94141V9H84.5908ZM82.7549 8.58008C83.1455 8.58008 83.4938 8.48568 83.7998 8.29688C84.109 8.10807 84.3337 7.85579 84.4736 7.54004V6.37793H83.4287C82.846 6.38444 82.3903 6.49186 82.0615 6.7002C81.7327 6.90527 81.5684 7.18848 81.5684 7.5498C81.5684 7.84603 81.6774 8.0918 81.8955 8.28711C82.1169 8.48242 82.4033 8.58008 82.7549 8.58008ZM90.8652 6.41211C90.8652 7.23568 90.6829 7.88997 90.3184 8.375C89.9538 8.85677 89.4655 9.09766 88.8535 9.09766C88.1309 9.09766 87.5775 8.84375 87.1934 8.33594V11.0312H86.6123V3.7168H87.1543L87.1836 4.46387C87.5645 3.90072 88.1162 3.61914 88.8389 3.61914C89.4704 3.61914 89.9652 3.8584 90.3232 4.33691C90.6846 4.81543 90.8652 5.47949 90.8652 6.3291V6.41211ZM90.2793 6.30957C90.2793 5.63574 90.141 5.10352 89.8643 4.71289C89.5876 4.32227 89.2018 4.12695 88.707 4.12695C88.349 4.12695 88.0413 4.21322 87.7842 4.38574C87.527 4.55827 87.3301 4.80892 87.1934 5.1377V7.67188C87.3333 7.97461 87.5335 8.20573 87.7939 8.36523C88.0544 8.52474 88.362 8.60449 88.7168 8.60449C89.2083 8.60449 89.5908 8.40918 89.8643 8.01855C90.141 7.62467 90.2793 7.05501 90.2793 6.30957ZM94.1172 8.60449C94.5241 8.60449 94.8643 8.49056 95.1377 8.2627C95.4144 8.03158 95.5641 7.73372 95.5869 7.36914H96.1484C96.1322 7.69141 96.0312 7.986 95.8457 8.25293C95.6602 8.5166 95.4128 8.72331 95.1035 8.87305C94.7975 9.02279 94.4688 9.09766 94.1172 9.09766C93.4238 9.09766 92.8737 8.85677 92.4668 8.375C92.0632 7.89323 91.8613 7.24544 91.8613 6.43164V6.25586C91.8613 5.73503 91.9525 5.27441 92.1348 4.87402C92.3171 4.47363 92.5775 4.16439 92.916 3.94629C93.2578 3.72819 93.6566 3.61914 94.1123 3.61914C94.6917 3.61914 95.1686 3.79167 95.543 4.13672C95.9206 4.48177 96.1224 4.93587 96.1484 5.49902H95.5869C95.5609 5.08561 95.4111 4.75195 95.1377 4.49805C94.8675 4.24414 94.5257 4.11719 94.1123 4.11719C93.585 4.11719 93.1748 4.30762 92.8818 4.68848C92.5921 5.06934 92.4473 5.60319 92.4473 6.29004V6.46094C92.4473 7.13477 92.5921 7.66048 92.8818 8.03809C93.1748 8.41569 93.5866 8.60449 94.1172 8.60449ZM101.114 4.21484H99.1904V9H98.6045V4.21484H96.7539V3.7168H101.114V4.21484ZM102.14 9V3.7168H104.078C104.749 3.7168 105.263 3.83724 105.621 4.07812C105.979 4.31576 106.158 4.66569 106.158 5.12793C106.158 5.3916 106.078 5.6276 105.919 5.83594C105.759 6.04102 105.527 6.19076 105.221 6.28516C105.566 6.35026 105.842 6.49837 106.051 6.72949C106.262 6.96061 106.368 7.22917 106.368 7.53516C106.368 8.00065 106.196 8.36198 105.851 8.61914C105.509 8.87305 105.024 9 104.396 9H102.14ZM102.721 6.56836V8.51172H104.415C104.854 8.51172 105.193 8.42708 105.431 8.25781C105.668 8.08854 105.787 7.8444 105.787 7.52539C105.787 7.23242 105.668 6.99967 105.431 6.82715C105.193 6.65462 104.854 6.56836 104.415 6.56836H102.721ZM102.721 6.08008H104.2C105.118 6.06706 105.577 5.75456 105.577 5.14258C105.577 4.82031 105.45 4.58594 105.196 4.43945C104.946 4.28971 104.573 4.21484 104.078 4.21484H102.721V6.08008ZM109.718 9.09766C109.269 9.09766 108.862 8.98698 108.497 8.76562C108.136 8.54427 107.854 8.23665 107.652 7.84277C107.451 7.44564 107.35 7.0013 107.35 6.50977V6.2998C107.35 5.79199 107.447 5.33464 107.643 4.92773C107.841 4.52083 108.116 4.20182 108.468 3.9707C108.819 3.73633 109.2 3.61914 109.61 3.61914C110.252 3.61914 110.759 3.83887 111.134 4.27832C111.511 4.71452 111.7 5.31185 111.7 6.07031V6.39746H107.931V6.50977C107.931 7.10872 108.102 7.6084 108.443 8.00879C108.788 8.40592 109.221 8.60449 109.742 8.60449C110.055 8.60449 110.33 8.54753 110.567 8.43359C110.808 8.31966 111.026 8.13737 111.222 7.88672L111.588 8.16504C111.158 8.78678 110.535 9.09766 109.718 9.09766ZM109.61 4.11719C109.171 4.11719 108.8 4.27832 108.497 4.60059C108.198 4.92285 108.015 5.35579 107.95 5.89941H111.119V5.83594C111.103 5.32812 110.958 4.91471 110.685 4.5957C110.411 4.27669 110.053 4.11719 109.61 4.11719ZM116.896 9H116.31V6.57812H113.463V9H112.877V3.7168H113.463V6.08496H116.31V3.7168H116.896V9ZM122.521 9H121.935V6.57812H119.088V9H118.502V3.7168H119.088V6.08496H121.935V3.7168H122.521V9ZM123.766 6.28027C123.766 5.77246 123.863 5.3151 124.059 4.9082C124.257 4.5013 124.535 4.18555 124.894 3.96094C125.255 3.73307 125.663 3.61914 126.119 3.61914C126.822 3.61914 127.392 3.86654 127.828 4.36133C128.264 4.85286 128.482 5.50553 128.482 6.31934V6.44141C128.482 6.95247 128.383 7.41309 128.185 7.82324C127.989 8.23014 127.713 8.54427 127.354 8.76562C126.996 8.98698 126.588 9.09766 126.129 9.09766C125.429 9.09766 124.859 8.85189 124.42 8.36035C123.984 7.86556 123.766 7.21126 123.766 6.39746V6.28027ZM124.352 6.44141C124.352 7.07292 124.514 7.59212 124.84 7.99902C125.169 8.40267 125.598 8.60449 126.129 8.60449C126.656 8.60449 127.083 8.40267 127.408 7.99902C127.737 7.59212 127.901 7.05664 127.901 6.39258V6.28027C127.901 5.87663 127.826 5.50716 127.677 5.17188C127.527 4.83659 127.317 4.5778 127.047 4.39551C126.777 4.20996 126.467 4.11719 126.119 4.11719C125.598 4.11719 125.174 4.32227 124.845 4.73242C124.516 5.13932 124.352 5.67318 124.352 6.33398V6.44141ZM131.739 9.09766C131.29 9.09766 130.883 8.98698 130.519 8.76562C130.157 8.54427 129.876 8.23665 129.674 7.84277C129.472 7.44564 129.371 7.0013 129.371 6.50977V6.2998C129.371 5.79199 129.469 5.33464 129.664 4.92773C129.863 4.52083 130.138 4.20182 130.489 3.9707C130.841 3.73633 131.222 3.61914 131.632 3.61914C132.273 3.61914 132.781 3.83887 133.155 4.27832C133.533 4.71452 133.722 5.31185 133.722 6.07031V6.39746H129.952V6.50977C129.952 7.10872 130.123 7.6084 130.465 8.00879C130.81 8.40592 131.243 8.60449 131.764 8.60449C132.076 8.60449 132.351 8.54753 132.589 8.43359C132.83 8.31966 133.048 8.13737 133.243 7.88672L133.609 8.16504C133.18 8.78678 132.556 9.09766 131.739 9.09766ZM131.632 4.11719C131.192 4.11719 130.821 4.27832 130.519 4.60059C130.219 4.92285 130.037 5.35579 129.972 5.89941H133.141V5.83594C133.124 5.32812 132.979 4.91471 132.706 4.5957C132.433 4.27669 132.075 4.11719 131.632 4.11719ZM138.966 8.16016L140.509 3.7168H141.139L138.883 9.89844L138.766 10.1719C138.476 10.8132 138.028 11.1338 137.423 11.1338C137.283 11.1338 137.133 11.111 136.974 11.0654L136.969 10.582L137.271 10.6113C137.558 10.6113 137.789 10.5397 137.965 10.3965C138.144 10.2565 138.295 10.014 138.419 9.66895L138.678 8.95605L136.686 3.7168H137.325L138.966 8.16016ZM146.104 9H145.519V6.57812H142.672V9H142.086V3.7168H142.672V6.08496H145.519V3.7168H146.104V9ZM151.144 3.7168H151.729V9H151.144V4.65918L148.292 9H147.711V3.7168H148.292V8.0625L151.144 3.7168ZM157.091 4.21484H155.167V9H154.581V4.21484H152.73V3.7168H157.091V4.21484ZM161.31 9C161.251 8.83398 161.214 8.58822 161.197 8.2627C160.992 8.52962 160.73 8.73633 160.411 8.88281C160.095 9.02604 159.76 9.09766 159.405 9.09766C158.897 9.09766 158.486 8.95605 158.17 8.67285C157.857 8.38965 157.701 8.03158 157.701 7.59863C157.701 7.08431 157.914 6.67741 158.341 6.37793C158.771 6.07845 159.368 5.92871 160.133 5.92871H161.192V5.32812C161.192 4.95052 161.075 4.6543 160.841 4.43945C160.61 4.22135 160.271 4.1123 159.825 4.1123C159.418 4.1123 159.081 4.21647 158.814 4.4248C158.548 4.63314 158.414 4.88379 158.414 5.17676L157.828 5.17188C157.828 4.75195 158.023 4.389 158.414 4.08301C158.805 3.77376 159.285 3.61914 159.854 3.61914C160.444 3.61914 160.908 3.76725 161.246 4.06348C161.588 4.35645 161.764 4.7666 161.773 5.29395V7.79395C161.773 8.30501 161.827 8.6875 161.935 8.94141V9H161.31ZM159.474 8.58008C159.864 8.58008 160.213 8.48568 160.519 8.29688C160.828 8.10807 161.052 7.85579 161.192 7.54004V6.37793H160.147C159.565 6.38444 159.109 6.49186 158.78 6.7002C158.451 6.90527 158.287 7.18848 158.287 7.5498C158.287 7.84603 158.396 8.0918 158.614 8.28711C158.836 8.48242 159.122 8.58008 159.474 8.58008ZM167.584 6.41211C167.584 7.23568 167.402 7.88997 167.037 8.375C166.673 8.85677 166.184 9.09766 165.572 9.09766C164.85 9.09766 164.296 8.84375 163.912 8.33594V11.0312H163.331V3.7168H163.873L163.902 4.46387C164.283 3.90072 164.835 3.61914 165.558 3.61914C166.189 3.61914 166.684 3.8584 167.042 4.33691C167.403 4.81543 167.584 5.47949 167.584 6.3291V6.41211ZM166.998 6.30957C166.998 5.63574 166.86 5.10352 166.583 4.71289C166.306 4.32227 165.921 4.12695 165.426 4.12695C165.068 4.12695 164.76 4.21322 164.503 4.38574C164.246 4.55827 164.049 4.80892 163.912 5.1377V7.67188C164.052 7.97461 164.252 8.20573 164.513 8.36523C164.773 8.52474 165.081 8.60449 165.436 8.60449C165.927 8.60449 166.31 8.40918 166.583 8.01855C166.86 7.62467 166.998 7.05501 166.998 6.30957ZM172.94 9H172.354V6.57812H169.508V9H168.922V3.7168H169.508V6.08496H172.354V3.7168H172.94V9ZM174.186 6.28027C174.186 5.77246 174.283 5.3151 174.479 4.9082C174.677 4.5013 174.955 4.18555 175.313 3.96094C175.675 3.73307 176.083 3.61914 176.539 3.61914C177.242 3.61914 177.812 3.86654 178.248 4.36133C178.684 4.85286 178.902 5.50553 178.902 6.31934V6.44141C178.902 6.95247 178.803 7.41309 178.604 7.82324C178.409 8.23014 178.132 8.54427 177.774 8.76562C177.416 8.98698 177.008 9.09766 176.549 9.09766C175.849 9.09766 175.279 8.85189 174.84 8.36035C174.404 7.86556 174.186 7.21126 174.186 6.39746V6.28027ZM174.771 6.44141C174.771 7.07292 174.934 7.59212 175.26 7.99902C175.589 8.40267 176.018 8.60449 176.549 8.60449C177.076 8.60449 177.503 8.40267 177.828 7.99902C178.157 7.59212 178.321 7.05664 178.321 6.39258V6.28027C178.321 5.87663 178.246 5.50716 178.097 5.17188C177.947 4.83659 177.737 4.5778 177.467 4.39551C177.197 4.20996 176.887 4.11719 176.539 4.11719C176.018 4.11719 175.593 4.32227 175.265 4.73242C174.936 5.13932 174.771 5.67318 174.771 6.33398V6.44141ZM182.159 9.09766C181.71 9.09766 181.303 8.98698 180.938 8.76562C180.577 8.54427 180.296 8.23665 180.094 7.84277C179.892 7.44564 179.791 7.0013 179.791 6.50977V6.2998C179.791 5.79199 179.889 5.33464 180.084 4.92773C180.283 4.52083 180.558 4.20182 180.909 3.9707C181.261 3.73633 181.642 3.61914 182.052 3.61914C182.693 3.61914 183.201 3.83887 183.575 4.27832C183.953 4.71452 184.142 5.31185 184.142 6.07031V6.39746H180.372V6.50977C180.372 7.10872 180.543 7.6084 180.885 8.00879C181.23 8.40592 181.663 8.60449 182.184 8.60449C182.496 8.60449 182.771 8.54753 183.009 8.43359C183.25 8.31966 183.468 8.13737 183.663 7.88672L184.029 8.16504C183.6 8.78678 182.976 9.09766 182.159 9.09766ZM182.052 4.11719C181.612 4.11719 181.241 4.27832 180.938 4.60059C180.639 4.92285 180.457 5.35579 180.392 5.89941H183.561V5.83594C183.544 5.32812 183.399 4.91471 183.126 4.5957C182.853 4.27669 182.494 4.11719 182.052 4.11719ZM58.8193 21H58.2334V16.2197H55.3867V21H54.8008V15.7168H58.8193V21ZM64.6348 18.4121C64.6348 19.2357 64.4525 19.89 64.0879 20.375C63.7233 20.8568 63.235 21.0977 62.623 21.0977C61.9004 21.0977 61.347 20.8438 60.9629 20.3359V23.0312H60.3818V15.7168H60.9238L60.9531 16.4639C61.334 15.9007 61.8857 15.6191 62.6084 15.6191C63.2399 15.6191 63.7347 15.8584 64.0928 16.3369C64.4541 16.8154 64.6348 17.4795 64.6348 18.3291V18.4121ZM64.0488 18.3096C64.0488 17.6357 63.9105 17.1035 63.6338 16.7129C63.3571 16.3223 62.9714 16.127 62.4766 16.127C62.1185 16.127 61.8109 16.2132 61.5537 16.3857C61.2965 16.5583 61.0996 16.8089 60.9629 17.1377V19.6719C61.1029 19.9746 61.3031 20.2057 61.5635 20.3652C61.8239 20.5247 62.1315 20.6045 62.4863 20.6045C62.9779 20.6045 63.3604 20.4092 63.6338 20.0186C63.9105 19.6247 64.0488 19.055 64.0488 18.3096ZM67.9795 21.0977C67.5303 21.0977 67.1234 20.987 66.7588 20.7656C66.3975 20.5443 66.1159 20.2367 65.9141 19.8428C65.7122 19.4456 65.6113 19.0013 65.6113 18.5098V18.2998C65.6113 17.792 65.709 17.3346 65.9043 16.9277C66.1029 16.5208 66.3779 16.2018 66.7295 15.9707C67.0811 15.7363 67.4619 15.6191 67.8721 15.6191C68.5133 15.6191 69.0212 15.8389 69.3955 16.2783C69.7731 16.7145 69.9619 17.3118 69.9619 18.0703V18.3975H66.1924V18.5098C66.1924 19.1087 66.3633 19.6084 66.7051 20.0088C67.0501 20.4059 67.4831 20.6045 68.0039 20.6045C68.3164 20.6045 68.5915 20.5475 68.8291 20.4336C69.07 20.3197 69.2881 20.1374 69.4834 19.8867L69.8496 20.165C69.4199 20.7868 68.7965 21.0977 67.9795 21.0977ZM67.8721 16.1172C67.4326 16.1172 67.0615 16.2783 66.7588 16.6006C66.4593 16.9229 66.277 17.3558 66.2119 17.8994H69.3809V17.8359C69.3646 17.3281 69.2197 16.9147 68.9463 16.5957C68.6729 16.2767 68.3148 16.1172 67.8721 16.1172ZM70.9775 20.5068L71.2363 20.1699C71.6465 19.6133 71.8825 18.7995 71.9443 17.7285L72.0371 15.7168H75.1572V20.5068H75.7041V22.5527H75.123V21H71.1533V22.5527H70.5918L70.5967 20.5068H70.9775ZM71.6514 20.5068H74.5713V16.2637H72.5938L72.5303 17.6357C72.4717 18.8955 72.1787 19.8525 71.6514 20.5068ZM80.8896 21H80.3037V16.2197H77.457V21H76.8711V15.7168H80.8896V21ZM86.7051 18.4121C86.7051 19.2357 86.5228 19.89 86.1582 20.375C85.7936 20.8568 85.3053 21.0977 84.6934 21.0977C83.9707 21.0977 83.4173 20.8438 83.0332 20.3359V23.0312H82.4521V15.7168H82.9941L83.0234 16.4639C83.4043 15.9007 83.9561 15.6191 84.6787 15.6191C85.3102 15.6191 85.805 15.8584 86.1631 16.3369C86.5244 16.8154 86.7051 17.4795 86.7051 18.3291V18.4121ZM86.1191 18.3096C86.1191 17.6357 85.9808 17.1035 85.7041 16.7129C85.4274 16.3223 85.0417 16.127 84.5469 16.127C84.1888 16.127 83.8812 16.2132 83.624 16.3857C83.3669 16.5583 83.1699 16.8089 83.0332 17.1377V19.6719C83.1732 19.9746 83.3734 20.2057 83.6338 20.3652C83.8942 20.5247 84.2018 20.6045 84.5566 20.6045C85.0482 20.6045 85.4307 20.4092 85.7041 20.0186C85.9808 19.6247 86.1191 19.055 86.1191 18.3096ZM91.4756 15.7168H92.0615V21H91.4756V16.6592L88.624 21H88.043V15.7168H88.624V20.0625L91.4756 15.7168ZM97.4814 15.7168V21H96.8955V18.8711H95.2549L93.9658 21H93.3213L94.6494 18.7979C94.2881 18.7035 94.0065 18.5212 93.8047 18.251C93.6061 17.9808 93.5068 17.6618 93.5068 17.2939C93.5068 16.8154 93.6777 16.4329 94.0195 16.1465C94.3646 15.86 94.8301 15.7168 95.416 15.7168H97.4814ZM94.0928 17.3037C94.0928 17.613 94.1904 17.8669 94.3857 18.0654C94.5843 18.264 94.8594 18.3665 95.2109 18.373H96.8955V16.2148H95.4014C94.9945 16.2148 94.6738 16.3125 94.4395 16.5078C94.2083 16.7031 94.0928 16.9684 94.0928 17.3037ZM102.853 16.2148H100.929V21H100.343V16.2148H98.4922V15.7168H102.853V16.2148ZM107.286 15.7168H107.872V21H107.286V16.6592L104.435 21H103.854V15.7168H104.435V20.0625L107.286 15.7168ZM111.485 21.0977C111.036 21.0977 110.629 20.987 110.265 20.7656C109.903 20.5443 109.622 20.2367 109.42 19.8428C109.218 19.4456 109.117 19.0013 109.117 18.5098V18.2998C109.117 17.792 109.215 17.3346 109.41 16.9277C109.609 16.5208 109.884 16.2018 110.235 15.9707C110.587 15.7363 110.968 15.6191 111.378 15.6191C112.019 15.6191 112.527 15.8389 112.901 16.2783C113.279 16.7145 113.468 17.3118 113.468 18.0703V18.3975H109.698V18.5098C109.698 19.1087 109.869 19.6084 110.211 20.0088C110.556 20.4059 110.989 20.6045 111.51 20.6045C111.822 20.6045 112.097 20.5475 112.335 20.4336C112.576 20.3197 112.794 20.1374 112.989 19.8867L113.355 20.165C112.926 20.7868 112.302 21.0977 111.485 21.0977ZM111.378 16.1172C110.938 16.1172 110.567 16.2783 110.265 16.6006C109.965 16.9229 109.783 17.3558 109.718 17.8994H112.887V17.8359C112.87 17.3281 112.726 16.9147 112.452 16.5957C112.179 16.2767 111.821 16.1172 111.378 16.1172ZM117.481 18.3828L118.829 20.2773H118.316L116.876 18.4268V18.334L118.316 16.4834H118.829L117.481 18.3828ZM118.99 18.3828L120.338 20.2773H119.825L118.385 18.4268V18.334L119.825 16.4834H120.338L118.99 18.3828ZM126.559 14.4033H124.122V21H123.521V14.4033H121.09V13.8906H126.559V14.4033ZM130.909 21C130.851 20.834 130.813 20.5882 130.797 20.2627C130.592 20.5296 130.33 20.7363 130.011 20.8828C129.695 21.026 129.36 21.0977 129.005 21.0977C128.497 21.0977 128.085 20.9561 127.77 20.6729C127.457 20.3896 127.301 20.0316 127.301 19.5986C127.301 19.0843 127.514 18.6774 127.94 18.3779C128.37 18.0785 128.967 17.9287 129.732 17.9287H130.792V17.3281C130.792 16.9505 130.675 16.6543 130.44 16.4395C130.209 16.2214 129.871 16.1123 129.425 16.1123C129.018 16.1123 128.681 16.2165 128.414 16.4248C128.147 16.6331 128.014 16.8838 128.014 17.1768L127.428 17.1719C127.428 16.752 127.623 16.389 128.014 16.083C128.404 15.7738 128.884 15.6191 129.454 15.6191C130.043 15.6191 130.507 15.7673 130.846 16.0635C131.188 16.3564 131.363 16.7666 131.373 17.2939V19.7939C131.373 20.305 131.427 20.6875 131.534 20.9414V21H130.909ZM129.073 20.5801C129.464 20.5801 129.812 20.4857 130.118 20.2969C130.427 20.1081 130.652 19.8558 130.792 19.54V18.3779H129.747C129.164 18.3844 128.709 18.4919 128.38 18.7002C128.051 18.9053 127.887 19.1885 127.887 19.5498C127.887 19.846 127.996 20.0918 128.214 20.2871C128.435 20.4824 128.722 20.5801 129.073 20.5801ZM132.813 20.5068L133.072 20.1699C133.482 19.6133 133.718 18.7995 133.78 17.7285L133.873 15.7168H136.993V20.5068H137.54V22.5527H136.959V21H132.989V22.5527H132.428L132.433 20.5068H132.813ZM133.487 20.5068H136.407V16.2637H134.43L134.366 17.6357C134.308 18.8955 134.015 19.8525 133.487 20.5068ZM142.706 18.5586H142.003V21H141.417V18.5586H140.719L138.766 21H138.023L140.211 18.29L138.268 15.7168H138.976L140.709 18.0361H141.417V15.7168H142.003V18.0361H142.716L144.449 15.7168H145.167L143.214 18.29L145.406 21H144.659L142.706 18.5586ZM149.815 15.7168H150.401V21H149.815V16.6592L146.964 21H146.383V15.7168H146.964V20.0625L149.815 15.7168ZM156.026 21H155.44V18.5781H152.594V21H152.008V15.7168H152.594V18.085H155.44V15.7168H156.026V21ZM157.657 21V15.7168H159.596C160.266 15.7168 160.781 15.8372 161.139 16.0781C161.497 16.3158 161.676 16.6657 161.676 17.1279C161.676 17.3916 161.596 17.6276 161.437 17.8359C161.277 18.041 161.044 18.1908 160.738 18.2852C161.083 18.3503 161.36 18.4984 161.568 18.7295C161.78 18.9606 161.886 19.2292 161.886 19.5352C161.886 20.0007 161.713 20.362 161.368 20.6191C161.026 20.873 160.541 21 159.913 21H157.657ZM158.238 18.5684V20.5117H159.933C160.372 20.5117 160.711 20.4271 160.948 20.2578C161.186 20.0885 161.305 19.8444 161.305 19.5254C161.305 19.2324 161.186 18.9997 160.948 18.8271C160.711 18.6546 160.372 18.5684 159.933 18.5684H158.238ZM158.238 18.0801H159.718C160.636 18.0671 161.095 17.7546 161.095 17.1426C161.095 16.8203 160.968 16.5859 160.714 16.4395C160.463 16.2897 160.09 16.2148 159.596 16.2148H158.238V18.0801ZM165.235 21.0977C164.786 21.0977 164.379 20.987 164.015 20.7656C163.653 20.5443 163.372 20.2367 163.17 19.8428C162.968 19.4456 162.867 19.0013 162.867 18.5098V18.2998C162.867 17.792 162.965 17.3346 163.16 16.9277C163.359 16.5208 163.634 16.2018 163.985 15.9707C164.337 15.7363 164.718 15.6191 165.128 15.6191C165.769 15.6191 166.277 15.8389 166.651 16.2783C167.029 16.7145 167.218 17.3118 167.218 18.0703V18.3975H163.448V18.5098C163.448 19.1087 163.619 19.6084 163.961 20.0088C164.306 20.4059 164.739 20.6045 165.26 20.6045C165.572 20.6045 165.847 20.5475 166.085 20.4336C166.326 20.3197 166.544 20.1374 166.739 19.8867L167.105 20.165C166.676 20.7868 166.052 21.0977 165.235 21.0977ZM165.128 16.1172C164.688 16.1172 164.317 16.2783 164.015 16.6006C163.715 16.9229 163.533 17.3558 163.468 17.8994H166.637V17.8359C166.62 17.3281 166.476 16.9147 166.202 16.5957C165.929 16.2767 165.571 16.1172 165.128 16.1172ZM170.309 20.6045C170.715 20.6045 171.056 20.4906 171.329 20.2627C171.606 20.0316 171.756 19.7337 171.778 19.3691H172.34C172.324 19.6914 172.223 19.986 172.037 20.2529C171.852 20.5166 171.604 20.7233 171.295 20.873C170.989 21.0228 170.66 21.0977 170.309 21.0977C169.615 21.0977 169.065 20.8568 168.658 20.375C168.255 19.8932 168.053 19.2454 168.053 18.4316V18.2559C168.053 17.735 168.144 17.2744 168.326 16.874C168.508 16.4736 168.769 16.1644 169.107 15.9463C169.449 15.7282 169.848 15.6191 170.304 15.6191C170.883 15.6191 171.36 15.7917 171.734 16.1367C172.112 16.4818 172.314 16.9359 172.34 17.499H171.778C171.752 17.0856 171.603 16.752 171.329 16.498C171.059 16.2441 170.717 16.1172 170.304 16.1172C169.776 16.1172 169.366 16.3076 169.073 16.6885C168.784 17.0693 168.639 17.6032 168.639 18.29V18.4609C168.639 19.1348 168.784 19.6605 169.073 20.0381C169.366 20.4157 169.778 20.6045 170.309 20.6045ZM177.306 16.2148H175.382V21H174.796V16.2148H172.945V15.7168H177.306V16.2148ZM178.585 16.3906L180.025 18.2656V18.3584L178.585 20.209H178.067L179.415 18.3145L178.067 16.3906H178.585ZM180.143 16.3906L181.583 18.2656V18.3584L180.143 20.209H179.625L180.973 18.3145L179.625 16.3906H180.143Z" fill="black"/>
<defs>
<clipPath id="clip0_812_1670">
<rect width="39.1337" height="50" fill="white" transform="translate(0 0.94165)"/>
</clipPath>
</defs>
</svg>
