<svg width="217" height="64" viewBox="0 0 217 64" fill="none" xmlns="http://www.w3.org/2000/svg">
<path fill-rule="evenodd" clip-rule="evenodd" d="M19.4607 36.2109L15.4386 32.1889L19.462 28.1656L23.4853 32.1876L19.4607 36.2109ZM30.0147 25.6582L25.1248 30.5481L19.462 24.8853L17.8263 26.5248L13.803 30.5481L8.91311 25.6621L7.27229 27.3016L12.1583 32.1889L19.4607 39.4912L21.1015 37.8517L25.1248 33.8271L26.7643 32.1876L31.6542 27.2977L30.0147 25.6582Z" fill="#246EB7"/>
<path fill-rule="evenodd" clip-rule="evenodd" d="M19.9252 7.58442C19.8034 7.5986 19.6809 7.60555 19.5583 7.60524C19.0657 7.60494 18.5791 7.49708 18.1325 7.28919C17.6859 7.08129 17.2901 6.77838 16.9728 6.40163L19.4854 3.89031L21.1093 5.51291L22.0748 6.4784C21.5205 7.10132 20.7542 7.4956 19.9252 7.58442V7.58442ZM19.4893 0.537109H19.4815L19.1497 0.870217L17.8068 2.21176L16.2038 3.81614C16.2038 3.82915 16.2038 3.84346 16.2038 3.85778L16.1855 3.83826L12.4771 7.54148L7.47398 12.5459L5.79673 14.2245L1.67843 18.3415L-0.00012207 20.02L1.67843 21.6973L3.35698 20.02L7.47268 15.903L9.14993 14.2245L14.1531 9.22003L15.181 8.19208C15.7057 8.77015 16.3393 9.23888 17.0456 9.57136C17.4401 9.75739 17.8544 9.89838 18.2805 9.99165C18.5479 10.0508 18.8193 10.0908 19.0924 10.1114C19.2447 10.1244 19.3982 10.1296 19.5543 10.1296C19.6545 10.1296 19.7547 10.1296 19.8536 10.1218C20.1157 10.1088 20.3765 10.078 20.6343 10.0294C21.0889 9.94579 21.5319 9.80819 21.9538 9.6195C22.6712 9.29952 23.3176 8.83943 23.8548 8.26625L37.2858 21.6908L38.9644 20.0122L19.4893 0.537109Z" fill="#246EB7"/>
<path fill-rule="evenodd" clip-rule="evenodd" d="M35.2729 23.679L33.6334 25.3198L27.9705 19.657L27.6322 19.994V19.9953L25.9927 21.6348L24.3961 23.2548L22.7579 21.6153L24.3519 19.9953V19.994L19.4659 15.108L14.5759 19.9979V19.9992L16.179 21.5932L14.5395 23.234L12.9364 21.6387V21.6374L11.2956 19.9992V19.9979L10.9573 19.6609L6.93399 23.6842L5.29447 25.3237L3.65366 23.6829L9.31649 18.0201L10.9573 16.3792L12.9364 18.3584L17.8263 13.4685L19.4659 11.8276L25.9927 18.3545V18.3558L27.9705 16.3766L35.2729 23.679Z" fill="#246EB7"/>
<path fill-rule="evenodd" clip-rule="evenodd" d="M0.10527 42.8391V43.9321H1.51968V49.0432H2.951V43.9321H4.28603L4.43828 42.8391H0.10527ZM9.21369 49.0432H7.74073L7.46357 47.6913H5.88782L5.61066 49.0432H4.16372L5.83447 42.8391H7.55335L9.21889 49.0432H9.21369ZM6.67634 43.8866L6.10381 46.662H7.24887L6.67634 43.8866V43.8866ZM11.5272 42.8456H10.0959V48.0504C10.1007 48.2815 10.0824 48.5126 10.0413 48.7401C10.0022 48.9061 9.92266 49.0599 9.80964 49.1877C9.65836 49.3355 9.47863 49.451 9.28135 49.5273L9.6574 50.5383C10.1754 50.374 10.6454 50.0854 11.0263 49.6977C11.3581 49.3399 11.5272 48.8116 11.5272 48.1038V42.8391V42.8456ZM12.7634 42.8456V49.0497H14.1947V42.8391L12.7634 42.8456ZM19.825 42.8456H18.5719V45.4064C18.5717 46.1835 18.6378 46.9592 18.7697 47.7251L17.2213 42.8456H15.4491V49.0497H16.7021V46.7297C16.7021 46.273 16.6839 45.8605 16.6566 45.5118C16.6292 45.1631 16.585 44.7779 16.5264 44.3485C16.5236 44.2884 16.5175 44.2284 16.5082 44.1689L18.0306 49.0393H19.8198V42.8391L19.825 42.8456ZM23.9615 42.8456L23.0038 47.9203L21.9629 42.8456H20.4964L22.0722 49.0497H23.8808L25.3928 42.8456H23.9615ZM26.0643 42.8456V49.0497H29.5554V48.0088H27.4969V46.3927H29.1793V45.3908H27.4969V43.8671H29.4214L29.5736 42.8456H26.0643ZM32.3491 42.6934C31.9844 42.6859 31.6228 42.7625 31.2925 42.9172C30.9929 43.0556 30.7362 43.2722 30.5495 43.5444C30.3697 43.8243 30.2765 44.1511 30.2815 44.4838C30.2663 44.8926 30.4057 45.2921 30.6718 45.6029C30.9321 45.8982 31.3797 46.1585 31.9964 46.3836C32.2822 46.4662 32.5479 46.6066 32.7772 46.7961C32.8461 46.8688 32.8999 46.9547 32.9352 47.0485C32.9705 47.1424 32.9867 47.2424 32.9828 47.3426C32.9885 47.4484 32.9714 47.5543 32.9328 47.6531C32.8942 47.7518 32.835 47.8412 32.759 47.9151C32.5839 48.0675 32.3557 48.1447 32.124 48.1298C31.8799 48.1297 31.6386 48.0778 31.4161 47.9775C31.1731 47.8632 30.9471 47.7156 30.7447 47.539L30.0472 48.3198C30.3263 48.6084 30.6623 48.8358 31.0339 48.9877C31.4055 49.1396 31.8046 49.2126 32.2059 49.202C32.6224 49.2118 33.0355 49.1259 33.4135 48.9508C33.7358 48.7952 34.0087 48.5533 34.202 48.2521C34.3841 47.9468 34.4769 47.5965 34.47 47.2411C34.4807 46.9269 34.4165 46.6147 34.2827 46.3302C34.154 46.0856 33.97 45.8744 33.7453 45.7135C33.4534 45.5258 33.1407 45.3726 32.8136 45.2567C32.5867 45.1763 32.3654 45.0807 32.1513 44.9705C32.0278 44.9101 31.9207 44.8208 31.839 44.7102C31.7744 44.6125 31.743 44.4967 31.7492 44.3797C31.7444 44.2923 31.7596 44.2048 31.7937 44.1241C31.8277 44.0434 31.8797 43.9715 31.9457 43.9139C32.0973 43.7921 32.289 43.7313 32.4831 43.7434C32.8852 43.7434 33.2885 43.9139 33.6737 44.2444L34.3243 43.4936C34.076 43.24 33.7814 43.0363 33.4564 42.8938C33.1034 42.7543 32.7259 42.687 32.3465 42.696L32.3491 42.6934ZM34.8018 42.8456V43.9386H36.2162V49.0497H37.6476V43.9321H38.9813L39.1335 42.8391L34.8018 42.8456Z" fill="#246EB7"/>
<path d="M59.9219 18.7891C59.9219 18.3952 59.7835 18.0843 59.5068 17.8564C59.2301 17.6253 58.724 17.4072 57.9883 17.2021C57.2526 16.9938 56.7155 16.7676 56.377 16.5234C55.8952 16.1784 55.6543 15.7259 55.6543 15.166C55.6543 14.6224 55.8773 14.1813 56.3232 13.8428C56.7725 13.501 57.3454 13.3301 58.042 13.3301C58.514 13.3301 58.9355 13.4212 59.3066 13.6035C59.681 13.7858 59.9707 14.0397 60.1758 14.3652C60.3809 14.6908 60.4834 15.0537 60.4834 15.4541H59.8779C59.8779 14.9691 59.7119 14.5801 59.3799 14.2871C59.0479 13.9909 58.6019 13.8428 58.042 13.8428C57.4984 13.8428 57.0654 13.9648 56.7432 14.209C56.4209 14.4499 56.2598 14.7656 56.2598 15.1562C56.2598 15.5176 56.4046 15.8122 56.6943 16.04C56.984 16.2679 57.4479 16.4697 58.0859 16.6455C58.724 16.818 59.2074 16.9987 59.5361 17.1875C59.8649 17.373 60.1123 17.596 60.2783 17.8564C60.4443 18.1169 60.5273 18.4245 60.5273 18.7793C60.5273 19.3392 60.3027 19.7884 59.8535 20.127C59.4076 20.4655 58.8184 20.6348 58.0859 20.6348C57.5846 20.6348 57.124 20.5452 56.7041 20.3662C56.2874 20.1872 55.9701 19.9365 55.752 19.6143C55.5371 19.292 55.4297 18.9225 55.4297 18.5059H56.0303C56.0303 19.0072 56.2174 19.4027 56.5918 19.6924C56.9661 19.9821 57.4642 20.127 58.0859 20.127C58.6393 20.127 59.0837 20.0049 59.4189 19.7607C59.7542 19.5166 59.9219 19.1927 59.9219 18.7891ZM66.6504 13.9404H64.2139V20.5371H63.6133V13.9404H61.1816V13.4277H66.6504V13.9404ZM71.25 18.5449H68.0225L67.29 20.5371H66.6602L69.3506 13.4277H69.9219L72.6123 20.5371H71.9873L71.25 18.5449ZM68.208 18.0322H71.0596L69.6338 14.1602L68.208 18.0322ZM77.8516 13.9404H75.415V20.5371H74.8145V13.9404H72.3828V13.4277H77.8516V13.9404ZM82.9297 17.1289H79.6045V20.0293H83.4277V20.5371H79.0039V13.4277H83.4033V13.9404H79.6045V16.6211H82.9297V17.1289ZM92.0264 13.4277V18.2812C92.0231 18.7598 91.9173 19.1764 91.709 19.5312C91.5007 19.8861 91.2061 20.1595 90.8252 20.3516C90.4476 20.5404 90.013 20.6348 89.5215 20.6348C88.7728 20.6348 88.1722 20.4313 87.7197 20.0244C87.2705 19.6143 87.0378 19.0479 87.0215 18.3252V13.4277H87.6172V18.2373C87.6172 18.8363 87.7881 19.3018 88.1299 19.6338C88.4717 19.9626 88.9355 20.127 89.5215 20.127C90.1074 20.127 90.5697 19.9609 90.9082 19.6289C91.25 19.2969 91.4209 18.8346 91.4209 18.2422V13.4277H92.0264ZM98.9941 20.5371H98.3936L94.3066 14.4531V20.5371H93.7012V13.4277H94.3066L98.3984 19.5166V13.4277H98.9941V20.5371ZM101.533 20.5371H100.933V13.4277H101.533V20.5371ZM108.145 13.9404H105.708V20.5371H105.107V13.9404H102.676V13.4277H108.145V13.9404ZM112.744 18.5449H109.517L108.784 20.5371H108.154L110.845 13.4277H111.416L114.106 20.5371H113.481L112.744 18.5449ZM109.702 18.0322H112.554L111.128 14.1602L109.702 18.0322ZM117.812 17.5781H115.747V20.5371H115.142V13.4277H117.451C118.21 13.4277 118.802 13.6117 119.229 13.9795C119.655 14.3473 119.868 14.8617 119.868 15.5225C119.868 15.9782 119.735 16.3802 119.468 16.7285C119.201 17.0768 118.843 17.3177 118.394 17.4512L120.171 20.4736V20.5371H119.531L117.812 17.5781ZM115.747 17.0654H117.588C118.092 17.0654 118.498 16.9222 118.804 16.6357C119.11 16.3493 119.263 15.9782 119.263 15.5225C119.263 15.0212 119.103 14.6322 118.784 14.3555C118.465 14.0788 118.018 13.9404 117.441 13.9404H115.747V17.0654ZM123.354 17.3047L125.527 13.4277H126.221L123.652 17.8613V20.5371H123.052V17.8613L120.488 13.4277H121.201L123.354 17.3047ZM133.613 17.1289H130.288V20.0293H134.111V20.5371H129.688V13.4277H134.087V13.9404H130.288V16.6211H133.613V17.1289ZM140.674 20.5371H140.073L135.986 14.4531V20.5371H135.381V13.4277H135.986L140.078 19.5166V13.4277H140.674V20.5371ZM147.158 13.9404H144.722V20.5371H144.121V13.9404H141.689V13.4277H147.158V13.9404ZM152.236 17.1289H148.911V20.0293H152.734V20.5371H148.311V13.4277H152.71V13.9404H148.911V16.6211H152.236V17.1289ZM156.66 17.5781H154.595V20.5371H153.989V13.4277H156.299C157.057 13.4277 157.65 13.6117 158.076 13.9795C158.503 14.3473 158.716 14.8617 158.716 15.5225C158.716 15.9782 158.582 16.3802 158.315 16.7285C158.049 17.0768 157.69 17.3177 157.241 17.4512L159.019 20.4736V20.5371H158.379L156.66 17.5781ZM154.595 17.0654H156.436C156.94 17.0654 157.345 16.9222 157.651 16.6357C157.957 16.3493 158.11 15.9782 158.11 15.5225C158.11 15.0212 157.951 14.6322 157.632 14.3555C157.313 14.0788 156.865 13.9404 156.289 13.9404H154.595V17.0654ZM160.952 17.6416V20.5371H160.352V13.4277H162.773C163.512 13.4277 164.095 13.6165 164.521 13.9941C164.951 14.3717 165.166 14.891 165.166 15.5518C165.166 16.2191 164.959 16.735 164.546 17.0996C164.136 17.4609 163.54 17.6416 162.759 17.6416H160.952ZM160.952 17.1338H162.773C163.356 17.1338 163.8 16.9954 164.106 16.7188C164.412 16.4421 164.565 16.0563 164.565 15.5615C164.565 15.07 164.412 14.6794 164.106 14.3896C163.804 14.0967 163.372 13.9469 162.812 13.9404H160.952V17.1338ZM169.17 17.5781H167.104V20.5371H166.499V13.4277H168.809C169.567 13.4277 170.16 13.6117 170.586 13.9795C171.012 14.3473 171.226 14.8617 171.226 15.5225C171.226 15.9782 171.092 16.3802 170.825 16.7285C170.558 17.0768 170.2 17.3177 169.751 17.4512L171.528 20.4736V20.5371H170.889L169.17 17.5781ZM167.104 17.0654H168.945C169.45 17.0654 169.855 16.9222 170.161 16.6357C170.467 16.3493 170.62 15.9782 170.62 15.5225C170.62 15.0212 170.461 14.6322 170.142 14.3555C169.823 14.0788 169.375 13.9404 168.799 13.9404H167.104V17.0654ZM173.594 20.5371H172.993V13.4277H173.594V20.5371ZM179.551 18.7891C179.551 18.3952 179.412 18.0843 179.136 17.8564C178.859 17.6253 178.353 17.4072 177.617 17.2021C176.882 16.9938 176.344 16.7676 176.006 16.5234C175.524 16.1784 175.283 15.7259 175.283 15.166C175.283 14.6224 175.506 14.1813 175.952 13.8428C176.401 13.501 176.974 13.3301 177.671 13.3301C178.143 13.3301 178.564 13.4212 178.936 13.6035C179.31 13.7858 179.6 14.0397 179.805 14.3652C180.01 14.6908 180.112 15.0537 180.112 15.4541H179.507C179.507 14.9691 179.341 14.5801 179.009 14.2871C178.677 13.9909 178.231 13.8428 177.671 13.8428C177.127 13.8428 176.694 13.9648 176.372 14.209C176.05 14.4499 175.889 14.7656 175.889 15.1562C175.889 15.5176 176.034 15.8122 176.323 16.04C176.613 16.2679 177.077 16.4697 177.715 16.6455C178.353 16.818 178.836 16.9987 179.165 17.1875C179.494 17.373 179.741 17.596 179.907 17.8564C180.073 18.1169 180.156 18.4245 180.156 18.7793C180.156 19.3392 179.932 19.7884 179.482 20.127C179.036 20.4655 178.447 20.6348 177.715 20.6348C177.214 20.6348 176.753 20.5452 176.333 20.3662C175.916 20.1872 175.599 19.9365 175.381 19.6143C175.166 19.292 175.059 18.9225 175.059 18.5059H175.659C175.659 19.0072 175.846 19.4027 176.221 19.6924C176.595 19.9821 177.093 20.127 177.715 20.127C178.268 20.127 178.713 20.0049 179.048 19.7607C179.383 19.5166 179.551 19.1927 179.551 18.7891ZM185.381 17.1289H182.056V20.0293H185.879V20.5371H181.455V13.4277H185.854V13.9404H182.056V16.6211H185.381V17.1289ZM56.1865 25.7207L56.0889 27.249H55.6982L55.7129 25.0371H56.1865V25.7207ZM57.3389 25.7207L57.2412 27.249H56.8457L56.8652 25.0371H57.3389V25.7207ZM63.5938 25.9404H61.1572V32.5371H60.5566V25.9404H58.125V25.4277H63.5938V25.9404ZM68.1934 30.5449H64.9658L64.2334 32.5371H63.6035L66.2939 25.4277H66.8652L69.5557 32.5371H68.9307L68.1934 30.5449ZM65.1514 30.0322H68.0029L66.5771 26.1602L65.1514 30.0322ZM73.7451 25.4277H74.3506V30.4229C74.3506 31.0967 74.1553 31.6338 73.7646 32.0342C73.3773 32.4346 72.8564 32.6348 72.2021 32.6348C71.512 32.6348 70.9814 32.4541 70.6104 32.0928C70.2393 31.7314 70.0537 31.2269 70.0537 30.5791H70.6543C70.6543 31.0934 70.7894 31.4808 71.0596 31.7412C71.3298 31.9984 71.7106 32.127 72.2021 32.127C72.6546 32.127 73.0225 31.9772 73.3057 31.6777C73.5921 31.3783 73.7386 30.9714 73.7451 30.457V25.4277ZM76.8457 32.5371H76.2451V25.4277H76.8457V32.5371ZM84.0723 32.5371H83.4717L79.3848 26.4531V32.5371H78.7793V25.4277H79.3848L83.4766 31.5166V25.4277H84.0723V32.5371ZM88.0225 31.6582L88.0615 31.8096L88.1055 31.6582L90.3418 25.4277H91.001L88.3545 32.5371H87.7783L85.1318 25.4277H85.7861L88.0225 31.6582ZM95.9766 29.1289H92.6514V32.0293H96.4746V32.5371H92.0508V25.4277H96.4502V25.9404H92.6514V28.6211H95.9766V29.1289ZM101.768 30.7891C101.768 30.3952 101.629 30.0843 101.353 29.8564C101.076 29.6253 100.57 29.4072 99.834 29.2021C99.0983 28.9938 98.5612 28.7676 98.2227 28.5234C97.7409 28.1784 97.5 27.7259 97.5 27.166C97.5 26.6224 97.723 26.1813 98.1689 25.8428C98.6182 25.501 99.1911 25.3301 99.8877 25.3301C100.36 25.3301 100.781 25.4212 101.152 25.6035C101.527 25.7858 101.816 26.0397 102.021 26.3652C102.227 26.6908 102.329 27.0537 102.329 27.4541H101.724C101.724 26.9691 101.558 26.5801 101.226 26.2871C100.894 25.9909 100.448 25.8428 99.8877 25.8428C99.3441 25.8428 98.9111 25.9648 98.5889 26.209C98.2666 26.4499 98.1055 26.7656 98.1055 27.1562C98.1055 27.5176 98.2503 27.8122 98.54 28.04C98.8298 28.2679 99.2936 28.4697 99.9316 28.6455C100.57 28.818 101.053 28.9987 101.382 29.1875C101.711 29.373 101.958 29.596 102.124 29.8564C102.29 30.1169 102.373 30.4245 102.373 30.7793C102.373 31.3392 102.148 31.7884 101.699 32.127C101.253 32.4655 100.664 32.6348 99.9316 32.6348C99.4303 32.6348 98.9697 32.5452 98.5498 32.3662C98.1331 32.1872 97.8158 31.9365 97.5977 31.6143C97.3828 31.292 97.2754 30.9225 97.2754 30.5059H97.876C97.876 31.0072 98.0632 31.4027 98.4375 31.6924C98.8118 31.9821 99.3099 32.127 99.9316 32.127C100.485 32.127 100.929 32.0049 101.265 31.7607C101.6 31.5166 101.768 31.1927 101.768 30.7891ZM108.496 25.9404H106.06V32.5371H105.459V25.9404H103.027V25.4277H108.496V25.9404ZM109.937 25.7207L109.839 27.249H109.448L109.463 25.0371H109.937V25.7207ZM111.089 25.7207L110.991 27.249H110.596L110.615 25.0371H111.089V25.7207Z" fill="black"/>
</svg>
