<svg width="59" height="59" viewBox="0 0 59 59" fill="none" xmlns="http://www.w3.org/2000/svg">
<path d="M52.9225 11.0625L37.7969 26.0084V11.0625H33.8184L19.3594 25.728V1.84375H1.84375V57.1562H57.1562V11.0625H52.9225ZM53.4688 53.4688H5.53125V5.53125H15.6719V30.4219H19.91L34.1094 16.0197V30.4219H38.5763L53.4688 15.7064V53.4688Z" fill="#D7E2FF"/>
<path d="M15.6719 37.7969V38.7188H19.3594V35.0312H15.6719V37.7969Z" fill="#D7E2FF"/>
<path d="M15.6719 43.3281H19.3594V47.0156H15.6719V43.3281Z" fill="#D7E2FF"/>
<path d="M24.8906 37.7969V38.7188H28.5781V35.0312H24.8906V37.7969Z" fill="#D7E2FF"/>
<path d="M24.8906 43.3281H28.5781V47.0156H24.8906V43.3281Z" fill="#D7E2FF"/>
<path d="M34.1094 37.7969V38.7188H37.7969V35.0312H34.1094V37.7969Z" fill="#D7E2FF"/>
<path d="M34.1094 43.3281H37.7969V47.0156H34.1094V43.3281Z" fill="#D7E2FF"/>
<path d="M43.3281 35.0312H47.0156V38.7188H43.3281V35.0312Z" fill="#D7E2FF"/>
<path d="M43.3281 43.3281H47.0156V47.0156H43.3281V43.3281Z" fill="#D7E2FF"/>
</svg>
