<svg width="59" height="59" viewBox="0 0 59 59" fill="none" xmlns="http://www.w3.org/2000/svg">
<path d="M47.9375 11.0625V3.6875H3.6875V22.125H20.2812V55.3125H55.3125V11.0625H47.9375ZM7.375 18.4375V7.375H44.25V11.0625H20.2812V18.4375H7.375ZM51.625 51.625H23.9688V14.75H51.625V51.625Z" fill="#D7E2FF"/>
<path d="M27.6562 20.2812H31.3438V23.9688H27.6562V20.2812Z" fill="#D7E2FF"/>
<path d="M35.0312 20.2812H47.9375V23.9688H35.0312V20.2812Z" fill="#D7E2FF"/>
<path d="M27.6562 31.3438H31.3438V35.0312H27.6562V31.3438Z" fill="#D7E2FF"/>
<path d="M35.0312 31.3438H47.9375V35.0312H35.0312V31.3438Z" fill="#D7E2FF"/>
<path d="M27.6562 42.4062H31.3438V46.0938H27.6562V42.4062Z" fill="#D7E2FF"/>
<path d="M35.0312 42.4062H47.9375V46.0938H35.0312V42.4062Z" fill="#D7E2FF"/>
</svg>
