<svg width="64" height="59" viewBox="0 0 64 59" fill="none" xmlns="http://www.w3.org/2000/svg">
<g clip-path="url(#clip0)">
<path fill-rule="evenodd" clip-rule="evenodd" d="M39.6667 56.3581H24.3889L28.0556 54.2939C32.7778 51.8458 30.8333 51.5577 38.7222 55.6861C38.8333 55.7341 39.0556 55.8781 39.1667 55.9261C39.8333 56.3581 39.3333 55.9741 39.6667 56.3581ZM31.0556 7.58628C33.7222 6.24218 35.2778 9.93847 32.8889 10.7545C30.3889 11.6186 28.6667 8.73837 31.0556 7.58628ZM30.5556 4.70606C30.1111 5.66613 29.2778 4.80206 27.4445 7.39427L27 7.8743H10.7778C9.16667 7.8743 6.72223 7.49027 6.72223 9.17041C6.72223 10.7545 9.05556 10.3225 10.7778 10.3225H27.2778C27.8333 12.0506 28.8889 12.5787 30.5556 13.2987V50.0696C28.3889 51.3657 25.5556 52.6618 23.1667 53.9099C22.5556 54.1979 17.8333 56.5021 17.5556 56.8861C17 57.6542 17.4445 58.3263 18.1667 58.7103C18.6667 58.9023 40.8889 58.9983 44.8333 58.8543C46.4445 58.8063 46.7222 58.3743 46.6111 56.9822C43.6667 54.966 37.2222 52.2778 34.1667 50.5016C33.4445 50.0696 33.8333 50.5016 33.4445 49.8296V13.1547C35.4445 12.6747 37 11.2346 36.9445 8.97839C36.9445 7.8743 36.4445 7.05824 35.8333 6.43419C34.8333 5.2821 33.6111 5.3301 33.4445 4.70606C33.4445 3.16993 34.0556 0.193701 32.1667 0.0496901C29.8889 -0.142325 30.5556 3.16993 30.5556 4.70606Z" fill="#D7E2FF"/>
<path fill-rule="evenodd" clip-rule="evenodd" d="M53.5556 17.043L60.5 34.0363H46.5556L53.5556 17.043ZM43.0556 35.4285C43.2222 37.0606 46.2222 36.5805 47.9445 36.5805H60.3334C65.3334 36.5805 64.4445 36.1965 62.1667 30.5801C61.6111 29.236 61.1111 27.9879 60.5556 26.6918L55.6667 14.7868C55.2222 13.5867 54.8889 11.5226 53.0556 12.0026C51.8334 12.3386 51.4445 14.4988 51 15.6509C49.7222 18.6751 43 34.8044 43.0556 35.4285Z" fill="#D7E2FF"/>
<path fill-rule="evenodd" clip-rule="evenodd" d="M3.55556 34.0844C3.83333 32.9323 6.33333 27.2198 7 25.5397C7.55556 24.0516 8.11111 22.7075 8.72222 21.2194C9.33333 19.8753 9.66667 18.0991 10.5556 17.091L17.3889 34.0844H3.55556ZM0 35.4285C0.166667 37.0126 3.22222 36.5806 4.94444 36.5806C24.0556 36.5806 22 37.7807 19.1111 30.5801L12.6667 14.7389C12.2222 13.6348 11.8889 11.5226 10.0556 12.0026C8.94444 12.3387 8.44444 14.5468 7.94444 15.6509L0 35.4285H0Z" fill="#D7E2FF"/>
<path fill-rule="evenodd" clip-rule="evenodd" d="M38.7778 10.3225C41.9444 10.3705 54.8333 10.6585 56.8333 10.1784C57.7222 9.02636 57.4444 7.92227 55.3889 7.87427H38.8333L38.7778 10.3225Z" fill="#D7E2FF"/>
<path fill-rule="evenodd" clip-rule="evenodd" d="M3.38889 39.7489C3.88889 40.9009 9.27778 40.4689 11 40.4689C12.9444 40.4689 18.3889 41.285 17.6111 38.7888C17.1111 37.3487 11.8889 37.9727 9.88889 37.9727C6.94444 37.9727 2.44445 37.3967 3.38889 39.7489Z" fill="#D7E2FF"/>
<path fill-rule="evenodd" clip-rule="evenodd" d="M60.5556 39.7488C61.7778 37.3006 56.2778 37.9727 54.2778 37.9727C52.8334 37.9727 51.4445 37.9727 50 37.9727C48.5556 37.9727 46.9445 37.6846 46.5 38.6927C45.2778 41.2369 51.1111 40.4689 52.9445 40.4689C54.3334 40.4689 55.7778 40.4689 57.2222 40.4689C58.6667 40.4689 60.1111 40.7089 60.5556 39.7488Z" fill="#D7E2FF"/>
</g>
<defs>
<clipPath id="clip0">
<rect width="64" height="59" fill="white"/>
</clipPath>
</defs>
</svg>
