<svg width="68" height="68" viewBox="0 0 68 68" fill="none" xmlns="http://www.w3.org/2000/svg">
<g clip-path="url(#clip0_711_1842)">
<path fill-rule="evenodd" clip-rule="evenodd" d="M9.92062 58.5949C10.1658 58.5261 10.3803 58.4648 10.6254 58.396L25.4724 54.4243C25.8861 54.3172 26.6216 53.9805 26.8667 54.3708C27.0812 54.7075 28.3376 59.8499 28.33 60.3703C27.7324 60.7376 14.9692 64.0512 13.008 64.5409C12.3875 64.694 11.4375 65.0001 10.8016 65.0536C10.4645 63.9746 9.29241 59.7964 9.1775 58.8628L9.92062 58.5949V58.5949ZM11.9355 55.1819C11.2613 54.3861 4.96396 42.165 4.12891 40.5504C2.74227 37.8414 2.46647 34.2371 2.78057 30.7935C3.10233 27.3039 4.35874 20.1106 5.05589 16.2231C5.31636 14.7385 5.19379 12.4657 7.47676 13.208C8.45737 13.5218 8.57228 13.8126 8.54164 14.9452C8.51865 15.8099 8.40374 16.6593 8.31181 17.5087C8.14327 19.1693 7.39249 26.3474 7.0171 27.4646C6.68768 28.4518 6.61873 28.7426 6.87154 29.8063L8.5493 36.5099C8.89404 37.8567 9.28475 39.5785 9.75973 40.8794C10.3726 40.8871 11.7056 40.5121 12.2113 40.2749L9.39201 29.1788C9.11621 27.8855 9.63716 27.5411 10.6791 27.1968C11.9431 26.7682 12.5254 26.9136 12.962 28.0233C13.5749 29.5767 14.0422 31.7041 14.5019 33.4336C14.7087 34.2141 14.9156 35.561 15.4135 36.066L17.1526 37.8031C18.386 39.0428 21.2589 41.8972 22.0403 43.3435C22.7145 44.5909 23.1128 47.4759 23.3197 48.9834C23.4652 49.9782 23.7027 51.1797 23.6644 52.1745C21.8488 52.649 13.0999 55.1666 11.9355 55.1819V55.1819ZM-0.000366211 32.301V34.0534C0.0992267 34.3672 0.12221 35.3773 0.175837 35.8058C0.704445 39.7316 1.93786 42.3411 3.87609 45.7847C4.45067 46.8025 9.18516 55.6105 9.28475 55.9931C8.80977 56.3987 7.23161 56.414 6.49615 57.1257C6.05182 57.5465 6.28165 58.1052 6.4272 58.725C7.02476 61.1968 7.72191 63.9823 8.45737 66.3393C8.97831 67.9922 9.33838 68.1758 10.5795 67.8544C11.606 67.5866 12.602 67.3494 13.6439 67.0662C18.7154 65.6658 23.9172 64.4108 28.9735 62.9798C29.8468 62.7273 31.3178 62.4518 31.379 61.5029C31.4174 60.9749 29.4332 53.6285 28.9965 52.2434C28.4602 50.5292 27.0812 51.5011 26.3994 51.4322C25.8555 50.4603 25.8478 45.402 24.4842 42.4788C24.2007 41.8666 23.787 41.1932 23.4652 40.7799C22.8983 40.0606 22.1705 39.2877 21.527 38.6449L18.9223 35.8824C17.9723 34.834 17.6352 35.0329 17.2215 33.4948C16.8461 32.0944 16.4937 30.6863 16.0877 29.2859C15.6587 27.8243 15.3063 26.4009 14.3333 25.6051C12.6249 24.2123 11.6903 24.6715 10.1351 24.4495C10.1275 21.9319 11.629 15.6109 11.0161 13.6748C10.1581 10.9506 6.78727 9.05274 3.7382 12.1061C3.14064 12.703 2.95678 13.1545 2.75759 14.1569C2.32091 16.3685 1.81529 19.682 1.50119 21.8936L-0.000366211 32.301H-0.000366211Z" fill="white"/>
<path fill-rule="evenodd" clip-rule="evenodd" d="M39.6922 60.3552C39.7305 59.5135 41.0099 54.6618 41.324 54.1644C41.9062 54.1644 48.9849 56.1234 50.1954 56.4371C52.057 56.9346 57.504 58.5263 58.8753 58.7865C58.8753 59.567 57.5576 63.9978 57.2665 65.0615C56.5387 65.0309 40.4966 60.7379 39.6922 60.3552V60.3552ZM60.124 47.897C59.4499 49.1596 58.86 50.2922 58.1398 51.5855C57.8027 52.2053 56.4544 54.8301 56.1326 55.1745C55.3665 55.1745 45.0242 52.4731 44.4267 52.1441C44.2581 51.1952 45.0472 47.1164 45.2387 45.9609C45.4226 44.9125 45.5911 44.1166 46.0508 43.2825C46.6866 42.1423 48.3338 40.4511 49.2378 39.5175L50.9691 37.7804C51.559 37.1835 52.0876 36.6172 52.6852 36.0203C53.0529 35.6606 53.0376 35.4081 53.1985 34.7959C53.7348 32.7833 54.4396 29.6304 55.1291 27.9699C55.5811 26.8985 56.1403 26.7608 57.4427 27.2199C58.5152 27.5872 58.9442 27.9392 58.6608 29.2402C58.0709 31.9492 57.2588 34.8494 56.5387 37.5431C56.3625 38.2012 55.9105 39.617 55.8492 40.2827C56.3395 40.4893 57.7185 40.8949 58.3007 40.872C58.86 39.4256 60.7369 31.7425 61.2349 29.6151C61.48 28.5591 61.2732 28.2147 60.9974 27.2964C60.622 26.072 59.7256 17.1722 59.4192 14.8229C59.3426 14.203 59.3732 14.1265 59.695 13.7439C60.4075 12.9021 62.1006 12.8179 62.5296 13.7515C62.7211 14.1724 63.6711 20.1414 63.7936 20.876C64.3222 24.0977 64.9121 27.4418 65.2722 30.7324C65.6476 34.1148 65.3182 37.8416 63.9545 40.4893C62.7211 42.8922 61.4034 45.4941 60.124 47.897ZM67.9995 34.9872V31.4288C67.8846 31.1839 67.3713 26.8985 67.2641 26.2404L65.6169 16.1085C65.2799 14.1647 65.2492 12.9633 64.0771 11.8384C63.2497 11.0425 61.2119 10.0247 59.6337 10.7441C58.5305 11.2568 57.2895 12.5807 56.9677 13.9658C56.7149 15.0754 57.1899 18.0752 57.3431 19.2996L57.9483 24.5109C55.7956 24.5415 55.0295 24.5339 53.6581 25.6741C52.7618 26.4164 52.3405 28.0081 51.9497 29.4009C51.536 30.8395 51.1683 32.2399 50.7929 33.671C50.6474 34.2219 50.6857 34.3061 50.3792 34.6275C48.8087 36.2881 45.7367 39.2496 44.5109 40.9102C41.8602 44.4839 42.4501 50.4912 41.6304 51.4554C40.6804 51.4018 39.6462 50.5447 39.0486 52.3584C38.7269 53.3532 38.4587 54.4092 38.1829 55.4194C37.9301 56.3606 36.6278 61.0439 36.735 61.7097C36.8576 62.4903 38.3898 62.7275 39.3704 63.003C40.3663 63.2861 41.3623 63.5616 42.3888 63.8371L54.6541 67.1353C55.7343 67.4261 56.7149 67.671 57.7874 67.9388C59.0285 68.2603 59.312 67.2731 59.6414 66.2247C60.2619 64.1968 60.7752 62.2071 61.3038 60.1027C61.5873 58.9472 62.1235 57.6233 61.5336 57.0953C60.7522 56.3836 59.3503 56.4295 58.7757 55.9933C58.8829 55.603 63.6481 46.795 64.0005 46.1216C64.8815 44.438 65.7855 42.8999 66.5209 41.1015C67.7927 38.0099 67.854 35.3163 67.9995 34.9872Z" fill="white"/>
<path fill-rule="evenodd" clip-rule="evenodd" d="M30.7437 21.6642C30.1921 21.0214 29.6405 20.4628 29.1119 19.8199C28.5909 19.1848 28.0393 18.6491 27.5184 18.014C27.2579 17.6926 26.9974 17.3941 26.7063 17.0957L24.2701 14.3178C23.3049 13.1164 21.8952 11.8461 21.313 10.3997C20.5469 8.50191 21.1062 6.22147 22.1097 4.88229C24.7451 1.39275 31.7856 1.72181 32.6742 7.10916C32.8428 8.14225 32.8581 9.18298 34.0762 9.15237C35.21 9.12942 35.2636 8.02746 35.4245 7.00968C35.8689 4.07112 38.3357 2.54063 41.4001 2.63246C44.3879 2.72429 46.8087 4.99707 47.0309 7.42291C47.2531 9.77223 46.8087 10.8895 45.3991 12.596C45.108 12.9404 44.8705 13.1852 44.5947 13.5296L38.1212 20.876C37.539 21.5724 34.3673 25.1843 33.9766 25.3603L30.7437 21.6642V21.6642ZM27.6793 0H26.2926C25.9939 0.12244 25.1971 0.18366 24.7834 0.306099C20.0183 1.66824 16.3334 7.27752 19.5969 12.573C20.6312 14.2566 21.8186 15.2897 22.8375 16.5829L23.6802 17.5472C23.8794 17.7614 23.9331 17.8456 24.1016 18.0369L31.2799 26.2633C31.9158 26.9291 32.4138 27.5336 33.0037 28.1612C34.375 29.5922 34.7657 28.2683 36.114 27.0209C36.7346 26.447 38.3663 24.5262 39.0941 23.738L44.61 17.4706C44.8782 17.1569 45.1693 16.7819 45.4451 16.4911C46.0273 15.8713 46.5713 15.1902 47.1152 14.5397C48.2107 13.2235 49.2296 12.0068 49.5973 9.74927C50.3251 5.33378 47.1688 1.95904 44.4032 0.704029C41.6759 -0.543327 38.2055 0.0765248 35.8918 1.81364C35.1334 2.38758 34.7197 2.93856 34.0762 3.5278C33.4327 3.17578 33.042 2.29575 31.3489 1.28562C29.7171 0.313752 29.2651 0.428539 27.9397 0.0918298C27.9168 0.0841774 27.8938 0.0841774 27.8708 0.0765249L27.6793 0V0Z" fill="white"/>
</g>
<defs>
<clipPath id="clip0_711_1842">
<rect width="68" height="68" fill="white"/>
</clipPath>
</defs>
</svg>
