<svg width="68" height="68" viewBox="0 0 68 68" fill="none" xmlns="http://www.w3.org/2000/svg">
<g clip-path="url(#clip0_711_1937)">
<path fill-rule="evenodd" clip-rule="evenodd" d="M40.3763 30.7111C40.9742 29.7683 41.9019 29.2264 42.7988 28.5112C46.2934 25.7587 44.7161 25.8671 49.9838 29.5407L51.5301 30.7111C50.1281 30.5919 49.922 29.8225 48.8293 29.7574C47.953 29.7141 46.7779 30.646 45.9841 30.6244C45.0563 30.5919 44.2626 29.6491 43.376 29.7249C42.438 29.8008 41.7988 30.581 40.3763 30.7111ZM67.9928 34.0596V37.2239C67.7866 42.5013 66.5393 47.7138 64.2714 52.2001C66.6321 53.8581 67.7866 57.0008 67.9928 60.0242V61.9856C67.8382 64.1421 67.1887 66.0385 66.1373 67.003C63.2406 65.5401 65.8692 64.9549 65.8692 60.5769C65.8692 55.2778 60.3336 50.9539 56.3029 49.9678C56.7874 50.6505 56.8184 50.4229 57.4884 51.2465C62.2097 57.0441 57.8904 62.8742 53.4578 67.0789C52.0558 68.4009 51.5404 68.3251 50.726 66.7213C51.3239 65.5509 53.4578 63.8821 54.7773 62.3216C63.8591 51.6366 45.8913 46.24 38.5104 46.0666C39.4176 47.4754 39.4176 47.1611 38.5104 48.5807C34.4179 48.4832 36.2528 46.3375 36.3869 45.7848H31.8717L35.3251 47.7463C36.2013 48.3423 37.4486 49.5885 37.4486 51.084C37.4486 58.908 17.3676 65.1174 12.1515 67.1981C11.131 67.6099 8.50228 68.8236 8.50228 67.003C8.50228 65.41 10.3784 65.28 12.1206 64.6623C17.7903 62.6792 26.5834 59.0923 31.2944 55.7762C35.8199 52.6011 35.7993 52.1026 34.2633 49.6969C33.6345 50.1412 33.9128 49.9895 33.4386 50.4988L32.6036 51.3007C31.9954 51.7992 31.4697 52.1351 30.8202 52.4927C29.5214 53.1863 28.2844 53.7823 26.7381 54.335L3.89437 61.5955C3.14185 61.8448 2.33778 62.1374 1.6265 62.3216C1.04922 62.4733 0.00805664 62.5708 0.00805664 61.4221C0.00805664 59.7858 1.56464 59.8183 3.28617 59.2873C4.62628 58.8647 5.87361 58.3879 7.18279 58.0628C6.98693 57.3259 6.26533 56.4806 5.85299 55.8304C1.24508 48.5807 0.00805664 43.1082 0.00805664 34.0596C0.00805664 23.2771 6.32718 12.473 14.3472 6.4153L19.3881 3.34852C25.1093 0.390119 29.4595 0 35.8611 0C45.613 0 54.1691 5.78677 60.2202 12.9173C61.9623 14.9654 63.7869 18.1189 64.9002 20.5571C66.7867 24.6859 67.8072 29.3456 67.9928 34.0596V34.0596ZM9.30635 29.8766C9.57437 29.6274 9.83208 29.3782 10.1723 29.1072L16.7388 24.014L19.852 26.8857C20.4396 27.4059 20.7385 27.8719 21.3364 28.392C22.1508 29.0964 22.5425 28.9664 22.8518 30.1476C21.2539 30.1151 20.7488 29.4107 19.5324 29.2264C18.4912 29.0747 17.1718 30.1476 16.2028 30.1476C15.3678 30.1476 14.1204 28.923 12.935 29.2264C10.5846 29.8225 12.5742 30.1584 9.30635 29.8766V29.8766ZM2.39964 32.109C2.4821 28.0236 4.88399 21.8467 6.86323 18.3681C17.3161 0.0650214 42.0565 -3.22932 56.6431 12.2129C62.6633 18.574 65.1786 26.2897 65.8589 35.1974C66.0033 37.018 65.3847 41.4502 64.9106 43.3899C64.5601 44.8529 64.3539 45.7198 63.9106 47.0744C63.4983 48.3856 62.7767 49.3393 62.6839 50.5313C61.9314 50.3146 61.7768 50.0653 61.1376 49.6427C60.5913 49.2634 60.2202 49.09 59.5914 48.7541C58.4471 48.1581 57.4884 47.7354 56.2102 47.2803C53.5402 46.3375 51.6332 45.6765 48.7159 45.1021C38.0981 43.0432 32.8098 43.2707 22.3157 43.2707C19.151 43.2707 17.6563 45.3297 21.9343 46.1858C23.1507 46.4242 24.1816 46.6518 25.264 46.8793L31.8717 48.5807C30.913 50.087 29.1193 50.8564 27.2638 51.5391C23.4084 52.9695 13.3988 56.2964 9.56406 57.2284C5.82207 51.3441 3.71913 48.429 2.50272 40.3774C2.3584 39.4454 2.44087 38.6868 2.31717 37.7657C1.95637 35.0782 2.13161 35.5225 3.79129 34.1246C4.48196 33.5394 5.96639 32.2282 6.68798 31.8598C7.86316 31.2529 9.1208 32.6617 10.6258 32.6617C11.2134 32.6617 12.4814 31.7405 13.3267 31.7189C14.038 31.708 15.2234 32.6617 16.2028 32.6617C17.5119 32.6617 18.182 31.7731 19.1716 31.708C20.0478 31.6647 21.1405 32.6617 22.0477 32.6617C22.9033 32.6617 24.0785 32.044 24.9753 31.8272C26.5628 32.9543 27.3669 34.0921 28.841 35.295C30.212 36.4003 34.5519 41.3201 35.8611 41.3201C36.4796 41.3201 36.9229 40.8542 36.9229 40.204C36.9229 39.1637 33.9334 37.1697 33.2015 36.0102L37.9847 32.3799C39.0568 32.3799 40.1495 33.2252 40.902 33.2252C41.6751 33.2252 42.6957 32.3799 43.2936 32.3799C44.4584 32.3799 44.8914 33.2252 46.2212 33.2252C46.9016 33.2252 47.685 32.3799 48.8705 32.3799C49.5508 32.3799 50.3446 33.2252 51.5301 33.2252C53.5815 33.2252 52.0558 31.0362 55.8287 33.7237L58.0451 35.3058C59.1275 36.0535 61.3129 37.9391 62.4159 38.2425C62.4674 38.1992 62.5396 38.08 62.5602 38.1233L62.9932 37.7332C63.323 37.3864 63.2406 37.5056 63.4777 37.1264C63.1272 35.5659 61.4778 34.9807 59.5398 33.4527C58.0554 32.3041 56.4885 31.2962 54.9319 30.2017C43.7781 22.4102 46.6748 22.4644 41.7782 26.3222L31.346 34.6123C30.6656 33.5394 23.7486 27.5143 22.3776 26.1705C15.4812 19.4301 17.4295 20.7197 13.1308 23.8406C10.8836 25.477 3.84283 31.3071 2.39964 32.109V32.109Z" fill="white"/>
<path fill-rule="evenodd" clip-rule="evenodd" d="M29.7471 8.92918C30.9738 9.27596 33.8602 11.6817 34.788 12.0285C36.0456 12.4836 38.6949 9.21094 39.8392 9.21094C43.3544 9.21094 42.1483 11.7359 40.1072 13.123C39.7155 13.383 37.1899 15.0302 37.1899 15.3553C37.1899 17.6744 37.9836 19.2565 37.9836 21.4997C37.2724 20.947 35.4271 17.7394 34.7983 16.7532C28.8915 20.0368 31.2625 19.0289 30.0151 21.4997C29.4069 21.2613 29.7987 21.478 29.3863 21.0446C29.1286 20.7628 29.108 20.6761 28.9431 20.3944L27.2009 17.6852C26.8917 17.1542 26.6546 16.7532 27.6236 16.7532C29.5925 16.7532 28.8915 17.4143 30.4378 16.0814C31.1594 15.4637 32.0665 14.4776 32.9325 14.2391C32.716 13.2313 30.4275 9.99118 29.7471 8.92918V8.92918ZM27.0978 8.09476C27.0978 10.5113 29.5925 11.6925 29.7471 13.6756C28.407 14.4342 24.4382 14.2391 24.4382 17.0242C24.4382 17.035 28.8812 28.2401 32.1387 22.3341C32.9531 20.8495 32.2933 20.5894 34.2623 20.1018C36.0456 23.6454 36.6951 24.5665 38.7774 24.5665C41.7463 24.5665 39.6845 17.5118 39.5712 16.1897C40.5711 15.908 44.0863 13.7623 44.0863 11.4433C44.0863 9.33014 44.1069 6.69683 39.8392 6.69683C38.9114 6.69683 37.8806 7.41205 37.2517 7.88887C36.4683 8.49572 35.8292 8.95086 35.0663 9.49269L33.819 8.56074C31.7573 7.27118 30.7367 6.14417 28.9534 6.14417C28.2627 6.14417 27.0978 7.62879 27.0978 8.09476V8.09476Z" fill="white"/>
<path fill-rule="evenodd" clip-rule="evenodd" d="M42.4993 58.6263C43.7673 58.6263 46.932 54.9202 43.8291 54.1616C43.0766 54.6818 39.9428 58.6263 42.4993 58.6263Z" fill="white"/>
<path fill-rule="evenodd" clip-rule="evenodd" d="M36.3858 62.2568C36.3858 65.2477 40.3752 62.441 40.3752 60.8589C40.3752 58.193 36.3858 61.2273 36.3858 62.2568Z" fill="white"/>
<path fill-rule="evenodd" clip-rule="evenodd" d="M41.1688 49.1335C41.8285 50.4339 45.1479 53.8149 45.1479 50.5314C45.1479 50.3039 42.8491 45.785 41.1688 49.1335Z" fill="white"/>
<path fill-rule="evenodd" clip-rule="evenodd" d="M31.6128 65.0527C31.6128 68.8564 34.7981 66.3315 34.7981 65.0419L33.7364 63.9257L31.6128 65.0527Z" fill="white"/>
</g>
<defs>
<clipPath id="clip0_711_1937">
<rect width="68" height="68" fill="white"/>
</clipPath>
</defs>
</svg>
