<svg width="68" height="68" viewBox="0 0 68 68" fill="none" xmlns="http://www.w3.org/2000/svg">
<g clip-path="url(#clip0_711_1873)">
<path fill-rule="evenodd" clip-rule="evenodd" d="M55.1605 49.8964C56.95 49.4054 58.4231 51.4024 58.6811 53.5292C59.0076 56.2341 57.6983 58.4135 56.223 58.8191C54.365 59.3282 52.8325 57.3706 52.5812 55.1551C52.2625 52.3451 53.5909 50.3251 55.1605 49.8964ZM22.7029 49.8997C24.4991 49.3906 25.9464 51.3926 26.2258 53.5276C26.5859 56.2735 25.2138 58.4184 23.7575 58.8208C19.8016 59.9096 18.4508 51.1052 22.7029 49.8997ZM46.1581 31.8507C46.7796 31.3399 58.6385 32.1135 60.7129 31.6126C61.3816 32.997 62.0974 34.5835 62.7829 36.0107C64.1483 38.8502 64.32 38.5908 64.1483 41.1577C64.0002 43.3814 63.8712 45.6527 63.741 47.8879C63.6535 49.3972 63.6692 52.2614 61.6251 52.0873C61.4826 51.68 61.3659 51.0773 61.2324 50.6355C59.6561 45.4277 55.046 43.4668 51.6791 47.4478C50.5033 48.8372 50.3788 49.7486 49.6305 52.13L44.9475 52.0791C45.0193 49.5548 46.0459 37.0207 45.8338 35.8366C45.7329 34.8561 45.9696 35.5853 45.6341 34.7379C45.5163 34.439 45.44 34.0547 45.4344 33.631C45.421 32.6735 45.7912 32.0708 46.1581 31.8507V31.8507ZM46.829 20.4153C47.9206 20.3923 54.4537 20.3003 55.0303 20.4662C55.7663 20.6764 56.3037 22.2612 56.9589 23.6359C57.2473 24.2386 58.5072 26.8154 58.5689 27.2177L46.4273 27.198L46.829 20.4153V20.4153ZM43.0593 31.9098C43.5507 32.0051 43.176 31.8556 43.6416 31.7045C44.28 31.4993 44.7837 32.166 44.8925 32.8706C44.9486 33.2335 44.9341 34.4406 44.9251 34.8676C44.9071 35.7249 44.7725 35.8136 44.2609 35.5492C44.1139 34.5178 44.5403 32.6374 43.655 32.8772C43.5451 33.9627 43.9041 36.4525 42.8473 35.2487L41.8577 52.1185L29.1664 52.0824C28.8107 51.1265 28.7457 50.4006 28.3104 49.4136C27.8964 48.4758 27.5373 47.9618 27.0314 47.3492C23.1147 42.5914 17.7541 46.9879 17.2391 52.1513C15.5831 51.9937 11.9503 52.1103 9.9701 52.1218C9.1926 52.1251 8.55759 52.1267 8.18623 51.3236C7.73297 50.3464 8.18735 46.3359 8.27261 44.8972C8.40052 42.7606 8.49476 40.6305 8.66305 38.5169C11.5621 38.4594 14.487 38.5119 17.3883 38.5119C18.71 38.5119 20.4669 38.6581 21.7347 38.5021C22.9329 38.3543 23.6891 36.1618 22.7994 34.8709C22.6053 35.1895 22.5705 35.3669 22.2766 35.5426C22.0623 35.6724 21.701 35.7299 21.3611 35.6543C20.771 35.5246 20.4837 34.9957 20.4501 34.0383L8.92782 33.9923L9.32499 27.2227C10.9563 27.0387 13.0206 27.1947 14.6991 27.1947H25.4573C27.1334 27.1947 29.1653 27.7597 29.3369 25.1977C29.5467 22.0707 26.8945 22.7079 25.6424 22.7079L9.64923 22.7112C9.57182 21.918 9.90615 16.9566 10.024 15.9301L20.9134 15.8989C21.5215 15.9006 22.05 15.9416 22.5178 15.49C23.4154 14.6245 23.7306 11.3793 21.1939 11.3858L10.2932 11.3891C10.3056 10.4661 10.4705 7.07805 10.6399 6.38007C11.0404 4.73118 12.0423 4.57517 13.1227 4.58009L42.707 4.57845C45.2145 4.5571 44.5571 6.66419 44.2452 12.0838C43.8637 18.7106 43.3701 25.3077 43.0593 31.9098V31.9098ZM7.19219 11.3776C5.79651 11.4482 4.32677 11.3875 2.92211 11.3875C1.53652 11.3875 0.131861 11.2512 0.0118142 13.4042C-0.138525 16.0763 1.71042 15.8973 2.64387 15.8973C4.05526 15.8973 5.47002 15.8858 6.88142 15.8989L6.51342 22.6882C5.02574 22.8985 3.27215 22.2497 3.10274 24.6886C2.89294 27.6891 5.28939 27.203 6.23182 27.1898C6.21387 27.8073 5.88402 33.6967 5.82792 33.8297C5.57548 34.4357 2.31514 33.7114 1.1876 34.081C-0.333742 34.5802 -0.32701 37.4806 0.857752 38.2886C1.46584 38.7024 4.6656 38.5284 5.55192 38.5086C5.5351 41.0723 5.22993 44.4982 5.05715 47.0914C4.82716 50.5419 4.65662 52.0561 5.94797 54.4571C7.02727 56.4624 8.56095 56.6201 10.8048 56.6201C12.9107 56.6201 15.1164 56.533 17.2032 56.6217C17.8943 59.0983 18.4317 60.9623 20.3659 62.401C20.6105 62.5833 20.9011 62.7755 21.2096 62.9315C21.379 63.0169 21.4576 63.0366 21.6393 63.1072L22.1476 63.3979C21.0559 63.4948 19.8801 63.4357 18.7795 63.4357C17.6924 63.4357 16.5817 63.1581 15.9242 64.0696C15.2645 64.9811 15.3228 66.6661 16.0128 67.4166C16.6871 68.1524 17.9706 67.9192 18.9658 67.9192C19.2866 67.9192 38.3472 68.0358 38.9362 67.8781C39.7574 67.6581 40.4688 66.3097 40.048 64.8086C39.6711 63.4685 38.8958 63.434 37.6987 63.4357C33.3232 63.4406 28.6267 63.6705 24.2905 63.4127C24.3757 63.3158 24.3589 63.3191 24.5104 63.2172C25.2363 62.7278 26.0642 62.7738 27.4218 60.9459C27.7393 60.5189 28.1488 59.7339 28.4427 59.0425C28.8882 57.9947 29.0071 57.0126 29.1664 56.6398L49.6619 56.6184C50.4641 59.6074 51.1271 61.2399 53.0771 62.5735C53.8142 63.0793 54.3964 63.0793 55.009 63.4193C51.678 63.549 48.154 63.3125 44.9273 63.434C43.9198 63.4734 43.1412 64.4391 43.3028 66.0322C43.452 67.507 44.1868 67.9274 45.2998 67.9192H65.7987C66.9374 67.9241 67.7609 67.6663 67.9584 66.1258C68.4161 62.5603 64.8551 63.4357 63.1083 63.4357C60.8745 63.4357 58.4881 63.5539 56.2734 63.4193C58.3097 62.8954 59.7671 61.6373 60.8262 59.2034C61.2189 58.3002 61.3221 57.4987 61.6251 56.6201C63.8398 56.5872 65.1917 55.0287 65.9871 53.186C66.8903 51.0937 66.8387 47.6957 67.0081 44.9038C67.4535 37.5265 67.6566 38.5103 65.3432 33.4864C64.8809 32.4814 64.4086 31.5173 63.943 30.5122L58.4881 18.9487C56.6841 15.1664 54.319 15.9203 50.4966 15.9203C49.5071 15.9203 48.062 16.0434 47.1297 15.8923C47.0242 14.3042 47.7524 8.05851 47.6368 5.935C47.4741 2.95749 46.0212 0.72394 44.142 0.1984C42.8955 -0.14977 15.6347 0.0653729 14.4208 0.0653729C11.5442 0.0653729 10.3022 0.00460716 8.66978 2.54527C7.33243 4.62608 7.38853 7.94191 7.19219 11.3776V11.3776Z" fill="white"/>
<path fill-rule="evenodd" clip-rule="evenodd" d="M7.24068 63.554C5.89773 64.1731 5.90895 66.8057 6.9602 67.6384C7.46058 68.0342 10.6054 68.1179 11.2595 67.8273C12.5104 67.2672 12.7426 64.9007 11.6319 63.7872C11.0597 63.214 7.67936 63.3503 7.24068 63.554V63.554Z" fill="white"/>
<path fill-rule="evenodd" clip-rule="evenodd" d="M43.0947 32.2742C43.3942 32.3136 44.2032 31.3414 44.6003 32.6257C44.7776 33.1989 44.7024 34.6359 44.6912 35.3881C44.1392 35.1729 44.5409 35.0892 44.4264 33.4879C44.3714 32.7275 44.0595 32.1839 43.5973 32.6224C42.996 33.1956 43.8408 34.9528 43.1025 35.3027L43.0947 32.2742V32.2742ZM43.0588 31.9096L43.0947 32.2742C43.0363 32.404 43.0823 32.1248 43.0105 32.5731C42.9814 32.7604 42.9847 32.7604 42.9724 32.9492L42.8467 35.2485C43.9036 36.4523 43.5446 33.9625 43.6545 32.877C44.5397 32.6372 44.1134 34.5176 44.2604 35.549C44.772 35.8134 44.9066 35.7247 44.9246 34.8674C44.9335 34.4404 44.9481 33.2333 44.892 32.8704C44.7832 32.1658 44.2794 31.4991 43.6411 31.7043C43.1755 31.8554 43.5502 32.0049 43.0588 31.9096Z" fill="white"/>
<path fill-rule="evenodd" clip-rule="evenodd" d="M22.7991 34.8709C22.7093 34.6787 22.7666 34.7657 22.6645 34.6097C22.1517 33.8181 21.1555 33.9446 20.4498 34.0382C20.4834 34.9957 20.7706 35.5245 21.3608 35.6542C21.7007 35.7298 22.062 35.6723 22.2763 35.5426C22.5702 35.3668 22.605 35.1895 22.7991 34.8709Z" fill="white"/>
<path fill-rule="evenodd" clip-rule="evenodd" d="M43.095 32.2745L43.1029 35.3029C43.8411 34.9531 42.9963 33.1958 43.5977 32.6226C44.0599 32.1841 44.3718 32.7278 44.4268 33.4881C44.5412 35.0894 44.1396 35.1732 44.6915 35.3883C44.7028 34.6361 44.7779 33.1991 44.6007 32.6259C44.2035 31.3416 43.3946 32.3139 43.095 32.2745V32.2745Z" fill="white"/>
<path fill-rule="evenodd" clip-rule="evenodd" d="M45.8337 35.8368C45.8471 35.8039 45.8673 35.7218 45.8718 35.7399L46.1579 31.8509C45.791 32.071 45.4208 32.6737 45.4343 33.6312C45.4399 34.0549 45.5162 34.4392 45.634 34.7381C45.9694 35.5855 45.7327 34.8563 45.8337 35.8368V35.8368Z" fill="#5557B7"/>
</g>
<defs>
<clipPath id="clip0_711_1873">
<rect width="68" height="68" fill="white"/>
</clipPath>
</defs>
</svg>
