<svg width="68" height="68" viewBox="0 0 68 68" fill="none" xmlns="http://www.w3.org/2000/svg">
<path fill-rule="evenodd" clip-rule="evenodd" d="M27.1324 60.2373H29.6653V64.6825H27.1324V60.2373V60.2373ZM25.3249 6.08839L25.7297 7.69101C27.9821 8.3043 31.1682 8.1521 34.0178 8.0939C37.4204 8.03123 36.9274 7.02847 37.9374 13.8195C38.8031 19.648 39.7289 24.993 40.7268 30.9111L46.3056 64.6825H32.5589V60.2373C39.3201 60.2373 41.9532 61.2893 42.6906 58.2183C41.1316 55.6219 39.4684 56.6023 32.5589 56.6023V23.4665C32.5589 21.6893 29.6653 20.9059 29.6653 24.2723V56.6023H27.1324C27.1324 49.4263 27.6654 15.6414 26.7717 11.3439C25.2488 10.9365 25.7617 10.9365 24.2388 11.3439C23.321 15.7489 23.8781 56.7321 23.8781 64.6825H5.78697C4.13176 64.6825 3.62678 67.9146 5.42627 67.9146H65.1181C67.0459 67.9146 67.0459 64.6825 65.1181 64.6825H49.1992C49.1992 63.0127 48.9387 60.9087 48.4778 59.8344C50.4016 59.6553 50.1531 59.1271 51.3715 58.2183C55.3231 61.1729 55.5235 60.7968 58.9702 58.2183C61.2386 59.9149 62.2646 61.522 65.8596 58.6436C68.2482 56.7321 69.0017 53.7731 66.2043 53.7731C64.7574 53.7731 64.8376 56.6023 62.5852 56.6023C60.2246 56.6023 61.3869 53.7731 58.9702 53.7731C57.8961 53.7731 54.1689 60.2462 52.8183 53.7731C48.9267 53.7731 51.147 54.8116 48.1171 56.6023C46.5341 49.0189 45.7165 40.7327 44.1374 33.1628C49.2553 33.6373 45.0833 41.825 47.1673 43.9738C47.9408 44.7706 49.5639 44.323 49.5639 42.8636C49.5639 37.8185 50.3174 33.6239 47.9689 31.305C46.2776 29.6308 45.8047 30.5709 44.2176 29.8367C42.883 29.2234 43.7767 30.3336 42.9591 25.5884C42.7427 24.3395 42.3259 22.2623 42.3259 20.6373C43.8529 21.4521 45.3317 20.7448 48.7464 23.9724C50.0329 25.19 51.8324 28.5922 52.0608 30.7768C52.8303 38.1095 50.3214 50.541 53.9044 50.541C54.75 50.541 55.3512 49.8695 55.3512 48.9249V33.5657C55.3512 24.8632 49.2994 17.4052 41.6045 17.4052C41.4883 15.8563 40.9953 14.5089 40.8791 12.96C48.3656 12.96 54.6178 19.0884 57.1707 24.6662C59.8559 30.5261 59.3389 37.4201 59.3309 44.4796C59.3269 47.7028 58.6015 50.541 61.1384 50.541C61.972 50.541 62.2245 50.2589 62.2245 49.3278C62.2245 36.5785 64.0521 25.2974 55.267 16.2861C51.9646 12.9018 46.3337 9.32049 40.1577 9.32049C40.1577 3.05774 37.8252 4.47234 27.8578 4.47234C26.383 4.47234 25.91 5.11249 25.3249 6.08839V6.08839Z" fill="white"/>
<path fill-rule="evenodd" clip-rule="evenodd" d="M0 39.2239C0 41.216 2.54093 42.3754 5.78723 39.2239C9.55054 42.0397 9.65474 42.0173 13.386 39.2239C15.0893 40.4997 16.6363 42.7962 20.3315 39.7074C22.8443 37.6034 23.0327 34.7786 20.9847 34.7786C19.1251 34.7786 19.598 37.6079 16.6403 37.6079C14.8408 37.6079 14.8448 32.2135 11.7067 36.1395C11.0174 36.999 11.9151 36.2022 10.9973 36.9632C8.00354 39.4388 8.244 34.7786 5.78723 34.7786C4.44463 34.7786 4.7933 36.3857 3.26233 37.2094C1.91572 37.9302 0 37.0841 0 39.2239H0Z" fill="white"/>
<path fill-rule="evenodd" clip-rule="evenodd" d="M0 29.9305C0 33.6998 6.13992 29.935 6.15194 29.9305C7.90735 31.2467 7.00961 31.5466 10.1277 31.5466C11.4983 31.5466 12.5444 30.5617 13.386 29.9305C15.6183 31.6003 17.9308 32.7598 20.3635 30.0469C23.0247 27.079 22.5758 27.925 22.0668 25.4853C20.7042 25.1316 20.4236 25.0376 19.4818 26.215C15.4179 31.3093 16.6964 26.0359 13.0253 25.0824C10.5124 27.7415 9.79902 30.1007 7.71898 26.5642C6.96953 25.2928 7.37031 25.4942 5.78723 25.0824C4.73319 25.8703 4.03183 27.1551 3.11805 27.7594C1.74338 28.6637 0 27.8847 0 29.9305H0Z" fill="white"/>
<path fill-rule="evenodd" clip-rule="evenodd" d="M0 58.2182C0 59.7626 1.59109 60.2058 2.70525 60.0267C4.4326 59.7492 4.7372 59.0016 5.78723 58.2182C9.7389 61.1727 9.93929 60.7967 13.386 58.2182C15.6544 59.9148 16.6804 61.5219 20.2794 58.6435C22.664 56.732 23.4175 53.773 20.62 53.773C19.1772 53.773 19.2534 56.6022 17.005 56.6022C14.6404 56.6022 15.8027 53.773 13.386 53.773C12.3119 53.773 8.58466 60.2461 7.23404 53.773C3.51883 53.773 5.71509 54.1669 3.70319 55.8904C2.19626 57.1796 0 55.8769 0 58.2182H0Z" fill="white"/>
<path fill-rule="evenodd" clip-rule="evenodd" d="M0 19.8268C0 20.9191 0.172335 20.9415 0.3607 21.8502C2.51288 22.4232 3.51482 22.4367 5.78723 20.2342C9.51046 23.0142 9.66677 23.0142 13.386 20.2342C18.8967 25.5837 22.4315 18.354 22.4315 17.405C22.4315 16.644 21.7142 14.2624 19.081 17.302C18.0711 18.4704 18.2554 18.2824 17.005 19.021C13.5984 17.0066 15.955 15.7889 13.386 15.7889C12.2358 15.7889 12.1917 16.738 11.6266 17.4587C10.8531 18.4436 10.4162 18.4212 9.40626 19.021L9.00548 18.6584C8.9654 18.6226 8.85719 18.5241 8.8091 18.4749C6.84128 16.55 7.73101 15.7889 5.78723 15.7889C4.47268 15.7889 4.66506 17.4856 3.31043 18.2734C2.40868 18.7927 0 18.5555 0 19.8268H0Z" fill="white"/>
<path fill-rule="evenodd" clip-rule="evenodd" d="M0 48.9248C0 50.7558 1.60311 50.5409 2.53292 50.5409C4.23622 50.5409 5.12595 49.2874 6.15194 48.5175C8.40031 52.2689 11.3981 50.0977 13.386 48.9248C19.5259 53.5133 22.4315 46.5836 22.4315 45.6883C22.4315 43.9737 20.8405 43.929 19.8345 44.7661C18.9808 45.4734 18.1192 47.3088 17.005 47.3088C14.3879 47.3088 15.3097 41.2922 11.6666 45.7912C8.11575 50.1738 8.17587 44.0722 6.15194 44.0722C4.95762 44.0722 4.14004 46.0732 3.10603 46.7626C1.84759 47.5908 0 46.4224 0 48.9248H0Z" fill="white"/>
<path fill-rule="evenodd" clip-rule="evenodd" d="M4.3404 4.47228C4.73717 2.81594 4.60491 3.0532 5.78721 3.6665C4.94557 4.9468 6.0397 4.27531 4.3404 4.47228ZM1.44678 3.6665C1.44678 9.9203 8.68083 8.95335 8.68083 4.06939C8.68083 -1.43682 1.44678 -1.14137 1.44678 3.6665V3.6665Z" fill="white"/>
<path fill-rule="evenodd" clip-rule="evenodd" d="M14.4719 8.11154H15.558V9.32022H14.4719V8.11154ZM11.2136 8.51443C11.2136 10.6722 12.6804 12.5434 14.5681 12.7717C19.5057 13.3715 19.8544 4.51683 14.8366 4.6377C13.1734 4.67799 11.2136 6.48653 11.2136 8.51443Z" fill="white"/>
<path fill-rule="evenodd" clip-rule="evenodd" d="M29.6658 19.0214C29.6658 20.9821 32.5594 21.5775 32.5594 18.6185C32.5594 16.604 29.6658 17.1681 29.6658 19.0214Z" fill="white"/>
<path fill-rule="evenodd" clip-rule="evenodd" d="M29.6658 14.1731C29.6658 15.825 32.5594 16.9799 32.5594 14.1731C32.5594 12.0154 29.6658 12.0154 29.6658 14.1731Z" fill="white"/>
<path fill-rule="evenodd" clip-rule="evenodd" d="M0 66.2985C0 67.9503 2.89362 69.1098 2.89362 66.2985C2.89362 64.1452 0 64.1452 0 66.2985Z" fill="#5557B7"/>
</svg>
