<svg width="68" height="68" viewBox="0 0 68 68" fill="none" xmlns="http://www.w3.org/2000/svg">
<path fill-rule="evenodd" clip-rule="evenodd" d="M34.5323 27.89L40.7283 29.6644C42.8786 30.2845 44.9498 30.8537 47.0315 31.4615C49.1607 32.0816 51.1686 32.6438 53.3329 33.2604L59.6326 35.0628V64.6797H34.5323V27.89V27.89ZM68 66.1818V66.5085C67.928 67.278 67.3535 68 66.5401 68H1.46161C0.748372 68 0 67.2534 0 66.5401C0 64.36 2.10633 64.6797 3.98429 64.6797V38.5166C3.98429 37.9632 4.10726 37.3554 4.35145 37.0233C5.07699 36.0378 7.52062 36.3909 9.43019 36.3909C9.43019 35.625 9.576 34.7238 9.65681 34.0949C9.76046 33.2762 9.77276 32.7492 9.88343 31.9305C9.99059 31.1541 10.031 30.5884 10.1329 29.7891C10.2032 29.2375 10.3595 28.2853 10.3595 27.6248H9.43019C7.03575 27.6248 7.03575 24.3045 9.43019 24.3045H10.7583C10.7899 22.8974 11.2888 20.6927 11.2888 19.1257H5.84468C4.86266 19.1257 3.98429 18.3509 3.98429 17.3988L6.88643 9.27736C7.79467 6.83373 7.32035 7.30454 12.7504 7.30454L13.1879 2.96011C13.3161 1.9535 13.2915 0 14.8743 0H19.3909C20.0198 0 20.5609 0.558644 20.7419 1.03999L21.5166 7.30454C27.6986 7.30454 26.2967 6.54738 28.3082 11.9336C28.6226 12.7733 28.9546 13.6306 29.2673 14.5599C29.7364 15.9495 31.0539 18.054 29.1865 18.9605C28.519 19.2838 23.7898 19.1257 22.8447 19.1257C23.2031 20.6646 23.1486 22.7604 23.5087 24.3045C24.2343 24.3045 25.0705 24.243 25.608 24.4626C26.0384 24.6401 26.5619 25.1126 26.5619 25.7661C26.5619 27.6142 25.4236 27.6248 23.9058 27.6248L24.5944 34.2424C24.6559 34.8011 24.8368 35.7831 24.8368 36.3909H31.212V26.2967C31.212 22.9852 34.007 24.3133 34.9293 24.5698L60.446 31.8603C61.9322 32.2924 62.9546 32.3258 62.9546 34.2653V64.6797H65.8761C67.3061 64.6797 67.9262 65.407 68 66.1818V66.1818ZM25.5009 39.7112H31.212V64.6797H25.5009V39.7112ZM16.3359 39.7112H22.1806V64.6797H16.3359V39.7112V39.7112ZM7.30454 39.7112H13.0157V64.6797H7.30454V39.7112V39.7112ZM13.6798 27.6248H20.5855C20.5855 29.1233 20.8596 30.5392 20.9966 31.9956L21.5166 36.3909H12.7504L13.6798 27.6248V27.6248ZM19.5244 19.1257C19.5754 19.7528 20.0602 24.0375 20.1885 24.3045H14.0785L14.5019 20.7436C14.7584 18.6584 13.6534 19.1257 19.5244 19.1257ZM15.6719 10.6248H18.5934C18.5934 11.7438 19.1257 14.4703 19.1257 15.8054H15.0079C15.1361 15.5384 15.6192 11.2537 15.6719 10.6248ZM21.9136 10.6248C24.9299 10.6248 24.0937 10.031 25.2163 13.035L26.1649 15.8054H22.4459C22.4459 14.2893 21.954 12.0407 21.9136 10.6248V10.6248ZM11.6876 15.8054H8.1021L8.95412 13.2054C9.20709 12.5502 9.77276 11.2871 9.82897 10.6248H12.3517C11.9915 12.1707 12.0495 14.2472 11.6876 15.8054ZM16.4695 3.32024H17.7976C17.7976 4.10902 17.8696 4.52713 17.9697 5.27198C18.0312 5.72522 18.1963 6.77224 18.1963 7.30454H16.0707C16.0707 5.96063 16.4695 4.33037 16.4695 3.32024V3.32024Z" fill="white"/>
<path fill-rule="evenodd" clip-rule="evenodd" d="M46.6163 9.562V14.6091C46.6163 15.6965 46.9975 15.4945 47.3032 16.0479C47.5561 16.5064 47.4138 21.5623 47.4138 22.3124C47.4138 23.7811 47.2663 25.1689 48.1534 25.8242C49.4288 26.7675 50.7341 25.4113 50.7341 24.8369V14.4774C50.7341 13.6394 49.9365 13.5006 49.9365 13.0158V11.4224H56.4453V13.281C55.7197 13.4743 55.5159 14.2349 55.5159 15.1414V26.2967C55.5159 29.0337 58.859 29.2551 58.8415 26.4355L58.8362 16.0707C59.3263 15.8107 59.7655 15.4805 59.7655 14.7426V9.96078C59.7655 9.05254 59.1805 8.10214 58.3039 8.10214H48.0779C47.3646 8.10214 46.6163 8.84876 46.6163 9.562V9.562Z" fill="white"/>
<path fill-rule="evenodd" clip-rule="evenodd" d="M50.0703 3.58551C50.0703 5.31941 51.6707 6.03441 52.8969 4.81874C54.3093 3.41862 54.1108 3.41159 56.9198 4.57104C59.6006 5.67955 62.645 7.54169 66.2762 5.84468C67.3847 5.3282 67.8801 4.72212 67.9996 4.15821V3.58727C67.838 2.83187 67.0615 2.25741 66.4062 2.25741C64.2507 2.25741 65.0079 4.66591 58.7925 1.77079C58.1215 1.45809 57.4978 1.18756 56.8461 0.927558C52.5368 -0.795807 50.0703 2.64565 50.0703 3.58551V3.58551Z" fill="white"/>
<path fill-rule="evenodd" clip-rule="evenodd" d="M38.1176 54.1883C38.1176 55.3197 39.0328 55.9152 40.2432 55.9152H54.1882C56.804 55.9152 56.4281 52.595 54.4535 52.595H39.9762C39.4615 52.595 38.9661 52.7689 38.6762 53.0201C38.4426 53.2239 38.1176 53.8265 38.1176 54.1883V54.1883Z" fill="white"/>
<path fill-rule="evenodd" clip-rule="evenodd" d="M38.1176 46.0865C38.1176 47.116 38.9327 47.8134 39.9762 47.8134H54.1883C56.6688 47.8134 56.6688 44.4932 54.1883 44.4932H39.9762C38.8659 44.4932 38.1176 45.2661 38.1176 46.0865V46.0865Z" fill="white"/>
</svg>
