<svg width="68" height="68" viewBox="0 0 68 68" fill="none" xmlns="http://www.w3.org/2000/svg">
<path fill-rule="evenodd" clip-rule="evenodd" d="M51.4869 59.1344C54.3019 59.1344 55.0494 63.5226 52.5684 64.6999C48.5606 66.573 47.5109 59.1344 51.4869 59.1344ZM52.8705 47.6821V30.5215C53.8248 30.2718 54.3973 29.5583 55.3515 29.3085V46.4691L52.8705 47.6821ZM13.2856 29.6475C14.0331 29.8437 29.0464 38.7272 31.1298 39.8332C32.6884 40.6538 34.8672 40.743 36.5849 39.9937L50.0873 32.2519V48.8951C50.0237 48.9129 44.8867 50.5006 42.7079 50.8573C40.2587 51.2676 37.221 51.6779 34.3265 51.6779C30.7799 51.6779 26.1678 51.0535 22.812 50.1795C18.2317 49.0021 13.7786 46.5939 13.2856 46.4691V29.6475ZM3.09113 20.1218L10.6137 15.8941C11.9337 15.1627 12.9516 14.5027 14.2716 13.7534C15.5916 13.0221 16.8003 12.3264 18.0886 11.6128L29.3168 5.1375C34.5015 2.24768 33.8971 2.4439 38.6047 5.08398L46.0636 9.3652C48.7832 10.8815 64.1623 19.9077 64.9257 20.1218C64.5918 20.6391 63.7806 20.9423 63.1763 21.2634C62.4288 21.6915 62.0312 22.0126 61.2678 22.4229C53.5703 26.7041 45.9523 31.3064 38.2389 35.6055C36.9984 36.3012 35.7102 37.4607 34.0084 37.4607C32.3067 37.4607 31.1139 36.3369 29.8893 35.659C23.4323 32.0735 17.0548 28.2204 10.6614 24.617L4.95189 21.3348C4.37935 21.0137 3.44101 20.6569 3.09113 20.1218V20.1218ZM10.5024 27.9171C10.5024 34.0357 10.5501 40.19 10.5024 46.3085C10.4865 48.2708 10.8682 48.4313 12.061 49.0735C14.8919 50.6433 17.9931 52.0882 21.1898 52.8731C24.2752 53.6401 28.5852 54.6391 32.0045 54.6212C32.7043 54.6212 33.2768 54.6034 33.9448 54.7104C35.2489 54.9066 42.024 54.1039 43.3759 53.8542L48.4174 52.5877C49.0695 52.3914 49.5625 52.3022 50.0873 52.0168V56.3516C48.0198 56.9045 46.2227 59.2771 46.2227 61.382C46.2227 62.9696 46.0954 63.4334 46.7793 64.7713C47.0179 65.2529 47.4791 66.02 47.8131 66.3767C48.1948 66.7692 48.7196 67.126 49.2126 67.4114C51.1529 68.4995 53.618 68.0179 55.1607 66.3767C57.1646 64.254 57.3236 60.3652 55.4629 58.1354C54.7631 57.2792 54.0315 56.6548 52.8705 56.3516V50.9822C53.618 50.5898 54.3655 50.3222 55.1448 49.8941C58.6914 47.8962 58.1347 49.1448 58.1347 42.3127C58.1347 37.4072 58.1347 32.4838 58.1347 27.5782L60.9179 26.0084C61.8881 25.4733 62.7787 24.956 63.7965 24.403C65.705 23.3327 68.4246 22.0661 67.9157 19.7293C67.5658 18.0882 66.0867 17.4103 64.4645 16.4649C63.9874 16.1973 63.558 15.9654 63.0332 15.6622L40.4018 2.71148C38.2866 1.53414 36.7121 3.8147e-05 33.8494 3.8147e-05C31.4956 3.8147e-05 27.3765 2.85418 24.7364 4.33477L1.85062 17.5174C-0.630401 18.9444 -0.550881 21.6559 1.89833 23.0116L9.07102 27.1144C9.61175 27.4355 9.88212 27.7566 10.5024 27.9171V27.9171Z" fill="white"/>
<path fill-rule="evenodd" clip-rule="evenodd" d="M17.1661 23.5824C17.1661 24.3138 17.516 24.7419 17.9454 24.9738C18.8519 25.4198 20.824 23.957 22.1122 23.2435C22.637 22.9402 24.4183 22.0305 24.7364 21.6737C25.7701 20.5142 24.5614 19.0693 23.9571 19.0693C23.1937 19.0693 19.5994 21.2812 18.4384 21.9056C17.7863 22.2624 17.1661 22.5656 17.1661 23.5824V23.5824Z" fill="white"/>
<path fill-rule="evenodd" clip-rule="evenodd" d="M11.9016 20.6389C11.9016 21.7449 12.7922 22.3514 13.6192 22.066L17.9769 19.6578C19.7263 18.6767 19.7899 18.7123 19.7899 17.3388C19.7899 16.7679 19.0742 16.1258 18.5494 16.1258C17.9769 16.1258 14.2235 18.3912 13.1898 18.9621C12.5377 19.3188 11.9016 19.6221 11.9016 20.6389V20.6389Z" fill="white"/>
</svg>
