<svg width="68" height="68" viewBox="0 0 68 68" fill="none" xmlns="http://www.w3.org/2000/svg">
<g clip-path="url(#clip0_711_1817)">
<path fill-rule="evenodd" clip-rule="evenodd" d="M35.1778 50.9062C35.3943 51.0813 35.3672 51.3648 35.4394 51.6399C35.6288 52.3987 35.8994 52.9241 36.3324 53.5578C36.8646 54.3499 37.451 54.8836 38.3079 55.4256C39.2911 56.0426 42.4122 57.0516 42.6287 55.9926C42.782 55.2505 42.0514 55.3089 41.456 55.2588C39.228 55.0837 37.5592 53.5995 36.9187 52.1069C36.4226 50.9562 36.4948 50.089 36.4948 48.8049C36.4948 47.6708 36.4226 46.3033 36.5038 45.2027C36.8646 45.3444 37.3066 45.5946 37.7125 45.778C38.1185 45.9698 38.5063 46.1032 38.9483 46.245C41.1944 46.9871 44.2524 47.0121 46.4534 46.2033C46.8322 46.0615 47.3283 45.7947 47.6711 45.753C47.626 47.2873 47.8245 49.4303 47.617 50.8728C47.2111 53.5995 44.965 54.4 44.8116 54.8086C44.6493 55.2422 44.9469 55.584 45.3799 55.584C46.3181 55.584 48.6543 53.2409 48.8528 50.9145H51.3875L51.3695 62.3799H33.3918V50.9145L35.1778 50.9062V50.9062ZM42.5565 45.6529C41.0772 45.6529 39.7421 45.3194 38.5334 44.8608C36.9458 44.2521 35.3763 43.018 34.402 41.8589C32.7784 39.9328 30.9201 35.997 31.5426 33.5622C31.8583 32.3364 32.607 31.3192 33.4188 30.7772C34.1765 30.2768 34.2397 30.2602 35.3492 30.2602H47.4546C50.3322 30.2602 50.8193 29.9266 52.3437 31.4025C52.488 31.5443 52.7135 31.8612 52.8579 32.078C53.1916 32.5616 53.3991 33.0619 53.5705 33.6372C54.0666 35.2883 53.6517 35.8302 53.2367 37.2728C52.6775 39.2157 51.1259 41.5421 49.5744 42.9429C47.9057 44.4522 45.84 45.6529 42.5565 45.6529V45.6529ZM54.8334 33.3871C54.7341 33.2453 54.4635 32.3531 54.0576 31.6694C53.5254 30.7938 53.1555 30.5937 52.9391 30.2685H55.3295C55.3836 31.2775 55.2934 32.5199 54.8334 33.3871ZM30.2887 33.187C29.955 32.2197 29.6392 31.4276 29.7836 30.2602H32.1018C31.9395 30.5187 31.7861 30.6104 31.5426 30.8772C31.1998 31.2524 30.857 31.8695 30.6405 32.3531C30.5323 32.6033 30.4691 32.9785 30.2887 33.187V33.187ZM28.4395 26.8164L56.9712 26.8331V29.1095L28.4395 29.1178V26.8164ZM39.6249 15.3594L40.8066 15.351C41.1042 17.0437 40.2924 19.8538 41.4019 19.9288C42.3671 19.9872 42.0875 18.603 42.0875 17.9193C42.0875 17.0688 42.0965 16.2099 42.0784 15.351L43.3323 15.3427C43.3052 16.2266 43.3233 17.1188 43.3233 17.9943C43.3233 18.6947 43.0526 19.9705 43.9637 19.9288C45.0913 19.8871 44.3787 17.1855 44.5951 15.3594L45.7858 15.3427C45.9843 16.5351 45.5784 19.8955 45.849 20.7127C45.9572 21.0379 46.4534 21.2296 46.8232 20.9461C47.1389 20.7127 47.0668 20.1707 47.0668 19.7621C47.0668 18.8699 47.0668 17.9693 47.0668 17.0771C47.8696 17.1271 49.6015 18.0027 50.1698 18.3195C50.6839 18.6114 51.0538 18.8699 51.4687 19.1951C51.9378 19.5536 52.1362 19.6954 52.6324 20.179C53.6697 21.1963 55.3836 23.6061 55.6001 25.6657L47.0668 25.6407C47.0487 24.3065 47.3464 22.7556 46.3812 22.8056C45.7047 22.8473 45.8129 23.3976 45.8129 23.973C45.8129 24.5317 45.8309 25.107 45.7949 25.6657L39.6068 25.6407L39.6249 15.3594V15.3594ZM28.7643 25.6407C27.1225 25.8491 27.1857 25.1237 27.1857 27.8837C27.1857 30.7855 27.0684 30.0434 28.5027 30.2852C28.5658 31.9445 28.7462 33.2036 29.5941 34.4211C30.415 35.5884 30.0452 34.7879 30.3609 36.2472C30.7848 38.1567 31.6057 40.0829 32.7152 41.6588C33.1211 42.2342 33.4459 42.6094 33.9059 43.0847L35.25 44.3605L35.2139 49.7388C33.8428 49.7888 32.6791 49.7221 31.299 49.8805C29.1521 50.139 27.1316 50.8228 25.3455 51.815C24.4074 52.3404 23.8211 52.799 23.0543 53.3827C20.0776 55.6924 18.0841 59.5615 17.8946 63.4388C17.8676 63.9391 17.8225 66.8993 17.9217 67.1828C18.1021 67.6914 19.0041 67.6914 19.1214 67.0494C19.374 65.5235 18.5531 62.555 20.258 58.9277C21.0879 57.16 22.3688 55.5006 23.5595 54.5417C24.4525 53.8246 24.687 53.5745 25.7875 52.9241C26.3107 52.6239 27.7991 51.8567 28.4215 51.7567L28.4305 60.7622C28.4034 61.496 28.4846 62.3382 28.4305 63.0469C28.3764 63.7557 26.6625 66.6241 26.897 67.2495C26.9782 67.4913 27.2939 67.6831 27.6818 67.5664C28.0968 67.4413 28.3764 66.4907 28.5478 66.0488C29.9099 62.58 29.6122 64.206 29.6753 60.3786C29.7024 58.7193 29.5761 52.2737 29.7024 51.3481C30.5233 51.173 31.2719 51.0062 32.156 50.9812C32.1379 54.6668 32.156 58.3691 32.156 62.063C32.156 63.3721 32.0297 63.5389 33.518 63.5389H42.4753C45.1544 63.5389 48.8438 63.6056 51.4326 63.5389C51.9739 63.5222 52.3888 63.5973 52.5602 63.1887C52.7045 62.8551 52.6053 52.3154 52.6414 50.9228C53.3179 50.9645 54.5086 51.0396 55.0859 51.2564C55.1852 51.8567 55.14 59.1862 55.122 60.3786C55.113 61.1458 55.113 61.9129 55.113 62.68C55.104 63.5472 55.3024 63.7557 55.6001 64.4895C55.8346 65.0815 56.0421 65.5735 56.2856 66.1572C56.4931 66.6241 56.6825 67.483 57.1696 67.583C57.5756 67.6664 57.8823 67.4246 57.9274 67.1161C57.9725 66.8326 57.756 66.4574 57.6568 66.1989C57.4222 65.6485 57.2057 65.1065 56.9622 64.5395C56.7908 64.1226 56.3758 63.2554 56.3578 62.8301C56.3307 62.113 56.3578 61.3292 56.3578 60.6038C56.3578 57.6103 56.3037 54.5834 56.3578 51.5816C57.747 51.815 59.0639 53.0658 59.4248 52.1236C59.6864 51.4482 58.9286 51.2897 58.4415 51.0729C55.2754 49.6721 52.47 49.7388 48.925 49.7555V45.0526C49.0963 44.7941 49.5474 44.5606 49.7368 44.4022C50.6479 43.635 51.0989 43.2431 51.8837 42.2425L53.0112 40.5415C53.7509 39.2824 53.3811 39.9077 53.9403 38.7154C54.7612 36.9726 54.6259 36.6724 55.0228 35.5718C55.2573 34.913 56.7276 33.7123 56.5923 30.2602C58.4506 30.2685 58.216 30.3769 58.216 28.1088C58.216 25.9075 58.5317 25.624 56.899 25.6824C56.3488 22.839 55.0589 20.8878 53.4622 19.3368C51.2613 17.1855 49.8811 16.8186 47.0758 15.8263C46.9856 13.9418 47.7162 14.192 42.7279 14.2003C37.8298 14.2003 38.362 13.9001 38.362 15.7763C38.1906 16.0181 37.7847 16.0264 37.2976 16.1932C36.603 16.4267 34.5644 17.1855 34.5013 17.7775C34.4562 18.2028 34.826 18.503 35.3221 18.3779C35.4665 18.3362 36.0798 17.986 36.2963 17.8776C36.9368 17.5607 37.6223 17.2939 38.362 17.0938L38.353 25.6657H30.0542C30.2977 23.6228 31.732 21.4881 33.1302 20.0873C33.3015 19.9038 33.7706 19.5453 33.8428 19.3451C34.0051 18.8949 33.6624 18.5447 33.1933 18.5863C32.8054 18.6197 31.8853 19.6287 31.5786 19.9539C30.0903 21.4965 29.2333 23.5644 28.7643 25.6407V25.6407Z" fill="white" stroke="white" stroke-miterlimit="22.9256"/>
<path fill-rule="evenodd" clip-rule="evenodd" d="M1.74676 23.3391L7.15903 27.7168C9.30589 29.7097 9.80202 31.7359 9.80202 34.621L4.42583 30.2433C3.68616 29.5929 2.87432 28.5673 2.39623 27.4583C1.73774 25.9324 1.77382 25.0818 1.74676 23.3391V23.3391ZM11.0919 34.7461C10.5868 29.6096 13.8702 27.8585 16.396 25.6238L19.1021 23.4308C19.3096 29.176 16.0983 30.0932 15.8638 30.9688C15.6112 31.9277 17.0545 32.3947 19.1833 28.8842C19.8869 27.7168 20.365 26.1909 20.365 24.6649L20.374 18.6863C20.383 17.1103 19.2554 17.5522 19.1292 18.1026L19.1111 19.6869C19.1111 22.4969 19.4629 21.4463 17.9385 22.8305C17.7129 23.0389 17.5235 23.1306 17.307 23.3224C15.981 24.5148 13.1035 26.6161 12.0932 27.7752C10.9115 29.151 11.2002 29.126 10.4695 30.31C10.2711 30.0682 9.9283 29.2677 9.72986 28.9509C8.46699 26.9497 6.99666 26.1492 5.37298 24.6983L2.99158 22.7554C2.5586 22.4469 2.25191 22.0967 1.7648 21.8382C1.68362 20.1455 1.75578 17.6773 1.75578 15.8512C1.75578 15.1341 1.93619 14.5587 1.34084 14.2252C0.195246 14.1085 0.510962 15.2758 0.510962 16.1597V24.0479C0.501941 25.8156 0.745493 26.9747 1.48517 28.4339C2.06248 29.5763 3.17199 30.8354 3.96579 31.4357C5.01216 32.2362 5.96833 33.0867 7.00568 33.9123L8.54818 35.1797C10.0005 36.2887 10.1899 37.0642 11.0017 36.3471L13.2478 34.521C13.7259 34.0957 14.2491 33.7038 14.7813 33.2535C15.1872 32.92 16.1344 32.3613 15.4308 31.7359C14.8354 31.4191 13.6718 32.6115 13.0764 33.1284C12.8058 33.3786 12.3819 33.7205 12.0752 33.9623C11.8136 34.1624 11.2363 34.5877 11.0919 34.7461Z" fill="white" stroke="white" stroke-miterlimit="22.9256"/>
<path fill-rule="evenodd" clip-rule="evenodd" d="M1.75785 44.6441C2.16377 44.8859 2.69597 45.3612 3.07483 45.6697L6.8093 48.7383C7.49485 49.2636 8.36081 50.2892 8.86596 51.2064C9.83115 52.9658 9.79506 54.0332 9.80408 55.926L7.23326 53.8664C4.84284 51.7234 1.75785 50.1808 1.75785 45.6614V44.6441V44.6441ZM15.5681 53.8997C17.0114 52.7407 18.5269 51.6817 19.465 49.6805C19.9431 48.6715 20.2407 47.7793 20.349 46.5869C20.4031 45.9449 20.367 45.2361 20.367 44.5857C20.367 43.7102 20.5835 41.834 18.7163 43.4684L17.6248 44.3773C17.1016 44.7692 17.1467 45.4779 17.8503 45.5029C18.3464 45.5113 18.7343 44.9443 19.1042 44.7358C19.2034 46.2951 19.0681 47.5542 18.4818 48.855C18.2292 49.4137 17.9315 49.9307 17.5707 50.3893C17.3632 50.6561 17.2189 50.8145 17.0385 51.0397C16.6867 51.4566 11.7164 55.6341 11.076 56.0177C11.1572 53.0242 11.3646 51.8151 13.0244 49.8639C13.9715 48.7466 15.3156 47.8711 16.3619 46.9705C16.84 46.5536 17.1016 46.2617 16.5514 45.7448C15.8839 45.628 15.7576 45.9365 15.4238 46.1784L12.9522 48.1879C11.545 49.3887 11.2474 50.3893 10.4716 51.5733L10.3363 51.3899C10.3273 51.3732 10.3182 51.3482 10.3092 51.3315C9.64172 50.0974 9.46131 49.6055 8.27061 48.4631C8.00902 48.2213 7.81959 48.0628 7.56701 47.8127C6.92656 47.1956 4.69851 45.528 3.95883 44.8609C3.48075 44.4273 2.95756 44.0771 2.50654 43.6685C1.9563 43.1598 1.36997 42.5762 0.828739 42.8096C0.287513 43.0348 0.513024 44.4023 0.513024 45.0527C0.513024 46.9705 0.657351 47.9878 1.40605 49.5804C1.93825 50.6978 3.11091 52.0736 3.84157 52.6323C5.21268 53.6663 6.95362 55.2422 8.36983 56.3429C8.69457 56.5931 9.66878 57.3102 9.82212 57.6187V63.9809C9.82212 64.4229 10.0206 64.723 10.5347 64.6647C11.0128 64.6146 11.0669 64.2978 11.0669 63.8225L11.0579 57.602L15.5681 53.8997V53.8997Z" fill="white" stroke="white" stroke-miterlimit="22.9256"/>
<path fill-rule="evenodd" clip-rule="evenodd" d="M36.5034 12.5577V14.0086C36.5034 14.9508 37.7482 15.2844 37.7482 13.7084V12.6411C38.4969 12.4243 39.2276 12.1324 40.0123 11.8906C41.3835 11.4487 40.9414 11.4737 41.4376 10.2813C41.8796 9.20563 42.2765 9.29735 41.6901 8.15499C41.4015 7.57963 40.8603 6.69576 40.6979 6.12041C40.8693 5.87025 42.3306 4.47773 42.6463 4.3193C43.1605 4.2526 45.145 5.75351 45.9658 5.44499C46.2725 5.31992 46.6424 5.09478 47.0212 4.95302C48.1217 4.51943 48.4284 4.81127 48.8524 3.72727C49.105 3.04352 49.3846 2.25137 49.6913 1.60097L52.5057 1.57596C52.668 2.24303 53.083 3.09355 53.3265 3.75229C53.7144 4.77792 53.5971 4.34432 55.1757 4.96136C56.3574 5.42832 56.0958 5.76185 57.4038 5.20318C57.9179 4.98638 59.1086 4.40269 59.5506 4.31096C60.1279 4.83629 60.9759 5.55339 61.472 6.12041C61.3006 6.63739 60.7774 7.58797 60.4797 8.12163C59.8934 9.20563 60.2632 9.18895 60.6962 10.1979C61.1833 11.3486 60.7684 11.432 62.0583 11.8573C62.7348 12.0824 63.8624 12.3993 64.4036 12.6661L64.4126 15.2176C63.9436 15.4595 62.7258 15.818 62.1395 16.0098C60.6331 16.5184 61.2194 16.2933 60.606 17.5858C60.0648 18.7031 59.7852 18.4947 60.4527 19.6954C60.7052 20.154 61.3547 21.3547 61.472 21.755C61.2284 22.1552 59.9926 23.1558 59.5687 23.5811C59.0996 23.5144 57.7646 22.5722 57.5751 23.5311C57.4489 24.1731 58.6486 24.5233 59.2169 24.7568C60.146 25.1404 60.597 24.1648 61.7246 23.2142C63.3663 21.8384 62.9333 21.8967 62.3199 20.6626C61.1382 18.3112 61.3096 19.095 61.8508 17.8192C62.0944 17.2606 61.9501 17.2939 62.5635 17.0938C66.2528 15.9181 65.6665 16.2183 65.6665 14.5506C65.6665 11.4904 66.1536 11.9406 63.4655 11.0901C62.1395 10.6732 62.3289 10.9317 61.8779 9.81434C61.7606 9.52249 61.472 9.08055 61.5171 8.84708C61.5532 8.70532 61.8959 8.07994 61.9861 7.89649C63.1949 5.47001 63.249 6.13708 61.5081 4.46939C59.5687 2.6266 60.1189 2.77669 57.8818 3.71893C56.2401 4.41103 56.8265 4.35266 55.8342 3.96075C54.5804 3.46878 54.7337 3.90238 54.2466 2.68497C53.1822 0.0416818 53.9309 0.42525 50.6835 0.42525C48.3653 0.42525 48.9877 -0.0333643 47.7158 3.21863C47.5444 3.6689 47.346 3.58552 46.8318 3.7773C45.0818 4.41936 46.056 4.44438 43.81 3.51047C42.1502 2.81838 42.7816 2.55155 40.283 4.8613C39.3268 5.74518 39.0472 5.7285 39.5072 6.57068C39.8319 7.17105 40.1476 7.81311 40.4543 8.44683C40.8242 9.20563 40.6528 8.79705 40.0845 10.3563C39.9131 10.8149 39.6786 10.7649 39.2185 10.915C38.8397 11.0401 38.4969 11.1652 38.1271 11.2902C37.1619 11.6238 36.5034 11.5154 36.5034 12.5577V12.5577Z" fill="white" stroke="white" stroke-miterlimit="22.9256"/>
<path fill-rule="evenodd" clip-rule="evenodd" d="M11.0659 45.3697C11.138 43.6937 11.0298 42.8014 11.6973 41.2838C12.2385 40.0581 12.9602 39.2159 13.7359 38.4905L17.0555 35.7388C17.3441 35.4803 17.4884 35.4136 17.732 35.2051L19.0941 34.0961C19.3106 36.9228 18.2462 39.8163 15.7926 41.534C14.9447 42.126 11.8326 44.9194 11.0659 45.3697V45.3697ZM7.11493 43.0933C5.28378 41.484 3.59696 40.8086 2.39724 38.1069C1.76581 36.6894 1.74777 35.6471 1.75679 33.996C2.68589 34.5631 3.46165 35.6721 4.12916 35.4469C4.48096 35.3219 4.58921 34.9216 4.41782 34.6298L1.68462 32.32C1.46813 32.1282 1.04417 31.9865 0.728455 32.2116C0.331556 32.4951 0.493924 35.1384 0.520985 35.622C0.665312 38.1569 2.09054 40.6751 4.0119 42.126L8.18836 45.5531C8.6033 45.9033 9.16257 46.2869 9.55947 46.6538C10.3442 47.3959 10.3713 47.521 11.129 46.8873L13.9073 44.6276C14.9537 43.652 16.8931 42.3762 18.0116 41.1421C20.0142 38.9407 20.366 37.1647 20.375 33.6292C20.375 33.304 20.4381 32.7286 20.2848 32.4534C20.1314 32.1783 19.7075 32.1032 19.3918 32.295C19.2384 32.3867 18.7964 32.7286 18.6611 32.8537L13.1316 37.3981C11.3636 38.8407 11.0478 40.1582 10.4705 40.9253C10.2721 40.6835 10.1548 40.3166 9.93833 39.9497C9.73086 39.6078 9.55947 39.3243 9.352 39.0325C8.81077 38.2903 6.9255 36.4392 6.32113 36.1557C5.83403 35.9389 5.41909 36.1974 5.39202 36.6227C5.36496 37.148 5.75284 37.1897 6.0415 37.4148C8.81979 39.5578 9.96539 41.8175 9.794 45.2696L7.11493 43.0933V43.0933Z" fill="white" stroke="white" stroke-miterlimit="22.9256"/>
<path fill-rule="evenodd" clip-rule="evenodd" d="M10.6325 25.6824C10.1364 25.4072 9.03587 23.6645 8.72015 22.9974C7.51141 20.4876 7.5926 18.3279 8.66603 15.8014C9.21628 14.5006 10.1364 13.6334 10.4431 13.0747C10.6325 13.1914 10.4701 13.0747 10.6415 13.2331C11.0925 13.6584 12.0216 15.3928 12.2562 15.8847C12.7162 16.8687 13.1311 18.2946 13.1311 19.5286C13.1311 21.78 12.2111 24.2732 10.6325 25.6824V25.6824ZM6.62741 20.3708C6.889 22.3137 7.7279 24.0481 8.72015 25.3572C10.3078 27.4335 10.5874 27.9505 12.3825 25.5156C14.809 22.2386 15.0254 18.5864 13.068 14.7507C12.202 13.058 11.0564 12.1158 11.0564 11.332L11.0655 7.87984C11.0745 7.31283 11.1015 6.75415 10.4611 6.74581C9.79359 6.72914 9.81163 7.29615 9.82065 7.87984V11.332C9.82967 12.2659 9.80261 12.0491 9.33354 12.5827C7.58358 14.6006 6.26659 17.5774 6.62741 20.3708V20.3708Z" fill="white" stroke="white" stroke-miterlimit="22.9256"/>
<path fill-rule="evenodd" clip-rule="evenodd" d="M55.0686 19.2286C55.3302 19.1785 55.6369 18.8784 55.8083 18.7366C58.8121 16.3351 59.1639 11.4905 55.8804 8.68044C55.4835 8.33857 53.9591 7.27959 53.3547 7.35463C53.0119 7.38799 52.7684 7.63814 52.8405 8.03839C52.9398 8.61374 54.2207 8.53035 55.7 10.2231C57.3868 12.1743 57.45 15.3762 55.5196 17.3357C54.8972 17.9611 54.3018 18.253 54.3109 18.6866C54.3109 19.0618 54.6446 19.3036 55.0686 19.2286Z" fill="white" stroke="white" stroke-miterlimit="22.9256"/>
<path fill-rule="evenodd" clip-rule="evenodd" d="M66.28 66.0489C66.28 66.4992 66.1267 67.2496 66.5777 67.4664C66.9295 67.6415 67.5249 67.5832 67.5339 66.741C67.5609 63.3389 67.597 60.8707 65.9824 57.8105C65.82 57.502 65.5133 56.9016 65.2697 56.7766C64.7285 56.493 64.2234 56.935 64.3767 57.4603C64.4398 57.6604 64.8638 58.3275 65.0172 58.6277C66.3071 61.1709 66.289 63.2722 66.28 66.0489Z" fill="white" stroke="white" stroke-miterlimit="22.9256"/>
<path fill-rule="evenodd" clip-rule="evenodd" d="M49.557 6.95429C44.1177 7.8465 42.9541 13.1414 43.6035 13.7418C44.0275 14.1337 44.5958 13.8585 44.677 13.3082C45.128 10.1813 47.2658 8.19671 50.6846 8.00493C51.298 7.97158 51.7129 7.48795 51.2799 7.02933C50.9281 6.67912 50.0261 6.87924 49.557 6.95429V6.95429Z" fill="white" stroke="white" stroke-miterlimit="22.9256"/>
<path fill-rule="evenodd" clip-rule="evenodd" d="M15.7481 8.53019C15.1617 8.82203 15.3963 10.1312 15.3963 10.7899L15.4233 17.2272C15.5135 17.5524 15.9465 17.7775 16.3615 17.544C16.8215 17.2939 16.6501 15.9347 16.6501 15.3177L16.6321 8.91376C16.5599 8.62191 16.1811 8.31339 15.7481 8.53019V8.53019Z" fill="white" stroke="white" stroke-miterlimit="22.9256"/>
<path fill-rule="evenodd" clip-rule="evenodd" d="M20.3652 15.0841V12.6326C20.3652 11.657 19.1474 11.6069 19.1113 12.6326C19.0843 13.4581 19.1113 14.3336 19.1113 15.1591C19.1113 15.7928 18.8588 17.0686 19.7518 17.0686C20.6448 17.0603 20.3652 15.7011 20.3652 15.0841Z" fill="white" stroke="white" stroke-miterlimit="22.9256"/>
<path fill-rule="evenodd" clip-rule="evenodd" d="M4.57131 8.54685C3.96694 8.86371 4.22853 10.3897 4.22853 11.0984C4.22853 11.7405 3.994 13.5416 5.19372 12.9746C5.65376 12.7494 5.48237 11.0484 5.48237 10.4063C5.48237 10.0061 5.73495 7.92147 4.57131 8.54685V8.54685Z" fill="white" stroke="white" stroke-miterlimit="22.9256"/>
<path fill-rule="evenodd" clip-rule="evenodd" d="M10.1994 0.483773C9.54992 0.725588 9.82053 2.28488 9.82053 2.97697C9.82053 3.61069 9.52286 5.38678 10.6865 4.96985C11.2728 4.76139 11.0744 3.12706 11.0654 2.44331C11.0563 1.7262 11.3269 0.0501743 10.1994 0.483773V0.483773Z" fill="white" stroke="white" stroke-miterlimit="22.9256"/>
<path fill-rule="evenodd" clip-rule="evenodd" d="M4.22864 14.3919L4.2557 17.2103C4.42709 17.8274 5.48248 17.844 5.48248 16.9268V14.3919C5.48248 13.3663 4.22864 13.3163 4.22864 14.3919V14.3919Z" fill="white" stroke="white" stroke-miterlimit="22.9256"/>
<path fill-rule="evenodd" clip-rule="evenodd" d="M62.0497 54.7835C62.2391 54.9503 62.6631 55.4423 62.8435 55.5257C63.3396 55.7341 63.7906 55.4006 63.7365 54.942C63.6824 54.5084 61.6799 52.8323 61.3461 52.7323C60.8409 52.5738 60.4621 52.874 60.4982 53.3243C60.5252 53.7079 61.4724 54.2582 62.0497 54.7835V54.7835Z" fill="white" stroke="white" stroke-miterlimit="22.9256"/>
</g>
<defs>
<clipPath id="clip0_711_1817">
<rect width="68" height="68" fill="white"/>
</clipPath>
</defs>
</svg>
