<svg width="68" height="68" viewBox="0 0 68 68" fill="none" xmlns="http://www.w3.org/2000/svg">
<path fill-rule="evenodd" clip-rule="evenodd" d="M50.4691 54.8523H59.2345V65.7425H50.4691V54.8523V54.8523ZM34.0005 62.1563C34.1271 62.1563 37.5063 63.7072 37.852 63.8831L41.7036 65.7425H26.2974L34.0005 62.1563ZM2.25745 54.8523H17.5309V65.7425H2.25745V54.8523ZM42.8986 58.0395C42.9419 58.5551 43.1228 59.0154 43.2414 59.5562C43.3741 60.1683 43.4555 60.515 43.5741 61.0829C43.757 61.9684 44.2264 63.5132 44.2264 64.2821L38.7355 61.8036C38.2129 61.5513 37.3203 61.0849 36.7897 60.9613C37.1414 60.4808 40.6241 59.1099 41.3478 58.746C41.9026 58.4676 42.385 58.3108 42.8986 58.0395V58.0395ZM23.7736 64.2821C23.7736 63.4047 24.241 61.9684 24.4048 61.1935C24.5335 60.5834 24.6078 60.2768 24.7365 59.6667C24.833 59.2094 25.0581 58.5591 25.1014 58.0395C25.7567 58.3862 30.8013 60.4025 31.2113 60.9613L23.7736 64.2821V64.2821ZM26.0311 53.6562L34.0005 50.1273C34.4729 50.1273 41.2945 53.4994 41.9689 53.6562C41.9689 54.3105 42.2303 55.193 42.368 55.782L33.9995 59.5722L25.633 55.782C25.7697 55.193 26.0311 54.3105 26.0311 53.6562V53.6562ZM59.2345 41.7036H65.7425V65.7425H61.493V52.5938H59.2345V41.7036V41.7036ZM36.7897 48.7423L40.3748 47.1492C40.799 48.0327 40.8663 49.9544 41.3046 50.8671L37.3605 49.1001C37.3545 49.0971 37.1193 48.9745 37.1002 48.9624C36.8339 48.8026 36.9665 48.8961 36.7897 48.7423V48.7423ZM26.6954 50.8671C27.1337 49.9544 27.201 48.0327 27.6252 47.1492C28.4152 47.5281 30.6214 48.3624 31.2113 48.875C30.7118 48.9916 27.2784 50.7314 26.6954 50.8671ZM43.0313 48.3443H52.5938V52.5938H48.2116V65.7425C46.5944 65.7425 47.0326 66.0069 46.5361 63.8319C46.3572 63.0459 46.2084 62.4478 46.0335 61.6779L43.0313 48.3443V48.3443ZM20.7191 65.7425H19.7894V52.5938H15.4062V48.3443H24.9687C24.9224 48.8971 24.643 49.9223 24.4903 50.5223C24.2933 51.2973 24.1716 51.9104 24.0058 52.6943C23.7123 54.0874 23.2841 55.6895 22.9876 57.1208L21.2548 64.8179C21.1563 65.2641 21.1875 65.7425 20.7191 65.7425V65.7425ZM28.1569 44.7581C28.1569 44.2575 28.2443 44.5068 28.2895 43.961H39.7115C39.824 45.3199 40.4824 44.4927 37.0088 46.1733C33.7362 47.7573 34.3875 47.9061 31.0787 46.2195C30.5992 45.9742 30.0927 45.7933 29.6163 45.5561C29.0956 45.2978 28.1569 45.0023 28.1569 44.7581V44.7581ZM30.8123 41.1719C30.8123 40.7467 35.873 35.8961 36.1253 35.7273C37.5887 37.9123 37.1877 36.1564 37.1877 41.5709H30.8123V41.1719V41.1719ZM4.38324 35.1956H10.8903V37.1877H4.38324V35.1956ZM30.8123 37.7194V32.9381H35.1956C35.1795 33.6668 35.0981 33.502 34.299 34.299C33.5402 35.0559 31.339 37.3666 30.8123 37.7194ZM21.9142 36.5233V27.0935C22.5082 27.2322 25.9004 29.0202 26.9166 29.5288C28.7418 30.4414 28.4222 29.7148 28.4222 33.0708C28.4222 33.5573 25.815 34.6397 25.3235 34.886C24.5405 35.277 22.6157 36.3605 21.9142 36.5233V36.5233ZM2.25745 30.8123H13.1487V32.8044H2.25745V30.8123V30.8123ZM37.3203 31.8747C37.3203 30.2857 37.9827 28.9941 38.7486 28.1237C41.6925 24.7747 48.2116 26.4592 48.2116 31.8747C48.2116 34.7071 45.7642 37.1877 43.2967 37.1877C41.5689 37.1877 40.1075 37.0389 38.7476 35.4951C38.0521 34.7061 37.3203 33.309 37.3203 31.8747V31.8747ZM30.8123 25.8984L34.8398 29.8404C35.1614 30.164 35.1825 30.0977 35.1956 30.6797H30.8123V25.8984ZM6.64069 26.4301H8.76547V28.4222H6.64069V26.4301ZM31.3109 23.1424L37.1877 23.1092V26.2974C37.1877 26.5346 36.8349 26.9075 36.6761 27.1136C36.456 27.398 36.3173 27.604 36.1253 27.8905L31.3109 23.1424V23.1424ZM46.0858 11.0239H48.2116V17.5309H46.0858V11.0239V11.0239ZM19.7894 11.0239H21.9142V17.5309H19.7894V11.0239V11.0239ZM25.235 13.1487H30.6797V15.4062H37.3203V13.1487H42.766C42.6363 13.7055 39.7587 17.8576 39.0732 18.8858C38.7617 19.3542 37.9797 20.3744 37.852 20.8518H30.149C29.9902 20.2578 26.1728 14.8966 25.4692 13.7116C25.2843 13.401 25.3436 13.3929 25.235 13.1487V13.1487ZM32.9381 6.64069H35.0629V13.1487H32.9381V6.64069ZM0 68H68V39.4451H65.8752V35.0629H63.6178V39.4451H61.493C61.493 36.7223 61.9573 37.1877 59.2345 37.1877V39.4451H56.9771V52.5938H54.8523V46.0858H42.5006L41.4382 41.5709H39.5788V38.7818C42.0433 40.0854 45.0335 39.5577 47.0899 38.1918C51.2651 35.4207 51.9244 28.9991 47.1703 25.4793C46.2878 24.8249 45.0596 24.3184 43.6977 24.1696C42.6604 24.0571 42.6655 24.0309 41.59 24.1907C41.2704 24.239 40.8814 24.3324 40.611 24.4078C40.0944 24.5536 40.0773 24.6621 39.5788 24.7033C39.5788 23.5113 39.4099 22.4177 39.8351 21.7725L42.4474 17.8767C42.764 17.4013 43.4846 16.1891 43.8284 15.9379V19.7894H50.4691V8.76547H48.3443V4.38324H46.0858V8.76547H43.8284V10.8903H37.3203V4.38324H35.1956V0H32.8044V4.38324H30.6797V10.8903H24.1716V8.76547H21.9142V4.38324H19.6567V8.76547H17.5309V19.7894H24.1716V15.9379L28.2192 21.8509C28.6272 22.5233 28.4222 26.798 28.4222 27.7578C27.001 27.006 25.5637 26.3286 24.0832 25.5888C23.2751 25.1848 20.3482 23.5656 19.6567 23.5083V40.1095C20.3482 40.0522 23.2751 38.433 24.0832 38.0289C25.5637 37.2892 27.001 36.6117 28.4222 35.8599V41.5709H26.5628L25.5004 46.0858H13.1487V52.5938H8.76547V39.5788H13.1487V35.1956C13.6513 35.1956 14.2774 35.2338 14.7589 35.2126C15.578 35.1765 15.4293 35.0157 15.4142 34.1412L15.4212 29.2042C15.4152 28.3398 15.3378 28.4011 14.4885 28.4101C13.3326 28.4232 12.1798 28.4222 11.0239 28.4222C11.0239 27.3126 11.0119 26.2029 11.031 25.0943C11.0541 23.7907 11.237 24.039 8.76547 24.039V19.6567C5.88285 19.6567 6.50802 18.7883 6.50802 24.039H4.38324V28.4222H0V35.1956H2.12478C2.12478 40.6211 1.08249 39.5788 6.50802 39.5788V52.5938H0V68H0Z" fill="white"/>
<path fill-rule="evenodd" clip-rule="evenodd" d="M52.5937 63.6178H57.1096V61.3593H52.5937V63.6178Z" fill="white"/>
<path fill-rule="evenodd" clip-rule="evenodd" d="M52.5937 59.2346H57.1096V56.9771H52.5937V59.2346Z" fill="white"/>
<path fill-rule="evenodd" clip-rule="evenodd" d="M61.3594 46.0858H63.6179V43.8284H61.3594V46.0858Z" fill="white"/>
<path fill-rule="evenodd" clip-rule="evenodd" d="M8.76544 63.6178H11.0239V61.3593H8.76544V63.6178Z" fill="white"/>
<path fill-rule="evenodd" clip-rule="evenodd" d="M61.3594 50.469H63.6179V48.2116H61.3594V50.469Z" fill="white"/>
<path fill-rule="evenodd" clip-rule="evenodd" d="M8.76544 59.2346H11.0239V56.9771H8.76544V59.2346Z" fill="white"/>
<path fill-rule="evenodd" clip-rule="evenodd" d="M4.38306 63.6178H6.64051V61.3593H4.38306V63.6178Z" fill="white"/>
<path fill-rule="evenodd" clip-rule="evenodd" d="M13.1486 63.6178H15.406V61.3593H13.1486V63.6178Z" fill="white"/>
<path fill-rule="evenodd" clip-rule="evenodd" d="M4.38306 59.2346H6.64051V56.9771H4.38306V59.2346Z" fill="white"/>
<path fill-rule="evenodd" clip-rule="evenodd" d="M13.1486 59.2346H15.406V56.9771H13.1486V59.2346Z" fill="white"/>
<path fill-rule="evenodd" clip-rule="evenodd" d="M41.7033 31.7421C41.7033 32.4547 42.0159 32.9382 42.7657 32.9382C44.2875 32.9382 44.2875 30.6797 42.7657 30.6797C42.1235 30.6797 41.7033 31.0998 41.7033 31.7421Z" fill="white"/>
</svg>
