<svg width="24" height="25" viewBox="0 0 24 25" fill="none" xmlns="http://www.w3.org/2000/svg">
<path opacity="0.1" fill-rule="evenodd" clip-rule="evenodd" d="M0 12.4683C0 5.84084 5.37258 0.468262 12 0.468262C18.6274 0.468262 24 5.84084 24 12.4683C24 19.0957 18.6274 24.4683 12 24.4683C5.37258 24.4683 0 19.0957 0 12.4683Z" fill="white"/>
<path fill-rule="evenodd" clip-rule="evenodd" d="M18.4 12.4594C18.4 12.8922 18.3559 13.3244 18.2694 13.7457C18.185 14.157 18.06 14.5608 17.8962 14.9468C17.7362 15.326 17.5378 15.6914 17.3059 16.0322C17.0774 16.3708 16.8143 16.6885 16.5252 16.9781C16.2355 17.2664 15.9167 17.5288 15.5783 17.7583C15.2364 17.9885 14.8705 18.1867 14.4911 18.3474C14.1045 18.5103 13.6997 18.6351 13.2888 18.7194C12.8669 18.8062 12.4331 18.8505 11.9997 18.8505C11.5659 18.8505 11.1321 18.8062 10.7109 18.7194C10.2993 18.6351 9.89459 18.5103 9.50832 18.3474C9.12893 18.1867 8.76264 17.9885 8.42076 17.7583C8.0823 17.5289 7.76354 17.2664 7.47446 16.9781C7.18508 16.6885 6.92193 16.3708 6.69317 16.0322C6.46253 15.6914 6.26376 15.326 6.10313 14.9468C5.93936 14.5608 5.81405 14.157 5.72936 13.7457C5.64374 13.3244 5.59998 12.8922 5.59998 12.4594C5.59998 12.0262 5.64371 11.5931 5.72939 11.1727C5.81408 10.7614 5.93938 10.357 6.10316 9.97156C6.26378 9.5921 6.46256 9.22637 6.69319 8.88558C6.92195 8.54668 7.18511 8.22961 7.47449 7.93969C7.76357 7.65133 8.08233 7.38953 8.42078 7.16048C8.76267 6.92922 9.12895 6.73109 9.50834 6.57005C9.89462 6.4068 10.2993 6.28168 10.7109 6.19806C11.1322 6.11194 11.5659 6.06824 11.9997 6.06824C12.4332 6.06824 12.8669 6.11194 13.2888 6.19806C13.6998 6.28171 14.1045 6.40683 14.4911 6.57005C14.8705 6.73106 15.2364 6.92922 15.5783 7.16048C15.9168 7.38953 16.2356 7.65133 16.5252 7.93969C16.8143 8.22961 17.0775 8.54668 17.3059 8.88558C17.5378 9.22637 17.7362 9.59212 17.8962 9.97156C18.06 10.357 18.185 10.7614 18.2694 11.1727C18.3559 11.5931 18.4 12.0262 18.4 12.4594ZM9.66766 7.52277C8.14351 8.24148 7.00595 9.64389 6.65124 11.334C6.79533 11.3353 9.07295 11.364 11.6971 10.6678C10.7512 8.98947 9.74049 7.61985 9.66766 7.52277ZM12.15 11.5082C9.33577 12.3495 6.6353 12.289 6.53844 12.2852C6.53686 12.3439 6.53405 12.4007 6.53405 12.4594C6.53405 13.8614 7.06376 15.1397 7.93444 16.1062C7.93256 16.1033 9.42828 13.4536 12.3778 12.5012C12.449 12.4775 12.5216 12.4562 12.5934 12.4356C12.4563 12.1255 12.3065 11.8146 12.15 11.5082ZM15.6092 8.36318C14.647 7.5159 13.3835 7.00196 11.9997 7.00196C11.5556 7.00196 11.1246 7.05564 10.7118 7.15487C10.7937 7.26473 11.8203 8.6247 12.755 10.3385C14.8173 9.56651 15.5958 8.38314 15.6092 8.36318ZM12.966 13.34C12.9538 13.344 12.9416 13.3475 12.9297 13.3519C9.70494 14.4745 8.65184 16.7368 8.64045 16.7615C9.56833 17.482 10.7321 17.9168 11.9997 17.9168C12.7566 17.9168 13.4776 17.7629 14.1335 17.4842C14.0526 17.0074 13.7351 15.336 12.966 13.34ZM15.0539 16.9856C16.2811 16.1586 17.1527 14.8454 17.3959 13.3244C17.2834 13.2882 15.7542 12.8048 13.9901 13.0872C14.707 15.0545 14.9983 16.6567 15.0539 16.9856ZM13.1757 11.1518C13.3026 11.4121 13.4254 11.677 13.5388 11.9432C13.5792 12.0387 13.6185 12.1323 13.657 12.2259C15.5346 11.99 17.3843 12.3869 17.4634 12.4032C17.4509 11.1093 16.9874 9.92193 16.2206 8.9923C16.2102 9.00694 15.3336 10.2717 13.1757 11.1518Z" fill="white"/>
</svg>
