<svg width="50" height="51" viewBox="0 0 50 51" fill="none" xmlns="http://www.w3.org/2000/svg">
<g clip-path="url(#clip0)">
<path d="M0 50.0234H50V0.0234375H0V50.0234Z" fill="white"/>
<path d="M35.714 24.6989C30.5192 24.6989 25.9738 28.595 25.9738 33.7898C25.9738 38.9846 30.5192 43.53 35.714 43.53C40.9088 43.53 44.8049 38.9846 44.8049 33.7898C44.8049 28.595 40.9088 24.6989 35.714 24.6989ZM35.0647 31.8417L37.0127 33.1404C38.3114 33.7898 38.9608 35.0885 38.9608 36.3872C38.9608 37.6859 38.3114 38.3352 37.0127 38.9846C37.0127 40.2833 36.3634 40.2833 35.714 40.2833C35.0647 40.2833 34.4153 40.2833 34.4153 38.9846C33.766 38.9846 32.4673 37.6859 32.4673 37.0365C31.8179 36.3872 32.4673 35.7378 33.1166 35.0885C33.766 35.0885 34.4153 35.0885 34.4153 35.7378C35.0647 36.3872 35.0647 37.0365 35.714 36.3872C36.3634 36.3872 36.3634 36.3872 36.3634 36.3872V35.7378L33.766 34.4391C32.4673 33.7898 31.8179 32.4911 32.4673 31.1924C32.4673 29.8937 33.1166 28.595 34.4153 28.595V27.9456C34.4153 27.2963 35.0647 26.6469 35.714 26.6469C36.3634 26.6469 37.0127 27.2963 37.0127 27.9456V28.595C37.6621 29.2443 38.9608 29.8937 38.9608 30.543C39.6101 31.1924 38.9608 31.8417 38.3114 32.4911C37.6621 32.4911 37.0127 32.4911 36.3634 31.8417C36.3634 31.1924 35.714 31.1924 35.0647 31.1924C35.0647 31.8417 35.0647 31.8417 35.0647 31.8417Z" fill="#173042"/>
<path d="M38.9606 7.81555H34.4151C33.1164 7.81555 32.4671 9.11425 32.4671 10.413C32.4671 11.0623 31.8177 12.361 30.519 12.361C29.2203 12.361 28.571 11.0623 28.571 10.413C28.571 9.11425 27.2723 7.81555 25.9736 7.81555H20.7788C19.4801 7.81555 18.8307 9.11425 18.8307 10.413C18.8307 11.0623 18.1814 12.361 16.8827 12.361C15.584 12.361 14.9346 11.0623 14.9346 10.413C14.9346 9.11425 13.6359 7.81555 12.3372 7.81555H8.44109C7.14239 7.81555 6.49304 9.11425 6.49304 10.413V36.387C6.49304 37.6857 7.14239 38.335 8.44109 38.335H24.6749C24.0255 37.0363 23.3762 35.7376 23.3762 33.7896C23.3762 27.2961 29.2203 22.1013 35.7138 22.1013C37.6619 22.1013 38.9606 22.1013 40.9086 22.7506V10.413C40.9086 9.11425 39.6099 7.81555 38.9606 7.81555ZM12.3372 33.1402C11.6878 33.1402 10.3891 32.4909 10.3891 31.1922C10.3891 29.8935 11.6878 29.2441 12.3372 29.2441C13.6359 29.2441 14.9346 29.8935 14.9346 31.1922C14.9346 32.4909 13.6359 33.1402 12.3372 33.1402ZM12.3372 27.2961C11.6878 27.2961 10.3891 25.9974 10.3891 24.6987C10.3891 24.0493 11.6878 22.7506 12.3372 22.7506C13.6359 22.7506 14.9346 24.0493 14.9346 24.6987C14.9346 25.9974 13.6359 27.2961 12.3372 27.2961ZM18.8307 33.1402C17.532 33.1402 16.8827 32.4909 16.8827 31.1922C16.8827 29.8935 17.532 29.2441 18.8307 29.2441C20.1294 29.2441 20.7788 29.8935 20.7788 31.1922C20.7788 32.4909 20.1294 33.1402 18.8307 33.1402ZM18.8307 27.2961C17.532 27.2961 16.8827 25.9974 16.8827 24.6987C16.8827 24.0493 17.532 22.7506 18.8307 22.7506C20.1294 22.7506 20.7788 24.0493 20.7788 24.6987C20.7788 25.9974 20.1294 27.2961 18.8307 27.2961ZM18.8307 20.8026C17.532 20.8026 16.8827 20.1532 16.8827 18.8545C16.8827 17.5558 17.532 16.9065 18.8307 16.9065C20.1294 16.9065 20.7788 17.5558 20.7788 18.8545C20.7788 20.1532 20.1294 20.8026 18.8307 20.8026ZM25.3242 20.8026C24.0255 20.8026 22.7268 20.1532 22.7268 18.8545C22.7268 17.5558 24.0255 16.9065 25.3242 16.9065C25.9736 16.9065 27.2723 17.5558 27.2723 18.8545C27.2723 20.1532 25.9736 20.8026 25.3242 20.8026Z" fill="#173042"/>
</g>
<defs>
<clipPath id="clip0">
<rect width="50" height="50" fill="white" transform="translate(0 0.0234375)"/>
</clipPath>
</defs>
</svg>
