<svg width="24" height="25" viewBox="0 0 24 25" fill="none" xmlns="http://www.w3.org/2000/svg">
<path opacity="0.1" fill-rule="evenodd" clip-rule="evenodd" d="M0 12.4683C0 5.84084 5.37258 0.468262 12 0.468262C18.6274 0.468262 24 5.84084 24 12.4683C24 19.0957 18.6274 24.4683 12 24.4683C5.37258 24.4683 0 19.0957 0 12.4683Z" fill="black"/>
<path d="M10.474 9.167V10.916H8V13.545H10.474V20.771C10.963 20.845 11.46 20.895 11.969 20.895C12.429 20.895 12.879 20.853 13.323 20.793V13.545H15.911L16.317 10.916H13.322V9.479C13.322 8.387 13.679 7.418 14.701 7.418H16.343V5.124C16.054 5.085 15.445 5 14.292 5C11.885 5 10.474 6.271 10.474 9.167Z" fill="white"/>
</svg>
