<svg width="59" height="59" viewBox="0 0 59 59" fill="none" xmlns="http://www.w3.org/2000/svg">
<g clip-path="url(#clip0)">
<path fill-rule="evenodd" clip-rule="evenodd" d="M2.44372 32.4419L6.2504 32.4634L6.16176 48.2244L2.46768 48.2028L2.44372 32.4419ZM8.76583 47.1679C8.11901 46.1689 8.234 35.9371 8.51429 34.3153C9.7193 33.7739 21.113 33.8625 21.9754 34.4231C25.1305 34.7106 26.0432 38.0453 29.1983 39.2311C31.9054 40.2493 38.6012 39.0515 40.2255 40.2229C41.4185 41.083 41.5143 43.3229 39.7679 43.9098C37.722 44.5974 24.7065 43.2223 22.4905 44.5088C22.124 47.362 25.4371 46.4253 27.8544 46.4253C30.1709 46.4253 32.4875 46.4253 34.8041 46.4253C47.1058 46.4253 56.0056 38.6346 56.6764 43.814C56.9375 45.8216 54.9204 46.7104 53.5165 47.5081C49.6667 49.7025 43.2991 52.4312 39.1019 54.2135C35.4677 55.7563 32.3438 57.359 27.7106 56.2139C23.511 55.1766 11.3939 47.6255 8.76583 47.1679ZM43.2128 40.4529C41.3155 36.6582 39.2552 37.4248 33.7309 37.444C27.5429 37.4632 28.1658 34.7776 25.0155 32.9785C23.7578 32.2598 22.9145 32.9857 22.8546 28.537C22.8019 24.6129 24.11 21.6136 26.3954 18.7891C27.9622 16.851 28.7815 16.506 30.7842 16.5276C35.2425 16.5707 39.7272 16.4605 44.1759 16.5204C45.5007 16.5372 46.0445 16.8414 46.6961 17.4523C55.5576 25.7437 51.358 37.6692 43.6225 41.1764L43.2128 40.4529ZM42.2857 10.7349C44.0657 10.7349 46.4374 10.3468 47.101 11.7052C48.8282 15.2483 40.4602 14.2062 38.2778 14.2062C36.3182 14.2062 34.3585 14.2062 32.3989 14.2062C29.9649 14.2062 29.0977 14.6207 27.3201 13.3725C26.9536 10.9074 28.3383 10.7206 30.5183 10.7301L42.2857 10.7349ZM29.5241 4.27867C33.0433 5.32796 32.109 3.45696 33.7357 2.37413C34.9215 2.74066 34.9838 4.11816 37.1998 3.984C39.1834 3.86182 38.9414 2.57297 40.465 2.37173C41.3011 3.84745 41.8928 5.33754 44.437 4.24992L42.9613 8.40157L30.916 8.34408L29.5241 4.27867ZM7.22543 50.426C8.30347 50.105 7.87226 49.9349 8.61491 49.5109C10.5218 50.7135 13.8734 52.2084 16.1325 53.3535C29.045 59.8984 28.9683 60.9237 42.0342 55.5383C45.8313 53.974 54.6664 50.0595 57.3568 47.8842C59.6158 46.0563 59.5871 41.9694 56.9758 40.3044C54.1753 38.5148 50.6945 40.8075 47.8676 41.4016C48.5504 40.3954 50.6298 38.9964 52.127 35.9611C54.5251 31.1027 54.6401 25.8898 52.2564 20.9691C50.6082 17.5625 50.05 17.8045 48.2892 15.7059C48.833 14.3452 50.3615 13.4468 49.2954 10.8403C48.3036 8.41116 47.3262 9.25682 45.5965 8.2243C45.6995 7.79787 49.523 -0.529396 42.9493 2.14894C41.0496 -2.37165 37.0249 1.63866 36.941 1.67699C35.9181 1.03017 35.4701 -0.00235386 33.7596 0.0359765C32.1138 0.0719112 31.4239 0.86487 31.0334 2.16571C24.3687 -0.524605 28.2856 7.97036 28.3503 8.2243C27.035 9.36462 25.9067 8.73217 25.0802 11.0655C24.1746 13.6193 25.8995 14.9728 26.187 15.7059C25.1592 16.9277 24.5364 17.3637 23.5853 18.6525C19.8313 23.7409 20.7728 27.4877 20.7752 31.91L8.66522 31.9053C7.8459 30.2187 7.7956 30.0678 5.41672 30.0678C3.96975 30.0678 1.71065 29.7707 0.778745 30.602C-0.47897 31.7256 0.0935899 49.1587 0.481685 49.7456C1.21475 50.8524 3.23668 50.5506 4.8753 50.5602C5.6491 50.5649 6.48757 50.644 7.22543 50.426Z" fill="#D7E2FF"/>
<path fill-rule="evenodd" clip-rule="evenodd" d="M35.6424 19.6443C40.1869 18.6118 43.9337 21.7644 44.7411 25.5112C46.9283 35.652 31.6249 38.4238 29.6868 28.6112C28.7645 23.9541 32.0369 20.4636 35.6424 19.6443ZM35.9634 17.2439C22.4424 19.0933 25.8274 39.0322 38.6968 37.0247C51.8513 34.9716 48.6963 15.4998 35.9634 17.2439Z" fill="#D7E2FF"/>
<path d="M39.3227 26.8628C39.3227 25.4928 38.1227 25.1628 37.0027 24.8828V22.5528C37.5627 22.5828 38.1627 22.7728 38.7027 23.1128L39.0327 22.3128C38.5027 21.9528 37.7527 21.7328 37.0027 21.7028V20.5728H36.3627V21.7128C34.8127 21.8428 34.1027 22.7028 34.1027 23.6928C34.1027 25.0528 35.2627 25.4028 36.3627 25.6728V27.9928C35.5527 27.9428 34.7727 27.6228 34.3027 27.1928L33.9327 27.9728C34.4527 28.4528 35.3827 28.7928 36.3627 28.8428V29.9728H37.0027V28.8428C38.5827 28.7128 39.3227 27.8528 39.3227 26.8628ZM35.0827 23.6528C35.0827 23.1228 35.4727 22.6728 36.3627 22.5628V24.7228C35.6427 24.5328 35.0827 24.2728 35.0827 23.6528ZM37.0027 27.9828V25.8328C37.7427 26.0328 38.3427 26.2828 38.3427 26.9228C38.3427 27.4628 37.9327 27.8928 37.0027 27.9828Z" fill="#D7E2FF"/>
</g>
<defs>
<clipPath id="clip0">
<rect width="59" height="59" fill="white"/>
</clipPath>
</defs>
</svg>
