<svg width="198" height="89" viewBox="0 0 198 89" fill="none" xmlns="http://www.w3.org/2000/svg">
<rect width="198" height="89" fill="white"/>
<path d="M63.5785 55.4566C63.5785 56.8083 63.7534 57.7931 64.1032 58.411C64.4529 59.029 65.0165 59.3379 65.7938 59.3379C66.2601 59.3379 66.7071 59.2993 67.1346 59.2221C67.6009 59.1448 68.1645 58.971 68.8252 58.7007L69.6413 64.6097C69.0195 64.9186 68.0673 65.2276 66.7848 65.5366C65.5023 65.8455 64.1809 66 62.8206 66C60.6054 66 58.9148 65.4979 57.7489 64.4938C56.583 63.451 56 61.7517 56 59.3959V24.6372H63.5785V55.4566Z" fill="#00A82D"/>
<path d="M73.6022 36.2235H81.1807V65.189H73.6022V36.2235ZM72.4946 28.0552C72.4946 26.9352 72.9027 25.989 73.7188 25.2165C74.5738 24.4055 75.7398 24 77.2166 24C78.6934 24 79.8788 24.4055 80.7727 25.2165C81.7054 25.989 82.1718 26.9352 82.1718 28.0552C82.1718 29.1752 81.7054 30.1214 80.7727 30.8938C79.8788 31.6276 78.6934 31.9945 77.2166 31.9945C75.7398 31.9945 74.5738 31.6276 73.7188 30.8938C72.9027 30.1214 72.4946 29.1752 72.4946 28.0552Z" fill="#00A82D"/>
<path d="M98.6436 51.4014L99.6347 55.8621H99.9261L100.742 51.2855L105.697 36.2235H113.859L101.675 65.4786H97.0696L84.4194 36.2235H93.2221L98.6436 51.4014Z" fill="#00A82D"/>
<path d="M114.543 50.7062C114.543 45.8014 115.747 42.0359 118.157 39.4097C120.566 36.7448 123.948 35.4124 128.3 35.4124C130.632 35.4124 132.653 35.7793 134.363 36.5131C136.073 37.2469 137.492 38.2897 138.619 39.6414C139.746 40.9545 140.581 42.5572 141.126 44.4497C141.709 46.3421 142 48.4276 142 50.7062C142 55.611 140.795 59.3959 138.386 62.0607C136.015 64.6869 132.653 66 128.3 66C125.969 66 123.948 65.6331 122.238 64.8993C120.528 64.1655 119.09 63.1421 117.924 61.829C116.797 60.4772 115.942 58.8552 115.359 56.9628C114.815 55.0703 114.543 52.9848 114.543 50.7062ZM122.354 50.7062C122.354 51.9807 122.471 53.1586 122.704 54.24C122.937 55.3214 123.287 56.2676 123.753 57.0786C124.22 57.8897 124.822 58.5269 125.56 58.9903C126.338 59.4152 127.251 59.6276 128.3 59.6276C130.282 59.6276 131.759 58.9131 132.731 57.4841C133.703 56.0552 134.188 53.7959 134.188 50.7062C134.188 48.0414 133.741 45.8979 132.848 44.2759C131.954 42.6152 130.438 41.7848 128.3 41.7848C126.435 41.7848 124.978 42.48 123.928 43.8703C122.879 45.2607 122.354 47.5393 122.354 50.7062Z" fill="#00A82D"/>
</svg>
