<svg width="36" height="61" viewBox="0 0 36 61" fill="none" xmlns="http://www.w3.org/2000/svg">
<path fill-rule="evenodd" clip-rule="evenodd" d="M9.60322 23.3435H26.7458C26.7311 23.1711 26.6954 23.1648 26.502 23.1353C25.9073 23.0491 25.9535 23.1416 25.3714 22.7232C25.1339 22.5528 24.5392 21.964 24.4131 21.6802C24.1462 21.0787 25.2306 20.9505 25.4534 18.8014C25.6236 17.1801 25.2033 16.7637 24.7052 15.6113C24.0936 14.194 24.6295 13.6157 25.9178 13.2561C26.9728 12.9617 28.1161 12.7388 29.2215 12.5559C31.6888 12.1479 33.8282 12.3856 35.1354 10.4573C35.6734 9.66446 35.9949 8.31443 35.7595 7.15576C35.2005 7.4754 34.9882 7.67727 34.2485 8.03055C33.7084 8.2892 33.1346 8.52892 32.542 8.74762C31.3462 9.18712 30.0937 9.5446 28.8201 9.86634C26.4285 10.4741 20.6155 11.6895 21.3427 14.4527C21.8029 16.2022 23.6733 16.2401 23.8835 19.1841C23.9087 19.5332 23.9423 20.0042 23.6397 20.1072C23.2362 20.246 23.0449 19.9327 22.8873 19.7119C22.3998 19.0369 22.3241 18.9717 21.7651 18.4102C20.0691 16.7132 16.5258 16.5997 14.6155 18.3913C13.5521 19.3881 13.3188 20.2649 12.7493 20.1177C12.1272 19.9579 12.5896 17.9644 12.9636 17.2978C13.2179 16.8478 13.7139 16.2359 14.027 15.9394C14.9181 15.0982 15.6074 13.8807 14.4894 12.6463C13.26 11.2879 9.8491 10.4636 7.56888 9.87685C5.37063 9.31118 3.30477 8.71818 1.34399 7.6268C1.07499 7.4775 0.822798 7.29035 0.591624 7.15576C0.171308 9.18922 1.20108 11.5129 3.59899 12.0344C4.66659 12.2657 5.98008 12.3645 7.08762 12.5475C8.20776 12.7325 9.36574 12.9575 10.4333 13.2561C13.0939 13.9985 11.4127 15.7039 11.0428 16.9614C10.6414 18.3303 10.8915 19.775 11.6859 20.9484C11.8204 21.146 12.0684 21.3227 11.9528 21.6444C11.8288 21.9893 10.9062 22.9335 10.3493 23.0701C9.88693 23.1837 9.63054 23.0365 9.60322 23.3414V23.3435Z" fill="#D3D3D3"/>
<path fill-rule="evenodd" clip-rule="evenodd" d="M19.5505 47.7286L19.6892 39.5001C19.2247 39.3361 17.3732 38.087 16.955 37.9272L17.1126 47.1187L18.1949 47.8926C18.5522 48.1512 18.9221 48.3931 19.2836 48.6664C19.4412 48.7863 19.6766 48.944 19.8321 49.0513C20.0885 49.23 20.1599 49.1249 20.4668 48.9924C20.8997 48.8052 21.341 48.5928 21.7235 48.3846C23.3564 47.4951 24.672 46.2229 25.2563 44.4166C25.5715 43.443 25.624 42.1455 25.3992 41.1004C25.2878 40.5852 25.0986 40.1667 24.8528 39.784C24.5249 39.2751 24.3316 39.1048 24.0163 38.7094C22.7617 37.1386 14.534 32.7941 12.1214 30.9941C11.9343 30.8532 11.7473 30.7249 11.5792 30.6008C10.5452 29.8375 9.31783 28.5863 9.42081 27.1248C9.59734 24.6056 13.0335 24.6309 13.437 26.7884C13.7312 28.3592 12.6825 29.1394 12.7413 29.7681C12.8296 30.7249 14.5676 30.1992 15.1561 29.4169C15.7025 28.6873 15.8601 27.3898 15.4503 26.4036C15.1119 25.5919 14.3659 24.9989 13.4685 24.6582C9.96302 23.3355 7.13219 25.8926 8.71468 29.6924C9.08876 30.5903 9.64358 31.3789 10.1564 31.9803C11.7242 33.8203 14.5235 35.5951 16.5305 36.8316C18.2559 37.8956 21.4125 39.7903 22.9592 41.1635C23.3816 41.5378 23.7557 41.8889 23.8524 42.5997C23.9281 43.157 23.8398 43.8215 23.6759 44.3261C23.3648 45.2872 22.6713 45.9348 22.0387 46.4143C21.6163 46.736 20.1809 47.5793 19.5505 47.7244V47.7286Z" fill="#D3D3D3"/>
<path fill-rule="evenodd" clip-rule="evenodd" d="M19.8017 33.7758L19.9383 24.824L16.7502 24.8219C16.685 25.1142 16.83 30.8592 16.8447 31.6961C16.851 32.0851 16.8615 32.4741 16.8615 32.8632C16.8615 33.2922 16.7901 33.1765 17.4079 33.534L21.1025 35.7083C21.2602 35.8051 21.3169 35.8702 21.4913 35.7672C21.6258 35.6894 21.7183 35.6137 21.8591 35.5233C22.3425 35.2121 22.809 34.8987 23.2672 34.556C24.1141 33.923 25.1187 33.1681 25.8122 32.3963C26.4994 31.6288 27.2307 30.7624 27.6973 29.528C28.809 26.5967 27.3232 23.9828 24.1624 24.3571C23.4815 24.437 22.8952 24.6158 22.3677 24.8934C21.775 25.2067 21.4409 25.5137 21.1088 26.0121C20.3922 27.0887 20.5897 28.8678 21.3841 29.6437C21.9537 30.201 23.7127 30.7603 23.6055 29.6059C23.5845 29.3745 23.3302 29.0023 23.2188 28.7857C22.5526 27.4883 22.809 25.97 23.9187 25.4191C24.8602 24.9543 26.5519 25.1899 26.8756 26.7565C27.235 28.4934 25.8584 29.7173 24.8391 30.5332C23.5908 31.5321 21.9663 32.5015 20.5603 33.3342C20.3334 33.4688 20.016 33.6812 19.8017 33.7716V33.7758Z" fill="#D3D3D3"/>
<path fill-rule="evenodd" clip-rule="evenodd" d="M19.8488 57.5189C20.0905 57.7039 20.1598 57.8743 20.5171 58.0551C21.4607 58.5325 22.3518 57.9079 22.873 57.1298C23.6106 56.028 23.3479 54.4718 22.854 53.2942C21.9104 51.0547 20.1955 49.5449 18.0162 48.5797C15.7927 47.5934 13.5356 46.2245 12.5668 44.437C11.4803 42.4309 12.5437 40.8811 14.3048 39.8886C14.8659 39.5731 15.3115 39.3839 15.9356 39.1484L15.9524 37.3336C15.778 37.1759 15.3409 36.9467 15.1139 36.81C14.6347 36.5198 14.6999 36.5387 14.2249 36.8268C12.6677 37.7773 11.1482 39.1778 10.6039 41.1755C9.32198 45.8943 14.3006 48.3778 17.5034 49.8876C18.1192 50.1778 18.695 50.4533 19.2603 50.7877C20.3363 51.4248 21.3514 52.2554 21.9777 53.3784C22.9129 55.0543 22.7195 58.0551 20.8575 57.8049C20.6726 57.7796 20.4961 57.7355 20.3321 57.6808C20.2502 57.6535 19.9055 57.4642 19.8866 57.4663L19.8488 57.5189Z" fill="#D3D3D3"/>
<path fill-rule="evenodd" clip-rule="evenodd" d="M16.0215 57.3321C14.0376 58.7095 11.8015 55.9253 14.7774 52.1549C15.0947 51.7533 16.053 50.7145 16.5553 50.6114C17.3476 51.4778 17.169 50.6766 17.2047 52.6175L17.293 57.7422C17.3077 58.5791 17.169 59.5212 17.7784 59.864C18.4656 60.2509 19.2579 59.8703 19.3441 59.1406C19.4282 58.4172 19.3861 57.3385 19.3966 56.5772C19.4135 55.4837 19.529 52.2495 19.4849 51.4336L15.887 49.6841C14.7963 50.5946 12.8607 52.4157 12.4677 54.4113C12.2618 55.4564 12.5371 56.8695 13.2705 57.5214C14.0922 58.249 15.2439 58.352 16.0215 57.33V57.3321Z" fill="#D3D3D3"/>
<path fill-rule="evenodd" clip-rule="evenodd" d="M14.14 10.2093C15.4724 10.264 15.4493 9.61423 15.754 9.09693C16.0861 9.30932 16.7061 10.3313 17.7106 9.47124C17.8956 9.31353 18.0069 9.06329 18.1751 8.91819C18.3579 9.0759 18.69 9.74461 19.2931 9.80139C19.9866 9.86658 20.2724 9.30511 20.5961 9.09693C20.7936 9.43549 20.8273 9.7341 21.0984 9.94438C21.3884 10.1673 21.733 10.2262 22.1996 10.2051L21.8045 11.2355C21.2224 11.1073 21.0395 10.9601 20.1379 10.8129C18.8308 10.5984 16.6703 10.6467 15.3674 10.9916C15.0857 11.0652 14.8062 11.1788 14.5456 11.2376L14.1421 10.2114L14.14 10.2093ZM17.366 5.64826C17.3933 4.62207 18.9569 4.62417 18.9842 5.64195L18.3327 5.6777C18.3054 5.73658 18.2949 5.79966 18.2759 5.84172C18.2003 6.01205 18.3222 5.8985 18.1772 5.98051C18.0301 5.8985 18.1541 6.01205 18.0784 5.84172C18.0595 5.80177 18.0469 5.73237 18.0217 5.66088L17.3681 5.64826H17.366ZM17.0297 6.15505C17.326 6.14243 17.8956 5.59569 17.8914 6.76487C17.8893 7.33474 17.9817 7.93616 17.7127 8.35252C17.5068 8.67426 17.1495 9.0738 16.5337 8.87193C16.0462 8.71211 15.8696 8.35252 15.5985 7.99714C15.3106 8.59225 15.2371 9.07801 14.7348 9.37871C14.2094 9.69625 13.3582 9.39764 12.9316 9.16212L14.3019 11.8369C14.8777 11.7318 15.4787 11.5215 16.1092 11.4038C17.4879 11.1472 18.8266 11.1388 20.2073 11.3953C20.8525 11.5152 21.464 11.7276 22.0525 11.8348L23.4416 9.17053C21.4073 10.1631 21.1803 8.88034 20.7537 7.99294C20.4784 8.34832 20.3229 8.68057 19.8542 8.85721C19.2427 9.08642 18.8791 8.71001 18.6584 8.37776C18.3684 7.94457 18.4651 7.39573 18.463 6.80693C18.463 6.47258 18.4146 6.24126 18.6269 6.09196C18.8917 5.90691 19.1082 6.14243 19.3225 6.14874C19.4045 5.22979 19.0766 4.43491 18.1772 4.43702C17.2861 4.43702 16.9498 5.23189 17.0318 6.15084L17.0297 6.15505Z" fill="#D3D3D3"/>
<path fill-rule="evenodd" clip-rule="evenodd" d="M25.7471 14.5917L32.8379 15.2057L33.8172 12.9662C32.861 12.8379 30.2824 13.1197 29.282 13.269C28.2081 13.4288 26.0687 13.8431 25.7492 14.5917H25.7471Z" fill="#D3D3D3"/>
<path fill-rule="evenodd" clip-rule="evenodd" d="M3.51712 15.1953L10.3683 14.6128C10.4124 14.6065 10.4397 14.6044 10.4839 14.5918C10.4965 14.5897 10.5091 14.5834 10.5196 14.5792L10.5911 14.5498C9.7294 13.2523 3.77352 12.8023 2.54199 12.9642L3.51922 15.1953H3.51712Z" fill="#D3D3D3"/>
<path fill-rule="evenodd" clip-rule="evenodd" d="M32.3617 15.9625L25.9834 15.2412C26.0654 16.4272 25.8531 16.1265 27.3557 16.6859C28.0388 16.9403 28.6924 17.1969 29.3775 17.4576C29.6086 17.546 30.6699 18.0401 30.8738 17.9392C31.3551 17.6995 32.2545 16.4651 32.3617 15.9625Z" fill="#D3D3D3"/>
<path fill-rule="evenodd" clip-rule="evenodd" d="M3.9873 15.9628C4.10289 16.5095 5.23984 18.0614 5.65806 17.9647L10.1407 16.2488C10.332 16.1352 10.3004 15.7903 10.3719 15.2478L3.9894 15.9649L3.9873 15.9628Z" fill="#D3D3D3"/>
<path fill-rule="evenodd" clip-rule="evenodd" d="M6.36523 18.6331C6.43458 18.7698 6.78555 19.0179 6.93266 19.1357C7.13231 19.2976 7.28152 19.4911 7.51059 19.5815C7.76068 19.3859 8.00236 19.1967 8.23564 19.0011L9.67313 17.8298C10.0913 17.5018 10.0913 17.6301 10.1123 16.9319L6.36523 18.6331Z" fill="#D3D3D3"/>
<path fill-rule="evenodd" clip-rule="evenodd" d="M28.8852 19.5796C29.0701 19.4219 29.9024 18.7827 29.9885 18.646L26.2393 16.9216C26.2498 17.7375 26.2982 17.4831 27.3994 18.4083C27.6221 18.5955 28.6961 19.5123 28.8831 19.5775L28.8852 19.5796Z" fill="#D3D3D3"/>
<path fill-rule="evenodd" clip-rule="evenodd" d="M22.3005 4.5568H21.5859C21.6721 4.73554 21.9474 4.94162 22.1365 5.03835L21.9432 5.81431C22.1555 5.69234 22.3551 5.5136 22.5548 5.39374C22.7355 5.53673 22.9877 5.74281 23.1558 5.83744L22.9288 5.02153C23.1033 4.93952 23.3891 4.73344 23.4984 4.5589L22.8006 4.5568C22.704 4.37806 22.664 4.08997 22.5548 3.91333L22.5169 3.97642C22.4434 4.12151 22.5211 3.95749 22.4854 4.0416L22.3047 4.5589L22.3005 4.5568Z" fill="#D3D3D3"/>
<path fill-rule="evenodd" clip-rule="evenodd" d="M13.5493 4.55661H12.8516C12.8579 4.56923 12.8705 4.57133 12.8747 4.59026C12.8789 4.60919 12.8915 4.61549 12.8978 4.6218C12.9314 4.66176 12.9356 4.67017 12.9692 4.70381C13.0995 4.8384 13.2109 4.87204 13.4064 5.08653L13.192 5.83305L13.7973 5.39145C13.999 5.51552 14.1966 5.69215 14.3962 5.81622L14.2008 5.04027C14.4109 4.93723 14.6799 4.72905 14.764 4.55451H14.0474L13.8519 4.00356C13.8141 3.92366 13.8204 3.94258 13.7973 3.90894C13.6838 4.09188 13.6544 4.36105 13.5514 4.55241L13.5493 4.55661Z" fill="#D3D3D3"/>
<path fill-rule="evenodd" clip-rule="evenodd" d="M18.0053 1.65905L17.3076 1.66536C17.3139 1.67798 17.3265 1.68218 17.3307 1.70321C17.3539 1.80415 17.7742 2.09855 17.8582 2.14271L17.646 2.92917C17.8982 2.803 18.0222 2.60954 18.2659 2.49388C18.453 2.63057 18.6568 2.83244 18.8586 2.93338L18.6442 2.13429C18.8271 2.04387 19.1003 1.85251 19.2117 1.66956L18.4887 1.66326L18.2596 0.981934C18.2092 1.06184 18.2239 1.0345 18.1819 1.14175C18.1104 1.3247 18.1104 1.44035 18.0053 1.66115V1.65905Z" fill="#D3D3D3"/>
<path fill-rule="evenodd" clip-rule="evenodd" d="M15.5126 2.42004L14.7939 2.41794C14.8738 2.55673 15.2331 2.82799 15.3508 2.88687L15.1386 3.69437C15.2899 3.63339 15.5 3.41469 15.7522 3.25698C15.8153 3.31796 16.2608 3.6418 16.3512 3.68596L16.1452 2.89739L16.6454 2.52308C16.7231 2.43266 16.6412 2.56093 16.7168 2.41794H15.9918L15.7501 1.74292L15.5126 2.42004Z" fill="#D3D3D3"/>
<path fill-rule="evenodd" clip-rule="evenodd" d="M12.7723 7.36405L12.043 7.36615C12.1271 7.50704 12.4549 7.75938 12.6021 7.82878L12.4045 8.64469C12.4381 8.62787 12.9257 8.24935 13.0056 8.20519C13.2325 8.32295 13.386 8.52482 13.6108 8.62786L13.4133 7.88766C13.6381 7.65004 13.8105 7.60798 13.9891 7.37035L13.2409 7.36405L13.0224 6.71216L12.7723 7.36405Z" fill="#D3D3D3"/>
<path fill-rule="evenodd" clip-rule="evenodd" d="M20.3591 2.42013H19.6299L20.1847 2.89538L19.9872 3.68605L20.5945 3.25917L21.2019 3.69867L20.9791 2.89538C21.1535 2.81547 21.4604 2.58836 21.5528 2.42224H20.8404L20.6113 1.74512L20.357 2.42434L20.3591 2.42013Z" fill="#D3D3D3"/>
<path fill-rule="evenodd" clip-rule="evenodd" d="M23.1076 7.36413L22.3594 7.36624C22.4603 7.49661 22.7734 7.73213 22.9248 7.88564L22.7293 8.62794C22.9626 8.49967 23.1118 8.32513 23.3409 8.20737C23.4207 8.24312 23.8957 8.61532 23.9251 8.65106L23.7318 7.88984C23.9293 7.65433 24.129 7.57021 24.2298 7.46297C24.3013 7.38727 24.2403 7.47138 24.3013 7.36834H23.572L23.3619 6.71436L23.1055 7.36834L23.1076 7.36413Z" fill="#D3D3D3"/>
<path fill-rule="evenodd" clip-rule="evenodd" d="M15.7465 10.2742C15.5279 10.228 15.467 10.2364 15.2715 10.2911C15.4586 10.9724 16.6019 10.7789 16.6313 10.0366C16.3286 10.0387 16.2908 10.0576 16.1374 10.2175C16.1143 9.93146 16.0386 9.81791 15.8222 9.73169C15.7528 9.93987 15.7066 10.0135 15.7444 10.2742H15.7465Z" fill="#D3D3D3"/>
<path fill-rule="evenodd" clip-rule="evenodd" d="M20.2125 10.2178C20.0591 10.0601 20.0234 10.0391 19.7188 10.037C19.7461 10.7688 20.8871 10.9791 21.0784 10.2914C20.8829 10.2367 20.8221 10.2283 20.6035 10.2746C20.6414 10.0117 20.595 9.94026 20.5257 9.72998C20.3092 9.8162 20.2336 9.93185 20.2104 10.2157L20.2125 10.2178Z" fill="#D3D3D3"/>
<path fill-rule="evenodd" clip-rule="evenodd" d="M17.974 10.0581C17.7996 9.94251 17.7575 9.94881 17.499 9.97615C17.581 10.689 18.7705 10.6806 18.8504 9.97615C18.5919 9.94881 18.5498 9.9404 18.3754 10.056C18.3754 9.82054 18.367 9.67755 18.1736 9.54297C17.9824 9.67545 17.9719 9.80372 17.974 10.056V10.0581Z" fill="#D3D3D3"/>
</svg>
