<svg width="36" height="61" viewBox="0 0 36 61" fill="none" xmlns="http://www.w3.org/2000/svg">
<path fill-rule="evenodd" clip-rule="evenodd" d="M9.60322 23.3436H26.7458C26.7311 23.1712 26.6954 23.1649 26.502 23.1354C25.9073 23.0492 25.9535 23.1417 25.3714 22.7233C25.1339 22.5529 24.5392 21.9641 24.4131 21.6803C24.1462 21.0788 25.2306 20.9506 25.4534 18.8015C25.6236 17.1802 25.2033 16.7638 24.7052 15.6114C24.0936 14.1941 24.6295 13.6158 25.9178 13.2562C26.9728 12.9618 28.1161 12.7389 29.2215 12.556C31.6888 12.148 33.8282 12.3857 35.1354 10.4574C35.6734 9.66458 35.9949 8.31455 35.7595 7.15588C35.2005 7.47552 34.9882 7.67739 34.2485 8.03067C33.7084 8.28932 33.1346 8.52904 32.542 8.74774C31.3462 9.18724 30.0937 9.54472 28.8201 9.86646C26.4285 10.4742 20.6155 11.6896 21.3427 14.4528C21.8029 16.2023 23.6733 16.2402 23.8835 19.1842C23.9087 19.5333 23.9423 20.0043 23.6397 20.1073C23.2362 20.2461 23.0449 19.9328 22.8873 19.712C22.3998 19.037 22.3241 18.9718 21.7651 18.4103C20.0691 16.7133 16.5258 16.5998 14.6155 18.3914C13.5521 19.3882 13.3188 20.265 12.7493 20.1178C12.1272 19.958 12.5896 17.9645 12.9636 17.2979C13.2179 16.8479 13.7139 16.236 14.027 15.9395C14.9181 15.0983 15.6074 13.8808 14.4894 12.6464C13.26 11.288 9.8491 10.4637 7.56888 9.87697C5.37063 9.3113 3.30477 8.7183 1.34399 7.62692C1.07499 7.47762 0.822798 7.29047 0.591624 7.15588C0.171308 9.18934 1.20108 11.513 3.59899 12.0345C4.66659 12.2658 5.98008 12.3646 7.08762 12.5476C8.20776 12.7326 9.36574 12.9576 10.4333 13.2562C13.0939 13.9986 11.4127 15.704 11.0428 16.9615C10.6414 18.3304 10.8915 19.7751 11.6859 20.9485C11.8204 21.1461 12.0684 21.3228 11.9528 21.6445C11.8288 21.9894 10.9062 22.9336 10.3493 23.0702C9.88693 23.1838 9.63054 23.0366 9.60322 23.3415V23.3436Z" fill="white"/>
<path fill-rule="evenodd" clip-rule="evenodd" d="M19.5501 47.7285L19.6888 39.5C19.2243 39.336 17.3728 38.0869 16.9546 37.9271L17.1122 47.1186L18.1945 47.8925C18.5518 48.1511 18.9217 48.393 19.2832 48.6663C19.4408 48.7862 19.6762 48.9439 19.8317 49.0512C20.0881 49.2299 20.1595 49.1248 20.4664 48.9923C20.8993 48.8051 21.3406 48.5927 21.7231 48.3845C23.356 47.495 24.6716 46.2228 25.2559 44.4165C25.5711 43.4429 25.6236 42.1454 25.3988 41.1003C25.2874 40.5851 25.0982 40.1666 24.8524 39.7839C24.5245 39.275 24.3312 39.1047 24.0159 38.7093C22.7613 37.1385 14.5336 32.794 12.121 30.994C11.9339 30.8531 11.7469 30.7248 11.5788 30.6007C10.5448 29.8374 9.31745 28.5862 9.42043 27.1247C9.59696 24.6055 13.0331 24.6308 13.4366 26.7883C13.7308 28.3591 12.6821 29.1393 12.7409 29.768C12.8292 30.7248 14.5672 30.1991 15.1557 29.4168C15.7021 28.6872 15.8597 27.3897 15.4499 26.4035C15.1115 25.5918 14.3655 24.9988 13.4681 24.6581C9.96264 23.3354 7.13181 25.8925 8.7143 29.6923C9.08838 30.5902 9.6432 31.3788 10.156 31.9802C11.7238 33.8202 14.5231 35.595 16.5301 36.8315C18.2555 37.8955 21.4121 39.7902 22.9588 41.1634C23.3812 41.5377 23.7553 41.8888 23.852 42.5996C23.9277 43.1569 23.8394 43.8214 23.6755 44.326C23.3644 45.2871 22.6709 45.9347 22.0383 46.4142C21.6159 46.7359 20.1805 47.5792 19.5501 47.7243V47.7285Z" fill="white"/>
<path fill-rule="evenodd" clip-rule="evenodd" d="M19.8019 33.7758L19.9385 24.824L16.7504 24.8219C16.6852 25.1142 16.8302 30.8592 16.8449 31.6961C16.8512 32.0851 16.8617 32.4741 16.8617 32.8632C16.8617 33.2922 16.7903 33.1765 17.4081 33.534L21.1027 35.7083C21.2604 35.8051 21.3171 35.8702 21.4915 35.7672C21.626 35.6894 21.7185 35.6137 21.8593 35.5233C22.3427 35.2121 22.8092 34.8987 23.2674 34.556C24.1143 33.923 25.1189 33.1681 25.8124 32.3963C26.4996 31.6288 27.2309 30.7624 27.6975 29.528C28.8092 26.5967 27.3234 23.9828 24.1626 24.3571C23.4817 24.437 22.8954 24.6158 22.3679 24.8934C21.7752 25.2067 21.4411 25.5137 21.109 26.0121C20.3924 27.0887 20.5899 28.8678 21.3843 29.6437C21.9539 30.201 23.7129 30.7603 23.6057 29.6059C23.5847 29.3745 23.3304 29.0023 23.219 28.7857C22.5528 27.4883 22.8092 25.97 23.9189 25.4191C24.8604 24.9543 26.5521 25.1899 26.8758 26.7565C27.2352 28.4934 25.8586 29.7173 24.8393 30.5332C23.591 31.5321 21.9665 32.5015 20.5605 33.3342C20.3336 33.4688 20.0162 33.6812 19.8019 33.7716V33.7758Z" fill="white"/>
<path fill-rule="evenodd" clip-rule="evenodd" d="M19.8484 57.519C20.0901 57.704 20.1594 57.8744 20.5167 58.0552C21.4603 58.5326 22.3514 57.908 22.8726 57.1299C23.6102 56.0281 23.3475 54.4719 22.8536 53.2943C21.91 51.0548 20.1951 49.545 18.0158 48.5798C15.7923 47.5935 13.5352 46.2246 12.5664 44.4371C11.4799 42.431 12.5433 40.8812 14.3044 39.8887C14.8655 39.5732 15.3111 39.384 15.9352 39.1485L15.952 37.3337C15.7776 37.176 15.3405 36.9468 15.1135 36.8101C14.6343 36.5199 14.6995 36.5388 14.2245 36.8269C12.6673 37.7774 11.1478 39.1779 10.6035 41.1756C9.32154 45.8944 14.3002 48.3779 17.503 49.8877C18.1188 50.1779 18.6946 50.4534 19.2599 50.7878C20.3359 51.4249 21.351 52.2555 21.9773 53.3785C22.9125 55.0544 22.7191 58.0552 20.8571 57.805C20.6722 57.7797 20.4957 57.7356 20.3317 57.6809C20.2498 57.6536 19.9051 57.4643 19.8862 57.4664L19.8484 57.519Z" fill="white"/>
<path fill-rule="evenodd" clip-rule="evenodd" d="M16.0214 57.332C14.0375 58.7094 11.8014 55.9252 14.7773 52.1548C15.0946 51.7532 16.0529 50.7144 16.5552 50.6113C17.3475 51.4777 17.1689 50.6765 17.2046 52.6174L17.2929 57.7421C17.3076 58.579 17.1689 59.5211 17.7783 59.8639C18.4655 60.2508 19.2578 59.8702 19.344 59.1405C19.4281 58.4171 19.386 57.3384 19.3965 56.5771C19.4134 55.4836 19.5289 52.2494 19.4848 51.4335L15.8869 49.684C14.7962 50.5945 12.8606 52.4156 12.4676 54.4112C12.2617 55.4563 12.537 56.8694 13.2704 57.5213C14.0921 58.2489 15.2438 58.3519 16.0214 57.3299V57.332Z" fill="white"/>
<path fill-rule="evenodd" clip-rule="evenodd" d="M14.1403 10.2093C15.4727 10.264 15.4496 9.61423 15.7543 9.09693C16.0864 9.30932 16.7064 10.3313 17.7109 9.47124C17.8959 9.31353 18.0072 9.06329 18.1754 8.91819C18.3582 9.0759 18.6903 9.74461 19.2934 9.80139C19.9869 9.86658 20.2727 9.30511 20.5964 9.09693C20.7939 9.43549 20.8276 9.7341 21.0987 9.94438C21.3887 10.1673 21.7333 10.2262 22.1999 10.2051L21.8048 11.2355C21.2227 11.1073 21.0398 10.9601 20.1382 10.8129C18.8311 10.5984 16.6706 10.6467 15.3677 10.9916C15.086 11.0652 14.8065 11.1788 14.5459 11.2376L14.1424 10.2114L14.1403 10.2093ZM17.3663 5.64826C17.3936 4.62207 18.9572 4.62417 18.9845 5.64195L18.333 5.6777C18.3057 5.73658 18.2952 5.79966 18.2762 5.84172C18.2006 6.01205 18.3225 5.8985 18.1775 5.98051C18.0304 5.8985 18.1544 6.01205 18.0787 5.84172C18.0598 5.80177 18.0472 5.73237 18.022 5.66088L17.3684 5.64826H17.3663ZM17.03 6.15505C17.3263 6.14243 17.8959 5.59569 17.8917 6.76487C17.8896 7.33474 17.982 7.93616 17.713 8.35252C17.5071 8.67426 17.1498 9.0738 16.534 8.87193C16.0465 8.71211 15.8699 8.35252 15.5988 7.99714C15.3109 8.59225 15.2374 9.07801 14.7351 9.37871C14.2097 9.69625 13.3585 9.39764 12.9319 9.16212L14.3022 11.8369C14.878 11.7318 15.479 11.5215 16.1095 11.4038C17.4882 11.1472 18.8269 11.1388 20.2076 11.3953C20.8528 11.5152 21.4643 11.7276 22.0528 11.8348L23.4419 9.17053C21.4076 10.1631 21.1806 8.88034 20.754 7.99294C20.4787 8.34832 20.3232 8.68057 19.8545 8.85721C19.243 9.08642 18.8794 8.71001 18.6587 8.37776C18.3687 7.94457 18.4654 7.39573 18.4633 6.80693C18.4633 6.47258 18.4149 6.24126 18.6272 6.09196C18.892 5.90691 19.1085 6.14243 19.3228 6.14874C19.4048 5.22979 19.0769 4.43491 18.1775 4.43702C17.2864 4.43702 16.9501 5.23189 17.0321 6.15084L17.03 6.15505Z" fill="white"/>
<path fill-rule="evenodd" clip-rule="evenodd" d="M25.7473 14.5917L32.8381 15.2057L33.8174 12.9662C32.8612 12.8379 30.2826 13.1197 29.2822 13.269C28.2083 13.4288 26.0689 13.8431 25.7494 14.5917H25.7473Z" fill="white"/>
<path fill-rule="evenodd" clip-rule="evenodd" d="M3.51723 15.1952L10.3684 14.6127C10.4125 14.6064 10.4398 14.6043 10.484 14.5917C10.4966 14.5896 10.5092 14.5833 10.5197 14.5791L10.5912 14.5497C9.72951 13.2522 3.77363 12.8022 2.5421 12.9641L3.51933 15.1952H3.51723Z" fill="white"/>
<path fill-rule="evenodd" clip-rule="evenodd" d="M32.3613 15.9626L25.983 15.2413C26.065 16.4273 25.8527 16.1266 27.3553 16.686C28.0384 16.9404 28.692 17.197 29.3771 17.4577C29.6082 17.5461 30.6695 18.0402 30.8734 17.9393C31.3547 17.6996 32.2541 16.4652 32.3613 15.9626Z" fill="white"/>
<path fill-rule="evenodd" clip-rule="evenodd" d="M3.98768 15.9628C4.10327 16.5095 5.24022 18.0614 5.65844 17.9647L10.1411 16.2488C10.3324 16.1352 10.3008 15.7903 10.3723 15.2478L3.98978 15.9649L3.98768 15.9628Z" fill="white"/>
<path fill-rule="evenodd" clip-rule="evenodd" d="M6.36509 18.6332C6.43444 18.7699 6.78541 19.018 6.93252 19.1358C7.13217 19.2977 7.28138 19.4912 7.51045 19.5816C7.76054 19.386 8.00222 19.1968 8.2355 19.0012L9.67299 17.8299C10.0912 17.5019 10.0912 17.6302 10.1122 16.932L6.36509 18.6332Z" fill="white"/>
<path fill-rule="evenodd" clip-rule="evenodd" d="M28.8849 19.5796C29.0698 19.4219 29.9021 18.7827 29.9882 18.646L26.239 16.9216C26.2495 17.7375 26.2979 17.4831 27.3991 18.4083C27.6218 18.5955 28.6958 19.5123 28.8828 19.5775L28.8849 19.5796Z" fill="white"/>
<path fill-rule="evenodd" clip-rule="evenodd" d="M22.3007 4.5568H21.5861C21.6723 4.73554 21.9476 4.94162 22.1367 5.03835L21.9434 5.81431C22.1557 5.69234 22.3553 5.5136 22.555 5.39374C22.7357 5.53673 22.9879 5.74281 23.156 5.83744L22.929 5.02153C23.1035 4.93952 23.3893 4.73344 23.4986 4.5589L22.8008 4.5568C22.7042 4.37806 22.6642 4.08997 22.555 3.91333L22.5171 3.97642C22.4436 4.12151 22.5213 3.95749 22.4856 4.0416L22.3049 4.5589L22.3007 4.5568Z" fill="white"/>
<path fill-rule="evenodd" clip-rule="evenodd" d="M13.5496 4.55661H12.8519C12.8582 4.56923 12.8708 4.57133 12.875 4.59026C12.8792 4.60919 12.8918 4.61549 12.8981 4.6218C12.9317 4.66176 12.9359 4.67017 12.9695 4.70381C13.0998 4.8384 13.2112 4.87204 13.4067 5.08653L13.1923 5.83305L13.7976 5.39145C13.9993 5.51552 14.1969 5.69215 14.3965 5.81622L14.2011 5.04027C14.4112 4.93723 14.6802 4.72905 14.7643 4.55451H14.0477L13.8522 4.00356C13.8144 3.92366 13.8207 3.94258 13.7976 3.90894C13.6841 4.09188 13.6547 4.36105 13.5517 4.55241L13.5496 4.55661Z" fill="white"/>
<path fill-rule="evenodd" clip-rule="evenodd" d="M18.0055 1.65905L17.3078 1.66536C17.3141 1.67798 17.3267 1.68218 17.3309 1.70321C17.3541 1.80415 17.7744 2.09855 17.8584 2.14271L17.6462 2.92917C17.8984 2.803 18.0224 2.60954 18.2661 2.49388C18.4532 2.63057 18.657 2.83244 18.8588 2.93338L18.6444 2.13429C18.8273 2.04387 19.1005 1.85251 19.2119 1.66956L18.4889 1.66326L18.2598 0.981934C18.2094 1.06184 18.2241 1.0345 18.1821 1.14175C18.1106 1.3247 18.1106 1.44035 18.0055 1.66115V1.65905Z" fill="white"/>
<path fill-rule="evenodd" clip-rule="evenodd" d="M15.5127 2.42016L14.794 2.41806C14.8739 2.55685 15.2332 2.82811 15.3509 2.88699L15.1387 3.69449C15.29 3.63351 15.5001 3.41481 15.7523 3.2571C15.8154 3.31808 16.2609 3.64192 16.3513 3.68608L16.1453 2.89751L16.6455 2.5232C16.7232 2.43278 16.6413 2.56105 16.7169 2.41806H15.9919L15.7502 1.74304L15.5127 2.42016Z" fill="white"/>
<path fill-rule="evenodd" clip-rule="evenodd" d="M12.772 7.36417L12.0427 7.36627C12.1268 7.50716 12.4546 7.7595 12.6018 7.8289L12.4042 8.64481C12.4378 8.62799 12.9254 8.24947 13.0053 8.20531C13.2322 8.32307 13.3857 8.52494 13.6105 8.62798L13.413 7.88778C13.6378 7.65016 13.8102 7.6081 13.9888 7.37047L13.2406 7.36417L13.0221 6.71228L12.772 7.36417Z" fill="white"/>
<path fill-rule="evenodd" clip-rule="evenodd" d="M20.3595 2.42013H19.6303L20.1851 2.89538L19.9876 3.68605L20.5949 3.25917L21.2023 3.69867L20.9795 2.89538C21.1539 2.81547 21.4608 2.58836 21.5532 2.42224H20.8408L20.6117 1.74512L20.3574 2.42434L20.3595 2.42013Z" fill="white"/>
<path fill-rule="evenodd" clip-rule="evenodd" d="M23.1079 7.36413L22.3597 7.36624C22.4606 7.49661 22.7737 7.73213 22.9251 7.88564L22.7296 8.62794C22.9629 8.49967 23.1121 8.32513 23.3412 8.20737C23.421 8.24312 23.896 8.61533 23.9254 8.65107L23.7321 7.88984C23.9296 7.65433 24.1293 7.57021 24.2301 7.46297C24.3016 7.38727 24.2406 7.47138 24.3016 7.36834H23.5723L23.3622 6.71436L23.1058 7.36834L23.1079 7.36413Z" fill="white"/>
<path fill-rule="evenodd" clip-rule="evenodd" d="M15.7462 10.2743C15.5276 10.2281 15.4667 10.2365 15.2712 10.2912C15.4583 10.9725 16.6016 10.779 16.631 10.0367C16.3283 10.0388 16.2905 10.0577 16.1371 10.2176C16.114 9.93158 16.0383 9.81803 15.8219 9.73181C15.7525 9.93999 15.7063 10.0136 15.7441 10.2743H15.7462Z" fill="white"/>
<path fill-rule="evenodd" clip-rule="evenodd" d="M20.2121 10.2177C20.0587 10.06 20.023 10.039 19.7183 10.0369C19.7456 10.7687 20.8867 10.979 21.078 10.2913C20.8825 10.2366 20.8216 10.2282 20.603 10.2745C20.6409 10.0116 20.5946 9.94014 20.5253 9.72986C20.3088 9.81608 20.2332 9.93173 20.21 10.2156L20.2121 10.2177Z" fill="white"/>
<path fill-rule="evenodd" clip-rule="evenodd" d="M17.9741 10.058C17.7997 9.94239 17.7576 9.94869 17.4991 9.97603C17.5811 10.6889 18.7706 10.6805 18.8505 9.97603C18.592 9.94869 18.5499 9.94028 18.3755 10.0559C18.3755 9.82042 18.3671 9.67743 18.1737 9.54285C17.9825 9.67533 17.972 9.8036 17.9741 10.0559V10.058Z" fill="white"/>
</svg>
