<?xml version="1.0" encoding="UTF-8"?>
<!DOCTYPE svg PUBLIC "-//W3C//DTD SVG 1.1//EN" "http://www.w3.org/Graphics/SVG/1.1/DTD/svg11.dtd">
<!-- Creator: CorelDRAW X7 -->
<svg xmlns="http://www.w3.org/2000/svg" xml:space="preserve" width="210mm" height="297mm" version="1.1" style="shape-rendering:geometricPrecision; text-rendering:geometricPrecision; image-rendering:optimizeQuality; fill-rule:evenodd; clip-rule:evenodd"
viewBox="0 0 21000 29700"
 xmlns:xlink="http://www.w3.org/1999/xlink">
 <defs>
  <style type="text/css">
   <![CDATA[
    .fil0 {fill:black}
   ]]>
  </style>
 </defs>
 <g id="Слой_x0020_1">
  <metadata id="CorelCorpID_0Corel-Layer"/>
  <g id="_68347775456">
   <path class="fil0" d="M32414 12737l0 635c-184,16 -64,-34 -106,71 112,53 161,35 318,35l0 -106 -106 0 0 -564c27,38 7,4 38,67 94,190 174,525 280,603 130,-96 174,-348 267,-544 5,-10 20,-38 24,-46 3,-6 10,-18 13,-23 3,-5 8,-15 13,-22l0 529c-185,16 -64,-34 -106,71 116,55 224,35 388,35l0 -106 -106 0 0 -635c107,-28 78,0 106,-106l-353 0c-19,230 -159,356 -176,565l-70 0c-35,-149 -149,-433 -212,-565l-318 0c28,103 1,81 106,106z"/>
   <path class="fil0" d="M36118 12031l388 0c-31,-115 -60,-50 -105,-176 75,-55 89,-104 167,-185 71,-74 124,-132 185,-203 0,788 -23,255 -105,564l388 0 0 -105 -106 0 0 -635c184,-16 64,33 106,-71 -95,-53 -122,-35 -283,-35 -142,0 -82,11 -82,63 0,117 -21,-19 30,52 171,241 -29,-140 52,61 -153,103 -177,235 -352,353l0 -423c184,-16 63,33 105,-71 -115,-55 -224,-35 -388,-35 27,248 24,-18 64,183 65,320 -60,631 -64,663z"/>
   <path class="fil0" d="M36612 12737l0 635c-184,16 -63,-34 -106,71 95,53 122,35 283,35 142,0 82,-11 82,-63 0,-118 21,19 -30,-52 -171,-242 29,139 -52,-62l388 -423 0 494c-214,5 -104,-23 -141,71 98,55 149,35 317,35 135,0 13,11 106,-35 -42,-112 77,-51 -106,-71l0 -635c106,-28 78,0 106,-106l-423 0c34,127 3,95 141,106l-388 423c0,-75 -10,-253 0,-317 37,-242 41,28 105,-212l-388 0c28,103 1,81 106,106z"/>
   <path class="fil0" d="M37036 14148l105 0 0 635 -105 0 0 106 388 0 0 -106c-185,-16 -64,34 -106,-70 153,-103 205,-266 388,-388l0 458 -106 0 0 106c253,0 370,41 360,-55 0,-1 -143,-210 -76,-581 26,-147 217,-186 -31,-212 -63,-6 -183,1 -253,1l0 106 106 0c-114,170 -256,307 -388,459l0 -459 106 0 0 -106 -388 0 0 106z"/>
   <path class="fil0" d="M33614 12737l0 635c-185,16 -64,-34 -106,71 115,55 224,35 388,35l0 -106c-185,-16 -64,34 -106,-71l388 -423 0 494 -106 0 0 106c164,0 273,20 388,-35 -41,-112 77,-51 -106,-71l0 -635c107,-28 78,0 106,-106l-388 0c29,106 0,78 106,106l-388 423c0,-724 27,-234 106,-529l-388 0c27,103 0,81 106,106z"/>
   <path class="fil0" d="M35131 14148l105 0 0 635 -105 0 0 106 388 0 0 -106c-185,-16 -64,34 -106,-70 153,-103 205,-266 388,-388l0 458 -106 0 0 106 388 0c-67,-252 -83,54 -108,-244 -4,-49 -4,-312 0,-359 25,-239 -1,-49 47,-137 21,-39 262,-107 -327,-107l0 106 106 0c-60,89 -314,404 -388,459l0 -459 106 0 0 -106 -388 0 0 106z"/>
   <polygon class="fil0" points="40528,14148 40634,14148 40634,14783 40528,14783 40528,14889 40916,14889 40916,14783 40810,14783 40810,14501 41163,14501 41163,14783 41057,14783 41057,14889 41445,14889 41445,14783 41339,14783 41339,14148 41445,14148 41445,14042 41057,14042 41057,14148 41163,14148 41163,14395 40810,14395 40810,14148 40916,14148 40916,14042 40528,14042 "/>
   <path class="fil0" d="M37635 12737l0 635 -106 0 0 106c66,0 233,8 287,-4 130,-27 195,-80 -4,-102 13,-160 54,-135 149,-239 97,-107 75,-134 203,-220l0 459c-184,16 -63,-34 -105,71 115,55 224,35 388,35l0 -106 -106 0 0 -635c106,-28 77,0 106,-106l-388 0c31,116 60,51 105,177 -185,124 -261,285 -352,352 0,-75 -10,-253 0,-317 37,-242 41,28 106,-212l-389 0c28,103 1,81 106,106z"/>
   <path class="fil0" d="M34213 11220c42,112 -76,51 106,71l0 635 -106 0 0 105 388 0c-28,-106 1,-77 -105,-105l0 -283 352 0 0 283c-106,28 -77,-1 -105,105l388 0 0 -105 -106 0 0 -635 106 0 0 -106c-164,0 -273,-20 -388,35 41,112 -77,51 105,71l0 247 -352 0 0 -247c184,-16 63,33 105,-71 -114,-64 -356,-38 -388,0z"/>
   <path class="fil0" d="M36154 14148l105 0 0 635 -105 0 0 106 388 0c-63,-236 -106,61 -106,-353 138,37 270,210 282,353l282 0 0 -106 -138 -38c-57,-39 -102,-180 -250,-279 60,-89 113,-160 141,-283 310,164 255,-141 106,-141 -329,0 -120,307 -423,388l0 -282 106 0 0 -106 -388 0 0 106z"/>
   <path class="fil0" d="M35201 11220c42,112 -76,51 106,71l0 635c-106,28 -77,-1 -106,105l388 0 0 -105 -106 0 0 -247c154,12 281,216 318,352l247 0 0 -105c-162,-14 -217,-151 -353,-353l106 -212c142,12 127,58 247,0 -13,-152 -46,-176 -177,-176 -242,0 -56,311 -388,388l0 -282 106 0 0 -106c-109,0 -341,-18 -388,35z"/>
   <path class="fil0" d="M34249 14148l105 0c0,482 18,483 424,388l0 247 -106 0 0 106c139,0 143,11 247,35l41 211 100 1 0 -353 -106 0 0 -635 106 0 0 -106 -388 0 0 106 106 0c0,320 51,318 -247,318l0 -318 106 0 0 -106 -388 0 0 106z"/>
   <path class="fil0" d="M33508 11679c0,-553 423,-512 423,0 0,366 -423,366 -423,0zm-212 -106c0,126 41,249 98,325 265,352 749,78 749,-255 0,-649 -847,-539 -847,-70z"/>
   <path class="fil0" d="M33755 14818c-368,-194 -204,-670 -36,-670 314,0 349,504 36,670zm-424 -352c0,616 812,501 812,141 0,-285 22,-565 -424,-565 -227,0 -388,195 -388,424z"/>
   <path class="fil0" d="M32908 11926l-282 35 0 -388c253,6 385,123 282,353zm-459 -671l0 706c-137,11 -107,-21 -141,106 287,0 622,41 753,-132 72,-96 65,-198 -3,-298 -97,-143 -262,-135 -432,-135l0 -247c280,0 269,-20 282,141l106 0 0 -211 -706 0c36,87 -71,70 141,70z"/>
   <path class="fil0" d="M39823 14466c0,-435 423,-435 423,0 0,227 -63,274 -212,352 -149,-78 -211,-125 -211,-352zm-212 0c0,391 447,579 696,344 194,-183 249,-768 -308,-768 -250,0 -388,251 -388,424z"/>
   <path class="fil0" d="M34743 13337c-112,-26 -247,-151 -247,35 0,205 423,178 423,-423l0 -212 247 0 0 635 -106 0 0 106c164,0 273,20 388,-35 -42,-112 77,-51 -106,-71l0 -635c107,-28 78,0 106,-106l-741 0c60,224 131,-32 108,313 -8,106 -50,295 -72,393z"/>
   <path class="fil0" d="M35730 13337c-111,-26 -247,-151 -247,35 0,205 424,178 424,-423l0 -212 247 0 0 635 -106 0 0 106c164,0 273,20 388,-35 -42,-112 76,-51 -106,-71l0 -635c106,-28 78,0 106,-106l-741 0c57,213 214,-60 35,706z"/>
   <path class="fil0" d="M38799 14325l106 0c8,-96 17,-96 36,-177l141 0c186,815 18,373 -106,741l423 0c-87,-325 -106,288 -106,-741 175,4 173,2 177,177l106 0 0 -283 -777 0 0 283z"/>
   <path class="fil0" d="M38059 14430c0,337 211,536 523,457 153,-39 169,-15 182,-174 -99,23 -494,262 -494,-318 0,-259 167,-247 283,-247 4,181 -32,101 70,177 104,-28 57,-15 141,-71 -93,-401 -705,-196 -705,176z"/>
   <path class="fil0" d="M32308 14254l106 0c15,-175 33,-141 212,-141 -90,160 3,586 -37,685 -54,134 88,-131 -22,35 -159,239 43,-167 -47,56l353 0c-42,-112 76,-51 -106,-71l0 -705 176 0 0 141 106 0 0 -212 -741 0 0 212z"/>
  </g>
  <path class="fil0" d="M7761 16854l0 -1023c0,-220 101,-388 317,-388l4622 0c129,0 282,98 282,212l0 1341c0,164 -82,247 -247,247l-4692 0c-214,0 -282,-179 -282,-389zm3140 -1658l-71 142 -247 0 -317 0 -318 0 -212 0c98,-147 248,-268 380,-397 241,-236 185,-149 185,-591l-106 0 0 106 -176 0 0 -106 -106 0c0,418 36,312 -106,282l0 247c-275,0 -281,-23 -452,148 -101,101 -144,121 -148,311l-353 0c98,-146 234,-251 362,-380 137,-138 227,-285 485,-291 0,-204 35,-293 35,-529 -412,96 -820,336 -1103,625 -124,127 -167,193 -167,433 -443,-325 47,-805 275,-1066l1363 -1635c127,-162 98,-80 267,-332 107,28 2369,1605 2412,1696 67,140 -38,28 190,253l326 344c-232,0 -177,-19 -432,-274l-265 -267c-150,-112 144,57 -33,-20 -189,-83 136,231 175,269l206 218c33,36 29,22 67,74 -238,0 -242,-83 -379,-221 -82,-82 -240,-263 -321,-323 -28,-21 -75,-66 -89,-10 -22,80 203,246 278,324l194 230c-357,-8 -445,-512 -776,-600 13,165 124,213 220,309 96,95 167,184 274,255l-200 -82c-80,-47 -98,-57 -175,-108 -165,-111 -943,-626 -1072,-656 15,133 -57,43 190,197 149,93 1090,672 1131,745l14 35c97,220 245,396 358,610l-211 0c-35,-151 -124,-224 -200,-365 -72,-134 -114,-267 -259,-305 34,147 95,210 170,324 62,96 157,236 183,346 -194,0 -144,34 -227,-91l-238 -397c-76,-127 -35,-146 -170,-182 14,171 234,446 353,670 -199,0 -145,64 -364,-306l-186 -309c-77,-72 51,-36 -121,-55 26,109 312,556 389,670l-212 0c-27,-114 -131,-265 -197,-367 -51,-77 -60,-97 -107,-176 -66,-108 -31,-94 -155,-127 60,255 301,448 353,670 -225,0 -170,5 -439,-443 -64,-109 -108,-179 -172,-287 -135,-228 -87,-217 -200,-258 -57,118 -36,288 -36,459 -43,21 7,12 -52,11 -1,0 -77,-10 -89,-11 7,287 326,349 565,706l-141 0 0 -142zm-1623 142c131,-274 198,-389 600,-389l0 -211c152,-13 137,-20 141,-177l176 0c0,302 -44,237 -362,556 -236,238 -121,221 -555,221zm3175 -741c153,102 772,462 846,564l-529 0c-50,-94 -93,-167 -156,-267l-161 -297zm-3916 741c0,-366 114,-510 402,-727 120,-92 528,-318 692,-332l0 318c-263,6 -582,370 -785,591 -127,138 -60,150 -309,150zm2181 -959l500 853 2364 0c-58,-79 -129,-111 -223,-166 -105,-61 -155,-100 -257,-166l-450 -291c-64,-49 -24,-18 -58,-48l1340 0c-63,-94 -723,-550 -867,-649l-1786 -1248c-196,-131 -769,-570 -910,-607 -157,115 -430,568 -635,705 -97,-26 -207,-136 -325,-239 -93,-81 -215,-191 -310,-255l-1137 1120c-133,133 -1079,1019 -1120,1173l1411 0c-30,363 -180,245 176,777 -257,0 -487,-41 -642,133 -30,33 -99,134 -99,184l0 1341c0,177 176,352 353,352l4692 0c177,0 353,-175 353,-352l0 -1235c0,-633 -904,-394 -1767,-420 -26,-1 -75,-3 -98,-8 -108,-23 -150,-94 -221,-168 -5,-5 -12,-13 -17,-18l-402 -409c104,-28 57,-15 141,-71l-6 -288zm2158 -453c59,-70 -15,-48 206,112l570 418c-330,0 -325,-88 -776,-530zm-4762 530c64,-97 173,-215 251,-313 59,-74 58,-82 129,-154 91,-92 101,-57 114,-204 -154,41 -535,547 -600,671l-247 0c77,-116 152,-212 242,-323 96,-119 208,-183 252,-348 -183,20 -36,-14 -121,56l-272 328c-260,330 -220,287 -489,287 51,-77 68,-81 132,-150 70,-75 77,-101 142,-176 84,-96 224,-228 255,-345 -166,14 -102,25 -205,148l-259 306c-42,53 -37,62 -89,122 -98,111 -107,95 -294,95l2038 -2055c113,36 209,145 296,215 111,91 153,134 277,217 -31,115 -237,338 -329,448l-805 958c-178,224 -102,217 -418,217z"/>
  <path class="fil0" d="M8149 16643c0,-458 -95,-847 282,-847l3916 0c377,0 282,389 282,847 0,164 -82,247 -247,247l-3986 0c-165,0 -247,-83 -247,-247zm-106 -565c0,324 -83,918 353,918l3986 0c425,0 353,-554 353,-847 0,-222 -94,-423 -317,-423l-4057 0c-191,0 -318,174 -318,352z"/>
 </g>
</svg>
