<svg width="19" height="19" viewBox="0 0 19 19" fill="none" xmlns="http://www.w3.org/2000/svg">
<g clip-path="url(#clip0)">
<path d="M18.8197 17.9663L13.9142 13.1392C15.1988 11.7435 15.9881 9.89775 15.9881 7.86665C15.9875 3.52174 12.4087 0 7.99375 0C3.57877 0 0 3.52174 0 7.86665C0 12.2116 3.57877 15.7333 7.99375 15.7333C9.90132 15.7333 11.6509 15.0735 13.0252 13.9766L17.9497 18.8227C18.1897 19.0591 18.5792 19.0591 18.8192 18.8227C19.0597 18.5864 19.0597 18.2027 18.8197 17.9663ZM7.99375 14.523C4.2582 14.523 1.22995 11.5428 1.22995 7.86665C1.22995 4.19046 4.2582 1.21033 7.99375 1.21033C11.7293 1.21033 14.7575 4.19046 14.7575 7.86665C14.7575 11.5428 11.7293 14.523 7.99375 14.523Z" fill="white"/>
</g>
<defs>
<clipPath id="clip0">
<rect width="19" height="19" fill="white"/>
</clipPath>
</defs>
</svg>
