<svg width="25" height="24" viewBox="0 0 25 24" fill="none" xmlns="http://www.w3.org/2000/svg">
<path d="M12.4883 1L20.7053 2.826C21.1623 2.928 21.4883 3.333 21.4883 3.802V13.789C21.4883 15.795 20.4853 17.669 18.8163 18.781L12.4883 23L6.16028 18.781C4.49028 17.668 3.48828 15.795 3.48828 13.79V3.802C3.48828 3.333 3.81428 2.928 4.27128 2.826L12.4883 1ZM12.4883 3.049L5.48828 4.604V13.789C5.48828 15.126 6.15628 16.375 7.26928 17.117L12.4883 20.597L17.7073 17.117C18.8203 16.375 19.4883 15.127 19.4883 13.79V4.604L12.4883 3.05V3.049ZM16.9403 8.222L18.3553 9.636L11.9913 16L7.74828 11.757L9.16228 10.343L11.9903 13.171L16.9403 8.221V8.222Z" fill="#6D6D73"/>
</svg>
