<svg width="60" height="61" viewBox="0 0 60 61" fill="none" xmlns="http://www.w3.org/2000/svg">
<path fill-rule="evenodd" clip-rule="evenodd" d="M21.6032 23.3435H38.7458C38.7311 23.1711 38.6954 23.1648 38.502 23.1353C37.9073 23.0491 37.9535 23.1416 37.3714 22.7232C37.1339 22.5528 36.5392 21.964 36.4131 21.6802C36.1462 21.0787 37.2306 20.9505 37.4534 18.8014C37.6236 17.1801 37.2033 16.7637 36.7052 15.6113C36.0936 14.194 36.6295 13.6157 37.9178 13.2561C38.9728 12.9617 40.1161 12.7388 41.2215 12.5559C43.6888 12.1479 45.8282 12.3856 47.1354 10.4573C47.6734 9.66446 47.9949 8.31443 47.7595 7.15576C47.2005 7.4754 46.9882 7.67727 46.2485 8.03055C45.7084 8.2892 45.1346 8.52892 44.542 8.74762C43.3462 9.18712 42.0937 9.5446 40.8201 9.86634C38.4285 10.4741 32.6155 11.6895 33.3427 14.4527C33.8029 16.2022 35.6733 16.2401 35.8835 19.1841C35.9087 19.5332 35.9423 20.0042 35.6397 20.1072C35.2362 20.246 35.0449 19.9327 34.8873 19.7119C34.3998 19.0369 34.3241 18.9717 33.7651 18.4102C32.0691 16.7132 28.5258 16.5997 26.6155 18.3913C25.5521 19.3881 25.3188 20.2649 24.7493 20.1177C24.1272 19.9579 24.5896 17.9644 24.9636 17.2978C25.2179 16.8478 25.7139 16.2359 26.027 15.9394C26.9181 15.0982 27.6074 13.8807 26.4894 12.6463C25.26 11.2879 21.8491 10.4636 19.5689 9.87685C17.3706 9.31118 15.3048 8.71818 13.344 7.6268C13.075 7.4775 12.8228 7.29035 12.5916 7.15576C12.1713 9.18922 13.2011 11.5129 15.599 12.0344C16.6666 12.2657 17.9801 12.3645 19.0876 12.5475C20.2078 12.7325 21.3657 12.9575 22.4333 13.2561C25.0939 13.9985 23.4127 15.7039 23.0428 16.9614C22.6414 18.3303 22.8915 19.775 23.6859 20.9484C23.8204 21.146 24.0684 21.3227 23.9528 21.6444C23.8288 21.9893 22.9062 22.9335 22.3493 23.0701C21.8869 23.1837 21.6305 23.0365 21.6032 23.3414V23.3435Z" fill="#173042"/>
<path fill-rule="evenodd" clip-rule="evenodd" d="M31.5505 47.7286L31.6892 39.5001C31.2247 39.3361 29.3732 38.087 28.955 37.9272L29.1126 47.1187L30.1949 47.8926C30.5522 48.1512 30.9221 48.3931 31.2836 48.6664C31.4412 48.7863 31.6766 48.944 31.8321 49.0513C32.0885 49.23 32.1599 49.1249 32.4668 48.9924C32.8997 48.8052 33.341 48.5928 33.7235 48.3846C35.3564 47.4951 36.672 46.2229 37.2563 44.4166C37.5715 43.443 37.624 42.1455 37.3992 41.1004C37.2878 40.5852 37.0986 40.1667 36.8528 39.784C36.5249 39.2751 36.3316 39.1048 36.0163 38.7094C34.7617 37.1386 26.534 32.7941 24.1214 30.9941C23.9343 30.8532 23.7473 30.7249 23.5792 30.6008C22.5452 29.8375 21.3178 28.5863 21.4208 27.1248C21.5973 24.6056 25.0335 24.6309 25.437 26.7884C25.7312 28.3592 24.6825 29.1394 24.7413 29.7681C24.8296 30.7249 26.5676 30.1992 27.1561 29.4169C27.7025 28.6873 27.8601 27.3898 27.4503 26.4036C27.1119 25.5919 26.3659 24.9989 25.4685 24.6582C21.963 23.3355 19.1322 25.8926 20.7147 29.6924C21.0888 30.5903 21.6436 31.3789 22.1564 31.9803C23.7242 33.8203 26.5235 35.5951 28.5305 36.8316C30.2559 37.8956 33.4125 39.7903 34.9592 41.1635C35.3816 41.5378 35.7557 41.8889 35.8524 42.5997C35.9281 43.157 35.8398 43.8215 35.6759 44.3261C35.3648 45.2872 34.6713 45.9348 34.0387 46.4143C33.6163 46.736 32.1809 47.5793 31.5505 47.7244V47.7286Z" fill="#173042"/>
<path fill-rule="evenodd" clip-rule="evenodd" d="M31.8017 33.7758L31.9383 24.824L28.7502 24.8219C28.685 25.1142 28.83 30.8592 28.8447 31.6961C28.851 32.0851 28.8615 32.4741 28.8615 32.8632C28.8615 33.2922 28.7901 33.1765 29.4079 33.534L33.1025 35.7083C33.2602 35.8051 33.3169 35.8702 33.4913 35.7672C33.6258 35.6894 33.7183 35.6137 33.8591 35.5233C34.3425 35.2121 34.809 34.8987 35.2672 34.556C36.1141 33.923 37.1187 33.1681 37.8122 32.3963C38.4994 31.6288 39.2307 30.7624 39.6973 29.528C40.809 26.5967 39.3232 23.9828 36.1624 24.3571C35.4815 24.437 34.8952 24.6158 34.3677 24.8934C33.775 25.2067 33.4409 25.5137 33.1088 26.0121C32.3922 27.0887 32.5897 28.8678 33.3841 29.6437C33.9537 30.201 35.7127 30.7603 35.6055 29.6059C35.5845 29.3745 35.3302 29.0023 35.2188 28.7857C34.5526 27.4883 34.809 25.97 35.9187 25.4191C36.8602 24.9543 38.5519 25.1899 38.8756 26.7565C39.235 28.4934 37.8584 29.7173 36.8391 30.5332C35.5908 31.5321 33.9663 32.5015 32.5603 33.3342C32.3334 33.4688 32.016 33.6812 31.8017 33.7716V33.7758Z" fill="#173042"/>
<path fill-rule="evenodd" clip-rule="evenodd" d="M31.8488 57.5189C32.0905 57.7039 32.1598 57.8743 32.5171 58.0551C33.4607 58.5325 34.3518 57.9079 34.873 57.1298C35.6106 56.028 35.3479 54.4718 34.854 53.2942C33.9104 51.0547 32.1955 49.5449 30.0162 48.5797C27.7927 47.5934 25.5356 46.2245 24.5668 44.437C23.4803 42.4309 24.5437 40.8811 26.3048 39.8886C26.8659 39.5731 27.3115 39.3839 27.9356 39.1484L27.9524 37.3336C27.778 37.1759 27.3409 36.9467 27.1139 36.81C26.6347 36.5198 26.6999 36.5387 26.2249 36.8268C24.6677 37.7773 23.1482 39.1778 22.6039 41.1755C21.322 45.8943 26.3006 48.3778 29.5034 49.8876C30.1192 50.1778 30.695 50.4533 31.2603 50.7877C32.3363 51.4248 33.3514 52.2554 33.9777 53.3784C34.9129 55.0543 34.7195 58.0551 32.8575 57.8049C32.6726 57.7796 32.4961 57.7355 32.3321 57.6808C32.2502 57.6535 31.9055 57.4642 31.8866 57.4663L31.8488 57.5189Z" fill="#173042"/>
<path fill-rule="evenodd" clip-rule="evenodd" d="M28.0215 57.3321C26.0376 58.7095 23.8015 55.9253 26.7774 52.1549C27.0947 51.7533 28.053 50.7145 28.5553 50.6114C29.3476 51.4778 29.169 50.6766 29.2047 52.6175L29.293 57.7422C29.3077 58.5791 29.169 59.5212 29.7784 59.864C30.4656 60.2509 31.2579 59.8703 31.3441 59.1406C31.4282 58.4172 31.3861 57.3385 31.3966 56.5772C31.4135 55.4837 31.529 52.2495 31.4849 51.4336L27.887 49.6841C26.7963 50.5946 24.8607 52.4157 24.4677 54.4113C24.2618 55.4564 24.5371 56.8695 25.2705 57.5214C26.0922 58.249 27.2439 58.352 28.0215 57.33V57.3321Z" fill="#173042"/>
<path fill-rule="evenodd" clip-rule="evenodd" d="M26.14 10.2093C27.4724 10.264 27.4493 9.61423 27.754 9.09693C28.0861 9.30932 28.7061 10.3313 29.7106 9.47124C29.8956 9.31353 30.0069 9.06329 30.1751 8.91819C30.3579 9.0759 30.69 9.74461 31.2931 9.80139C31.9866 9.86658 32.2724 9.30511 32.5961 9.09693C32.7936 9.43549 32.8273 9.7341 33.0984 9.94438C33.3884 10.1673 33.733 10.2262 34.1996 10.2051L33.8045 11.2355C33.2224 11.1073 33.0395 10.9601 32.1379 10.8129C30.8308 10.5984 28.6703 10.6467 27.3674 10.9916C27.0857 11.0652 26.8062 11.1788 26.5456 11.2376L26.1421 10.2114L26.14 10.2093ZM29.366 5.64826C29.3933 4.62207 30.9569 4.62417 30.9842 5.64195L30.3327 5.6777C30.3054 5.73658 30.2949 5.79966 30.2759 5.84172C30.2003 6.01205 30.3222 5.8985 30.1772 5.98051C30.0301 5.8985 30.1541 6.01205 30.0784 5.84172C30.0595 5.80177 30.0469 5.73237 30.0217 5.66088L29.3681 5.64826H29.366ZM29.0297 6.15505C29.326 6.14243 29.8956 5.59569 29.8914 6.76487C29.8893 7.33474 29.9817 7.93616 29.7127 8.35252C29.5068 8.67426 29.1495 9.0738 28.5337 8.87193C28.0462 8.71211 27.8696 8.35252 27.5985 7.99714C27.3106 8.59225 27.2371 9.07801 26.7348 9.37871C26.2094 9.69625 25.3582 9.39764 24.9316 9.16212L26.3019 11.8369C26.8777 11.7318 27.4787 11.5215 28.1092 11.4038C29.4879 11.1472 30.8266 11.1388 32.2073 11.3953C32.8525 11.5152 33.464 11.7276 34.0525 11.8348L35.4416 9.17053C33.4073 10.1631 33.1803 8.88034 32.7537 7.99294C32.4784 8.34832 32.3229 8.68057 31.8542 8.85721C31.2427 9.08642 30.8791 8.71001 30.6584 8.37776C30.3684 7.94457 30.4651 7.39573 30.463 6.80693C30.463 6.47258 30.4146 6.24126 30.6269 6.09196C30.8917 5.90691 31.1082 6.14243 31.3225 6.14874C31.4045 5.22979 31.0766 4.43491 30.1772 4.43702C29.2861 4.43702 28.9498 5.23189 29.0318 6.15084L29.0297 6.15505Z" fill="#173042"/>
<path fill-rule="evenodd" clip-rule="evenodd" d="M37.7471 14.5917L44.8379 15.2057L45.8172 12.9662C44.861 12.8379 42.2824 13.1197 41.282 13.269C40.2081 13.4288 38.0687 13.8431 37.7492 14.5917H37.7471Z" fill="#173042"/>
<path fill-rule="evenodd" clip-rule="evenodd" d="M15.5171 15.1953L22.3683 14.6128C22.4124 14.6065 22.4397 14.6044 22.4839 14.5918C22.4965 14.5897 22.5091 14.5834 22.5196 14.5792L22.5911 14.5498C21.7294 13.2523 15.7735 12.8023 14.542 12.9642L15.5192 15.1953H15.5171Z" fill="#173042"/>
<path fill-rule="evenodd" clip-rule="evenodd" d="M44.3617 15.9625L37.9834 15.2412C38.0654 16.4272 37.8531 16.1265 39.3557 16.6859C40.0388 16.9403 40.6924 17.1969 41.3775 17.4576C41.6086 17.546 42.6699 18.0401 42.8738 17.9392C43.3551 17.6995 44.2545 16.4651 44.3617 15.9625Z" fill="#173042"/>
<path fill-rule="evenodd" clip-rule="evenodd" d="M15.9873 15.9628C16.1029 16.5095 17.2398 18.0614 17.6581 17.9647L22.1407 16.2488C22.332 16.1352 22.3004 15.7903 22.3719 15.2478L15.9894 15.9649L15.9873 15.9628Z" fill="#173042"/>
<path fill-rule="evenodd" clip-rule="evenodd" d="M18.3652 18.6331C18.4346 18.7698 18.7856 19.0179 18.9327 19.1357C19.1323 19.2976 19.2815 19.4911 19.5106 19.5815C19.7607 19.3859 20.0024 19.1967 20.2356 19.0011L21.6731 17.8298C22.0913 17.5018 22.0913 17.6301 22.1123 16.9319L18.3652 18.6331Z" fill="#173042"/>
<path fill-rule="evenodd" clip-rule="evenodd" d="M40.8852 19.5796C41.0701 19.4219 41.9024 18.7827 41.9885 18.646L38.2393 16.9216C38.2498 17.7375 38.2982 17.4831 39.3994 18.4083C39.6221 18.5955 40.6961 19.5123 40.8831 19.5775L40.8852 19.5796Z" fill="#173042"/>
<path fill-rule="evenodd" clip-rule="evenodd" d="M34.3005 4.5568H33.5859C33.6721 4.73554 33.9474 4.94162 34.1365 5.03835L33.9432 5.81431C34.1555 5.69234 34.3551 5.5136 34.5548 5.39374C34.7355 5.53673 34.9877 5.74281 35.1558 5.83744L34.9288 5.02153C35.1033 4.93952 35.3891 4.73344 35.4984 4.5589L34.8006 4.5568C34.704 4.37806 34.664 4.08997 34.5548 3.91333L34.5169 3.97642C34.4434 4.12151 34.5211 3.95749 34.4854 4.0416L34.3047 4.5589L34.3005 4.5568Z" fill="#173042"/>
<path fill-rule="evenodd" clip-rule="evenodd" d="M25.5493 4.55661H24.8516C24.8579 4.56923 24.8705 4.57133 24.8747 4.59026C24.8789 4.60919 24.8915 4.61549 24.8978 4.6218C24.9314 4.66176 24.9356 4.67017 24.9692 4.70381C25.0995 4.8384 25.2109 4.87204 25.4064 5.08653L25.192 5.83305L25.7973 5.39145C25.999 5.51552 26.1966 5.69215 26.3962 5.81622L26.2008 5.04027C26.4109 4.93723 26.6799 4.72905 26.764 4.55451H26.0474L25.8519 4.00356C25.8141 3.92366 25.8204 3.94258 25.7973 3.90894C25.6838 4.09188 25.6544 4.36105 25.5514 4.55241L25.5493 4.55661Z" fill="#173042"/>
<path fill-rule="evenodd" clip-rule="evenodd" d="M30.0053 1.65905L29.3076 1.66536C29.3139 1.67798 29.3265 1.68218 29.3307 1.70321C29.3539 1.80415 29.7742 2.09855 29.8582 2.14271L29.646 2.92917C29.8982 2.803 30.0222 2.60954 30.2659 2.49388C30.453 2.63057 30.6568 2.83244 30.8586 2.93338L30.6442 2.13429C30.8271 2.04387 31.1003 1.85251 31.2117 1.66956L30.4887 1.66326L30.2596 0.981934C30.2092 1.06184 30.2239 1.0345 30.1819 1.14175C30.1104 1.3247 30.1104 1.44035 30.0053 1.66115V1.65905Z" fill="#173042"/>
<path fill-rule="evenodd" clip-rule="evenodd" d="M27.5126 2.42004L26.7939 2.41794C26.8738 2.55673 27.2331 2.82799 27.3508 2.88687L27.1386 3.69437C27.2899 3.63339 27.5 3.41469 27.7522 3.25698C27.8153 3.31796 28.2608 3.6418 28.3512 3.68596L28.1452 2.89739L28.6454 2.52308C28.7231 2.43266 28.6412 2.56093 28.7168 2.41794H27.9918L27.7501 1.74292L27.5126 2.42004Z" fill="#173042"/>
<path fill-rule="evenodd" clip-rule="evenodd" d="M24.7723 7.36405L24.043 7.36615C24.1271 7.50704 24.4549 7.75938 24.6021 7.82878L24.4045 8.64469C24.4381 8.62787 24.9257 8.24935 25.0056 8.20519C25.2325 8.32295 25.386 8.52482 25.6108 8.62786L25.4133 7.88766C25.6381 7.65004 25.8105 7.60798 25.9891 7.37035L25.2409 7.36405L25.0224 6.71216L24.7723 7.36405Z" fill="#173042"/>
<path fill-rule="evenodd" clip-rule="evenodd" d="M32.3591 2.42013H31.6299L32.1847 2.89538L31.9872 3.68605L32.5945 3.25917L33.2019 3.69867L32.9791 2.89538C33.1535 2.81547 33.4604 2.58836 33.5528 2.42224H32.8404L32.6113 1.74512L32.357 2.42434L32.3591 2.42013Z" fill="#173042"/>
<path fill-rule="evenodd" clip-rule="evenodd" d="M35.1076 7.36413L34.3594 7.36624C34.4603 7.49661 34.7734 7.73213 34.9248 7.88564L34.7293 8.62794C34.9626 8.49967 35.1118 8.32513 35.3409 8.20737C35.4207 8.24312 35.8957 8.61532 35.9251 8.65106L35.7318 7.88984C35.9293 7.65433 36.129 7.57021 36.2298 7.46297C36.3013 7.38727 36.2403 7.47138 36.3013 7.36834H35.572L35.3619 6.71436L35.1055 7.36834L35.1076 7.36413Z" fill="#173042"/>
<path fill-rule="evenodd" clip-rule="evenodd" d="M27.7465 10.2742C27.5279 10.228 27.467 10.2364 27.2715 10.2911C27.4586 10.9724 28.6019 10.7789 28.6313 10.0366C28.3286 10.0387 28.2908 10.0576 28.1374 10.2175C28.1143 9.93146 28.0386 9.81791 27.8222 9.73169C27.7528 9.93987 27.7066 10.0135 27.7444 10.2742H27.7465Z" fill="#173042"/>
<path fill-rule="evenodd" clip-rule="evenodd" d="M32.2125 10.2178C32.0591 10.0601 32.0234 10.0391 31.7188 10.037C31.7461 10.7688 32.8871 10.9791 33.0784 10.2914C32.8829 10.2367 32.8221 10.2283 32.6035 10.2746C32.6414 10.0117 32.595 9.94026 32.5257 9.72998C32.3092 9.8162 32.2336 9.93185 32.2104 10.2157L32.2125 10.2178Z" fill="#173042"/>
<path fill-rule="evenodd" clip-rule="evenodd" d="M29.974 10.0581C29.7996 9.94251 29.7575 9.94881 29.499 9.97615C29.581 10.689 30.7705 10.6806 30.8504 9.97615C30.5919 9.94881 30.5498 9.9404 30.3754 10.056C30.3754 9.82054 30.367 9.67755 30.1736 9.54297C29.9824 9.67545 29.9719 9.80372 29.974 10.056V10.0581Z" fill="#173042"/>
</svg>
