<svg width="24" height="25" viewBox="0 0 24 25" fill="none" xmlns="http://www.w3.org/2000/svg">
<path opacity="0.1" fill-rule="evenodd" clip-rule="evenodd" d="M0 12.4683C0 5.84084 5.37258 0.468262 12 0.468262C18.6274 0.468262 24 5.84084 24 12.4683C24 19.0957 18.6274 24.4683 12 24.4683C5.37258 24.4683 0 19.0957 0 12.4683Z" fill="white"/>
<path fill-rule="evenodd" clip-rule="evenodd" d="M11.6406 10.222L11.6658 10.6372L11.2461 10.5863C9.71843 10.3914 8.38383 9.73047 7.25067 8.62037L6.69668 8.06956L6.55399 8.47631C6.25181 9.38304 6.44487 10.3406 7.0744 10.9846C7.41015 11.3405 7.33461 11.3914 6.75544 11.1795C6.55399 11.1117 6.37772 11.0609 6.36093 11.0863C6.30218 11.1456 6.50363 11.9168 6.66311 12.2218C6.88134 12.6455 7.32621 13.0608 7.81305 13.3065L8.22434 13.5014L7.73751 13.5099C7.26746 13.5099 7.25067 13.5184 7.30103 13.6963C7.46891 14.2471 8.13201 14.8318 8.87066 15.0861L9.39108 15.264L8.93781 15.5352C8.26631 15.925 7.4773 16.1453 6.68829 16.1623C6.31057 16.1707 6 16.2046 6 16.23C6 16.3148 7.02404 16.7893 7.61999 16.9758C9.40786 17.5266 11.5315 17.2893 13.1263 16.3487C14.2595 15.6792 15.3926 14.3488 15.9214 13.0608C16.2068 12.3744 16.4922 11.1202 16.4922 10.5186C16.4922 10.1287 16.5174 10.0779 16.9874 9.61183C17.2644 9.34066 17.5246 9.04407 17.575 8.95933C17.6589 8.79833 17.6505 8.79833 17.2224 8.94239C16.509 9.19661 16.4083 9.16271 16.7608 8.78138C17.021 8.51021 17.3316 8.01872 17.3316 7.87466C17.3316 7.84924 17.2057 7.89161 17.063 7.96787C16.9119 8.05261 16.5761 8.17972 16.3243 8.25599L15.8711 8.40005L15.4598 8.12041C15.2331 7.96787 14.9142 7.79839 14.7463 7.74755C14.3182 7.62891 13.6635 7.64586 13.2774 7.78144C12.2282 8.16278 11.5651 9.14576 11.6406 10.222Z" fill="white"/>
</svg>
