<svg width="24" height="25" viewBox="0 0 24 25" fill="none" xmlns="http://www.w3.org/2000/svg">
<path opacity="0.1" fill-rule="evenodd" clip-rule="evenodd" d="M0 12.4683C0 5.84084 5.37258 0.468262 12 0.468262C18.6274 0.468262 24 5.84084 24 12.4683C24 19.0957 18.6274 24.4683 12 24.4683C5.37258 24.4683 0 19.0957 0 12.4683Z" fill="white"/>
<path fill-rule="evenodd" clip-rule="evenodd" d="M17.0008 8.3429C17.5515 8.49403 17.9853 8.93934 18.1325 9.50485C18.4 10.5298 18.4 12.6682 18.4 12.6682C18.4 12.6682 18.4 14.8066 18.1325 15.8316C17.9853 16.3971 17.5515 16.8424 17.0008 16.9936C16.0027 17.2682 12 17.2682 12 17.2682C12 17.2682 7.99728 17.2682 6.9991 16.9936C6.44834 16.8424 6.01459 16.3971 5.86739 15.8316C5.59998 14.8066 5.59998 12.6682 5.59998 12.6682C5.59998 12.6682 5.59998 10.5298 5.86739 9.50485C6.01459 8.93934 6.44834 8.49403 6.9991 8.3429C7.99728 8.06824 12 8.06824 12 8.06824C12 8.06824 16.0027 8.06824 17.0008 8.3429ZM10.8 10.8682V14.8682L14 12.8683L10.8 10.8682Z" fill="white"/>
</svg>
