<svg width="60" height="60" viewBox="0 0 60 60" fill="none" xmlns="http://www.w3.org/2000/svg">
<path fill-rule="evenodd" clip-rule="evenodd" d="M30.9005 42.9369C31.0665 43.0709 31.0457 43.2879 31.1011 43.4984C31.2463 44.0792 31.4538 44.4813 31.7858 44.9662C32.1938 45.5724 32.6434 45.9809 33.3004 46.3957C34.0543 46.8679 36.4473 47.6401 36.6133 46.8296C36.7308 46.2617 36.1706 46.3064 35.7141 46.2681C34.0059 46.134 32.7264 44.9982 32.2353 43.8558C31.8549 42.9752 31.9103 42.3115 31.9103 41.3287C31.9103 40.4608 31.8549 39.4142 31.9172 38.5719C32.1938 38.6803 32.5327 38.8718 32.8439 39.0122C33.1552 39.159 33.4525 39.2611 33.7914 39.3696C35.5136 39.9375 37.8582 39.9567 39.5458 39.3377C39.8362 39.2291 40.2166 39.025 40.4794 38.993C40.4448 40.1673 40.597 41.8074 40.4379 42.9113C40.1267 44.9981 38.4046 45.6108 38.287 45.9235C38.1625 46.2553 38.3907 46.5169 38.7227 46.5169C39.442 46.5169 41.2332 44.7237 41.3854 42.9433H43.3288L43.315 51.718H29.5312V42.9433L30.9005 42.9369ZM36.5579 38.9164C35.4237 38.9164 34.4001 38.6612 33.4733 38.3102C32.2561 37.8444 31.0527 36.8999 30.3057 36.0128C29.0608 34.5387 27.636 31.5266 28.1133 29.6631C28.3554 28.725 28.9294 27.9465 29.5519 27.5317C30.1328 27.1488 30.1813 27.1361 31.0319 27.1361H40.3134C42.5197 27.1361 42.8932 26.8807 44.062 28.0103C44.1726 28.1188 44.3455 28.3613 44.4562 28.5273C44.7121 28.8974 44.8712 29.2803 45.0026 29.7205C45.383 30.9842 45.0648 31.3989 44.7466 32.503C44.3179 33.9899 43.1283 35.7703 41.9387 36.8424C40.6593 37.9975 39.0754 38.9164 36.5579 38.9164ZM45.9709 29.5291C45.8947 29.4206 45.6873 28.7378 45.376 28.2145C44.968 27.5444 44.6844 27.3913 44.5185 27.1424H46.3512C46.3927 27.9146 46.3236 28.8655 45.9709 29.5291ZM27.1519 29.376C26.8961 28.6357 26.654 28.0295 26.7647 27.1361H28.5421C28.4176 27.3339 28.3 27.4041 28.1133 27.6083C27.8505 27.8954 27.5877 28.3677 27.4217 28.7378C27.3387 28.9293 27.2903 29.2164 27.1519 29.376ZM25.7341 24.5004L47.61 24.5132V26.2554L25.7341 26.2617V24.5004ZM34.3102 15.7321L35.2162 15.7257C35.4444 17.0212 34.822 19.1718 35.6727 19.2292C36.4127 19.2739 36.1983 18.2145 36.1983 17.6913C36.1983 17.0404 36.2052 16.383 36.1913 15.7257L37.1527 15.7194C37.132 16.3958 37.1458 17.0786 37.1458 17.7487C37.1458 18.2847 36.9383 19.2611 37.6368 19.2292C38.5014 19.1973 37.955 17.1297 38.121 15.7321L39.0339 15.7194C39.1861 16.6319 38.8749 19.2037 39.0823 19.8291C39.1653 20.078 39.5458 20.2247 39.8293 20.0078C40.0713 19.8291 40.0161 19.4143 40.0161 19.1016C40.0161 18.4188 40.0161 17.7295 40.0161 17.0467C40.6316 17.085 41.9595 17.7551 42.3952 17.9976C42.7894 18.221 43.073 18.4188 43.3911 18.6677C43.7508 18.942 43.9029 19.0506 44.2833 19.4207C45.0786 20.1992 46.3927 22.0435 46.5587 23.6198L40.0161 23.6006C40.0022 22.5795 40.2304 21.3926 39.4904 21.4309C38.9717 21.4628 39.0547 21.8839 39.0547 22.3243C39.0547 22.7519 39.0685 23.1922 39.0409 23.6198L34.2963 23.6006L34.3102 15.7321ZM25.9831 23.6006C24.7243 23.7601 24.7728 23.205 24.7728 25.3173C24.7728 27.5381 24.6829 26.9701 25.7826 27.1552C25.831 28.4251 25.9693 29.3887 26.6194 30.3205C27.2488 31.2138 26.9652 30.6012 27.2073 31.718C27.5323 33.1794 28.1617 34.6536 29.0124 35.8597C29.3236 36.3 29.5726 36.5872 29.9253 36.9509L30.9559 37.9273L30.9282 42.0435C29.8769 42.0817 28.9847 42.0307 27.9266 42.1519C26.2805 42.3498 24.7313 42.8731 23.3619 43.6324C22.6426 44.0345 22.1931 44.3855 21.6052 44.8322C19.3229 46.5999 17.7944 49.561 17.6491 52.5284C17.6284 52.9113 17.5938 55.1768 17.6699 55.3938C17.8082 55.783 18.4998 55.783 18.5897 55.2917C18.7834 54.1239 18.154 51.852 19.4612 49.0759C20.0975 47.7231 21.0796 46.4531 21.9925 45.7192C22.6772 45.1704 22.857 44.979 23.7008 44.4813C24.1019 44.2515 25.2431 43.6643 25.7203 43.5878L25.7272 50.4799C25.7064 51.0415 25.7687 51.6861 25.7272 52.2285C25.6857 52.7709 24.3717 54.9662 24.5515 55.4448C24.6137 55.6299 24.8558 55.7766 25.1532 55.6873C25.4714 55.5916 25.6857 54.8641 25.8172 54.5259C26.8615 51.8711 26.6333 53.1155 26.6816 50.1864C26.7024 48.9165 26.6056 43.9835 26.7024 43.2751C27.3318 43.1411 27.9058 43.0134 28.5836 42.9943C28.5698 45.815 28.5836 48.6484 28.5836 51.4755C28.5836 52.4773 28.4868 52.605 29.6279 52.605H36.4957C38.5498 52.605 41.3785 52.656 43.3634 52.605C43.7784 52.5922 44.0965 52.6497 44.228 52.337C44.3386 52.0817 44.2625 44.0154 44.2902 42.9496C44.8089 42.9815 45.7218 43.039 46.1645 43.2049C46.2406 43.6643 46.206 49.2738 46.1922 50.1864C46.1852 50.7735 46.1852 51.3606 46.1852 51.9477C46.1783 52.6114 46.3305 52.7709 46.5587 53.3325C46.7385 53.7856 46.8976 54.1621 47.0843 54.6088C47.2434 54.9662 47.3886 55.6235 47.7621 55.7C48.0734 55.7639 48.3085 55.5788 48.3431 55.3427C48.3777 55.1257 48.2117 54.8386 48.1356 54.6408C47.9558 54.2195 47.7898 53.8047 47.6031 53.3708C47.4717 53.0517 47.1535 52.388 47.1397 52.0625C47.1189 51.5137 47.1397 50.9139 47.1397 50.3587C47.1397 48.0677 47.0982 45.7512 47.1397 43.4538C48.2048 43.6324 49.2145 44.5897 49.4912 43.8686C49.6918 43.3517 49.1108 43.2304 48.7373 43.0645C46.3098 41.9924 44.1588 42.0435 41.4408 42.0563V38.457C41.5721 38.2592 41.918 38.0805 42.0632 37.9592C42.7618 37.3721 43.1076 37.0722 43.7093 36.3064L44.5738 35.0046C45.1409 34.0409 44.8574 34.5195 45.2861 33.607C45.9155 32.2732 45.8118 32.0435 46.1161 31.2011C46.2959 30.6969 47.4232 29.778 47.3195 27.1361C48.7443 27.1424 48.5644 27.2254 48.5644 25.4895C48.5644 23.8048 48.8064 23.5879 47.5546 23.6326C47.1328 21.4564 46.1438 19.9631 44.9195 18.7761C43.2321 17.1297 42.1738 16.8489 40.023 16.0895C39.9538 14.6472 40.514 14.8387 36.6893 14.845C32.9339 14.845 33.3419 14.6153 33.3419 16.0512C33.2105 16.2362 32.8993 16.2426 32.5258 16.3703C31.9932 16.549 30.4302 17.1297 30.3818 17.5828C30.3472 17.9082 30.6308 18.138 31.0112 18.0423C31.1219 18.0103 31.5921 17.7423 31.7581 17.6594C32.2492 17.4168 32.7748 17.2126 33.3419 17.0595L33.335 23.6198H26.9721C27.1588 22.0563 28.2585 20.4226 29.3306 19.3505C29.4619 19.2101 29.8216 18.9357 29.8769 18.7825C30.0014 18.4379 29.7386 18.1699 29.379 18.2018C29.0815 18.2273 28.3761 18.9995 28.1409 19.2484C26.9998 20.429 26.3427 22.0116 25.9831 23.6006Z" fill="white" stroke="#173042" stroke-miterlimit="22.9256"/>
<path fill-rule="evenodd" clip-rule="evenodd" d="M5.26787 21.8392L9.41757 25.1895C11.0636 26.7148 11.444 28.2655 11.444 30.4735L7.32197 27.1231C6.75485 26.6254 6.13239 25.8404 5.76583 24.9917C5.26095 23.8239 5.28862 23.1729 5.26787 21.8392ZM12.433 30.5692C12.0457 26.6381 14.5632 25.298 16.4997 23.5877L18.5746 21.9094C18.7337 26.3063 16.2715 27.0083 16.0917 27.6784C15.898 28.4122 17.0046 28.7696 18.6368 26.083C19.1763 25.1895 19.5429 24.0217 19.5429 22.8539L19.5498 18.2783C19.5567 17.0721 18.6921 17.4103 18.5954 17.8316L18.5815 19.0441C18.5815 21.1946 18.8512 20.3906 17.6824 21.4499C17.5094 21.6094 17.3642 21.6796 17.1982 21.8264C16.1816 22.739 13.9753 24.3472 13.2007 25.2342C12.2947 26.2872 12.516 26.268 11.9558 27.1742C11.8037 26.9891 11.5408 26.3765 11.3887 26.134C10.4204 24.6025 9.29308 23.9898 8.04817 22.8794L6.2223 21.3925C5.89033 21.1564 5.65518 20.8884 5.2817 20.6905C5.21946 19.3951 5.27479 17.5061 5.27479 16.1085C5.27479 15.5597 5.41311 15.1194 4.95664 14.8641C4.07829 14.7748 4.32036 15.6682 4.32036 16.3446V22.3817C4.31344 23.7345 4.50018 24.6216 5.0673 25.7384C5.50994 26.6127 6.36062 27.5763 6.96925 28.0357C7.77152 28.6483 8.50464 29.2993 9.29999 29.9311L10.4827 30.9011C11.5962 31.7498 11.7414 32.3433 12.3638 31.7945L14.086 30.397C14.4525 30.0715 14.8537 29.7715 15.2617 29.4269C15.5729 29.1717 16.2992 28.7441 15.7597 28.2655C15.3032 28.023 14.411 28.9356 13.9545 29.3312C13.7471 29.5226 13.4221 29.7843 13.1869 29.9694C12.9863 30.1225 12.5437 30.448 12.433 30.5692Z" fill="white" stroke="#173042" stroke-miterlimit="22.9256"/>
<path fill-rule="evenodd" clip-rule="evenodd" d="M5.27654 38.1445C5.58776 38.3295 5.99581 38.6933 6.28629 38.9294L9.14959 41.2779C9.67521 41.6799 10.3392 42.4648 10.7265 43.1668C11.4665 44.5133 11.4388 45.3302 11.4457 46.7788L9.47465 45.2025C7.64186 43.5624 5.27654 42.3818 5.27654 38.923V38.1445ZM15.8651 45.228C16.9718 44.341 18.1337 43.5305 18.853 41.9989C19.2195 41.2267 19.4477 40.5439 19.5308 39.6313C19.5722 39.14 19.5446 38.5975 19.5446 38.0998C19.5446 37.4297 19.7106 35.9938 18.2789 37.2447L17.4421 37.9403C17.0409 38.2402 17.0755 38.7826 17.615 38.8017C17.9953 38.8082 18.2927 38.3742 18.5763 38.2147C18.6524 39.408 18.5487 40.3716 18.0991 41.3672C17.9055 41.7948 17.6772 42.1904 17.4006 42.5414C17.2415 42.7456 17.1308 42.8668 16.9925 43.0392C16.7228 43.3582 12.912 46.5554 12.421 46.849C12.4832 44.558 12.6422 43.6326 13.9148 42.1393C14.641 41.2842 15.6715 40.6142 16.4738 39.9249C16.8403 39.6059 17.0409 39.3825 16.6191 38.9869C16.1073 38.8975 16.0104 39.1336 15.7545 39.3187L13.8595 40.8566C12.7805 41.7756 12.5524 42.5414 11.9575 43.4476L11.8538 43.3072C11.8469 43.2944 11.8399 43.2753 11.833 43.2625C11.3213 42.318 11.1829 41.9415 10.27 41.0672C10.0694 40.8822 9.9242 40.7609 9.73054 40.5695C9.23949 40.0972 7.5312 38.8209 6.96407 38.3104C6.59752 37.9786 6.19638 37.7105 5.85057 37.3978C5.42869 37.0085 4.97914 36.5619 4.56417 36.7405C4.1492 36.9128 4.3221 37.9594 4.3221 38.4572C4.3221 39.9249 4.43276 40.7035 5.0068 41.9223C5.41485 42.7775 6.31395 43.8304 6.87417 44.258C7.92543 45.0494 9.26024 46.2554 10.3461 47.0978C10.5951 47.2893 11.342 47.8381 11.4596 48.0742V52.9434C11.4596 53.2816 11.6118 53.5113 12.0059 53.4667C12.3725 53.4284 12.414 53.1859 12.414 52.8221L12.4071 48.0615L15.8651 45.228Z" fill="white" stroke="#173042" stroke-miterlimit="22.9256"/>
<path fill-rule="evenodd" clip-rule="evenodd" d="M31.9167 13.5879V14.6983C31.9167 15.4194 32.8712 15.6747 32.8712 14.4685V13.6517C33.4452 13.4858 34.0054 13.2624 34.6071 13.0773C35.6584 12.7391 35.3195 12.7583 35.6999 11.8457C36.0388 11.0225 36.3431 11.0927 35.8935 10.2184C35.6722 9.77804 35.2573 9.1016 35.1328 8.66127C35.2642 8.46981 36.3846 7.40409 36.6266 7.28284C37.0209 7.23179 38.5424 8.38047 39.1718 8.14435C39.4069 8.04863 39.6905 7.87633 39.981 7.76784C40.8247 7.436 41.0599 7.65935 41.385 6.82974C41.5787 6.30645 41.793 5.7002 42.0282 5.20244L44.186 5.1833C44.3105 5.69382 44.6287 6.34474 44.8154 6.84889C45.1128 7.63383 45.0229 7.30199 46.2332 7.77422C47.1392 8.1316 46.9387 8.38685 47.9415 7.95929C48.3357 7.79337 49.2486 7.34666 49.5875 7.27645C50.0302 7.6785 50.6803 8.22731 51.0607 8.66127C50.9293 9.05692 50.5281 9.78442 50.2999 10.1928C49.8504 11.0225 50.1339 11.0097 50.4659 11.7819C50.8394 12.6625 50.5212 12.7263 51.5102 13.0518C52.0289 13.2241 52.8935 13.4666 53.3084 13.6708L53.3153 15.6236C52.9557 15.8087 52.022 16.0831 51.5725 16.2298C50.4175 16.6191 50.867 16.4468 50.3967 17.436C49.9818 18.2911 49.7674 18.1316 50.2792 19.0505C50.4728 19.4015 50.9708 20.3204 51.0607 20.6268C50.8739 20.9331 49.9264 21.6988 49.6014 22.0243C49.2417 21.9733 48.2182 21.2522 48.0729 21.9861C47.9761 22.4774 48.8959 22.7454 49.3317 22.9241C50.044 23.2177 50.3898 22.471 51.2544 21.7435C52.5131 20.6906 52.1811 20.7352 51.7108 19.7907C50.8048 17.9912 50.9362 18.591 51.3511 17.6146C51.5379 17.1871 51.4273 17.2126 51.8976 17.0595C54.7262 16.1597 54.2767 16.3894 54.2767 15.1131C54.2767 12.771 54.6502 13.1156 52.5892 12.4647C51.5725 12.1456 51.7177 12.3435 51.3719 11.4883C51.282 11.265 51.0607 10.9267 51.0953 10.748C51.123 10.6396 51.3857 10.1609 51.4549 10.0205C52.3817 8.1635 52.4232 8.67403 51.0884 7.3977C49.6014 5.98738 50.0233 6.10224 48.308 6.82336C47.0493 7.35304 47.4989 7.30837 46.7381 7.00843C45.7768 6.63191 45.8943 6.96376 45.5208 6.03205C44.7047 4.00908 45.2788 4.30263 42.7889 4.30263C41.0115 4.30263 41.4887 3.95164 40.5135 6.44047C40.3821 6.78507 40.23 6.72126 39.8358 6.86803C38.494 7.35942 39.2409 7.37856 37.5189 6.66382C36.2463 6.13415 36.7304 5.92994 34.8146 7.69764C34.0815 8.3741 33.8671 8.36133 34.2198 9.00587C34.4688 9.46535 34.7108 9.95673 34.946 10.4417C35.2296 11.0225 35.0982 10.7098 34.6625 11.9031C34.531 12.2541 34.3512 12.2158 33.9985 12.3307C33.708 12.4264 33.4452 12.5222 33.1617 12.6178C32.4216 12.8731 31.9167 12.7902 31.9167 13.5879Z" fill="white" stroke="#173042" stroke-miterlimit="22.9256"/>
<path fill-rule="evenodd" clip-rule="evenodd" d="M12.4134 38.6997C12.4686 37.417 12.3857 36.7341 12.8975 35.5726C13.3124 34.6346 13.8658 33.99 14.4605 33.4349L17.0057 31.3289C17.227 31.1311 17.3376 31.0801 17.5244 30.9205L18.5688 30.0717C18.7348 32.2351 17.9187 34.4495 16.0374 35.7641C15.3873 36.2172 13.0012 38.3551 12.4134 38.6997ZM9.38408 36.9575C7.9801 35.7259 6.68678 35.209 5.76693 33.1413C5.28279 32.0565 5.26896 31.2588 5.27588 29.9951C5.98824 30.4291 6.58303 31.2779 7.09482 31.1055C7.36456 31.0099 7.44755 30.7035 7.31615 30.4802L5.22054 28.7124C5.05456 28.5657 4.7295 28.4572 4.48743 28.6295C4.18312 28.8465 4.30761 30.8694 4.32836 31.2395C4.43902 33.1796 5.53177 35.1068 7.00492 36.2172L10.2071 38.84C10.5252 39.1081 10.954 39.4016 11.2584 39.6824C11.86 40.2504 11.8808 40.3461 12.4617 39.8611L14.5919 38.1317C15.3942 37.3851 16.8812 36.4087 17.7388 35.4642C19.2742 33.7794 19.544 32.4202 19.5509 29.7144C19.5509 29.4655 19.5992 29.0252 19.4817 28.8145C19.3641 28.604 19.0391 28.5465 18.797 28.6933C18.6794 28.7635 18.3405 29.0252 18.2368 29.1209L13.9972 32.5988C12.6416 33.7029 12.3995 34.7112 11.9569 35.2983C11.8047 35.1132 11.7148 34.8324 11.5488 34.5516C11.3898 34.29 11.2584 34.073 11.0993 33.8497C10.6843 33.2817 9.23884 31.865 8.77545 31.648C8.40198 31.4821 8.08384 31.6799 8.06309 32.0054C8.04234 32.4074 8.33973 32.4393 8.56106 32.6116C10.6912 34.2517 11.5696 35.9811 11.4382 38.6231L9.38408 36.9575Z" fill="white" stroke="#173042" stroke-miterlimit="22.9256"/>
<path fill-rule="evenodd" clip-rule="evenodd" d="M12.081 23.6323C11.7007 23.4217 10.8569 22.0879 10.6148 21.5774C9.68802 19.6566 9.75027 18.0037 10.5733 16.0701C10.9952 15.0746 11.7007 14.4109 11.9358 13.9833C12.081 14.0726 11.9565 13.9833 12.0879 14.1045C12.4337 14.43 13.1461 15.7574 13.326 16.1339C13.6786 16.887 13.9968 17.9782 13.9968 18.9226C13.9968 20.6457 13.2914 22.5538 12.081 23.6323ZM9.01024 19.5672C9.21081 21.0541 9.85401 22.3815 10.6148 23.3834C11.8321 24.9724 12.0464 25.3681 13.4228 23.5046C15.2832 20.9967 15.4492 18.2016 13.9484 15.266C13.2844 13.9705 12.406 13.2495 12.406 12.6496L12.413 10.0076C12.4199 9.57363 12.4406 9.14606 11.9496 9.13968C11.4378 9.12692 11.4516 9.56087 11.4586 10.0076V12.6496C11.4655 13.3643 11.4447 13.1984 11.0851 13.6068C9.74336 15.1511 8.73359 17.4293 9.01024 19.5672Z" fill="white" stroke="#173042" stroke-miterlimit="22.9256"/>
<path fill-rule="evenodd" clip-rule="evenodd" d="M46.1509 18.6933C46.3515 18.655 46.5867 18.4253 46.7181 18.3168C49.0212 16.4789 49.2909 12.7712 46.7734 10.6206C46.469 10.359 45.3002 9.5485 44.8368 9.60593C44.574 9.63146 44.3873 9.82291 44.4426 10.1292C44.5187 10.5696 45.5008 10.5057 46.635 11.8012C47.9283 13.2945 47.9768 15.745 46.4967 17.2447C46.0195 17.7233 45.563 17.9467 45.57 18.2785C45.57 18.5657 45.8258 18.7507 46.1509 18.6933Z" fill="white" stroke="#173042" stroke-miterlimit="22.9256"/>
<path fill-rule="evenodd" clip-rule="evenodd" d="M54.7472 54.526C54.7472 54.8706 54.6297 55.4449 54.9755 55.6108C55.2452 55.7448 55.7017 55.7002 55.7086 55.0557C55.7293 52.452 55.757 50.563 54.5191 48.221C54.3946 47.9849 54.1594 47.5254 53.9726 47.4297C53.5577 47.2126 53.1704 47.5509 53.2879 47.9529C53.3363 48.1061 53.6614 48.6166 53.779 48.8464C54.768 50.7927 54.7541 52.4009 54.7472 54.526Z" fill="white" stroke="#173042" stroke-miterlimit="22.9256"/>
<path fill-rule="evenodd" clip-rule="evenodd" d="M41.9255 9.29941C37.7551 9.98224 36.8629 14.0345 37.3608 14.494C37.6859 14.794 38.1217 14.5834 38.1839 14.1622C38.5297 11.7691 40.1688 10.2503 42.7901 10.1035C43.2604 10.078 43.5785 9.70783 43.2465 9.35684C42.9768 9.08882 42.2852 9.24197 41.9255 9.29941Z" fill="white" stroke="#173042" stroke-miterlimit="22.9256"/>
<path fill-rule="evenodd" clip-rule="evenodd" d="M16.0033 10.5059C15.5537 10.7293 15.7335 11.7312 15.7335 12.2354L15.7542 17.162C15.8234 17.4108 16.1554 17.5831 16.4736 17.4044C16.8263 17.213 16.6949 16.1728 16.6949 15.7006L16.681 10.7995C16.6257 10.5761 16.3353 10.34 16.0033 10.5059Z" fill="white" stroke="#173042" stroke-miterlimit="22.9256"/>
<path fill-rule="evenodd" clip-rule="evenodd" d="M19.5433 15.5212V13.645C19.5433 12.8984 18.6096 12.86 18.5819 13.645C18.5612 14.2768 18.5819 14.9468 18.5819 15.5786C18.5819 16.0636 18.3883 17.04 19.073 17.04C19.7577 17.0336 19.5433 15.9934 19.5433 15.5212Z" fill="white" stroke="#173042" stroke-miterlimit="22.9256"/>
<path fill-rule="evenodd" clip-rule="evenodd" d="M7.43393 10.5181C6.97054 10.7606 7.17111 11.9285 7.17111 12.4709C7.17111 12.9623 6.99129 14.3407 7.91114 13.9068C8.26386 13.7344 8.13246 12.4326 8.13246 11.9412C8.13246 11.6349 8.32611 10.0395 7.43393 10.5181Z" fill="white" stroke="#173042" stroke-miterlimit="22.9256"/>
<path fill-rule="evenodd" clip-rule="evenodd" d="M11.7491 4.34701C11.2512 4.53208 11.4586 5.72544 11.4586 6.25511C11.4586 6.74011 11.2304 8.09939 12.1226 7.78031C12.5721 7.62077 12.42 6.36998 12.4131 5.84669C12.4061 5.29787 12.6136 4.01517 11.7491 4.34701Z" fill="white" stroke="#173042" stroke-miterlimit="22.9256"/>
<path fill-rule="evenodd" clip-rule="evenodd" d="M7.17114 14.9915L7.19189 17.1485C7.3233 17.6208 8.13249 17.6335 8.13249 16.9316V14.9915C8.13249 14.2066 7.17114 14.1684 7.17114 14.9915Z" fill="white" stroke="#173042" stroke-miterlimit="22.9256"/>
<path fill-rule="evenodd" clip-rule="evenodd" d="M51.5046 45.9053C51.6499 46.0331 51.9752 46.4098 52.1136 46.4737C52.4942 46.6333 52.8402 46.3779 52.7987 46.0267C52.7572 45.6947 51.2209 44.4111 50.9648 44.3346C50.5772 44.2132 50.2866 44.4431 50.3143 44.7879C50.335 45.0816 51.0617 45.5031 51.5046 45.9053Z" fill="white" stroke="#173042" stroke-miterlimit="22.9256"/>
</svg>
