<svg width="60" height="60" viewBox="0 0 60 60" fill="none" xmlns="http://www.w3.org/2000/svg">
<path fill-rule="evenodd" clip-rule="evenodd" d="M28.2598 13.6591C30.5568 13.1359 31.3166 17.0908 28.9423 17.5281C26.5468 17.9693 25.9874 14.1744 28.2598 13.6591ZM7.07697 18.4651L7.04883 21.1121L50.0969 21.12L50.1145 18.4651L39.4035 13.8621C38.2427 13.3506 28.9246 9.2864 28.5764 9.29029C28.5201 9.29029 7.72069 18.0279 7.07697 18.4651Z" fill="#173042"/>
<path fill-rule="evenodd" clip-rule="evenodd" d="M5.70166 25.9144L51.4302 25.9261L51.4829 21.9321L5.71925 21.936L5.70166 25.9144Z" fill="#173042"/>
<path fill-rule="evenodd" clip-rule="evenodd" d="M40.7826 28.3387L42.2634 28.3777L42.2705 47.2584L40.7932 47.2662L40.772 48.8279C41.2504 48.9723 48.37 48.9684 49.077 48.8552L49.0629 47.274L47.5996 47.2506L47.5926 28.4012L49.0418 28.3661L49.0735 26.7771C48.4157 26.66 41.2469 26.6639 40.772 26.8005L40.7826 28.3387Z" fill="#173042"/>
<path fill-rule="evenodd" clip-rule="evenodd" d="M19.0474 28.3622L20.4614 28.37C20.7499 29.2211 20.5071 44.8417 20.5494 47.2623L19.0685 47.2662L19.0474 48.8513C19.6559 48.9685 26.8177 48.9685 27.3454 48.8396L27.3348 47.278L25.8715 47.2506C25.8469 45.2751 25.7764 28.9283 25.9347 28.37H27.3383L27.3348 26.7341H19.0614L19.0474 28.3622Z" fill="#173042"/>
<path fill-rule="evenodd" clip-rule="evenodd" d="M29.9167 28.37L31.359 28.3778C31.5208 29.3656 31.468 46.7977 31.3343 47.2662L29.9167 47.2585L29.9238 48.8943L38.1937 48.8981L38.2077 47.2585L36.7901 47.2623C36.6318 46.6025 36.653 28.897 36.7972 28.366L38.2007 28.3739L38.1972 26.7341H29.9309L29.9167 28.37Z" fill="#173042"/>
<path fill-rule="evenodd" clip-rule="evenodd" d="M8.18867 28.366L9.60623 28.37C9.86309 29.2289 9.71529 45.0565 9.67312 47.2506L8.20978 47.2662L8.18164 48.8435C8.74094 48.9646 15.9836 48.9646 16.4866 48.8396L16.4761 47.2857L15.0057 47.2545C14.9811 45.0135 14.8158 29.2172 15.0761 28.37H16.4796L16.4761 26.7341H8.2133L8.18867 28.366Z" fill="#173042"/>
<path fill-rule="evenodd" clip-rule="evenodd" d="M4.70972 51.9395C5.57152 52.1738 9.47247 52.0059 10.6439 52.0059H52.4995V49.7103C44.5252 49.7103 36.5508 49.7103 28.5765 49.7103C27.2152 49.7103 5.43785 49.5736 4.71675 49.7766L4.70972 51.9395Z" fill="#173042"/>
<path fill-rule="evenodd" clip-rule="evenodd" d="M28.26 13.6591C25.9876 14.1745 26.5469 17.9693 28.9424 17.5282C31.3167 17.091 30.5569 13.136 28.26 13.6591Z" fill="#173042"/>
</svg>
