<svg width="68" height="68" viewBox="0 0 68 68" fill="none" xmlns="http://www.w3.org/2000/svg">
<path fill-rule="evenodd" clip-rule="evenodd" d="M32.0278 15.4803C34.631 14.8874 35.4921 19.3696 32.8012 19.8652C30.0863 20.3652 29.4524 16.0643 32.0278 15.4803V15.4803ZM8.02054 20.9271L7.98865 23.9271L56.7765 23.936L56.7964 20.9271L44.6573 15.7104C43.3417 15.1307 32.7812 10.5246 32.3866 10.529C32.3228 10.529 8.75009 20.4316 8.02054 20.9271V20.9271Z" fill="white"/>
<path fill-rule="evenodd" clip-rule="evenodd" d="M6.46198 29.3695L58.2876 29.3828L58.3474 24.8563L6.48191 24.8607L6.46198 29.3695Z" fill="white"/>
<path fill-rule="evenodd" clip-rule="evenodd" d="M46.2201 32.1173L47.8984 32.1615L47.9064 53.5596L46.2321 53.5684L46.2081 55.3383C46.7503 55.502 54.8192 55.4976 55.6205 55.3693L55.6045 53.5773L53.9461 53.5507L53.9381 32.1881L55.5806 32.1483L55.6165 30.3474C54.871 30.2147 46.7463 30.2191 46.2081 30.3739L46.2201 32.1173V32.1173Z" fill="white"/>
<path fill-rule="evenodd" clip-rule="evenodd" d="M21.5871 32.1438L23.1897 32.1527C23.5166 33.1173 23.2415 50.8206 23.2894 53.564L21.611 53.5684L21.5871 55.3648C22.2768 55.4976 30.3935 55.4976 30.9915 55.3516L30.9795 53.5817L29.3211 53.5507C29.2932 51.3118 29.2134 32.7854 29.3928 32.1527H30.9835L30.9795 30.2987H21.603L21.5871 32.1438V32.1438Z" fill="white"/>
<path fill-rule="evenodd" clip-rule="evenodd" d="M33.9056 32.1527L35.5401 32.1615C35.7235 33.281 35.6637 53.0374 35.5122 53.5684L33.9056 53.5596L33.9136 55.4135L43.2861 55.4179L43.302 53.5596L41.6954 53.564C41.516 52.8162 41.54 32.75 41.7034 32.1482L43.2941 32.1571L43.2901 30.2987H33.9216L33.9056 32.1527V32.1527Z" fill="white"/>
<path fill-rule="evenodd" clip-rule="evenodd" d="M9.28043 32.1482L10.887 32.1527C11.1781 33.1261 11.0106 51.064 10.9628 53.5507L9.30435 53.5684L9.27246 55.356C9.90633 55.4932 18.1147 55.4932 18.6848 55.3516L18.6728 53.5905L17.0064 53.5551C16.9785 51.0153 16.7912 33.1128 17.0862 32.1527H18.6768L18.6728 30.2987H9.30834L9.28043 32.1482V32.1482Z" fill="white"/>
<path fill-rule="evenodd" clip-rule="evenodd" d="M5.33771 58.8648C6.31442 59.1303 10.7355 58.94 12.0631 58.94H59.4995V56.3383C50.4619 56.3383 41.4243 56.3383 32.3867 56.3383C30.8439 56.3383 6.16293 56.1834 5.34568 56.4135L5.33771 58.8648H5.33771Z" fill="white"/>
<path fill-rule="evenodd" clip-rule="evenodd" d="M32.028 15.4803C29.4526 16.0644 30.0865 20.3652 32.8014 19.8652C35.4923 19.3697 34.6312 14.8874 32.028 15.4803V15.4803Z" fill="white"/>
</svg>
