<svg width="68" height="68" viewBox="0 0 68 68" fill="none" xmlns="http://www.w3.org/2000/svg">
<path fill-rule="evenodd" clip-rule="evenodd" d="M13.3901 35.8759C13.6364 36.8064 15.5447 42.3896 15.8525 42.9213C16.2835 43.586 18.5612 43.3201 19.854 43.3201H33.151C35.8596 43.3201 39.307 43.5195 41.9541 43.3201C43.0622 43.2536 42.9391 42.3896 43.37 40.0632L46.2018 23.9784C46.5711 21.918 46.8174 21.4527 44.6012 21.4527C42.7544 21.4527 36.9677 21.1869 35.6134 21.5192C35.675 25.5736 33.7666 29.8275 31.4273 32.4861C29.1496 35.1448 25.3944 37.1387 21.7008 37.5375C17.5147 37.9363 16.1603 36.8064 13.3901 35.8759V35.8759Z" fill="white"/>
<path fill-rule="evenodd" clip-rule="evenodd" d="M52.3573 19.3923C53.8964 19.924 53.8964 19.5252 55.1276 18.7941C60.2986 15.6037 60.6064 15.9361 58.9443 12.8786C58.3903 11.9481 57.9593 10.9511 56.605 11.7487L51.9264 14.6732C50.3874 15.6037 50.8799 16.0025 51.1261 17.1989C49.8949 18.5947 49.7718 22.4498 49.4025 24.7761C49.0331 27.1024 46.6322 43.9848 46.2013 44.8488C45.5857 46.1117 44.7239 46.2446 43.1233 46.2446C37.2751 46.2446 31.4269 46.2446 25.6402 46.2446C24.1628 46.2446 22.6853 46.2446 21.2079 46.2446C18.6223 46.2446 15.5443 45.6464 14.2516 47.9727C12.8972 50.3655 13.8206 53.29 15.3596 52.2266C15.9137 51.8278 15.8521 51.2296 15.8521 50.432C15.8521 48.5045 16.8986 48.5709 18.4992 48.5709C21.9466 48.6374 42.6924 48.7703 44.6008 48.5709C45.8935 48.438 46.8785 47.7069 47.4941 46.9758C48.2944 46.0452 48.6022 45.1147 48.7253 43.586C48.9715 41.0603 49.5256 38.0693 49.9565 35.4771C50.7568 30.1598 51.4339 24.6431 52.3573 19.3923V19.3923Z" fill="white"/>
<path fill-rule="evenodd" clip-rule="evenodd" d="M37.3985 55.6163C36.906 52.4259 41.1537 51.8277 41.6462 54.6858C41.8309 56.0815 40.969 57.2779 39.8609 57.4109C38.6297 57.6103 37.5832 56.6797 37.3985 55.6163V55.6163ZM43.8008 56.0151C44.8473 49.9667 36.4135 48.2385 35.2439 54.2205C34.0743 60.3354 42.7543 62.0635 43.8008 56.0151Z" fill="white"/>
<path fill-rule="evenodd" clip-rule="evenodd" d="M22.1928 52.9576C24.9631 52.0271 26.0096 56.4139 23.5472 57.3444C20.777 58.3414 19.3611 53.8217 22.1928 52.9576ZM18.4992 55.7492C18.7455 58.142 20.9001 60.136 23.3625 59.8036C25.5787 59.4713 27.4255 57.2779 27.1177 54.5528C26.5021 48.7038 17.8836 49.3684 18.4992 55.7492Z" fill="white"/>
<path fill-rule="evenodd" clip-rule="evenodd" d="M8.15723 20.4557H14.9289C14.9289 18.1294 15.3598 16.3348 15.606 14.1414C14.9904 13.7426 14.2517 13.4103 13.7592 13.0115C13.3899 12.7456 13.3283 12.6792 13.0205 12.3468L12.4664 11.7487C12.2818 11.6157 12.4049 11.7487 12.2202 11.6157C10.2503 13.0115 8.34191 17.3318 8.15723 20.4557V20.4557Z" fill="white"/>
<path fill-rule="evenodd" clip-rule="evenodd" d="M12.2202 31.622C12.9589 31.0902 13.3283 30.0933 15.5445 29.1627C15.4829 27.7005 14.9904 25.7065 14.9289 22.782H8.15723C8.34191 25.9059 10.3734 30.4921 12.2202 31.622Z" fill="white"/>
<path fill-rule="evenodd" clip-rule="evenodd" d="M17.0835 20.4557H25.271C25.2095 18.4617 24.9632 16.933 24.717 15.0055C23.8551 14.939 22.3161 15.3378 21.208 15.2714C19.8537 15.2714 18.8687 15.0055 17.6991 14.8726C17.2682 16.5342 17.1451 18.7276 17.0835 20.4557V20.4557Z" fill="white"/>
<path fill-rule="evenodd" clip-rule="evenodd" d="M17.6375 28.3651C18.8072 28.2322 19.7921 27.9663 21.0849 27.8999C22.5008 27.8999 23.4858 28.1657 24.7785 28.2322C24.9632 26.3047 25.2095 24.776 25.271 22.782H17.0835C17.0835 24.5766 17.2682 26.637 17.6375 28.3651V28.3651Z" fill="white"/>
<path fill-rule="evenodd" clip-rule="evenodd" d="M26.8101 28.8969C27.5488 29.4287 28.2875 29.5616 29.2109 30.3592C29.4572 30.5586 29.6418 30.758 29.9496 30.8909C31.858 28.764 33.0277 26.0389 33.3355 22.8485C32.6583 22.7156 27.9797 22.6491 27.4257 22.8485C27.4257 25.0419 26.9332 26.9694 26.8101 28.8969V28.8969Z" fill="white"/>
<path fill-rule="evenodd" clip-rule="evenodd" d="M26.7485 14.3407C27.1795 16.4676 27.3641 19.9903 27.4873 20.3891L33.3355 20.4556C33.1508 18.661 32.7814 17.1988 32.1658 15.7365C31.6734 14.6731 30.5653 12.6791 29.765 12.2803C29.0263 13.2108 27.9182 13.6761 26.7485 14.3407V14.3407Z" fill="white"/>
<path fill-rule="evenodd" clip-rule="evenodd" d="M18.1914 30.5585C18.4992 32.1537 19.8535 35.2776 21.2079 35.2111C22.5006 35.2111 23.9781 32.2202 24.1628 30.492C20.2229 29.9603 21.5157 30.2926 18.1914 30.5585V30.5585Z" fill="white"/>
<path fill-rule="evenodd" clip-rule="evenodd" d="M18.3147 12.6126C20.2846 13.0114 22.1314 13.1444 24.1013 12.6791C23.9782 11.6821 21.762 5.0355 19.2381 9.954C18.9918 10.4193 18.2531 12.0144 18.3147 12.6126V12.6126Z" fill="white"/>
<path fill-rule="evenodd" clip-rule="evenodd" d="M22.193 52.9576C19.3612 53.8217 20.7771 58.3414 23.5473 57.3444C26.0097 56.4139 24.9632 52.0271 22.193 52.9576Z" fill="white"/>
<path fill-rule="evenodd" clip-rule="evenodd" d="M37.3985 55.6161C37.5832 56.6796 38.6297 57.6101 39.861 57.4107C40.969 57.2778 41.8309 56.0814 41.6462 54.6856C41.1537 51.8275 36.9061 52.4257 37.3985 55.6161Z" fill="white"/>
<path fill-rule="evenodd" clip-rule="evenodd" d="M14.0054 10.1534C14.3132 10.6851 15.3597 11.6157 16.16 11.7486C16.4062 11.2169 16.5909 10.6187 16.7756 10.0869C17.0834 9.42229 17.3296 9.02349 17.5759 8.42529C16.7756 8.62469 15.5444 9.15642 14.8672 9.55522C14.7441 9.62168 14.5594 9.75462 14.4363 9.82108C14.3747 9.82108 14.2516 9.95401 14.1901 9.95401C14.0054 10.1534 14.1285 10.0205 14.0054 10.1534V10.1534Z" fill="white"/>
<path fill-rule="evenodd" clip-rule="evenodd" d="M13.9438 33.0178C14.3132 33.6825 16.5909 34.6794 17.4528 34.7459C17.0219 33.7489 16.4678 32.619 16.16 31.4226C15.3597 31.622 14.3132 32.619 13.9438 33.0178V33.0178Z" fill="white"/>
<path fill-rule="evenodd" clip-rule="evenodd" d="M26.2561 12.0143C27.0564 11.682 27.7951 11.2168 28.226 10.685C27.5489 9.9539 26.133 9.15631 25.0249 8.82397C25.148 9.3557 25.4558 9.82097 25.7021 10.3527C25.8867 10.8844 26.0714 11.5491 26.2561 12.0143V12.0143Z" fill="white"/>
<path fill-rule="evenodd" clip-rule="evenodd" d="M25.0864 34.4135C25.702 34.2141 26.2561 33.8818 26.7486 33.6159C27.1795 33.3501 27.9798 32.8848 28.226 32.486C27.7335 32.0207 27.0564 31.489 26.1945 31.2231C26.0098 32.4195 25.4558 33.3501 25.0864 34.4135V34.4135Z" fill="white"/>
</svg>
