<svg width="60" height="60" viewBox="0 0 60 60" fill="none" xmlns="http://www.w3.org/2000/svg">
<path fill-rule="evenodd" clip-rule="evenodd" d="M11.8147 31.6552C12.032 32.4763 13.7158 37.4026 13.9874 37.8718C14.3677 38.4583 16.3774 38.2237 17.5181 38.2237H29.2508C31.6407 38.2237 34.6826 38.3996 37.0182 38.2237C37.996 38.165 37.8873 37.4026 38.2676 35.3499L40.7662 21.1575C41.0921 19.3395 41.3094 18.9289 39.3539 18.9289C37.7244 18.9289 32.6185 18.6944 31.4235 18.9876C31.4778 22.565 29.794 26.3184 27.7299 28.6642C25.7201 31.0102 22.4067 32.7695 19.1477 33.1214C15.4541 33.4732 14.259 32.4763 11.8147 31.6552Z" fill="#173042"/>
<path fill-rule="evenodd" clip-rule="evenodd" d="M46.1976 17.1109C47.5557 17.5801 47.5557 17.2282 48.642 16.5831C53.2047 13.7681 53.4762 14.0613 52.0097 11.3636C51.5209 10.5425 51.1406 9.66282 49.9456 10.3666L45.8174 12.947C44.4595 13.7681 44.894 14.1199 45.1113 15.1756C44.0249 16.4072 43.9163 19.8087 43.5905 21.8613C43.2645 23.914 41.1461 38.8102 40.7659 39.5726C40.2227 40.6869 39.4623 40.8041 38.05 40.8041C32.8898 40.8041 27.7296 40.8041 22.6237 40.8041C21.3201 40.8041 20.0165 40.8041 18.7129 40.8041C16.4315 40.8041 13.7156 40.2763 12.575 42.3289C11.3799 44.4402 12.1947 47.0207 13.5526 46.0824C14.0415 45.7305 13.9872 45.2027 13.9872 44.4989C13.9872 42.7982 14.9105 42.8568 16.3228 42.8568C19.3647 42.9154 37.6698 43.0327 39.3537 42.8568C40.4943 42.7395 41.3634 42.0944 41.9066 41.4493C42.6127 40.6282 42.8843 39.8072 42.9929 38.4583C43.2102 36.2298 43.6991 33.5906 44.0793 31.3034C44.7854 26.6117 45.3829 21.744 46.1976 17.1109Z" fill="#173042"/>
<path fill-rule="evenodd" clip-rule="evenodd" d="M32.9987 49.0733C32.5642 46.2582 36.3121 45.7304 36.7467 48.2523C36.9097 49.4838 36.1492 50.5394 35.1714 50.6568C34.0851 50.8327 33.1617 50.0116 32.9987 49.0733ZM38.6478 49.4252C39.5712 44.0884 32.1296 42.5635 31.0976 47.8417C30.0656 53.2372 37.7244 54.762 38.6478 49.4252Z" fill="#173042"/>
<path fill-rule="evenodd" clip-rule="evenodd" d="M19.5817 46.7272C22.0261 45.9062 22.9495 49.7769 20.7768 50.5979C18.3325 51.4776 17.0832 47.4896 19.5817 46.7272ZM16.3227 49.1904C16.54 51.3017 18.4411 53.0611 20.6138 52.7678C22.5693 52.4746 24.1988 50.5392 23.9272 48.1347C23.3841 42.9738 15.7795 43.5602 16.3227 49.1904Z" fill="#173042"/>
<path fill-rule="evenodd" clip-rule="evenodd" d="M7.19751 18.049H13.1725C13.1725 15.9964 13.5527 14.4129 13.77 12.4776C13.2268 12.1257 12.575 11.8325 12.1404 11.4806C11.8146 11.246 11.7602 11.1874 11.4886 10.8941L10.9997 10.3664C10.8368 10.249 10.9455 10.3664 10.7825 10.249C9.04434 11.4806 7.36046 15.2926 7.19751 18.049Z" fill="#173042"/>
<path fill-rule="evenodd" clip-rule="evenodd" d="M10.7825 27.9018C11.4343 27.4326 11.7602 26.553 13.7157 25.7318C13.6613 24.4417 13.2268 22.6822 13.1725 20.1018H7.19751C7.36046 22.8582 9.15295 26.9048 10.7825 27.9018Z" fill="#173042"/>
<path fill-rule="evenodd" clip-rule="evenodd" d="M15.0737 18.0491H22.298C22.2437 16.2897 22.0264 14.9408 21.8092 13.2401C21.0487 13.1814 19.6907 13.5333 18.713 13.4747C17.518 13.4747 16.6489 13.2401 15.6169 13.1228C15.2367 14.5889 15.1281 16.5243 15.0737 18.0491Z" fill="#173042"/>
<path fill-rule="evenodd" clip-rule="evenodd" d="M15.5626 25.0281C16.5946 24.9108 17.4637 24.6762 18.6044 24.6176C19.8537 24.6176 20.7228 24.8521 21.8634 24.9108C22.0264 23.2101 22.2437 21.8612 22.298 20.1018H15.0737C15.0737 21.6853 15.2367 23.5033 15.5626 25.0281Z" fill="#173042"/>
<path fill-rule="evenodd" clip-rule="evenodd" d="M23.656 25.4972C24.3078 25.9664 24.9596 26.0837 25.7744 26.7874C25.9917 26.9634 26.1546 27.1393 26.4262 27.2566C28.11 25.3799 29.1421 22.9754 29.4137 20.1603C28.8162 20.0431 24.688 19.9844 24.1992 20.1603C24.1992 22.0957 23.7646 23.7964 23.656 25.4972Z" fill="#173042"/>
<path fill-rule="evenodd" clip-rule="evenodd" d="M23.6016 12.6537C23.9819 14.5304 24.1447 17.6386 24.2534 17.9905L29.4136 18.0492C29.2506 16.4657 28.9247 15.1755 28.3815 13.8853C27.9471 12.947 26.9693 11.1876 26.2632 10.8357C25.6114 11.6567 24.6337 12.0673 23.6016 12.6537Z" fill="#173042"/>
<path fill-rule="evenodd" clip-rule="evenodd" d="M16.0513 26.9634C16.3229 28.371 17.5178 31.1274 18.7129 31.0687C19.8535 31.0687 21.1572 28.4296 21.3202 26.9048C17.8438 26.4356 18.9845 26.7288 16.0513 26.9634Z" fill="#173042"/>
<path fill-rule="evenodd" clip-rule="evenodd" d="M16.1599 11.1285C17.8981 11.4804 19.5276 11.5978 21.2658 11.1872C21.1572 10.3075 19.2017 4.44288 16.9747 8.78273C16.7574 9.19329 16.1056 10.6007 16.1599 11.1285Z" fill="#173042"/>
<path fill-rule="evenodd" clip-rule="evenodd" d="M19.5821 46.7274C17.0834 47.4898 18.3327 51.4778 20.777 50.5981C22.9497 49.777 22.0264 45.9063 19.5821 46.7274Z" fill="#173042"/>
<path fill-rule="evenodd" clip-rule="evenodd" d="M32.9988 49.073C33.1618 50.0114 34.0852 50.8324 35.1716 50.6565C36.1493 50.5392 36.9098 49.4836 36.7468 48.252C36.3123 45.7301 32.5644 46.258 32.9988 49.073Z" fill="#173042"/>
<path fill-rule="evenodd" clip-rule="evenodd" d="M12.3577 8.95888C12.6293 9.42803 13.5526 10.2491 14.2588 10.3664C14.476 9.89727 14.639 9.36944 14.802 8.90021C15.0736 8.31379 15.2908 7.96191 15.5081 7.43408C14.802 7.61002 13.7156 8.0792 13.1181 8.43108C13.0095 8.48972 12.8465 8.60702 12.7379 8.66566C12.6835 8.66566 12.5749 8.78295 12.5206 8.78295C12.3577 8.95888 12.4663 8.84162 12.3577 8.95888Z" fill="#173042"/>
<path fill-rule="evenodd" clip-rule="evenodd" d="M12.3032 29.1334C12.6292 29.7199 14.6389 30.5995 15.3994 30.6582C15.0192 29.7784 14.5303 28.7815 14.2587 27.7258C13.5525 27.9018 12.6292 28.7815 12.3032 29.1334Z" fill="#173042"/>
<path fill-rule="evenodd" clip-rule="evenodd" d="M23.1672 10.6006C23.8733 10.3074 24.5251 9.89697 24.9053 9.42773C24.3079 8.78264 23.0585 8.07889 22.0808 7.78564C22.1894 8.25482 22.461 8.66535 22.6783 9.13452C22.8412 9.60367 23.0042 10.1902 23.1672 10.6006Z" fill="#173042"/>
<path fill-rule="evenodd" clip-rule="evenodd" d="M22.135 30.3649C22.6782 30.1889 23.1671 29.8957 23.6017 29.6611C23.9819 29.4266 24.688 29.016 24.9052 28.6641C24.4707 28.2536 23.8732 27.7844 23.1127 27.5498C22.9498 28.6055 22.461 29.4266 22.135 30.3649Z" fill="#173042"/>
</svg>
