<svg width="60" height="60" viewBox="0 0 60 60" fill="none" xmlns="http://www.w3.org/2000/svg">
<path fill-rule="evenodd" clip-rule="evenodd" d="M33.5384 23.8492C33.5384 22.5046 34.9826 22.5015 34.9826 23.8492V24.7392C34.9826 26.0711 33.5384 26.0932 33.5384 24.7392V23.8492ZM30.6943 23.8492C30.6943 22.5078 32.1384 22.511 32.1384 23.8492V24.7392C32.1384 26.0932 30.6943 26.0806 30.6943 24.7392V23.8492ZM27.8469 23.8492C27.8469 22.5078 29.2942 22.5015 29.2942 23.8492V24.7392C29.2942 26.09 27.8469 26.0837 27.8469 24.7392V23.8492ZM25.0059 23.8492C25.0059 22.5046 26.447 22.511 26.447 23.8492V24.7392C26.447 26.0964 25.0059 26.0742 25.0059 24.7392V23.8492ZM33.5384 19.5789C33.5384 18.2344 34.9826 18.2312 34.9826 19.5789V20.469C34.9826 21.8166 33.5384 21.8166 33.5384 20.469V19.5789ZM30.6943 19.5789C30.6943 18.247 32.1384 18.2218 32.1384 19.5789V20.469C32.1384 21.8229 30.6943 21.8071 30.6943 20.469V19.5789ZM27.8469 19.5789C27.8469 18.2344 29.2942 18.2312 29.2942 19.5789V20.469C29.2942 21.8166 27.8469 21.8166 27.8469 20.469V19.5789ZM25.0059 19.5789C25.0059 18.2312 26.4501 18.2439 26.4501 19.5789L26.447 20.469C26.447 21.8103 25.0059 21.8135 25.0059 20.469V19.5789ZM33.5384 15.3087C33.5384 13.9674 34.9826 13.9578 34.9826 15.3087V16.1987C34.9826 17.5306 33.5384 17.5527 33.5384 16.1987V15.3087ZM30.6943 15.3087C30.6943 13.9547 32.1384 13.9768 32.1384 15.3087V16.1987C32.1384 17.5527 30.6943 17.5401 30.6943 16.1987V15.3087ZM27.8469 15.3087C27.8469 13.9642 29.2942 13.961 29.2942 15.3087V16.1987C29.2942 17.5306 27.8469 17.5527 27.8469 16.1987V15.3087ZM25.0059 15.3087C25.0059 13.9674 26.447 13.9578 26.447 15.3087V16.1987C26.447 17.5337 25.0059 17.5527 25.0059 16.1987V15.3087ZM33.5416 11.0385C33.5416 9.68758 34.9889 9.70338 34.9889 11.0385V11.9285C34.9889 13.2887 33.5416 13.273 33.5416 11.9285V11.0385ZM31.2051 10.0948C32.0406 9.83282 32.1479 10.6628 32.1448 11.2152C32.1416 11.919 32.2488 12.6859 31.6497 12.869C30.833 13.1184 30.6943 12.4082 30.6943 11.7518C30.6974 11.0479 30.546 10.2999 31.2051 10.0948ZM27.8533 11.0385C27.8533 9.70338 29.3006 9.67497 29.3006 11.0385V11.9285C29.3006 13.2887 27.8533 13.2761 27.8533 11.9285V11.0385ZM25.5168 10.0948C26.3555 9.82964 26.4596 10.6724 26.4564 11.2152C26.4532 11.9379 26.5478 12.6891 25.9613 12.869C25.1447 13.1184 25.0059 12.4051 25.0059 11.7518C25.0091 11.0479 24.8578 10.2999 25.5168 10.0948ZM35.6258 36.8934C35.8781 38.4999 35.4997 38.9701 35.1876 40.261C35.9632 40.4062 36.4898 40.8481 37.111 41.1353C37.5903 40.9112 37.9655 40.6209 38.5236 40.4031C38.4164 33.4943 38.5205 26.5003 38.5205 19.5789C38.5205 16.1103 38.511 12.6386 38.5236 9.17C38.5299 6.85973 37.2687 7.22585 35.2443 7.22585H24.8451C22.8839 7.22585 21.4744 6.83764 21.4807 9.08167V40.4094C22.0199 40.6555 22.3919 40.8923 22.8901 41.1353C23.5145 40.8449 24.0411 40.4062 24.8136 40.261C24.3816 38.5914 23.8992 37.6288 24.7821 35.53C26.7969 30.7327 34.7966 31.5911 35.6258 36.8934ZM27.8249 28.7128V29.6028C27.8249 30.9442 29.2722 30.9536 29.2722 29.6028V28.7128C29.2722 27.3619 27.8249 27.3683 27.8249 28.7128ZM33.5164 28.7128V29.6028C33.5164 30.9568 34.9605 30.9316 34.9605 29.6028V28.7128C34.9605 27.3651 33.5164 27.3683 33.5164 28.7128ZM30.6722 28.7128V29.6028C30.6722 30.9442 32.1132 30.9536 32.1132 29.6028V28.7128C32.1132 27.3714 30.6722 27.3714 30.6722 28.7128ZM24.9839 28.7128V29.6028C24.9839 30.9346 26.4249 30.9599 26.4249 29.6028V28.7128C26.4249 27.3745 24.9839 27.3683 24.9839 28.7128Z" fill="#173042"/>
<path fill-rule="evenodd" clip-rule="evenodd" d="M41.273 26.3362C41.582 26.232 41.9036 26.374 42.0456 26.5413C42.2316 26.7685 42.5343 28.8926 41.7176 29.1136C41.3676 29.2082 41.0901 29.0694 40.9419 28.8926C40.7433 28.6527 40.45 26.6076 41.273 26.3362ZM43.619 27.2799C43.619 25.9448 45.0599 25.929 45.0599 27.2799V28.1699C45.0599 29.5143 43.619 29.5081 43.619 28.1699V27.2799ZM46.9834 32.8346C47.6865 33.2386 47.964 33.5952 48.4622 33.9772C48.5757 32.1151 48.4748 26.8032 48.4748 24.5624C48.4748 19.0739 48.642 20.1911 43.5054 20.0302C43.4865 19.3769 43.5937 18.6226 42.7991 18.6226C42.0045 18.6226 42.1149 19.3737 42.0959 20.0302L39.9833 20.0396L39.9739 33.9772C41.5978 32.2286 43.7924 31.6195 46.9834 32.8346ZM41.1658 22.9054C41.4717 22.8044 41.7964 22.9433 41.9352 23.1137C42.1212 23.3378 42.4239 25.465 41.6072 25.686C41.2604 25.7806 40.9798 25.6386 40.8347 25.4619C40.6329 25.222 40.3428 23.18 41.1658 22.9054ZM43.5086 23.8491C43.5086 22.5141 44.9527 22.4983 44.9527 23.8491V24.7391C44.9527 26.0836 43.5086 26.0805 43.5086 24.7391V23.8491Z" fill="#173042"/>
<path fill-rule="evenodd" clip-rule="evenodd" d="M29.3281 33.6171C27.187 33.958 25.374 35.9558 25.8028 38.5406C26.1497 40.6363 28.1677 42.448 30.7187 42.0187C32.8313 41.6621 34.6255 39.6516 34.1935 37.0826C33.8466 35.0059 31.8475 33.2163 29.3281 33.6171Z" fill="#173042"/>
<path fill-rule="evenodd" clip-rule="evenodd" d="M43.5493 33.6175C41.4177 33.9584 39.6015 35.9436 40.0272 38.541C40.3677 40.6241 42.3858 42.4484 44.943 42.0191C47.0557 41.6625 48.8467 39.6552 48.4179 37.0798C48.0678 34.9999 46.0687 33.2198 43.5493 33.6175Z" fill="#173042"/>
<path fill-rule="evenodd" clip-rule="evenodd" d="M15.1079 33.6172C12.9795 33.9549 11.1476 35.9369 11.5859 38.5565C11.9327 40.6396 13.9571 42.448 16.4985 42.0188C18.6112 41.659 20.3991 39.6643 19.9733 37.0795C19.6328 35.0122 17.6242 33.2195 15.1079 33.6172Z" fill="#173042"/>
<path fill-rule="evenodd" clip-rule="evenodd" d="M32.8687 42.7702C34.707 42.8995 35.4984 43.2783 36.3057 44.3167C37.2611 45.5538 37.1255 46.7469 37.1255 48.4954C37.1255 48.994 37.198 50.5974 37.0719 50.9477C36.848 51.5726 35.6341 51.3549 34.9782 51.3549C31.6579 51.3549 28.3407 51.3549 25.0236 51.3549C24.3646 51.3549 23.1537 51.5726 22.9267 50.9477C22.8006 50.5974 22.8763 48.994 22.8763 48.4954C22.8763 46.7469 22.7312 45.5602 23.6961 44.3199C24.5064 43.2752 25.2885 42.8996 27.133 42.7734C26.8493 42.5429 26.638 42.4451 26.3447 42.1894C26.083 41.9622 25.9065 41.7445 25.6448 41.5298C24.0808 41.6718 22.7028 43.0953 22.1479 44.1084C21.2587 45.7275 21.4794 47.3875 21.4794 49.3855C21.4794 50.4017 21.3407 51.238 21.9083 51.9671C22.397 52.5952 22.9645 52.7561 24.0429 52.753H36.044C38.7526 52.7593 38.5192 50.9508 38.5192 49.2939C38.5192 47.2645 38.7368 45.6738 37.8192 44.0515C37.2706 43.0763 35.9084 41.6718 34.3539 41.5298C34.0732 41.7603 33.9187 41.978 33.6129 42.24C33.4047 42.4167 33.1241 42.565 32.8687 42.7702Z" fill="#173042"/>
<path fill-rule="evenodd" clip-rule="evenodd" d="M10.8888 51.355C9.864 51.355 8.69416 51.6738 8.65317 50.5501C8.59326 48.9373 8.46398 46.2041 9.09459 44.9163C9.93971 43.1899 11.3113 42.8838 12.91 42.7702C12.6262 42.5461 12.4149 42.4388 12.1249 42.1894C11.8631 41.9622 11.6834 41.7445 11.4248 41.5298C10.4978 41.615 9.46041 42.3347 8.97477 42.7512C8.47975 43.1741 7.88064 44.0358 7.56848 44.9006C7.20586 45.9042 7.01667 50.6763 7.44866 51.5822C7.8901 52.5164 8.5901 52.7563 9.91129 52.7531C13.2252 52.7436 17.5861 52.8699 20.6479 52.7436C20.4397 52.3049 20.096 51.4244 19.9573 51.355H10.8888Z" fill="#173042"/>
<path fill-rule="evenodd" clip-rule="evenodd" d="M47.0902 42.7734C48.7078 42.8869 50.0984 43.1995 50.9371 44.9763C51.4826 46.1346 51.4479 49.1613 51.347 50.6384C51.2745 51.6579 49.9754 51.3549 49.0231 51.3549H40.046C39.9262 51.3833 39.5226 52.3775 39.3491 52.7468C42.7766 52.8319 46.6582 52.7436 50.1772 52.753C51.3943 52.7562 52.1479 52.4785 52.5609 51.5822C52.9835 50.6668 52.7943 45.9074 52.4317 44.9005C52.1164 44.0263 51.4921 43.1268 50.9781 42.7102C50.4767 42.2999 49.4993 41.615 48.5785 41.5298C48.2979 41.7603 48.1402 41.978 47.8344 42.24C47.6199 42.423 47.3488 42.5587 47.0902 42.7734Z" fill="#173042"/>
<path fill-rule="evenodd" clip-rule="evenodd" d="M30.8895 43.4802L29.0764 43.4928C28.9597 44.4555 28.5782 45.9073 28.348 46.9268C28.1367 47.8736 28.2881 47.801 28.7989 48.2713C30.1705 49.537 29.9814 49.4485 31.1574 48.3155C31.6746 47.8168 31.8606 47.9305 31.6462 46.9299C31.4791 46.1567 31.167 44.0546 30.8895 43.4802Z" fill="#173042"/>
<path fill-rule="evenodd" clip-rule="evenodd" d="M16.6686 43.4802L14.8555 43.4928C14.742 44.4429 14.3573 45.923 14.1271 46.9267C13.9127 47.8641 14.0704 47.8105 14.578 48.2744C15.9465 49.5179 15.7384 49.4705 16.9335 48.3154C17.4506 47.8167 17.6398 47.9335 17.4254 46.9299C17.2583 46.1566 16.9461 44.0546 16.6686 43.4802Z" fill="#173042"/>
<path fill-rule="evenodd" clip-rule="evenodd" d="M45.1114 43.4802L43.2983 43.4928C43.1943 44.4239 42.797 45.9325 42.5699 46.9267C42.3618 47.8451 42.5257 47.823 43.0208 48.2743C44.3767 49.5052 44.178 49.4736 45.3794 48.3153C45.8966 47.8167 46.0858 47.9335 45.8682 46.9299C45.7042 46.1566 45.3889 44.0515 45.1114 43.4802Z" fill="#173042"/>
<path fill-rule="evenodd" clip-rule="evenodd" d="M38.2739 42.1767C38.3811 42.3756 38.8699 43.0351 39.0686 43.2624C40.1311 42.8836 40.0838 42.8616 41.3546 42.7701C41.1149 42.5806 40.8815 42.4481 40.664 42.2714C39.9167 41.6654 40.1154 41.3056 39.0686 41.7348C38.7785 41.8548 38.46 41.9747 38.2739 42.1767Z" fill="#173042"/>
<path fill-rule="evenodd" clip-rule="evenodd" d="M18.645 42.7732C19.919 42.8617 19.8653 42.8805 20.9343 43.2624C21.1266 43.0415 21.6248 42.3692 21.7226 42.1767C21.5365 41.9905 21.218 41.8516 20.9279 41.738C20.5496 41.5928 20.2753 41.4382 19.9757 41.6527C19.818 41.7664 19.591 42.082 19.3451 42.2809C19.1307 42.4513 18.8878 42.5744 18.645 42.7732Z" fill="#173042"/>
<path fill-rule="evenodd" clip-rule="evenodd" d="M18.2985 26.3362C17.9895 26.232 17.6679 26.374 17.526 26.5413C17.34 26.7685 17.0373 28.8926 17.854 29.1136C18.2039 29.2082 18.4814 29.0694 18.6297 28.8926C18.8283 28.6527 19.1184 26.6076 18.2985 26.3362ZM15.9526 27.2799C15.9526 25.9448 14.5085 25.929 14.5085 27.2799V28.1699C14.5085 29.5143 15.9526 29.5081 15.9526 28.1699V27.2799ZM12.5881 32.8346C11.885 33.2386 11.6076 33.5952 11.1093 33.9772C10.9958 32.1151 11.0936 26.8032 11.0936 24.5624C11.0936 19.0739 10.9296 20.1911 16.0661 20.0302C16.0851 19.3769 15.9747 18.6226 16.7692 18.6226C17.5639 18.6226 17.4567 19.3737 17.4756 20.0302L19.5882 20.0396L19.5977 33.9772C17.9738 32.2286 15.7791 31.6195 12.5881 32.8346ZM18.4057 22.9054C18.0967 22.8044 17.7751 22.9433 17.6364 23.1137C17.4472 23.3378 17.1477 25.465 17.9643 25.686C18.3111 25.7806 18.5918 25.6386 18.7369 25.4619C18.9387 25.222 19.2287 23.18 18.4057 22.9054ZM16.063 23.8491C16.063 22.5141 14.6188 22.4983 14.6188 23.8491V24.7391C14.6188 26.0836 16.063 26.0805 16.063 24.7391V23.8491Z" fill="#173042"/>
</svg>
