<svg width="68" height="68" viewBox="0 0 68 68" fill="none" xmlns="http://www.w3.org/2000/svg">
<path fill-rule="evenodd" clip-rule="evenodd" d="M38.0102 27.029C38.0102 25.5052 39.6469 25.5016 39.6469 27.029V28.0377C39.6469 29.5472 38.0102 29.5722 38.0102 28.0377V27.029ZM34.7868 27.029C34.7868 25.5088 36.4235 25.5124 36.4235 27.029V28.0377C36.4235 29.5722 34.7868 29.5579 34.7868 28.0377V27.029ZM31.5598 27.029C31.5598 25.5088 33.2001 25.5016 33.2001 27.029V28.0377C33.2001 29.5686 31.5598 29.5615 31.5598 28.0377V27.029ZM28.34 27.029C28.34 25.5052 29.9732 25.5124 29.9732 27.029V28.0377C29.9732 29.5758 28.34 29.5507 28.34 28.0377V27.029ZM38.0102 22.1894C38.0102 20.6656 39.6469 20.662 39.6469 22.1894V23.1981C39.6469 24.7254 38.0102 24.7254 38.0102 23.1981V22.1894ZM34.7868 22.1894C34.7868 20.6799 36.4235 20.6513 36.4235 22.1894V23.1981C36.4235 24.7326 34.7868 24.7147 34.7868 23.1981V22.1894ZM31.5598 22.1894C31.5598 20.6656 33.2001 20.662 33.2001 22.1894V23.1981C33.2001 24.7254 31.5598 24.7254 31.5598 23.1981V22.1894ZM28.34 22.1894C28.34 20.662 29.9767 20.6763 29.9767 22.1894L29.9732 23.1981C29.9732 24.7183 28.34 24.7219 28.34 23.1981V22.1894ZM38.0102 17.3498C38.0102 15.8296 39.6469 15.8188 39.6469 17.3498V18.3585C39.6469 19.868 38.0102 19.893 38.0102 18.3585V17.3498ZM34.7868 17.3498C34.7868 15.8153 36.4235 15.8403 36.4235 17.3498V18.3585C36.4235 19.893 34.7868 19.8787 34.7868 18.3585V17.3498ZM31.5598 17.3498C31.5598 15.826 33.2001 15.8224 33.2001 17.3498V18.3585C33.2001 19.868 31.5598 19.893 31.5598 18.3585V17.3498ZM28.34 17.3498C28.34 15.8296 29.9732 15.8188 29.9732 17.3498V18.3585C29.9732 19.8715 28.34 19.893 28.34 18.3585V17.3498ZM38.0138 12.5102C38.0138 10.9792 39.654 10.9971 39.654 12.5102V13.5189C39.654 15.0605 38.0138 15.0427 38.0138 13.5189V12.5102ZM35.3657 11.4407C36.3127 11.1438 36.4342 12.0845 36.4307 12.7105C36.4271 13.5081 36.5486 14.3773 35.8696 14.5848C34.944 14.8674 34.7868 14.0626 34.7868 13.3186C34.7904 12.5209 34.6188 11.6732 35.3657 11.4407V11.4407ZM31.567 12.5102C31.567 10.9971 33.2073 10.9649 33.2073 12.5102V13.5189C33.2073 15.0605 31.567 15.0462 31.567 13.5189V12.5102ZM28.919 11.4407C29.8695 11.1402 29.9875 12.0953 29.9839 12.7105C29.9803 13.5296 30.0875 14.3809 29.4228 14.5848C28.4973 14.8674 28.34 14.059 28.34 13.3186C28.3436 12.5209 28.1721 11.6732 28.919 11.4407V11.4407ZM40.3759 41.8125C40.6618 43.6332 40.233 44.1661 39.8792 45.6291C40.7583 45.7936 41.3551 46.2944 42.0591 46.6199C42.6023 46.366 43.0275 46.0369 43.66 45.7901C43.5385 37.9601 43.6565 30.0336 43.6565 22.1894C43.6565 18.2583 43.6458 14.3237 43.66 10.3926C43.6672 7.7743 42.2378 8.18923 39.9435 8.18923H28.1578C25.935 8.18923 24.3376 7.74926 24.3448 10.2925V45.7972C24.9558 46.0762 25.3775 46.3445 25.9421 46.6199C26.6497 46.2908 27.2465 45.7936 28.122 45.6291C27.6325 43.7369 27.0857 42.6459 28.0863 40.2673C30.3698 34.8303 39.4361 35.8032 40.3759 41.8125V41.8125ZM31.5348 32.5411V33.5498C31.5348 35.07 33.1751 35.0807 33.1751 33.5498V32.5411C33.1751 31.0101 31.5348 31.0173 31.5348 32.5411ZM37.9852 32.5411V33.5498C37.9852 35.0843 39.6219 35.0557 39.6219 33.5498V32.5411C39.6219 31.0137 37.9852 31.0173 37.9852 32.5411ZM34.7618 32.5411V33.5498C34.7618 35.07 36.3949 35.0807 36.3949 33.5498V32.5411C36.3949 31.0209 34.7618 31.0209 34.7618 32.5411ZM28.315 32.5411V33.5498C28.315 35.0592 29.9482 35.0878 29.9482 33.5498V32.5411C29.9482 31.0244 28.315 31.0173 28.315 32.5411Z" fill="white"/>
<path fill-rule="evenodd" clip-rule="evenodd" d="M46.776 29.8476C47.1262 29.7295 47.4907 29.8905 47.6516 30.0801C47.8624 30.3376 48.2055 32.7449 47.2799 32.9953C46.8832 33.1026 46.5688 32.9452 46.4008 32.7449C46.1757 32.473 45.8433 30.1552 46.776 29.8476ZM49.4348 30.9171C49.4348 29.404 51.0679 29.3861 51.0679 30.9171V31.9258C51.0679 33.4495 49.4348 33.4424 49.4348 31.9258V30.9171V30.9171ZM53.2478 37.2125C54.0447 37.6704 54.3592 38.0745 54.9238 38.5074C55.0524 36.397 54.9381 30.3769 54.9381 27.8373C54.9381 21.617 55.1275 22.8832 49.3061 22.7008C49.2847 21.9604 49.4062 21.1055 48.5056 21.1055C47.6051 21.1055 47.7302 21.9568 47.7087 22.7008L45.3144 22.7115L45.3037 38.5074C47.1441 36.5257 49.6313 35.8354 53.2478 37.2125ZM46.6545 25.9594C47.0012 25.8449 47.3692 26.0023 47.5265 26.1955C47.7373 26.4494 48.0804 28.8603 47.1548 29.1107C46.7617 29.218 46.4437 29.057 46.2793 28.8567C46.0506 28.5849 45.7218 26.2706 46.6545 25.9594V25.9594ZM49.3097 27.0289C49.3097 25.5159 50.9464 25.498 50.9464 27.0289V28.0376C50.9464 29.5614 49.3097 29.5578 49.3097 28.0376V27.0289Z" fill="white"/>
<path fill-rule="evenodd" clip-rule="evenodd" d="M33.2384 38.0995C30.8119 38.4858 28.7571 40.75 29.2431 43.6795C29.6362 46.0546 31.9233 48.1078 34.8144 47.6213C37.2087 47.2171 39.2421 44.9386 38.7525 42.027C38.3594 39.6734 36.0937 37.6452 33.2384 38.0995V38.0995Z" fill="white"/>
<path fill-rule="evenodd" clip-rule="evenodd" d="M49.3559 38.0998C46.9401 38.4861 44.8817 40.736 45.3642 43.6798C45.7501 46.0406 48.0372 48.1081 50.9354 47.6216C53.3298 47.2174 55.3596 44.9425 54.8736 42.0237C54.4769 39.6665 52.2112 37.6491 49.3559 38.0998V38.0998Z" fill="white"/>
<path fill-rule="evenodd" clip-rule="evenodd" d="M17.1224 38.0995C14.7102 38.4822 12.634 40.7285 13.1307 43.6974C13.5238 46.0582 15.8181 48.1077 18.6984 47.6213C21.0927 47.2135 23.119 44.9529 22.6365 42.0234C22.2506 39.6805 19.9742 37.6488 17.1224 38.0995Z" fill="white"/>
<path fill-rule="evenodd" clip-rule="evenodd" d="M37.2513 48.4729C39.3347 48.6195 40.2317 49.0488 41.1466 50.2256C42.2294 51.6277 42.0757 52.9798 42.0757 54.9615C42.0757 55.5266 42.1579 57.3437 42.0149 57.7407C41.7612 58.449 40.3854 58.2022 39.6421 58.2022C35.8791 58.2022 32.1196 58.2022 28.3602 58.2022C27.6133 58.2022 26.241 58.449 25.9837 57.7407C25.8408 57.3437 25.9266 55.5266 25.9266 54.9615C25.9266 52.9798 25.7622 51.6349 26.8557 50.2292C27.7741 49.0452 28.6604 48.6195 30.7509 48.4765C30.4293 48.2153 30.1899 48.1045 29.8575 47.8147C29.5609 47.5572 29.3608 47.3104 29.0642 47.0671C27.2917 47.2281 25.73 48.8413 25.1011 49.9895C24.0933 51.8245 24.3434 53.7059 24.3434 55.9702C24.3434 57.1219 24.1862 58.0698 24.8295 58.8961C25.3834 59.6079 26.0266 59.7903 27.2488 59.7868H40.85C43.9197 59.7939 43.6552 57.7443 43.6552 55.8664C43.6552 53.5664 43.9018 51.7637 42.8619 49.9251C42.2401 48.8198 40.6963 47.2281 38.9345 47.0671C38.6164 47.3283 38.4413 47.5751 38.0947 47.872C37.8588 48.0723 37.5408 48.2404 37.2513 48.4729V48.4729Z" fill="white"/>
<path fill-rule="evenodd" clip-rule="evenodd" d="M12.3406 58.2023C11.1792 58.2023 9.85338 58.5636 9.80693 57.2901C9.73903 55.4623 9.59251 52.3646 10.3072 50.9052C11.265 48.9486 12.8195 48.6017 14.6313 48.4729C14.3097 48.2189 14.0702 48.0973 13.7415 47.8147C13.4448 47.5572 13.2412 47.3104 12.9481 47.0671C11.8975 47.1637 10.7218 47.9793 10.1714 48.4514C9.61038 48.9307 8.93139 49.9073 8.57761 50.8874C8.16664 52.0248 7.95223 57.4332 8.44181 58.4598C8.94211 59.5186 9.73545 59.7905 11.2328 59.7869C14.9886 59.7761 19.9309 59.9192 23.4009 59.7761C23.165 59.2789 22.7755 58.281 22.6183 58.2023H12.3406V58.2023Z" fill="white"/>
<path fill-rule="evenodd" clip-rule="evenodd" d="M53.3689 48.4765C55.2022 48.6052 56.7782 48.9594 57.7287 50.9732C58.347 52.2859 58.3077 55.7162 58.1933 57.3902C58.1111 58.5456 56.6388 58.2022 55.5595 58.2022H45.3855C45.2497 58.2344 44.7923 59.3612 44.5957 59.7797C48.4802 59.8762 52.8793 59.7761 56.8675 59.7868C58.2469 59.7904 59.101 59.4756 59.5691 58.4598C60.048 57.4224 59.8336 52.0284 59.4226 50.8873C59.0653 49.8965 58.3577 48.8771 57.7752 48.4049C57.207 47.9399 56.0992 47.1637 55.0557 47.0671C54.7376 47.3283 54.5589 47.5751 54.2123 47.872C53.9693 48.0794 53.662 48.2332 53.3689 48.4765V48.4765Z" fill="white"/>
<path fill-rule="evenodd" clip-rule="evenodd" d="M35.008 49.2776L32.9532 49.2919C32.8209 50.3829 32.3885 52.0283 32.1277 53.1837C31.8882 54.2568 32.0598 54.1745 32.6387 54.7075C34.1932 56.1419 33.9788 56.0417 35.3117 54.7576C35.8978 54.1924 36.1086 54.3212 35.8656 53.1872C35.6762 52.3109 35.3225 49.9286 35.008 49.2776V49.2776Z" fill="white"/>
<path fill-rule="evenodd" clip-rule="evenodd" d="M18.8912 49.2776L16.8364 49.2919C16.7078 50.3686 16.2718 52.0461 16.0109 53.1836C15.7679 54.246 15.9466 54.1852 16.5219 54.711C18.0729 56.1203 17.837 56.0666 19.1914 54.7575C19.7775 54.1923 19.9919 54.3247 19.7489 53.1872C19.5595 52.3108 19.2057 49.9286 18.8912 49.2776V49.2776Z" fill="white"/>
<path fill-rule="evenodd" clip-rule="evenodd" d="M51.1263 49.2776L49.0715 49.2919C48.9536 50.3471 48.5033 52.0569 48.246 53.1836C48.0101 54.2245 48.1959 54.1994 48.757 54.7109C50.2937 56.1059 50.0685 56.0701 51.4301 54.7574C52.0162 54.1923 52.2306 54.3246 51.984 53.1872C51.7982 52.3108 51.4408 49.925 51.1263 49.2776V49.2776Z" fill="white"/>
<path fill-rule="evenodd" clip-rule="evenodd" d="M43.3774 47.8002C43.4989 48.0256 44.0528 48.7731 44.278 49.0307C45.4822 48.6014 45.4286 48.5764 46.8688 48.4727C46.5972 48.258 46.3327 48.1078 46.0862 47.9075C45.2392 47.2207 45.4644 46.813 44.278 47.2994C43.9492 47.4354 43.5883 47.5713 43.3774 47.8002Z" fill="white"/>
<path fill-rule="evenodd" clip-rule="evenodd" d="M21.1313 48.4763C22.5751 48.5765 22.5143 48.5979 23.7258 49.0307C23.9438 48.7803 24.5084 48.0184 24.6192 47.8002C24.4083 47.5892 24.0474 47.4318 23.7186 47.303C23.2898 47.1385 22.9789 46.9632 22.6394 47.2064C22.4607 47.3352 22.2034 47.6929 21.9247 47.9183C21.6817 48.1114 21.4065 48.2509 21.1313 48.4763V48.4763Z" fill="white"/>
<path fill-rule="evenodd" clip-rule="evenodd" d="M20.7383 29.8476C20.3881 29.7295 20.0236 29.8905 19.8628 30.0801C19.652 30.3376 19.3089 32.7449 20.2345 32.9953C20.6311 33.1026 20.9456 32.9452 21.1136 32.7449C21.3387 32.473 21.6675 30.1552 20.7383 29.8476ZM18.0796 30.9171C18.0796 29.404 16.4429 29.3861 16.4429 30.9171V31.9258C16.4429 33.4495 18.0796 33.4424 18.0796 31.9258V30.9171V30.9171ZM14.2665 37.2125C13.4696 37.6704 13.1552 38.0745 12.5905 38.5074C12.4619 36.397 12.5727 30.3769 12.5727 27.8373C12.5727 21.617 12.3868 22.8832 18.2082 22.7008C18.2297 21.9604 18.1046 21.1055 19.0051 21.1055C19.9057 21.1055 19.7842 21.9568 19.8056 22.7008L22.1999 22.7115L22.2107 38.5074C20.3703 36.5257 17.883 35.8354 14.2665 37.2125V37.2125ZM20.8598 25.9594C20.5096 25.8449 20.1451 26.0023 19.9879 26.1955C19.7735 26.4494 19.434 28.8603 20.3595 29.1107C20.7526 29.218 21.0707 29.057 21.2351 28.8567C21.4638 28.5849 21.7925 26.2706 20.8598 25.9594V25.9594ZM18.2047 27.0289C18.2047 25.5159 16.5679 25.498 16.5679 27.0289V28.0376C16.5679 29.5614 18.2047 29.5578 18.2047 28.0376V27.0289Z" fill="white"/>
</svg>
