<svg width="48" height="50" viewBox="0 0 48 50" fill="none" xmlns="http://www.w3.org/2000/svg">
<path d="M27.3577 19.5131C27.3577 18.6413 26.4859 17.7695 25.6141 17.7695H20.3833C19.5115 17.7695 18.6397 18.6413 18.6397 19.5131V39.5644H27.3577V19.5131V19.5131ZM39.5628 22.1285C39.5628 21.2567 38.691 21.2567 37.8192 21.2567H32.5884C31.7166 21.2567 30.8448 21.2567 30.8448 22.1285V39.5644H39.5628V22.1285V22.1285ZM44.7936 43.0516H2.07562C1.20383 43.0516 0.332031 43.9234 0.332031 44.7952C0.332031 46.5388 1.20383 47.4106 2.07562 47.4106H44.7936C46.5372 47.4106 47.4089 46.5388 47.4089 44.7952C47.4089 43.9234 46.5372 43.0516 44.7936 43.0516ZM15.1525 26.4875C15.1525 25.6157 14.2807 25.6157 14.2807 25.6157H8.17818C7.30639 25.6157 6.4346 25.6157 6.4346 26.4875V39.5644H15.1525V26.4875V26.4875Z" fill="white"/>
<path d="M41.3078 0.333984L35.2052 1.20578C34.3335 1.20578 33.4617 2.94937 34.3335 3.82116L36.077 4.69296L30.8463 9.92373L22.1283 3.82116C21.2565 2.94937 20.3847 2.94937 19.5129 3.82116L6.43603 15.1545C5.56423 15.1545 4.69244 16.8981 5.56423 17.7699C6.43603 18.6417 6.43603 18.6417 7.30782 18.6417C8.17962 18.6417 8.17962 18.6417 9.05141 17.7699L21.2565 8.18014L29.9745 14.2827C30.8463 15.1545 31.7181 15.1545 32.5899 14.2827L38.6924 8.18014L39.5642 9.05193C40.436 9.92373 42.1796 9.05193 42.1796 8.18014L43.0514 2.07758C43.0514 1.20578 42.1796 0.333984 41.3078 0.333984V0.333984Z" fill="white"/>
</svg>
