<svg width="60" height="60" viewBox="0 0 60 60" fill="none" xmlns="http://www.w3.org/2000/svg">
<path d="M33.5186 24.1912C33.5186 23.3456 32.6389 22.5 31.7593 22.5H26.4815C25.6019 22.5 24.7222 23.3456 24.7222 24.1912V43.6397H33.5186V24.1912ZM45.8334 26.728C45.8334 25.8824 44.9537 25.8824 44.0741 25.8824H38.7963C37.9167 25.8824 37.037 25.8824 37.037 26.728V43.6397H45.8334V26.728ZM51.1112 47.022H8.00926C7.12963 47.022 6.25 47.8676 6.25 48.7132C6.25 50.4044 7.12963 51.25 8.00926 51.25H51.1112C52.8705 51.25 53.75 50.4044 53.75 48.7132C53.75 47.8676 52.8705 47.022 51.1112 47.022ZM21.2037 30.9559C21.2037 30.1103 20.324 30.1103 20.324 30.1103H14.1667C13.287 30.1103 12.4074 30.1103 12.4074 30.9559V43.6397H21.2037V30.9559Z" fill="#173042"/>
<path d="M47.0224 6.25L40.976 7.08333C40.1123 7.08333 39.2485 8.75 40.1123 9.58333L41.8398 10.4167L36.6572 15.4167L28.0194 9.58333C27.1557 8.75 26.2919 8.75 25.4281 9.58333L12.4716 20.4167C11.6078 20.4167 10.744 22.0833 11.6078 22.9167C12.4716 23.75 12.4716 23.75 13.3353 23.75C14.1991 23.75 14.1991 23.75 15.0629 22.9167L27.1557 13.75L35.7934 19.5833C36.6572 20.4167 37.521 20.4167 38.3848 19.5833L44.4311 13.75L45.2949 14.5833C46.1587 15.4167 47.8862 14.5833 47.8862 13.75L48.75 7.91667C48.75 7.08333 47.8862 6.25 47.0224 6.25Z" fill="#173042"/>
</svg>
