<svg width="60" height="60" viewBox="0 0 60 60" fill="none" xmlns="http://www.w3.org/2000/svg">
<path fill-rule="evenodd" clip-rule="evenodd" d="M43.2088 49.0121C45.3379 49.0121 45.9033 52.3312 44.0268 53.2216C40.9955 54.6383 40.2015 49.0121 43.2088 49.0121ZM44.2553 40.3501V27.3707C44.9771 27.1818 45.4101 26.6421 46.1318 26.4532V39.4327L44.2553 40.3501ZM14.3151 26.7096C14.8805 26.858 26.2358 33.5771 27.8116 34.4136C28.9905 35.0343 30.6384 35.1017 31.9376 34.535L42.1502 28.6795V41.2676C42.1021 41.2811 38.2167 42.4819 36.5688 42.7517C34.7163 43.062 32.4187 43.3724 30.2295 43.3724C27.547 43.3724 24.0586 42.9001 21.5204 42.2391C18.0561 41.3485 14.688 39.5271 14.3151 39.4327V26.7096ZM6.60447 19.5048L12.2942 16.3072C13.2926 15.754 14.0625 15.2548 15.0609 14.688C16.0592 14.1349 16.9735 13.6087 17.9479 13.069L26.4404 8.17138C30.3618 5.98566 29.9047 6.13407 33.4653 8.1309L39.1069 11.369C41.1638 12.5159 52.7959 19.3429 53.3733 19.5048C53.1207 19.8961 52.5072 20.1254 52.0501 20.3683C51.4847 20.6921 51.184 20.9349 50.6066 21.2453C44.7846 24.4834 39.0227 27.9643 33.1886 31.216C32.2504 31.7422 31.276 32.6192 29.9889 32.6192C28.7018 32.6192 27.7996 31.7692 26.8734 31.2564C21.9896 28.5445 17.1659 25.6302 12.3303 22.9048L8.01187 20.4223C7.57882 20.1794 6.86911 19.9095 6.60447 19.5048ZM12.21 25.4008C12.21 30.0286 12.2461 34.6835 12.21 39.3112C12.198 40.7954 12.4867 40.9168 13.3889 41.4025C15.53 42.5899 17.8756 43.6827 20.2935 44.2764C22.6271 44.8565 25.887 45.6121 28.4732 45.5986C29.0025 45.5986 29.4355 45.5851 29.9408 45.666C30.9271 45.8144 36.0515 45.2073 37.074 45.0184L40.8872 44.0605C41.3804 43.912 41.7533 43.8446 42.1502 43.6287V46.9073C40.5864 47.3255 39.2272 49.1201 39.2272 50.7121C39.2272 51.9129 39.1309 52.2637 39.6482 53.2756C39.8286 53.6399 40.1775 54.2201 40.4301 54.4899C40.7188 54.7867 41.1157 55.0566 41.4886 55.2725C42.9562 56.0955 44.8207 55.7312 45.9875 54.4899C47.5031 52.8844 47.6234 49.943 46.2161 48.2565C45.6868 47.6089 45.1334 47.1367 44.2553 46.9073V42.8462C44.8207 42.5494 45.386 42.347 45.9755 42.0232C48.6579 40.5121 48.2369 41.4565 48.2369 36.289C48.2369 32.5787 48.2369 28.8549 48.2369 25.1445L50.342 23.9572C51.0758 23.5524 51.7494 23.1612 52.5192 22.7429C53.9627 21.9334 56.0197 20.9754 55.6348 19.2079C55.3701 17.9667 54.2514 17.454 53.0244 16.7389C52.6636 16.5365 52.3388 16.3611 51.9419 16.1318L34.8245 6.33645C33.2247 5.44597 32.0338 4.28564 29.8686 4.28564C28.0883 4.28564 24.9728 6.44439 22.976 7.56423L5.66621 17.535C3.78968 18.6143 3.84983 20.6651 5.70229 21.6905L11.1274 24.7937C11.5364 25.0366 11.7409 25.2794 12.21 25.4008Z" fill="#173042"/>
<path fill-rule="evenodd" clip-rule="evenodd" d="M17.5022 22.2937C17.5022 22.939 17.8109 23.3168 18.1898 23.5214C18.9897 23.9149 20.7298 22.6242 21.8664 21.9946C22.3295 21.727 23.9012 20.9243 24.1819 20.6095C25.094 19.5864 24.0275 18.3115 23.4943 18.3115C22.8207 18.3115 19.6492 20.2632 18.6248 20.8141C18.0494 21.129 17.5022 21.3965 17.5022 22.2937Z" fill="#173042"/>
<path fill-rule="evenodd" clip-rule="evenodd" d="M12.8572 19.6965C12.8572 20.6724 13.643 21.2075 14.3727 20.9557L18.2177 18.8308C19.7613 17.9651 19.8174 17.9966 19.8174 16.7847C19.8174 16.2809 19.1859 15.7144 18.7229 15.7144C18.2177 15.7144 14.9059 17.7132 13.9938 18.217C13.4184 18.5317 12.8572 18.7993 12.8572 19.6965Z" fill="#173042"/>
</svg>
