<svg width="68" height="68" viewBox="0 0 68 68" fill="none" xmlns="http://www.w3.org/2000/svg">
<path d="M26.5897 44.9677H34.045C34.0161 45.3296 33.9997 45.696 33.9997 46.0645C33.9997 48.6989 34.9414 51.2435 36.6208 53.7156C35.508 55.8192 34.2366 57.03 32.9694 57.03C30.5028 57.03 28.0239 52.4367 26.7092 45.6148L26.5897 44.9699V44.9677Z" fill="white"/>
<path d="M26.1157 41.6773H34.7703C35.784 38.9236 37.7095 36.66 40.1835 35.3139V35.0989C40.1835 33.5941 40.1299 32.1266 40.0269 30.7118H25.9117L25.8437 31.7822C25.6647 35.0828 25.7557 38.3936 26.1157 41.6773V41.6773Z" fill="white"/>
<path d="M45.3328 34C48.5123 34 51.3848 35.3929 53.4413 37.6369C53.6922 35.3268 53.5997 32.9891 53.1672 30.7097H43.1321L43.2104 32.1508C43.2413 32.8264 43.2598 33.5108 43.2701 34.1996C43.9378 34.068 44.6301 34 45.3328 34Z" fill="white"/>
<path d="M14.5599 44.9698H23.4329C24.183 49.5368 25.4585 53.4238 27.1255 56.1416C21.8865 54.4864 17.4766 50.6896 14.8608 45.5819L14.5599 44.9698Z" fill="white"/>
<path d="M12.7734 30.7097H22.8085C22.5929 33.9384 22.6157 37.1802 22.8765 40.4051L22.994 41.6774H13.3029C12.2591 38.1278 12.0763 34.3548 12.7713 30.7097H12.7734Z" fill="white"/>
<path d="M39.0359 14.4269L38.8134 14.054C41.8761 15.0217 44.6864 16.7323 47.0233 19.0513C49.3602 21.3704 51.1601 24.2347 52.2815 27.4193H42.8233C42.1721 22.1197 40.8513 17.5659 39.0359 14.4269V14.4269Z" fill="white"/>
<path d="M26.8741 14.1352L27.1255 14.054C25.3101 17.0153 23.9604 21.3563 23.2433 26.4541L23.1156 27.4193H13.6615C14.767 24.2789 16.5324 21.4491 18.8228 19.1463C21.1131 16.8435 23.8678 15.1287 26.8762 14.133L26.8741 14.1352Z" fill="white"/>
<path d="M32.9693 13.1656C35.6872 13.1656 38.4216 18.7416 39.5921 26.7283L39.6889 27.4193H26.2496C27.3644 19.064 30.1751 13.1656 32.9693 13.1656Z" fill="white"/>
<path d="M54.6059 46.0645C54.6059 43.4466 53.6289 40.9358 51.89 39.0847C50.151 37.2335 47.7924 36.1935 45.3332 36.1935C42.8739 36.1935 40.5153 37.2335 38.7763 39.0847C37.0374 40.9358 36.0604 43.4466 36.0604 46.0645C36.0604 50.1511 38.9865 54.4329 44.715 59.0064C44.8933 59.1488 45.1102 59.2258 45.3332 59.2258C45.5561 59.2258 45.773 59.1488 45.9513 59.0064C51.6798 54.4329 54.6059 50.1511 54.6059 46.0645ZM42.2422 46.0645C42.2422 45.1919 42.5679 44.355 43.1476 43.7379C43.7272 43.1208 44.5134 42.7742 45.3332 42.7742C46.1529 42.7742 46.9391 43.1208 47.5188 43.7379C48.0984 44.355 48.4241 45.1919 48.4241 46.0645C48.4241 46.9372 48.0984 47.7741 47.5188 48.3911C46.9391 49.0082 46.1529 49.3548 45.3332 49.3548C44.5134 49.3548 43.7272 49.0082 43.1476 48.3911C42.5679 47.7741 42.2422 46.9372 42.2422 46.0645Z" fill="white"/>
</svg>
