<svg width="60" height="60" viewBox="0 0 60 60" fill="none" xmlns="http://www.w3.org/2000/svg">
<path d="M23.4614 39.6772H30.0396C30.0141 39.9966 29.9997 40.3199 29.9997 40.645C29.9997 42.9695 30.8306 45.2147 32.3124 47.396C31.3305 49.2521 30.2087 50.3205 29.0906 50.3205C26.9142 50.3205 24.7269 46.2675 23.5669 40.2482L23.4614 39.6792V39.6772Z" fill="#173042"/>
<path d="M23.0432 36.7741H30.6796C31.574 34.3443 33.273 32.347 35.4559 31.1593V30.9696C35.4559 29.6418 35.4086 28.347 35.3178 27.0986H22.8632L22.8032 28.0431C22.6452 30.9554 22.7255 33.8767 23.0432 36.7741Z" fill="#173042"/>
<path d="M39.9994 29.9999C42.8049 29.9999 45.3394 31.2289 47.154 33.2089C47.3754 31.1706 47.2937 29.1079 46.9121 27.0967H38.0576L38.1267 28.3682C38.154 28.9644 38.1703 29.5682 38.1794 30.176C38.7685 30.0599 39.3794 29.9999 39.9994 29.9999Z" fill="#173042"/>
<path d="M12.8469 39.6792H20.676C21.3379 43.7089 22.4633 47.1386 23.9342 49.5367C19.3116 48.0762 15.4205 44.7261 13.1124 40.2193L12.8469 39.6792Z" fill="#173042"/>
<path d="M11.2707 27.0967H20.1252C19.935 29.9455 19.9551 32.8059 20.1852 35.6514L20.2889 36.7741H11.7379C10.8169 33.6421 10.6556 30.3129 11.2689 27.0967H11.2707Z" fill="#173042"/>
<path d="M34.4434 12.7297L34.2471 12.4006C36.9495 13.2545 39.4291 14.7638 41.4911 16.81C43.5531 18.8563 45.1412 21.3836 46.1307 24.1935H37.7852C37.2106 19.5174 36.0452 15.4994 34.4434 12.7297Z" fill="#173042"/>
<path d="M23.7124 12.4723L23.9342 12.4006C22.3324 15.0135 21.1415 18.8438 20.5087 23.3419L20.3961 24.1935H12.0542C13.0296 21.4226 14.5873 18.9257 16.6083 16.8938C18.6291 14.862 21.0598 13.3489 23.7142 12.4703L23.7124 12.4723Z" fill="#173042"/>
<path d="M29.0908 11.6167C31.4889 11.6167 33.9016 16.5367 34.9344 23.5838L35.0198 24.1935H23.1616C24.1453 16.8212 26.6253 11.6167 29.0908 11.6167Z" fill="#173042"/>
<path d="M48.1818 40.645C48.1818 38.3351 47.3197 36.1197 45.7854 34.4864C44.251 32.853 42.1699 31.9353 40 31.9353C37.83 31.9353 35.7489 32.853 34.2145 34.4864C32.6802 36.1197 31.8181 38.3351 31.8181 40.645C31.8181 44.2508 34.4 48.0289 39.4545 52.0643C39.6118 52.19 39.8032 52.2579 40 52.2579C40.1967 52.2579 40.3881 52.19 40.5454 52.0643C45.5999 48.0289 48.1818 44.2508 48.1818 40.645ZM37.2726 40.645C37.2726 39.8751 37.56 39.1366 38.0715 38.5921C38.5829 38.0476 39.2766 37.7418 40 37.7418C40.7233 37.7418 41.417 38.0476 41.9285 38.5921C42.4399 39.1366 42.7273 39.8751 42.7273 40.645C42.7273 41.415 42.4399 42.1535 41.9285 42.6979C41.417 43.2424 40.7233 43.5482 40 43.5482C39.2766 43.5482 38.5829 43.2424 38.0715 42.6979C37.56 42.1535 37.2726 41.415 37.2726 40.645Z" fill="#173042"/>
</svg>
