<svg width="60" height="60" viewBox="0 0 60 60" fill="none" xmlns="http://www.w3.org/2000/svg">
<path fill-rule="evenodd" clip-rule="evenodd" d="M11.789 48.6015C11.9744 48.5494 12.1366 48.5031 12.322 48.451L23.5509 45.4472C23.8638 45.3662 24.4201 45.1115 24.6055 45.4067C24.7677 45.6614 25.7179 49.5506 25.7122 49.9442C25.2602 50.222 15.6073 52.7281 14.124 53.0985C13.6547 53.2143 12.9362 53.4458 12.4553 53.4862C12.2003 52.6702 11.3139 49.5102 11.2269 48.8041L11.789 48.6015ZM13.3128 46.0202C12.8029 45.4183 8.04021 36.1754 7.40865 34.9542C6.35993 32.9054 6.15134 30.1794 6.38889 27.575C6.63224 24.9358 7.58248 19.4954 8.10974 16.5553C8.30673 15.4325 8.21403 13.7135 9.94066 14.2749C10.6823 14.5123 10.7692 14.7322 10.746 15.5888C10.7287 16.2428 10.6417 16.8852 10.5722 17.5276C10.4448 18.7835 9.87693 24.2124 9.59302 25.0573C9.34387 25.804 9.29173 26.0239 9.48293 26.8284L10.7518 31.8984C11.0126 32.917 11.3081 34.2192 11.6673 35.2031C12.1308 35.2089 13.139 34.9253 13.5214 34.7459L11.3892 26.3538C11.1806 25.3757 11.5746 25.1152 12.3626 24.8548C13.3186 24.5306 13.759 24.6406 14.0892 25.4799C14.5527 26.6547 14.9062 28.2637 15.2538 29.5717C15.4102 30.162 15.5667 31.1807 15.9433 31.5626L17.2586 32.8764C18.1914 33.814 20.3642 35.9728 20.9552 37.0667C21.4651 38.0101 21.7663 40.1921 21.9228 41.3322C22.0329 42.0846 22.2125 42.9933 22.1835 43.7457C20.8104 44.1045 14.1935 46.0086 13.3128 46.0202ZM4.28564 28.7151V30.0405C4.36097 30.2778 4.37835 31.0418 4.41891 31.3659C4.8187 34.335 5.75154 36.3086 7.21744 38.913C7.652 39.6828 11.2327 46.3443 11.3081 46.6337C10.9488 46.9405 9.75525 46.952 9.19902 47.4903C8.86297 47.8085 9.03679 48.2311 9.14687 48.6999C9.59881 50.5693 10.1261 52.676 10.6823 54.4586C11.0763 55.7087 11.3486 55.8476 12.2873 55.6045C13.0636 55.402 13.8169 55.2226 14.6049 55.0084C18.4405 53.9492 22.3747 53.0001 26.1988 51.9178C26.8593 51.7268 27.9719 51.5185 28.0181 50.8008C28.0472 50.4015 26.5465 44.8453 26.2162 43.7978C25.8106 42.5013 24.7677 43.2364 24.252 43.1842C23.8407 42.4492 23.8348 38.6236 22.8035 36.4127C22.5891 35.9497 22.2762 35.4404 22.0329 35.1278C21.6041 34.5838 21.0537 33.9992 20.567 33.5131L18.597 31.4238C17.8785 30.6309 17.6236 30.7813 17.3107 29.618C17.0268 28.5589 16.7603 27.4939 16.4532 26.4348C16.1287 25.3294 15.8622 24.2528 15.1263 23.651C13.8342 22.5976 13.1274 22.9449 11.9512 22.777C11.9454 20.8729 13.081 16.0923 12.6175 14.628C11.9686 12.5676 9.4192 11.1323 7.11316 13.4416C6.66122 13.893 6.52216 14.2345 6.37151 14.9926C6.04125 16.6652 5.65884 19.1713 5.42129 20.8439L4.28564 28.7151Z" fill="#173042"/>
<path fill-rule="evenodd" clip-rule="evenodd" d="M34.3057 49.9328C34.3347 49.2963 35.3023 45.6269 35.5399 45.2507C35.9802 45.2507 41.3339 46.7323 42.2494 46.9695C43.6574 47.3458 47.777 48.5496 48.8141 48.7464C48.8141 49.3367 47.8175 52.6878 47.5973 53.4923C47.0469 53.4691 34.9141 50.2223 34.3057 49.9328ZM49.7585 40.5106C49.2487 41.4655 48.8025 42.3221 48.2578 43.3002C48.0029 43.769 46.9831 45.7542 46.7398 46.0146C46.1604 46.0146 38.3384 43.9715 37.8865 43.7227C37.759 43.005 38.3558 39.9202 38.5006 39.0463C38.6397 38.2534 38.7671 37.6514 39.1148 37.0206C39.5957 36.1583 40.8415 34.8792 41.5252 34.1731L42.8346 32.8593C43.2807 32.4079 43.6805 31.9796 44.1325 31.5281C44.4106 31.2561 44.399 31.0651 44.5207 30.6021C44.9263 29.08 45.4593 26.6954 45.9808 25.4395C46.3227 24.6292 46.7456 24.5251 47.7306 24.8723C48.5417 25.1501 48.8662 25.4163 48.6519 26.4003C48.2057 28.4491 47.5915 30.6426 47.0469 32.6798C46.9136 33.1776 46.5718 34.2484 46.5254 34.7518C46.8962 34.9081 47.9392 35.2148 48.3795 35.1975C48.8025 34.1036 50.222 28.2928 50.5987 26.6838C50.7841 25.8852 50.6276 25.6247 50.4191 24.9302C50.1351 24.0041 49.4572 17.2731 49.2255 15.4963C49.1675 15.0275 49.1907 14.9697 49.434 14.6803C49.9729 14.0436 51.2534 13.9799 51.5779 14.686C51.7227 15.0044 52.4412 19.5188 52.5338 20.0744C52.9336 22.511 53.3798 25.0401 53.6521 27.5288C53.936 30.087 53.6869 32.9056 52.6555 34.9081C51.7227 36.7254 50.7261 38.6933 49.7585 40.5106ZM55.7148 30.7468V28.0555C55.6279 27.8703 55.2397 24.6292 55.1586 24.1315L53.9128 16.4687C53.658 14.9985 53.6347 14.0899 52.7483 13.2391C52.1225 12.6372 50.5813 11.8674 49.3877 12.4115C48.5533 12.7993 47.6147 13.8005 47.3714 14.8481C47.1802 15.6873 47.5394 17.9561 47.6553 18.8821L48.113 22.8235C46.4849 22.8466 45.9055 22.8409 44.8683 23.7032C44.1904 24.2646 43.8718 25.4684 43.5762 26.5218C43.2633 27.6098 42.9852 28.669 42.7013 29.7513C42.5913 30.168 42.6202 30.2317 42.3884 30.4747C41.2006 31.7307 38.8773 33.9705 37.9502 35.2264C35.9454 37.9292 36.3916 42.4726 35.7716 43.2018C35.0531 43.1613 34.271 42.5131 33.819 43.8848C33.5757 44.6372 33.3728 45.4358 33.1642 46.1998C32.973 46.9117 31.9881 50.4537 32.0692 50.9573C32.1619 51.5476 33.3207 51.727 34.0624 51.9354C34.8156 52.1495 35.5689 52.3579 36.3452 52.5662L45.6216 55.0607C46.4385 55.2806 47.1802 55.4658 47.9913 55.6684C48.93 55.9115 49.1444 55.1649 49.3935 54.372C49.8628 52.8383 50.251 51.3334 50.6508 49.7419C50.8652 48.868 51.2707 47.8667 50.8246 47.4673C50.2336 46.9291 49.1733 46.9638 48.7388 46.6339C48.8198 46.3387 52.4238 39.6771 52.6903 39.1678C53.3566 37.8945 54.0403 36.7312 54.5965 35.3711C55.5584 33.0329 55.6048 30.9957 55.7148 30.7468Z" fill="#173042"/>
<path fill-rule="evenodd" clip-rule="evenodd" d="M27.5376 20.6705C27.1204 20.1843 26.7032 19.7618 26.3034 19.2756C25.9094 18.7953 25.4922 18.3901 25.0982 17.9098C24.9012 17.6667 24.7042 17.441 24.484 17.2153L22.6415 15.1143C21.9115 14.2057 20.8454 13.245 20.405 12.151C19.8256 10.7157 20.2486 8.991 21.0076 7.97817C23.0008 5.33899 28.3256 5.58787 28.9976 9.66237C29.1251 10.4437 29.1367 11.2308 30.058 11.2077C30.9155 11.1903 30.956 10.3569 31.0777 9.58713C31.4138 7.36467 33.2795 6.20715 35.5971 6.2766C37.8568 6.34605 39.6877 8.06497 39.8557 9.89966C40.0238 11.6765 39.6877 12.5215 38.6216 13.8121C38.4014 14.0726 38.2218 14.2577 38.0132 14.5182L33.1172 20.0744C32.6769 20.601 30.2781 23.3328 29.9826 23.4659L27.5376 20.6705ZM25.2199 4.28564H24.1712C23.9452 4.37825 23.3426 4.42455 23.0297 4.51715C19.4258 5.54735 16.6389 9.7897 19.1071 13.7947C19.8894 15.068 20.7874 15.8494 21.558 16.8274L22.1954 17.5568C22.346 17.7188 22.3866 17.7824 22.5141 17.9271L27.9431 24.1488C28.424 24.6524 28.8007 25.1096 29.2468 25.5842C30.2839 26.6665 30.5794 25.6652 31.5992 24.7218C32.0685 24.2878 33.3026 22.835 33.853 22.2389L38.0248 17.4988C38.2276 17.2616 38.4478 16.978 38.6564 16.758C39.0967 16.2893 39.5081 15.7741 39.9195 15.2822C40.748 14.2867 41.5186 13.3665 41.7967 11.6591C42.3472 8.31963 39.96 5.76728 37.8684 4.81811C35.8057 3.87472 33.181 4.34352 31.4311 5.65732C30.8575 6.09139 30.5446 6.5081 30.058 6.95375C29.5713 6.68752 29.2758 6.02194 27.9953 5.25797C26.7611 4.52294 26.4193 4.60975 25.4169 4.3551C25.3996 4.34931 25.3822 4.34931 25.3648 4.34352L25.2199 4.28564Z" fill="#173042"/>
</svg>
