<svg width="60" height="60" viewBox="0 0 60 60" fill="none" xmlns="http://www.w3.org/2000/svg">
<path fill-rule="evenodd" clip-rule="evenodd" d="M25.223 47.5392H26.927V50.5356H25.223V47.5392ZM24.0071 11.0388L24.2794 12.1191C25.7946 12.5325 27.938 12.4299 29.855 12.3907C32.144 12.3485 31.8123 11.6725 32.4918 16.2502C33.0742 20.179 33.697 23.782 34.3683 27.7712L38.1212 50.5356H28.8735V47.5392C33.4219 47.5392 35.1933 48.2484 35.6894 46.1783C34.6406 44.4281 33.5217 45.089 28.8735 45.089V22.753C28.8735 21.555 26.927 21.027 26.927 23.2962V45.089H25.223C25.223 40.2518 25.5816 17.4783 24.9804 14.5815C23.9559 14.3068 24.3009 14.3068 23.2764 14.5815C22.659 17.5508 23.0338 45.1765 23.0338 50.5356H10.8635C9.75002 50.5356 9.41031 52.7143 10.6209 52.7143H50.7768C52.0737 52.7143 52.0737 50.5356 50.7768 50.5356H40.0678C40.0678 49.4101 39.8926 47.9918 39.5825 47.2677C40.8767 47.1469 40.7095 46.7909 41.5292 46.1783C44.1875 48.1699 44.3223 47.9164 46.641 46.1783C48.167 47.3219 48.8572 48.4052 51.2756 46.465C52.8825 45.1765 53.3894 43.1819 51.5075 43.1819C50.5341 43.1819 50.5881 45.089 49.0729 45.089C47.4848 45.089 48.2667 43.1819 46.641 43.1819C45.9184 43.1819 43.411 47.5452 42.5025 43.1819C39.8845 43.1819 41.3781 43.8819 39.3399 45.089C38.275 39.9772 37.7249 34.3917 36.6626 29.289C40.1056 29.6089 37.299 35.128 38.7009 36.5764C39.2213 37.1135 40.3132 36.8118 40.3132 35.8281C40.3132 32.4273 40.8201 29.5998 39.2402 28.0367C38.1024 26.9082 37.7843 27.5419 36.7166 27.047C35.8188 26.6336 36.42 27.3819 35.87 24.1833C35.7244 23.3415 35.444 21.9413 35.444 20.8459C36.4713 21.3951 37.4661 20.9184 39.7632 23.094C40.6287 23.9148 41.8392 26.2081 41.9929 27.6807C42.5105 32.6235 40.8228 41.0032 43.2331 41.0032C43.802 41.0032 44.2064 40.5506 44.2064 39.9138V29.5606C44.2064 23.6945 40.1352 18.6672 34.9587 18.6672C34.8805 17.6231 34.5489 16.7149 34.4707 15.6708C39.507 15.6708 43.713 19.8018 45.4304 23.5617C47.2368 27.5117 46.889 32.1588 46.8836 36.9174C46.8809 39.0901 46.3929 41.0032 48.0996 41.0032C48.6604 41.0032 48.8302 40.8131 48.8302 40.1854C48.8302 31.5915 50.0597 23.9872 44.1498 17.9129C41.9282 15.6316 38.1401 13.2175 33.9854 13.2175C33.9854 8.99596 32.4163 9.94951 25.711 9.94951C24.7189 9.94951 24.4007 10.381 24.0071 11.0388Z" fill="#173042"/>
<path fill-rule="evenodd" clip-rule="evenodd" d="M7 32.781C7 34.0708 8.7839 34.8214 11.063 32.781C13.7051 34.6041 13.7783 34.5896 16.3978 32.781C17.5937 33.607 18.6798 35.0939 21.274 33.094C23.0382 31.7318 23.1704 29.9029 21.7326 29.9029C20.4271 29.9029 20.7591 31.7347 18.6826 31.7347C17.4192 31.7347 17.422 28.2421 15.2189 30.784C14.7349 31.3405 15.3652 30.8246 14.7208 31.3173C12.619 32.9201 12.7878 29.9029 11.063 29.9029C10.1204 29.9029 10.3652 30.9434 9.29037 31.4767C8.34496 31.9434 7 31.3956 7 32.781Z" fill="#173042"/>
<path fill-rule="evenodd" clip-rule="evenodd" d="M7 27.2989C7 29.7526 11.297 27.3018 11.3054 27.2989C12.5339 28.1557 11.9056 28.3509 14.0878 28.3509C15.047 28.3509 15.7791 27.7098 16.3681 27.2989C17.9304 28.3859 19.5488 29.1407 21.2513 27.3746C23.1137 25.4426 22.7995 25.9933 22.4433 24.4051C21.4897 24.1749 21.2933 24.1137 20.6342 24.8801C17.7901 28.1964 18.6849 24.7635 16.1157 24.1428C14.357 25.8739 13.8578 27.4097 12.4021 25.1075C11.8776 24.2798 12.1581 24.4109 11.0502 24.1428C10.3125 24.6557 9.82165 25.4921 9.18215 25.8855C8.22009 26.4742 7 25.9671 7 27.2989Z" fill="#173042"/>
<path fill-rule="evenodd" clip-rule="evenodd" d="M7 45.6352C7 46.6499 8.11548 46.9412 8.8966 46.8235C10.1076 46.6411 10.3212 46.1499 11.0573 45.6352C13.8278 47.5765 13.9682 47.3294 16.3847 45.6352C17.975 46.7499 18.6943 47.8059 21.2175 45.9146C22.8893 44.6586 23.4176 42.7144 21.4563 42.7144C20.4448 42.7144 20.4982 44.5733 18.9219 44.5733C17.2641 44.5733 18.079 42.7144 16.3847 42.7144C15.6316 42.7144 13.0185 46.9676 12.0716 42.7144C9.46698 42.7144 11.0067 42.9732 9.59624 44.1056C8.53976 44.9527 7 44.0968 7 45.6352Z" fill="#173042"/>
<path fill-rule="evenodd" clip-rule="evenodd" d="M7 20.5333C7 21.4891 7.12073 21.5087 7.25269 22.3039C8.76039 22.8053 9.46229 22.8171 11.0542 20.8898C13.6625 23.3224 13.772 23.3224 16.3775 20.8898C20.238 25.5709 22.7143 19.2446 22.7143 18.4142C22.7143 17.7482 22.2118 15.6642 20.3671 18.324C19.6596 19.3464 19.7887 19.1819 18.9128 19.8282C16.5263 18.0655 18.1772 17 16.3775 17C15.5717 17 15.5408 17.8305 15.145 18.4611C14.6031 19.323 14.297 19.3034 13.5895 19.8282L13.3087 19.5109C13.2807 19.4796 13.2049 19.3934 13.1712 19.3504C11.7926 17.666 12.4159 17 11.0542 17C10.1333 17 10.2681 18.4847 9.31911 19.174C8.68739 19.6285 7 19.4209 7 20.5333Z" fill="#173042"/>
<path fill-rule="evenodd" clip-rule="evenodd" d="M7 40.1748C7 41.3727 8.12305 41.2321 8.77443 41.2321C9.96766 41.2321 10.591 40.412 11.3097 39.9083C12.8848 42.3627 14.9849 40.9422 16.3775 40.1748C20.6788 43.1768 22.7143 38.6431 22.7143 38.0573C22.7143 36.9356 21.5997 36.9063 20.895 37.454C20.2969 37.9167 19.6933 39.1175 18.9128 39.1175C17.0794 39.1175 17.7251 35.1812 15.173 38.1247C12.6855 40.992 12.7276 37 11.3097 37C10.473 37 9.90029 38.3092 9.17592 38.7602C8.29432 39.302 7 38.5376 7 40.1748Z" fill="#173042"/>
<path fill-rule="evenodd" clip-rule="evenodd" d="M10.143 10.1757C10.3781 8.99954 10.2997 9.16802 11.0001 9.60352C10.5015 10.5127 11.1497 10.0358 10.143 10.1757ZM8.42871 9.60352C8.42871 14.0443 12.7144 13.3577 12.7144 9.88961C12.7144 5.97968 8.42871 6.18948 8.42871 9.60352Z" fill="#173042"/>
<path fill-rule="evenodd" clip-rule="evenodd" d="M16.7196 12.2894H17.5785V13.1354H16.7196V12.2894ZM14.1428 12.5714C14.1428 14.0816 15.3028 15.3913 16.7957 15.5511C20.7005 15.9709 20.9763 9.77344 17.008 9.85804C15.6927 9.88624 14.1428 11.152 14.1428 12.5714Z" fill="#173042"/>
<path fill-rule="evenodd" clip-rule="evenodd" d="M27 19.8702C27 21.5584 28.4286 22.0711 28.4286 19.5233C28.4286 17.7888 27 18.2745 27 19.8702Z" fill="#173042"/>
<path fill-rule="evenodd" clip-rule="evenodd" d="M27 16.2684C27 16.9797 28.4286 17.4771 28.4286 16.2684C28.4286 15.3392 27 15.3392 27 16.2684Z" fill="#173042"/>
<path fill-rule="evenodd" clip-rule="evenodd" d="M7 51.2487C7 52.6719 8.42857 53.671 8.42857 51.2487C8.42857 49.3933 7 49.3933 7 51.2487Z" fill="#173042"/>
</svg>
