<svg width="46" height="45" viewBox="0 0 46 45" fill="none" xmlns="http://www.w3.org/2000/svg">
<path fill-rule="evenodd" clip-rule="evenodd" d="M5.97599 36.558V36.9995H4.81527C4.81527 34.9087 5.82659 34.6257 7.49297 34.6257C8.46215 34.6257 9.55775 35.4295 9.27427 36.8108C9.16318 37.3392 8.9793 37.3505 8.7418 37.7015C9.26661 38.4752 9.54626 38.1846 9.54626 39.4602C9.54626 41.834 4.63905 42.6643 4.63905 39.0186H5.79977C5.84957 41.2755 8.77627 40.5546 8.28594 39.0337C8.17867 38.6941 7.97948 38.5016 7.60023 38.3846C7.2976 38.2902 6.73065 38.2563 6.42419 38.4035V37.2599C8.05226 38.0298 8.9908 35.5918 6.95666 35.5918C6.43568 35.5918 5.97599 36.0447 5.97599 36.558V36.558ZM0 37.9657C0 41.8793 3.46301 44.9967 6.86855 44.9967C8.53877 44.9967 9.65735 44.8381 11.0786 43.9588C11.5881 43.6456 11.8715 43.4531 12.2891 43.0417C12.5841 42.7473 13.1855 42.2265 13.2927 41.8303C14.6718 41.8303 42.146 41.9057 42.5176 41.8001C42.7168 41.7397 45.6742 38.4676 45.6742 38.0525C45.6742 37.6751 45.4826 37.5732 45.3064 37.3618L42.713 34.3766C42.3567 34.052 41.4412 34.1841 40.5869 34.1841H13.2927C12.2508 32.2518 9.45049 31.0215 7.22482 31.0215C3.35192 31.0215 0 34.1803 0 37.9657H0Z" fill="white"/>
<path fill-rule="evenodd" clip-rule="evenodd" d="M5.88788 21.2666V21.5308H4.72716C4.72716 18.4852 8.0063 18.4097 9.10189 19.9457C9.50412 20.5043 9.55392 21.4704 9.1402 22.1007C8.78011 22.6441 8.12888 23.0027 7.5466 23.3386C7.03711 23.6329 6.12539 24.0518 5.97599 24.6066H9.45432V25.6633H4.55095C4.55095 22.2554 8.2055 22.9347 8.2055 20.9156C8.2055 19.7759 5.88788 19.5532 5.88788 21.2666V21.2666ZM0 22.4101C0 25.803 2.21801 28.3203 5.22899 29.2109C7.6462 29.9204 10.0941 29.2411 11.8294 27.9127C14.2926 26.0219 11.4502 26.3653 17.1273 26.3653C18.5294 26.3653 37.0397 26.4936 37.4687 26.2785C37.7062 26.1615 40.5869 22.7913 40.5869 22.5875C40.5869 21.9686 38.5451 19.9419 37.9629 19.1947C37.2503 18.2776 36.3578 18.6324 34.2547 18.6324H17.1273C16.0049 18.6324 14.848 18.6588 13.7295 18.6399C12.879 18.6248 13.2238 18.1946 11.8792 17.1228C7.03711 13.2695 0 16.7567 0 22.4101H0Z" fill="white"/>
<path fill-rule="evenodd" clip-rule="evenodd" d="M5.26347 4.92131C6.17136 4.92131 6.79961 4.74016 7.04861 3.69099H8.02928V10.4578H6.78045V5.88746H5.26347V4.92131V4.92131ZM6.75364 0H7.9067C9.01379 0.0830283 10.0864 0.418916 11.0096 1.01898C12.0899 1.72095 12.5841 2.12477 13.2928 3.16262C14.5684 3.16262 32.4696 3.08714 32.7837 3.20791C32.9714 3.27962 34.3428 4.92886 34.5841 5.21191C36.0552 6.94041 36.4689 6.74416 34.768 8.50285C34.4539 8.82742 34.2202 9.1784 33.9176 9.51051C32.596 10.9711 33.1706 10.8088 31.3127 10.8088L13.8214 10.805C12.7603 10.8012 13.1893 11.4239 11.6877 12.4807C9.47731 14.0356 6.80344 14.4733 4.28279 13.3562L2.61258 12.3674L1.34843 11.0616C0.249 9.61241 0 8.33302 0 6.50263C0 5.69121 0.417553 4.38918 0.716353 3.86836C1.08411 3.23433 1.58211 2.4984 2.11458 1.99645C3.37873 0.811413 5.06044 0.128316 6.75364 0V0Z" fill="white"/>
</svg>
