<svg width="60" height="60" viewBox="0 0 60 60" fill="none" xmlns="http://www.w3.org/2000/svg">
<path fill-rule="evenodd" clip-rule="evenodd" d="M15.3589 40.7243V41.129H14.318C14.318 39.2124 15.2249 38.953 16.7192 38.953C17.5883 38.953 18.5708 39.6898 18.3166 40.956C18.217 41.4404 18.0521 41.4507 17.8391 41.7725C18.3097 42.4817 18.5605 42.2153 18.5605 43.3846C18.5605 45.5606 14.16 46.3217 14.16 42.9798H15.2009C15.2455 45.0487 17.87 44.3878 17.4303 42.9937C17.3341 42.6824 17.1555 42.5059 16.8154 42.3987C16.544 42.3121 16.0356 42.2811 15.7608 42.416V41.3677C17.2208 42.0734 18.0624 39.8386 16.2383 39.8386C15.7711 39.8386 15.3589 40.2538 15.3589 40.7243ZM10 42.0147C10 45.6021 13.1054 48.4598 16.1593 48.4598C17.657 48.4598 18.6601 48.3144 19.9346 47.5084C20.3915 47.2213 20.6456 47.0448 21.0201 46.6677C21.2847 46.3978 21.824 45.9204 21.9201 45.5572C23.1568 45.5572 47.794 45.6263 48.1272 45.5295C48.3058 45.4742 50.9578 42.4748 50.9578 42.0943C50.9578 41.7483 50.786 41.6549 50.628 41.4611L48.3024 38.7247C47.9829 38.4271 47.1619 38.5482 46.3959 38.5482H21.9201C20.9858 36.7769 18.4746 35.6492 16.4788 35.6492C13.0058 35.6492 10 38.5447 10 42.0147Z" fill="#173042"/>
<path fill-rule="evenodd" clip-rule="evenodd" d="M15.2799 26.8548V27.097H14.239C14.239 24.3052 17.1796 24.236 18.162 25.644C18.5227 26.156 18.5674 27.0416 18.1964 27.6194C17.8735 28.1175 17.2895 28.4462 16.7673 28.7541C16.3105 29.0239 15.4929 29.4079 15.3589 29.9165H18.4781V30.8851H14.081C14.081 27.7612 17.3582 28.3839 17.3582 26.533C17.3582 25.4883 15.2799 25.2842 15.2799 26.8548ZM10 27.903C10 31.0132 11.989 33.3207 14.689 34.1371C16.8566 34.7874 19.0518 34.1648 20.6079 32.9471C22.8167 31.2138 20.2678 31.5286 25.3587 31.5286C26.616 31.5286 43.2149 31.6462 43.5996 31.449C43.8126 31.3418 46.3959 28.2524 46.3959 28.0656C46.3959 27.4983 44.5649 25.6405 44.0428 24.9556C43.4038 24.1149 42.6035 24.4401 40.7175 24.4401H25.3587C24.3522 24.4401 23.3148 24.4643 22.3118 24.447C21.5491 24.4331 21.8583 24.0388 20.6525 23.0563C16.3105 19.5241 10 22.7207 10 27.903Z" fill="#173042"/>
<path fill-rule="evenodd" clip-rule="evenodd" d="M14.72 12.0112C15.5341 12.0112 16.0975 11.8451 16.3208 10.8834H17.2002V17.0863H16.0803V12.8968H14.72V12.0112ZM16.0563 7.5H17.0902C18.083 7.57611 19.0449 7.88401 19.8727 8.43406C20.8415 9.07754 21.2847 9.44771 21.9202 10.3991C23.0641 10.3991 39.1168 10.3299 39.3984 10.4406C39.5667 10.5063 40.7965 12.0181 41.0129 12.2776C42.3321 13.862 42.7031 13.6821 41.1778 15.2943C40.8962 15.5918 40.6866 15.9135 40.4152 16.218C39.2301 17.5568 39.7454 17.4081 38.0793 17.4081L22.3942 17.4046C21.4427 17.4011 21.8274 17.9719 20.4808 18.9406C18.4987 20.366 16.1009 20.7672 13.8405 19.7432L12.3428 18.8368L11.2092 17.6398C10.2233 16.3114 10 15.1386 10 13.4607C10 12.7169 10.3744 11.5234 10.6424 11.046C10.9722 10.4648 11.4187 9.7902 11.8962 9.33008C13.0298 8.2438 14.5379 7.61762 16.0563 7.5Z" fill="#173042"/>
</svg>
