<svg width="60" height="60" viewBox="0 0 60 60" fill="none" xmlns="http://www.w3.org/2000/svg">
<path fill-rule="evenodd" clip-rule="evenodd" d="M30.7641 26.5777L34.6691 27.696C36.0243 28.0869 37.3297 28.4456 38.6417 28.8287C39.9836 29.2195 41.2491 29.5738 42.6132 29.9624L46.5836 31.0984V49.7645H30.7641V26.5777ZM51.8571 50.7112V50.9171C51.8118 51.4021 51.4497 51.8571 50.937 51.8571H9.92118C9.47166 51.8571 9 51.3866 9 50.937C9 49.563 10.3275 49.7645 11.5111 49.7645V33.2752C11.5111 32.9264 11.5886 32.5433 11.7425 32.334C12.1998 31.7129 13.7399 31.9354 14.9434 31.9354C14.9434 31.4527 15.0353 30.8847 15.0862 30.4884C15.1516 29.9724 15.1593 29.6403 15.2291 29.1243C15.2966 28.6349 15.3221 28.2784 15.3863 27.7746C15.4306 27.427 15.5291 26.8269 15.5291 26.4106H14.9434C13.4343 26.4106 13.4343 24.318 14.9434 24.318H15.7804C15.8004 23.4311 16.1148 22.0416 16.1148 21.054H12.6836C12.0647 21.054 11.5111 20.5657 11.5111 19.9656L13.3402 14.8471C13.9126 13.307 13.6137 13.6037 17.036 13.6037L17.3117 10.8656C17.3925 10.2312 17.377 9 18.3746 9H21.2212C21.6175 9 21.9586 9.35209 22.0726 9.65546L22.5609 13.6037C26.4571 13.6037 25.5736 13.1265 26.8413 16.5212C27.0395 17.0504 27.2487 17.5907 27.4458 18.1764C27.7414 19.0522 28.5718 20.3786 27.3949 20.9499C26.9742 21.1537 23.9936 21.054 23.3979 21.054C23.6238 22.0239 23.5895 23.3448 23.8164 24.318C24.2737 24.318 24.8007 24.2792 25.1395 24.4176C25.4108 24.5295 25.7407 24.8273 25.7407 25.2391C25.7407 26.4039 25.0233 26.4106 24.0667 26.4106L24.5007 30.5813C24.5394 30.9335 24.6534 31.5524 24.6534 31.9354H28.6714V25.5735C28.6714 23.4865 30.433 24.3235 31.0143 24.4852L47.0962 29.08C48.0329 29.3524 48.6773 29.3734 48.6773 30.5958V49.7645H50.5186C51.4198 49.7645 51.8106 50.2229 51.8571 50.7112ZM25.072 34.0281H28.6714V49.7645H25.072V34.0281ZM19.2957 34.0281H22.9794V49.7645H19.2957V34.0281ZM13.6037 34.0281H17.2032V49.7645H13.6037V34.0281ZM17.6217 26.4106H21.9741C21.9741 27.355 22.1468 28.2474 22.2332 29.1653L22.5609 31.9354H17.036L17.6217 26.4106ZM21.3053 21.054C21.3374 21.4492 21.643 24.1497 21.7238 24.318H17.873L18.1399 22.0737C18.3015 20.7595 17.6051 21.054 21.3053 21.054ZM18.8772 15.6963H20.7185C20.7185 16.4016 21.054 18.1199 21.054 18.9614H18.4588C18.5396 18.7931 18.844 16.0927 18.8772 15.6963ZM22.8111 15.6963C24.7121 15.6963 24.1851 15.3221 24.8926 17.2153L25.4905 18.9614H23.1466C23.1466 18.0059 22.8366 16.5887 22.8111 15.6963ZM16.3661 18.9614H14.1064L14.6434 17.3227C14.8028 16.9098 15.1593 16.1137 15.1947 15.6963H16.7847C16.5577 16.6706 16.5942 17.9793 16.3661 18.9614ZM19.3799 11.0926H20.217C20.217 11.5897 20.2624 11.8532 20.3254 12.3227C20.3642 12.6083 20.4683 13.2682 20.4683 13.6037H19.1286C19.1286 12.7567 19.3799 11.7292 19.3799 11.0926Z" fill="#173042"/>
<path fill-rule="evenodd" clip-rule="evenodd" d="M39 14.208V17.3968C39 18.0838 39.2485 17.9562 39.4478 18.3058C39.6126 18.5955 39.5199 21.7898 39.5199 22.2638C39.5199 23.1917 39.4237 24.0685 40.002 24.4825C40.8334 25.0785 41.6842 24.2217 41.6842 23.8587V17.3136C41.6842 16.7841 41.1643 16.6964 41.1643 16.3901V15.3834H45.4071V16.5577C44.9341 16.6798 44.8013 17.1604 44.8013 17.7331V24.7811C44.8013 26.5103 46.9805 26.6502 46.9691 24.8687L46.9657 18.3202C47.2851 18.1559 47.5714 17.9473 47.5714 17.4811V14.4599C47.5714 13.8861 47.1901 13.2856 46.6187 13.2856H39.9528C39.4878 13.2856 39 13.7574 39 14.208Z" fill="#173042"/>
<path fill-rule="evenodd" clip-rule="evenodd" d="M40.4287 10.4735C40.4287 11.2887 41.4488 11.6249 42.2305 11.0533C43.1308 10.395 43.0042 10.3917 44.7947 10.9369C46.5036 11.4581 48.4441 12.3336 50.7587 11.5357C51.4653 11.2929 51.7811 11.0079 51.8573 10.7428V10.4743C51.7543 10.1191 51.2593 9.84902 50.8416 9.84902C49.4676 9.84902 49.9503 10.9815 45.9885 9.62021C45.5607 9.47318 45.1632 9.34598 44.7478 9.22373C42.0009 8.41343 40.4287 10.0316 40.4287 10.4735Z" fill="#173042"/>
<path fill-rule="evenodd" clip-rule="evenodd" d="M33.2859 43.2283C33.2859 44.2019 33.8694 44.7143 34.6411 44.7143H43.5322C45.2 44.7143 44.9603 41.8572 43.7013 41.8572H34.4709C34.1427 41.8572 33.8269 42.0068 33.642 42.223C33.4931 42.3984 33.2859 42.9169 33.2859 43.2283Z" fill="#173042"/>
<path fill-rule="evenodd" clip-rule="evenodd" d="M33.2859 38.2568C33.2859 38.6998 33.8054 38.9999 34.4705 38.9999H43.5287C45.1097 38.9999 45.1097 37.5713 43.5287 37.5713H34.4705C33.7628 37.5713 33.2859 37.9038 33.2859 38.2568Z" fill="#173042"/>
</svg>
