<svg width="68" height="68" viewBox="0 0 68 68" fill="none" xmlns="http://www.w3.org/2000/svg">
<path fill-rule="evenodd" clip-rule="evenodd" d="M11.7214 14.1895V14.4321C13.6523 14.8838 18.4631 18.3469 20.2109 20.5218C23.074 24.0853 24.6804 27.6572 23.5568 32.5256C24.6721 32.5256 27.2189 32.969 28.2926 33.3454C28.8003 33.5211 29.2414 33.772 29.7242 33.8891C30.0071 33.68 30.4899 32.969 30.7063 32.6511C29.7658 32.0154 29.7408 31.9401 28.4174 31.6055C27.7266 31.4298 26.2035 31.0534 25.5293 31.0367C25.5293 27.2139 25.2713 25.7165 23.7232 22.5713C23.357 21.8268 23.0324 21.3834 22.5996 20.731C20.9766 18.28 18.9791 16.8245 16.6153 15.2101C16.3573 15.0344 16.5487 15.1766 16.4073 15.0511C16.6819 14.9926 16.6902 14.934 17.0232 14.934C20.9017 14.934 23.5817 15.5279 26.062 17.0002C28.2926 18.3218 30.3401 21.2412 30.3401 23.8511C31.2556 24.0686 32.0962 24.2359 32.9785 24.5454C33.9107 24.8716 34.5931 25.1895 35.3922 25.5827C39.071 27.423 42.0007 30.9446 43.2991 34.8595C43.5987 35.7629 43.7901 36.591 44.0232 37.6032C45.8709 37.6032 48.2097 38.8998 49.4165 40.1127C52.9205 43.6595 53.0204 48.0678 53.0204 52.9697C53.0204 53.6557 52.8956 53.7058 52.8956 54.3332L53.2285 53.7979C53.9276 52.3089 54.6517 50.2929 55.1012 48.7454C57.0904 41.9446 56.4994 35.3195 53.8277 28.8618C52.8123 26.3941 51.2975 24.0686 49.6745 22.0108C49.4248 21.6929 49.1419 21.4169 48.9504 21.1241L52.9871 17.0085C53.6862 16.3059 54.2522 16.0549 54.2522 15.3021C54.2522 14.4572 53.6613 14.3066 53.0204 14.3066C52.7041 14.3066 50.5651 16.4648 50.2155 16.8161C49.5414 17.4937 48.1348 19.0663 47.4689 19.518C47.2109 19.3173 47.0195 18.966 46.7032 18.6732C44.6224 16.7492 42.3336 15.118 39.6536 13.9888C26.9026 8.63516 13.0531 14.1561 11.7214 14.1895V14.1895Z" fill="white"/>
<path fill-rule="evenodd" clip-rule="evenodd" d="M33.0466 53.4635C33.3795 53.4635 33.3879 53.405 33.6708 53.338C33.6708 54.9441 33.7957 56.1821 33.7874 57.6795C33.7874 59.3358 33.9122 60.5487 33.9122 62.138H39.8299L39.9547 53.4635H40.8203L41.3114 47.0225C41.3613 45.5419 41.5777 45.3495 40.8203 44.2955C39.5386 42.497 37.849 42.932 35.3937 42.932C34.2451 42.932 33.5127 43.4339 32.9634 44.078C32.0811 45.1236 32.3059 45.9266 32.3059 46.897C32.3142 47.9342 32.5389 49.2392 32.5639 50.243C32.5805 50.9875 32.6554 51.389 32.6804 51.9745C32.7137 52.5936 32.464 53.4635 33.0466 53.4635V53.4635Z" fill="white"/>
<path fill-rule="evenodd" clip-rule="evenodd" d="M42.5433 51.4811V54.7017H43.6503C43.6503 55.9732 42.5433 61.1595 42.5433 62.1382H50.4336L49.6845 56.5754C49.6096 55.923 49.4431 55.4378 49.4431 54.7017H50.6833V48.5116C50.6833 47.2484 49.3432 45.91 48.0948 45.91C45.8559 45.91 43.5088 45.4667 42.6765 47.65C42.2436 48.796 42.5433 50.0507 42.5433 51.4811V51.4811Z" fill="white"/>
<path fill-rule="evenodd" clip-rule="evenodd" d="M12.705 56.4413C12.705 57.5288 13.221 59.2185 14.0284 60.0633C17.008 63.1584 21.9519 61.1006 21.9519 59.5364C21.9519 58.6748 21.4442 58.4238 20.7201 58.4238C20.3872 58.4238 20.0709 58.9675 19.6548 59.2101C17.6156 60.4063 14.9273 58.9675 14.9273 57.0603C14.9273 54.944 15.7762 54.5341 17.4242 52.8778L29.5176 40.6231C29.6258 40.5143 29.6424 40.4809 29.7506 40.3638C30.9492 39.0839 39.0891 31.1037 39.0891 30.9113C39.0891 29.6147 38.3983 29.6733 37.6159 29.6733C37.1831 29.6733 31.5151 35.6124 31.1073 36.0223C29.3928 37.7455 14.0866 52.8945 13.4957 53.8816C13.1045 54.5424 12.705 55.7135 12.705 56.4413V56.4413Z" fill="white"/>
<path fill-rule="evenodd" clip-rule="evenodd" d="M25.28 57.8047C26.129 57.7796 25.8959 57.1104 25.8959 59.5363C25.8959 60.4062 25.8959 61.2678 25.8959 62.1378H30.2156L30.4569 57.9218H31.0728C31.0728 55.9979 31.6971 54.1827 31.6971 52.2253C31.6971 51.4975 30.4819 50.3682 29.7245 50.3682C27.6105 50.3682 24.4893 49.7994 24.7723 53.0952L25.28 57.8047V57.8047Z" fill="white"/>
<path fill-rule="evenodd" clip-rule="evenodd" d="M34.4025 39.2176C34.4025 43.492 40.4118 42.0616 39.1301 38.5567C38.1895 35.9803 34.4025 36.8168 34.4025 39.2176Z" fill="white"/>
<path fill-rule="evenodd" clip-rule="evenodd" d="M44.3915 42.6805C44.3915 45.2904 47.754 45.6417 48.5863 43.6759C49.2522 42.12 48.4282 40.5809 46.2393 40.5809C45.2988 40.5809 44.3915 41.6851 44.3915 42.6805V42.6805Z" fill="white"/>
<path fill-rule="evenodd" clip-rule="evenodd" d="M26.3938 47.3903C26.3938 50.0002 28.8657 49.7576 29.5649 48.9713C30.4471 47.9926 30.4222 45.7842 27.9918 45.7842C27.2344 45.7842 26.3938 46.6291 26.3938 47.3903V47.3903Z" fill="white"/>
</svg>
