<svg width="60" height="60" viewBox="0 0 60 60" fill="none" xmlns="http://www.w3.org/2000/svg">
<path fill-rule="evenodd" clip-rule="evenodd" d="M10.3423 12.5202V12.7342C12.046 13.1328 16.2908 16.1885 17.833 18.1075C20.3593 21.2517 21.7767 24.4034 20.7853 28.6991C21.7694 28.6991 24.0166 29.0903 24.9639 29.4224C25.4119 29.5775 25.8011 29.7988 26.2271 29.9022C26.4767 29.7177 26.9027 29.0903 27.0937 28.8098C26.2638 28.2489 26.2418 28.1825 25.074 27.8872C24.4645 27.7322 23.1206 27.4001 22.5257 27.3853C22.5257 24.0123 22.2981 22.691 20.9321 19.9159C20.609 19.259 20.3226 18.8677 19.9407 18.2921C18.5086 16.1294 16.7461 14.8452 14.6604 13.4207C14.4328 13.2657 14.6017 13.3911 14.4769 13.2804C14.7192 13.2288 14.7265 13.1771 15.0203 13.1771C18.4425 13.1771 20.8073 13.7011 22.9958 15.0002C24.9639 16.1663 26.7705 18.7422 26.7705 21.0451C27.5783 21.237 28.32 21.3846 29.0985 21.6577C29.9211 21.9455 30.5232 22.226 31.2283 22.573C34.4743 24.1968 37.0593 27.3041 38.205 30.7584C38.4693 31.5555 38.6382 32.2862 38.8439 33.1793C40.4742 33.1793 42.5378 34.3234 43.6027 35.3936C46.6944 38.5231 46.7826 42.4128 46.7826 46.738C46.7826 47.3433 46.6725 47.3875 46.6725 47.9411L46.9662 47.4687C47.583 46.1549 48.222 44.3761 48.6186 43.0107C50.3738 37.01 49.8523 31.1643 47.4949 25.4663C46.599 23.2889 45.2624 21.237 43.8303 19.4213C43.61 19.1408 43.3604 18.8973 43.1914 18.6389L46.7532 15.0075C47.37 14.3876 47.8695 14.1661 47.8695 13.5019C47.8695 12.7564 47.3481 12.6235 46.7826 12.6235C46.5035 12.6235 44.6161 14.5278 44.3077 14.8377C43.7129 15.4356 42.4718 16.8232 41.8842 17.2218C41.6565 17.0447 41.4877 16.7347 41.2086 16.4764C39.3726 14.7787 37.353 13.3394 34.9883 12.3431C23.7375 7.61927 11.5173 12.4907 10.3423 12.5202Z" fill="#173042"/>
<path fill-rule="evenodd" clip-rule="evenodd" d="M29.1588 47.1736C29.4526 47.1736 29.46 47.122 29.7096 47.0629C29.7096 48.48 29.8198 49.5724 29.8125 50.8936C29.8125 52.3551 29.9226 53.4253 29.9226 54.8276H35.1441L35.2542 47.1736H36.018L36.4513 41.4904C36.4953 40.184 36.6863 40.0142 36.018 39.0842C34.8871 37.4973 33.3962 37.8811 31.2298 37.8811C30.2163 37.8811 29.5701 38.324 29.0854 38.8923C28.3069 39.8149 28.5053 40.5234 28.5053 41.3797C28.5126 42.2948 28.7109 43.4463 28.7329 44.332C28.7476 44.9889 28.8137 45.3432 28.8357 45.8598C28.8651 46.4061 28.6448 47.1736 29.1588 47.1736Z" fill="#173042"/>
<path fill-rule="evenodd" clip-rule="evenodd" d="M37.5384 45.4244V48.2661H38.5151C38.5151 49.388 37.5384 53.9641 37.5384 54.8277H44.5004L43.8394 49.9193C43.7733 49.3437 43.6264 48.9156 43.6264 48.2661H44.7207V42.8042C44.7207 41.6896 43.5383 40.5087 42.4368 40.5087C40.4613 40.5087 38.3903 40.1176 37.6559 42.044C37.2739 43.0552 37.5384 44.1623 37.5384 45.4244Z" fill="#173042"/>
<path fill-rule="evenodd" clip-rule="evenodd" d="M11.2102 49.8011C11.2102 50.7606 11.6655 52.2515 12.3779 52.9969C15.007 55.7279 19.3692 53.9122 19.3692 52.532C19.3692 51.7718 18.9213 51.5503 18.2824 51.5503C17.9886 51.5503 17.7095 52.0301 17.3424 52.2441C15.5431 53.2996 13.1711 52.0301 13.1711 50.3472C13.1711 48.4799 13.9201 48.1182 15.3742 46.6568L26.0449 35.8438C26.1403 35.7478 26.155 35.7184 26.2504 35.615C27.308 34.4857 34.4903 27.4444 34.4903 27.2746C34.4903 26.1305 33.8808 26.1822 33.1904 26.1822C32.8085 26.1822 27.8074 31.4226 27.4475 31.7843C25.9347 33.3048 12.4293 46.6715 11.9079 47.5425C11.5627 48.1256 11.2102 49.1589 11.2102 49.8011Z" fill="#173042"/>
<path fill-rule="evenodd" clip-rule="evenodd" d="M22.3059 51.0041C23.055 50.9819 22.8493 50.3915 22.8493 52.532C22.8493 53.2995 22.8493 54.0598 22.8493 54.8274H26.6608L26.8737 51.1074H27.4172C27.4172 49.4099 27.968 47.8082 27.968 46.0811C27.968 45.4389 26.8958 44.4425 26.2275 44.4425C24.3622 44.4425 21.6082 43.9406 21.8579 46.8486L22.3059 51.0041Z" fill="#173042"/>
<path fill-rule="evenodd" clip-rule="evenodd" d="M30.355 34.6037C30.355 38.3752 35.6573 37.1131 34.5264 34.0206C33.6965 31.7473 30.355 32.4853 30.355 34.6037Z" fill="#173042"/>
<path fill-rule="evenodd" clip-rule="evenodd" d="M39.1689 37.6592C39.1689 39.9621 42.1359 40.2721 42.8702 38.5375C43.4578 37.1647 42.7307 35.8066 40.7994 35.8066C39.9695 35.8066 39.1689 36.7809 39.1689 37.6592Z" fill="#173042"/>
<path fill-rule="evenodd" clip-rule="evenodd" d="M23.2886 41.8151C23.2886 44.1179 25.4697 43.9039 26.0866 43.2101C26.865 42.3465 26.843 40.3979 24.6986 40.3979C24.0303 40.3979 23.2886 41.1435 23.2886 41.8151Z" fill="#173042"/>
</svg>
