<svg width="68" height="68" viewBox="0 0 68 68" fill="none" xmlns="http://www.w3.org/2000/svg">
<path fill-rule="evenodd" clip-rule="evenodd" d="M10.4918 57.4079C10.8138 57.5887 11.9151 58.573 12.071 58.8743C12.3307 58.9747 12.1749 58.8442 12.3307 59.0852C12.6736 59.2459 12.8814 59.5171 13.1411 59.7983C13.2969 59.9691 13.3697 60.0494 13.5359 60.2001C13.7437 60.3909 13.7853 60.3909 13.9307 60.6219C14.0554 60.6621 14.0242 60.5616 14.0658 60.7625C14.4398 60.9333 15.5515 61.9577 15.7593 62.2892L15.9151 62.4499C16.3723 62.7713 16.5177 63.2333 17.0995 63.3438C17.297 63.1228 17.4216 62.932 17.6918 62.8014C17.858 62.5604 20.1021 60.7123 20.4554 60.6119C20.9541 59.959 23.1463 58.8743 23.8009 58.7035C24.632 58.4926 27.9359 58.6131 29.0476 58.583L36.6736 58.2013C37.3074 58.1511 38.6268 57.8297 38.9697 57.8498C39.1671 57.669 39.1359 57.7192 39.4061 57.6289C39.5827 57.5786 39.7385 57.5284 39.9255 57.4581C40.2476 57.3376 40.6009 57.1467 40.9333 57.1568C41.297 56.8454 41.9827 56.6446 42.4398 56.4336L46.6372 54.1738C47.7697 53.4607 49.432 52.376 50.471 51.5825C50.9074 51.241 51.2814 50.9096 51.7385 50.6484C51.7593 50.4877 51.7074 50.548 51.9255 50.3973C52.1437 50.2366 52.0606 50.3069 52.2268 50.2567C52.5074 49.7545 52.9437 49.6039 53.2554 49.172C53.9204 48.2781 52.8087 46.3195 49.9931 46.7213C46.3983 47.2235 42.7307 50.8995 38.3775 51.5524C36.9125 51.7733 31.8112 51.7733 30.7307 51.1607C31.458 50.6786 35.2502 49.9454 36.4658 49.4432C37.9411 48.8305 39.7801 47.3541 39.6658 45.3754C39.5931 44.0497 38.7827 43.8689 37.4424 43.9191C35.7074 43.9994 30.471 45.0641 27.8736 45.3654C25.5671 45.6265 23.2086 45.6667 20.871 45.8575C18.1905 46.0785 16.9853 46.3597 15.4164 47.7458C13.6606 49.3026 11.7593 51.6327 10.3359 53.6314C9.8476 54.3244 9.38006 55.0677 8.87097 55.7306C9.05798 56.0319 9.78526 56.6446 10.1489 56.9861L10.4918 57.4079V57.4079Z" fill="white"/>
<path fill-rule="evenodd" clip-rule="evenodd" d="M32.5905 12.7632C31.2294 11.8793 31.4372 12.1706 30.3879 12.9841C29.7126 13.5164 29.0684 14.0287 28.4346 14.551C27.1151 15.6357 25.8996 16.7104 24.5177 17.7147C24.3723 17.9759 24.5177 17.8453 24.2476 17.8654C23.8632 18.3977 22.2009 19.7235 21.7541 19.9545C21.6398 20.1052 21.5879 20.1755 21.3697 20.3362C21.1099 20.527 21.1931 20.4868 20.9853 20.5371C20.6632 20.989 19.4372 21.903 18.9905 22.2847C17.9619 23.1786 18.9073 23.7008 19.458 24.4039C19.7281 24.7354 19.9983 25.0266 20.2684 25.348C21.0892 26.3424 21.7333 25.4083 22.5333 24.7856L31.6554 17.3733L39.51 23.0882C41.5359 24.6952 41.3074 24.1729 43.2814 21.9834C43.5931 21.6318 43.7593 21.4309 44.0294 21.1196L46.5645 18.4781C46.6268 18.2069 46.4814 18.1667 46.9074 18.0562C47.1879 17.6444 48.7671 15.7361 49.3074 15.4047C49.3697 15.2138 49.245 15.3243 49.5256 15.013C49.6502 14.8724 49.7645 14.8021 49.9307 14.7117C50.5645 15.1335 50.9593 15.8566 51.9567 15.6357C52.4035 15.1636 53.8372 8.44434 53.5048 7.56048C52.632 7.17882 51.6243 7.73123 50.6892 8.04259C45.1827 9.84042 43.9463 9.76007 46.5957 11.8492C46.284 12.4618 45.6294 13.0143 45.1515 13.5767L42.0866 16.9916C41.5775 17.5139 41.1411 18.1366 40.5905 18.6086C39.7905 18.1968 37.4944 16.389 36.5697 15.6959C35.832 15.1536 35.2294 14.7217 34.5437 14.2095C33.91 13.7274 33.1931 13.2754 32.5905 12.7632V12.7632Z" fill="white"/>
<path fill-rule="evenodd" clip-rule="evenodd" d="M48.445 20.4667V23.3593L48.4554 25.9104V28.5419L48.445 31.093V33.9856V36.4062V39.2787C48.4658 39.9316 48.31 40.6547 48.6944 41.0263C49.2658 41.4281 50.7619 41.2172 51.5827 41.2071C52.4243 41.2071 54.0035 41.2875 54.5957 41.0665L54.6996 39.1984V36.4866V33.8953V31.1734V28.5821V25.8602V23.2689L54.71 20.6475L54.5957 19.6532C53.7541 19.5929 52.9541 19.5527 51.9879 19.5527H49.2554C48.4866 19.613 48.4762 19.6833 48.445 20.4667V20.4667Z" fill="white"/>
<path fill-rule="evenodd" clip-rule="evenodd" d="M28.5905 23.6406V39.9818C28.5801 40.5241 28.497 40.6949 28.8087 41.0062C29.2243 41.3979 34.0242 41.2975 34.7307 41.0966C34.9385 40.2529 34.8138 25.9004 34.8242 23.6406C34.8242 22.9777 34.8762 22.1641 34.658 21.6619C33.9515 21.4309 31.4164 21.5414 30.419 21.5414C28.258 21.5414 28.5905 21.5213 28.5905 23.6406V23.6406Z" fill="white"/>
<path fill-rule="evenodd" clip-rule="evenodd" d="M38.6372 41.0765C39.3333 41.3477 41.8684 41.187 43.0632 41.197C44.5177 41.2171 44.7775 41.3075 44.7879 40.1123L44.7775 27.8891C44.7775 26.955 44.9957 26.4227 44.0087 26.3524L39.4788 26.3625C38.3983 26.3725 38.5126 26.6537 38.523 27.6179C38.5645 29.9983 38.3671 40.273 38.6372 41.0765V41.0765Z" fill="white"/>
<path fill-rule="evenodd" clip-rule="evenodd" d="M18.6476 33.9957L18.6372 36.5066V39.0778C18.6268 39.5499 18.4606 40.735 18.8762 41.0564C19.0424 41.177 24.4866 41.649 24.8086 40.8154C24.9957 40.3333 24.871 34.8695 24.8814 34.2669L24.8606 27.7988C24.7151 27.2664 24.8606 27.6581 24.6632 27.4573C24.6008 27.407 19.0216 26.8948 18.7203 27.7084C18.5229 28.2206 18.6476 33.3529 18.6476 33.9957V33.9957Z" fill="white"/>
</svg>
