<svg width="60" height="60" viewBox="0 0 60 60" fill="none" xmlns="http://www.w3.org/2000/svg">
<path fill-rule="evenodd" clip-rule="evenodd" d="M9.25729 50.6539C9.54141 50.8134 10.5131 51.6819 10.6507 51.9478C10.8799 52.0364 10.7424 51.9212 10.8799 52.1339C11.1824 52.2757 11.3658 52.515 11.5949 52.7631C11.7324 52.9138 11.7966 52.9846 11.9433 53.1176C12.1266 53.286 12.1633 53.286 12.2916 53.4898C12.4016 53.5253 12.3741 53.4366 12.4108 53.6138C12.7408 53.7645 13.7217 54.6684 13.9051 54.9609L14.0426 55.1027C14.446 55.3863 14.5743 55.794 15.0876 55.8915C15.2619 55.6965 15.3718 55.5281 15.6102 55.4129C15.7569 55.2002 17.737 53.5695 18.0487 53.481C18.4887 52.9049 20.423 51.9478 21.0006 51.7971C21.7339 51.611 24.6491 51.7173 25.6301 51.6908L32.3589 51.354C32.9181 51.3097 34.0823 51.0261 34.3848 51.0438C34.559 50.8843 34.5315 50.9286 34.7699 50.8489C34.9257 50.8045 35.0632 50.7602 35.2282 50.6982C35.5124 50.5919 35.8241 50.4234 36.1174 50.4323C36.4384 50.1576 37.0434 49.9804 37.4467 49.7942L41.1503 47.8003C42.1496 47.1711 43.6163 46.214 44.5331 45.5138C44.9181 45.2125 45.2481 44.9201 45.6514 44.6896C45.6698 44.5478 45.624 44.6011 45.8164 44.4681C46.009 44.3263 45.9356 44.3883 46.0823 44.344C46.3299 43.9009 46.7148 43.768 46.9899 43.3869C47.5766 42.5982 46.5957 40.87 44.1114 41.2246C40.9395 41.6677 37.7034 44.9112 33.8623 45.4873C32.5697 45.6822 28.0685 45.6822 27.1151 45.1417C27.7569 44.7163 31.1029 44.0693 32.1755 43.6262C33.4773 43.0856 35.0999 41.7829 34.9991 40.037C34.9349 38.8673 34.2199 38.7077 33.0372 38.752C31.5064 38.8229 26.886 39.7623 24.5942 40.0282C22.559 40.2586 20.478 40.294 18.4154 40.4624C16.0503 40.6574 14.9869 40.9055 13.6025 42.1285C12.0533 43.5022 10.3757 45.5581 9.11973 47.3217C8.68888 47.9332 8.27635 48.589 7.82715 49.1739C7.99216 49.4398 8.63388 49.9804 8.95473 50.2817L9.25729 50.6539Z" fill="#173042"/>
<path fill-rule="evenodd" clip-rule="evenodd" d="M28.7563 11.2617C27.5553 10.4817 27.7387 10.7388 26.8128 11.4566C26.217 11.9262 25.6486 12.3783 25.0893 12.8391C23.9251 13.7962 22.8526 14.7445 21.6332 15.6306C21.5049 15.8611 21.6332 15.7459 21.3949 15.7636C21.0557 16.2333 19.589 17.4031 19.1948 17.6069C19.0939 17.7399 19.0481 17.8019 18.8556 17.9437C18.6264 18.1121 18.6998 18.0766 18.5164 18.121C18.2322 18.5197 17.1504 19.3262 16.7563 19.663C15.8487 20.4517 16.6829 20.9125 17.1688 21.5329C17.4071 21.8254 17.6455 22.0823 17.8839 22.3659C18.6081 23.2433 19.1764 22.4191 19.8823 21.8697L27.9312 15.3294L34.8617 20.3719C36.6493 21.7899 36.4477 21.329 38.1894 19.3971C38.4645 19.0869 38.6111 18.9096 38.8494 18.635L41.0863 16.3042C41.1413 16.0649 41.013 16.0295 41.3889 15.932C41.6364 15.5686 43.0298 13.8848 43.5065 13.5924C43.5615 13.424 43.4514 13.5215 43.699 13.2468C43.809 13.1227 43.9098 13.0607 44.0565 12.9809C44.6157 13.3531 44.9641 13.9911 45.8441 13.7962C46.2384 13.3797 47.5034 7.4509 47.2101 6.67102C46.44 6.33426 45.5508 6.82169 44.7257 7.09641C39.8671 8.68273 38.7761 8.61184 41.1138 10.4552C40.8388 10.9957 40.2612 11.4832 39.8395 11.9795L37.1352 14.9926C36.686 15.4535 36.3009 16.0029 35.8151 16.4194C35.1092 16.056 33.0833 14.4609 32.2674 13.8493C31.6164 13.3708 31.0847 12.9897 30.4797 12.5378C29.9206 12.1124 29.288 11.7136 28.7563 11.2617Z" fill="#173042"/>
<path fill-rule="evenodd" clip-rule="evenodd" d="M42.7456 18.0587V20.611L42.7548 22.8619V25.1838L42.7456 27.4348V29.9871V32.1229V34.6575C42.764 35.2336 42.6265 35.8716 42.9657 36.1995C43.4699 36.554 44.79 36.3679 45.5142 36.359C46.2568 36.359 47.6502 36.43 48.1727 36.235L48.2644 34.5866V32.1939V29.9074V27.5058V25.2193V22.8176V20.5312L48.2736 18.2182L48.1727 17.3409C47.4301 17.2877 46.7243 17.2522 45.8717 17.2522H43.4607C42.7823 17.3054 42.7732 17.3674 42.7456 18.0587Z" fill="#173042"/>
<path fill-rule="evenodd" clip-rule="evenodd" d="M25.2269 20.8594V35.2781C25.2178 35.7566 25.1444 35.9073 25.4195 36.182C25.7862 36.5276 30.0214 36.439 30.6448 36.2618C30.8281 35.5173 30.7181 22.8534 30.7273 20.8594C30.7273 20.2745 30.7731 19.5566 30.5806 19.1135C29.9572 18.9097 27.7204 19.0072 26.8403 19.0072C24.9336 19.0072 25.2269 18.9895 25.2269 20.8594Z" fill="#173042"/>
<path fill-rule="evenodd" clip-rule="evenodd" d="M34.0916 36.2438C34.7058 36.4831 36.9426 36.3413 37.9969 36.3501C39.2802 36.3679 39.5095 36.4476 39.5187 35.393L39.5095 24.6079C39.5095 23.7837 39.702 23.314 38.8311 23.252L34.8342 23.2609C33.8808 23.2697 33.9816 23.5178 33.9908 24.3686C34.0274 26.4689 33.8532 35.5348 34.0916 36.2438Z" fill="#173042"/>
<path fill-rule="evenodd" clip-rule="evenodd" d="M16.4537 29.9961L16.4446 32.2116V34.4803C16.4354 34.8969 16.2887 35.9426 16.6554 36.2261C16.8021 36.3326 21.6058 36.749 21.8899 36.0135C22.055 35.5881 21.945 30.7671 21.9541 30.2354L21.9358 24.5283C21.8074 24.0585 21.9358 24.4041 21.7616 24.2269C21.7066 24.1826 16.7837 23.7306 16.5179 24.4485C16.3437 24.9004 16.4537 29.4289 16.4537 29.9961Z" fill="#173042"/>
</svg>
