<svg width="68" height="68" viewBox="0 0 68 68" fill="none" xmlns="http://www.w3.org/2000/svg">
<path fill-rule="evenodd" clip-rule="evenodd" d="M58.2172 56.0545C57.5887 56.3914 37.591 59.0501 33.4934 59.772C30.3385 60.3254 29.8735 56.7824 32.6764 56.235C33.7825 56.0184 35.1023 55.8921 36.2461 55.7297L50.5311 53.6785C51.7503 53.51 56.91 52.6138 57.7082 52.722C57.7019 53.3777 57.4568 53.6905 57.6013 54.5086C57.7333 55.2424 58.0978 55.5612 58.2172 56.0545V56.0545ZM44.1585 41.8524C44.5041 45.5217 43.5551 47.8316 39.6712 47.8135C36.1456 47.8015 32.6199 47.8135 29.1005 47.8135C27.4225 47.8135 25.6062 48.0241 24.2927 47.2842C23.306 46.7308 22.4199 45.6059 22.3759 44.066C22.3319 42.3216 22.2942 40.908 23.4066 39.8914C24.7515 38.6763 25.424 38.6402 27.3785 38.6643L27.3911 36.8477C25.5874 37.0762 23.5134 37.5454 21.7223 37.8883C19.6358 38.2913 12.0565 39.7831 10.5231 39.9515C7.20479 40.3185 5.37596 42.2374 7.2425 44.9442C7.56302 45.4074 7.62586 45.4375 8.06579 45.7262L16.8203 51.5912C18.1149 52.4574 19.441 53.3055 20.6853 54.1837L28.4783 59.393C29.1947 59.8502 29.7666 60.2893 30.4517 60.7464C32.2931 61.9736 33.7008 61.4141 35.7371 61.1194C38.2195 60.7585 60.4734 57.6065 61.4978 57.3057C61.5229 56.9748 61.4727 56.7583 61.4287 56.4395C61.4098 56.3372 61.3784 56.1086 61.347 56.0304C61.127 55.3988 60.7248 55.862 59.9895 55.2605C58.1481 53.7687 60.4231 52.2709 60.4734 52.2167C60.4168 51.8859 60.3288 50.8332 60.0963 50.6528L44.1585 41.8524V41.8524Z" fill="white"/>
<path fill-rule="evenodd" clip-rule="evenodd" d="M13.2265 18.5851H29.9939L29.9876 41.1605C26.5876 41.1605 24.9913 40.6492 24.985 42.7847C24.985 44.2765 24.7651 45.3171 26.7322 45.3111H37.7177C38.9998 45.3111 40.9606 45.5998 41.4382 44.6675C41.5514 44.4389 42.0541 41.8583 40.8978 41.3109C40.2567 41.0102 37.6612 41.1485 36.7373 41.1666V18.5851L54.2086 18.5671L54.2149 15.6557L36.7499 15.6256C36.6619 13.6466 36.7373 11.4871 36.7373 9.49C36.7373 6.735 36.1151 6.49438 33.3059 6.49438C30.4464 6.49438 29.9876 6.83124 29.9876 9.58625C29.9876 11.439 30.1259 13.8511 29.9688 15.6557L13.1699 15.6497L13.2265 18.5851V18.5851Z" fill="#FEFEFE"/>
<path fill-rule="evenodd" clip-rule="evenodd" d="M19.6562 21.2144C20.0333 21.3888 20.247 22.2791 20.4984 22.9228C20.8754 23.8973 22.6855 28.3307 22.6918 28.6916L16.5075 28.7277C16.8092 27.699 18.1981 24.3184 18.7386 22.9468C18.9523 22.4295 19.1408 21.4009 19.6562 21.2144V21.2144ZM14.5278 28.7217L11.6934 28.7758C11.2911 32.8783 19.254 36.3974 25.0108 32.7821C26.1232 32.0783 27.5876 30.6406 27.5813 28.6374L24.6903 28.6675L21.6799 21.0099C20.8692 19.0188 18.4307 18.9646 17.5696 21.046L15.5522 26.1831C15.2883 26.8448 14.8609 28.1803 14.5278 28.7217V28.7217Z" fill="#FEFEFE"/>
<path fill-rule="evenodd" clip-rule="evenodd" d="M43.8639 28.7334C44.1027 27.789 45.5734 24.312 46.1139 22.9225C46.2647 22.5315 46.5852 21.1479 47.0314 21.2261C47.3582 21.2863 47.4211 21.8217 47.5342 22.0984L48.6529 24.9557C48.942 25.7076 50.0041 28.1138 50.0733 28.6793L43.8639 28.7334ZM41.9282 28.7394L39.0623 28.7695C38.8235 30.3576 40.2941 31.9938 41.6328 32.854C46.4658 35.958 54.8372 33.7082 54.9377 28.6612L52.0907 28.6672C51.8079 28.3123 49.5391 22.3149 49.0426 21.0457C48.2444 18.9884 45.7619 19.0004 44.9386 21.0096L41.9282 28.7394V28.7394Z" fill="#FEFEFE"/>
<path fill-rule="evenodd" clip-rule="evenodd" d="M58.2179 56.0542C58.0985 55.5609 57.734 55.2421 57.602 54.5082C57.4575 53.6902 57.7026 53.3774 57.7089 52.7217C56.9107 52.6134 51.751 53.5097 50.5318 53.6781L36.2468 55.7293C35.103 55.8917 33.7832 56.0181 32.6771 56.2346C29.8742 56.782 30.3393 60.325 33.4941 59.7716C37.5917 59.0498 57.5895 56.391 58.2179 56.0542V56.0542Z" fill="#FEFEFE"/>
</svg>
