<svg width="60" height="60" viewBox="0 0 60 60" fill="none" xmlns="http://www.w3.org/2000/svg">
<path fill-rule="evenodd" clip-rule="evenodd" d="M51.3681 49.4599C50.8135 49.7571 33.1685 52.103 29.553 52.74C26.7692 53.2283 26.3589 50.1021 28.8321 49.6191C29.8081 49.428 30.9726 49.3166 31.9818 49.1733L44.5862 47.3634C45.662 47.2147 50.2147 46.424 50.919 46.5194C50.9134 47.098 50.6972 47.374 50.8247 48.0958C50.9411 48.7433 51.2627 49.0246 51.3681 49.4599ZM38.9634 36.9286C39.2683 40.1662 38.431 42.2044 35.004 42.1884C31.8932 42.1778 28.7822 42.1884 25.6769 42.1884C24.1963 42.1884 22.5937 42.3742 21.4347 41.7214C20.5641 41.2331 19.7822 40.2405 19.7434 38.8818C19.7046 37.3426 19.6713 36.0953 20.6529 35.1983C21.8395 34.1262 22.4329 34.0943 24.1575 34.1156L24.1686 32.5127C22.5771 32.7143 20.7471 33.1283 19.1667 33.4309C17.3257 33.7865 10.6381 35.1028 9.28506 35.2513C6.35714 35.5752 4.74347 37.2683 6.39041 39.6567C6.67323 40.0654 6.72867 40.0919 7.11685 40.3467L14.8414 45.5217C15.9837 46.286 17.1538 47.0343 18.2517 47.8092L25.1279 52.4056C25.76 52.809 26.2646 53.1965 26.8691 53.5998C28.4939 54.6826 29.736 54.1889 31.5327 53.9289C33.7231 53.6105 53.3589 50.8293 54.2627 50.5639C54.2849 50.2719 54.2406 50.0809 54.2018 49.7996C54.1851 49.7093 54.1574 49.5076 54.1297 49.4386C53.9356 48.8813 53.5807 49.29 52.9319 48.7593C51.3071 47.443 53.3145 46.1214 53.3589 46.0736C53.3089 45.7817 53.2313 44.8528 53.0261 44.6937L38.9634 36.9286Z" fill="#173042"/>
<path fill-rule="evenodd" clip-rule="evenodd" d="M11.6703 16.3988H26.4651L26.4595 36.3182C23.4595 36.3182 22.051 35.8671 22.0454 37.7513C22.0454 39.0676 21.8514 39.9858 23.5871 39.9805H33.2802C34.4114 39.9805 36.1416 40.2353 36.563 39.4126C36.6629 39.2109 37.1064 36.9339 36.0862 36.4509C35.5205 36.1856 33.2303 36.3076 32.4151 36.3236V16.3988L47.831 16.3829L47.8365 13.814L32.4262 13.7874C32.3486 12.0413 32.4151 10.1358 32.4151 8.37366C32.4151 5.94278 31.8661 5.73047 29.3874 5.73047C26.8643 5.73047 26.4595 6.0277 26.4595 8.45859C26.4595 10.0934 26.5815 12.2217 26.4429 13.814L11.6204 13.8087L11.6703 16.3988Z" fill="#173042"/>
<path fill-rule="evenodd" clip-rule="evenodd" d="M17.3436 18.7186C17.6764 18.8725 17.8649 19.658 18.0867 20.226C18.4194 21.0858 20.0165 24.9977 20.0221 25.3161L14.5654 25.348C14.8316 24.4403 16.0571 21.4574 16.534 20.2472C16.7225 19.7907 16.8889 18.8831 17.3436 18.7186ZM12.8186 25.3427L10.3176 25.3904C9.96265 29.0103 16.9887 32.1153 22.0683 28.9254C23.0498 28.3044 24.3419 27.0358 24.3364 25.2683L21.7855 25.2948L19.1292 18.5381C18.4139 16.7813 16.2623 16.7335 15.5025 18.57L13.7224 23.1027C13.4896 23.6866 13.1125 24.865 12.8186 25.3427Z" fill="#173042"/>
<path fill-rule="evenodd" clip-rule="evenodd" d="M38.7035 25.353C38.9142 24.5197 40.2118 21.4518 40.6888 20.2257C40.8218 19.8807 41.1046 18.6599 41.4983 18.7289C41.7867 18.782 41.8422 19.2544 41.942 19.4986L42.9291 22.0197C43.1841 22.6832 44.1213 24.8063 44.1824 25.3053L38.7035 25.353ZM36.9955 25.3583L34.4668 25.3848C34.256 26.7861 35.5536 28.2298 36.7348 28.9888C40.9993 31.7276 48.3858 29.7425 48.4745 25.2893L45.9624 25.2946C45.7129 24.9814 43.711 19.6896 43.2729 18.5697C42.5686 16.7545 40.3782 16.765 39.6517 18.5379L36.9955 25.3583Z" fill="#173042"/>
<path fill-rule="evenodd" clip-rule="evenodd" d="M51.3688 49.4597C51.2635 49.0244 50.9419 48.7431 50.8254 48.0955C50.6979 47.3738 50.9141 47.0978 50.9197 46.5192C50.2154 46.4237 45.6627 47.2145 44.587 47.3631L31.9826 49.173C30.9733 49.3163 29.8088 49.4278 28.8328 49.6188C26.3597 50.1018 26.7701 53.228 29.5537 52.7397C33.1692 52.1028 50.8144 49.7568 51.3688 49.4597Z" fill="#173042"/>
</svg>
