<svg width="68" height="68" viewBox="0 0 68 68" fill="none" xmlns="http://www.w3.org/2000/svg">
<path d="M46.56 27.3922H34.4V31.8775C34.4 35.0572 31.816 37.6443 28.64 37.6443C25.464 37.6443 22.88 35.0572 22.88 31.8775V22.138L17.688 25.2617C16.144 26.1828 15.2 27.8568 15.2 29.6509V33.4393L8.80001 37.1397C7.57601 37.8445 7.15201 39.4144 7.86401 40.6398L14.264 51.7408C14.968 52.9663 16.536 53.3828 17.76 52.6779L26.032 47.8963H36.96C39.784 47.8963 42.08 45.5976 42.08 42.7703H43.36C44.776 42.7703 45.92 41.625 45.92 40.2073V35.0813H46.56C47.624 35.0813 48.48 34.2243 48.48 33.159V29.3145C48.48 28.2492 47.624 27.3922 46.56 27.3922ZM58.376 24.3967L51.976 13.2956C51.272 12.0702 49.704 11.6537 48.48 12.3585L40.208 17.1402H32.032C31.072 17.1402 30.136 17.4125 29.32 17.9171L26.64 19.591C25.888 20.0556 25.44 20.8806 25.44 21.7616V31.8775C25.44 33.6476 26.872 35.0813 28.64 35.0813C30.408 35.0813 31.84 33.6476 31.84 31.8775V24.8292H46.56C49.032 24.8292 51.04 26.8396 51.04 29.3145V31.5972L57.44 27.8968C58.664 27.184 59.08 25.6221 58.376 24.3967V24.3967Z" fill="white"/>
</svg>
