<svg width="60" height="60" viewBox="0 0 60 60" fill="none" xmlns="http://www.w3.org/2000/svg">
<path d="M41.0825 24.1697H30.353V28.1273C30.353 30.9329 28.073 33.2156 25.2707 33.2156C22.4683 33.2156 20.1883 30.9329 20.1883 28.1273V19.5336L15.6072 22.2898C14.2448 23.1025 13.4119 24.5796 13.4119 26.1626V29.5053L7.76481 32.7704C6.68481 33.3923 6.31069 34.7775 6.93893 35.8587L12.586 45.6537C13.2072 46.735 14.5907 47.1025 15.6707 46.4806L22.9695 42.2615H32.6119C35.1036 42.2615 37.1295 40.2333 37.1295 37.7386H38.2589C39.5083 37.7386 40.5177 36.728 40.5177 35.4771V30.9542H41.0825C42.0213 30.9542 42.7766 30.198 42.7766 29.258V25.8658C42.7766 24.9258 42.0213 24.1697 41.0825 24.1697ZM51.5083 21.5266L45.8613 11.7315C45.2401 10.6503 43.8566 10.2828 42.7766 10.9046L35.4777 15.1238H28.2636C27.4166 15.1238 26.5907 15.364 25.8707 15.8093L23.506 17.2863C22.8425 17.6962 22.4472 18.4241 22.4472 19.2015V28.1273C22.4472 29.6891 23.7107 30.9542 25.2707 30.9542C26.8307 30.9542 28.0942 29.6891 28.0942 28.1273V21.9082H41.0825C43.2636 21.9082 45.0354 23.6821 45.0354 25.8658V27.88L50.6825 24.6149C51.7625 23.986 52.1295 22.6078 51.5083 21.5266Z" fill="#173042"/>
</svg>
