<svg width="68" height="68" viewBox="0 0 68 68" fill="none" xmlns="http://www.w3.org/2000/svg">
<path fill-rule="evenodd" clip-rule="evenodd" d="M17.5138 55.5252C19.3496 55.9011 24.4836 57.33 26.5457 57.8436C28.1074 58.2324 29.5073 58.5759 31.0874 58.9825C34.2109 59.7845 34.6836 59.8395 37.6949 59.8395C39.871 59.8395 43.2207 58.1368 45.1835 57.0854L53.5237 53.0254C54.0351 52.7759 54.4766 52.5491 54.9604 52.3401L59.0661 50.3037C60.1956 49.5211 59.9969 48.2413 59.0441 47.8184C57.8171 47.2724 55.1811 48.4195 53.8438 48.8909C52.8744 49.2328 46.3166 51.415 45.831 51.799C45.3821 52.1522 45.1393 52.4811 44.5323 52.7095C43.4194 53.1307 42.0379 53.1615 40.4946 53.1615C37.3895 53.1615 34.5696 53.2652 31.3965 53.2652C30.9862 53.2652 29.6029 52.0274 32.3254 52.0274C33.0649 52.0274 33.8062 52.0291 34.5457 52.0323C35.4341 52.0355 35.8149 51.9237 36.6427 51.927L43.2704 51.8039C45.9873 51.4653 46.1602 48.0323 43.3863 47.637C42.22 47.4701 40.5093 47.6289 39.2437 47.4831C35.7928 47.0861 35.2668 47.2643 32.2518 45.9359C29.0345 44.5183 27.4268 44.2947 23.689 44.0225L18.3287 44.1197C17.8798 44.1408 17.7584 44.2234 17.2802 44.2234C17.2802 41.9747 16.7743 42.3846 12.9629 42.3733C12.0762 42.37 11.6421 42.4786 10.8677 42.4802C7.62281 42.4834 8.11395 42.1351 8.28687 43.9237C8.70995 48.3125 9.99576 52.2672 12.4294 55.893C13.5717 57.5973 13.3326 57.3592 15.0617 57.2717C17.2047 57.1631 17.5138 57.4888 17.5138 55.5252V55.5252Z" fill="white"/>
<path fill-rule="evenodd" clip-rule="evenodd" d="M37.9299 21.9277C37.9299 19.7649 39.9901 17.8191 42.479 17.8191C47.6424 17.8191 48.7424 23.8588 44.4638 25.5259C40.9632 26.8884 37.9299 24.3578 37.9299 21.9277V21.9277ZM32.9136 22.5449C32.9136 28.7191 34.4974 35.9074 36.7177 41.696C37.023 42.4931 37.6116 43.0942 38.7466 43.0942H46.4467C47.4621 43.0942 48.1354 42.4866 48.4168 41.8499C49.6861 38.9759 50.5396 35.0877 51.2405 32.0063C51.8328 29.4012 52.2798 25.4919 52.2798 22.7507C52.2798 19.4797 50.5875 16.1634 48.9632 14.2663C47.8245 12.9362 47.0427 12.2687 45.9961 11.1249L45.2456 10.3489C44.8869 9.97466 43.1835 8.16016 42.8303 8.16016C41.8572 8.16016 41.8149 8.2363 40.6634 9.53885L37.6963 12.5781C37.2309 13.1128 36.7011 13.568 36.2118 14.148C34.6022 16.0597 32.9136 19.261 32.9136 22.5449V22.5449Z" fill="white"/>
<path fill-rule="evenodd" clip-rule="evenodd" d="M51.4644 38.264L56.122 37.4345C56.5322 37.36 59.0891 36.8173 59.3742 36.6002C60.5643 35.6994 59.2362 34.6804 58.4931 34.0259C57.9339 33.5334 53.8539 29.7569 53.3314 29.6338C53.2248 30.7614 52.3087 34.8716 51.9776 36.1482C51.8102 36.7897 51.4644 37.6095 51.4644 38.264V38.264Z" fill="white"/>
<path fill-rule="evenodd" clip-rule="evenodd" d="M33.7274 38.264C33.262 36.503 31.921 31.5018 31.7444 29.6338C31.2956 29.8979 25.8838 34.6545 25.5527 35.0741C25.0983 35.6508 25.2271 36.4349 25.9629 36.78C26.3805 36.9777 32.8334 38.264 33.7274 38.264Z" fill="white"/>
</svg>
