<svg width="60" height="60" viewBox="0 0 60 60" fill="none" xmlns="http://www.w3.org/2000/svg">
<path fill-rule="evenodd" clip-rule="evenodd" d="M15.4533 48.9926C17.0731 49.3243 21.6031 50.5851 23.4226 51.0383C24.8006 51.3813 26.0358 51.6844 27.43 52.0432C30.186 52.7508 30.6031 52.7994 33.2601 52.7994C35.1802 52.7994 38.1358 51.297 39.8677 50.3693L47.2267 46.7869C47.6779 46.5668 48.0675 46.3666 48.4944 46.1822L52.1171 44.3854C53.1137 43.6949 52.9384 42.5656 52.0976 42.1925C51.015 41.7107 48.6891 42.7229 47.5091 43.1388C46.6538 43.4405 40.8675 45.366 40.439 45.7048C40.0429 46.0164 39.8287 46.3066 39.2931 46.5082C38.3111 46.8798 37.0922 46.907 35.7304 46.907C32.9906 46.907 30.5025 46.9985 27.7027 46.9985C27.3407 46.9985 26.1201 45.9063 28.5223 45.9063C29.1748 45.9063 29.8289 45.9078 30.4814 45.9106C31.2653 45.9135 31.6013 45.8148 32.3317 45.8177L38.1797 45.7091C40.5769 45.4104 40.7295 42.3812 38.2819 42.0324C37.2529 41.8852 35.7434 42.0253 34.6267 41.8966C31.5818 41.5464 31.1177 41.7036 28.4574 40.5315C25.6186 39.2806 24.2 39.0833 20.902 38.8432L16.1723 38.9289C15.7762 38.9476 15.6691 39.0204 15.2471 39.0204C15.2471 37.0363 14.8008 37.398 11.4378 37.388C10.6554 37.3851 10.2724 37.4809 9.58906 37.4823C6.72592 37.4851 7.15928 37.1778 7.31186 38.756C7.68516 42.6285 8.8197 46.1179 10.967 49.3171C11.9749 50.8209 11.764 50.6109 13.2896 50.5336C15.1805 50.4378 15.4533 50.7252 15.4533 48.9926Z" fill="#173042"/>
<path fill-rule="evenodd" clip-rule="evenodd" d="M33.4677 19.348C33.4677 17.4397 35.2855 15.7228 37.4816 15.7228C42.0375 15.7228 43.0081 21.0519 39.2329 22.5229C36.1441 23.7251 33.4677 21.4922 33.4677 19.348ZM29.0415 19.8926C29.0415 25.3404 30.439 31.6831 32.3981 36.7906C32.6674 37.494 33.1868 38.0244 34.1883 38.0244H40.9825C41.8784 38.0244 42.4725 37.4882 42.7208 36.9264C43.8408 34.3906 44.5939 30.9598 45.2123 28.2409C45.7349 25.9423 46.1293 22.4929 46.1293 20.0742C46.1293 17.188 44.6361 14.2619 43.2029 12.588C42.1982 11.4143 41.5084 10.8254 40.5849 9.81614L39.9227 9.13144C39.6062 8.80122 38.1032 7.2002 37.7915 7.2002C36.9329 7.2002 36.8956 7.26738 35.8796 8.41669L33.2615 11.0984C32.8509 11.5702 32.3834 11.9718 31.9517 12.4836C30.5314 14.1704 29.0415 16.9951 29.0415 19.8926Z" fill="#173042"/>
<path fill-rule="evenodd" clip-rule="evenodd" d="M45.4097 33.7623L49.5193 33.0304C49.8813 32.9647 52.1373 32.4858 52.3889 32.2943C53.439 31.4995 52.2671 30.6003 51.6115 30.0228C51.118 29.5883 47.5181 26.2561 47.057 26.1475C46.963 27.1424 46.1546 30.769 45.8625 31.8955C45.7148 32.4615 45.4097 33.1848 45.4097 33.7623Z" fill="#173042"/>
<path fill-rule="evenodd" clip-rule="evenodd" d="M29.7595 33.7623C29.3489 32.2085 28.1656 27.7957 28.0098 26.1475C27.6138 26.3805 22.8387 30.5775 22.5465 30.9477C22.1456 31.4566 22.2593 32.1484 22.9085 32.4529C23.277 32.6274 28.9707 33.7623 29.7595 33.7623Z" fill="#173042"/>
</svg>
