<svg width="68" height="68" viewBox="0 0 68 68" fill="none" xmlns="http://www.w3.org/2000/svg">
<path d="M19.125 38.25H29.75V42.5H19.125V38.25Z" fill="white"/>
<path d="M19.125 31.875H36.125V36.125H19.125V31.875Z" fill="white"/>
<path d="M19.125 25.5H36.125V29.75H19.125V25.5Z" fill="white"/>
<path d="M30.6607 54.0104H13.9643V20.3646H54.0357V37.1875H57.375V20.3646C57.375 19.4722 57.0232 18.6164 56.3969 17.9855C55.7707 17.3545 54.9213 17 54.0357 17H13.9643C13.0787 17 12.2293 17.3545 11.6031 17.9855C10.9768 18.6164 10.625 19.4722 10.625 20.3646V54.0104C10.625 54.9028 10.9768 55.7586 11.6031 56.3895C12.2293 57.0205 13.0787 57.375 13.9643 57.375H30.6607V54.0104Z" fill="white"/>
<path d="M44.625 52.9172L40.4972 48.8231L38.25 51.0519L44.625 57.375L57.375 44.7289L55.1278 42.5L44.625 52.9172Z" fill="white"/>
</svg>
