<svg width="60" height="60" viewBox="0 0 60 60" fill="none" xmlns="http://www.w3.org/2000/svg">
<path d="M16.875 30.75H26.25V34.5H16.875V30.75Z" fill="#173042"/>
<path d="M16.875 25.125H31.875V28.875H16.875V25.125Z" fill="#173042"/>
<path d="M16.875 19.5H31.875V23.25H16.875V19.5Z" fill="#173042"/>
<path d="M26.6786 44.6562H11.9464V14.9688H47.3036V29.8125H50.25V14.9688C50.25 14.1814 49.9396 13.4262 49.387 12.8696C48.8344 12.3128 48.085 12 47.3036 12H11.9464C11.165 12 10.4156 12.3128 9.86303 12.8696C9.31041 13.4262 9 14.1814 9 14.9688V44.6562C9 45.4436 9.31041 46.1988 9.86303 46.7554C10.4156 47.3122 11.165 47.625 11.9464 47.625H26.6786V44.6562Z" fill="#173042"/>
<path d="M39.375 43.6916L35.7328 40.0792L33.75 42.0458L39.375 47.625L50.625 36.4667L48.6422 34.5L39.375 43.6916Z" fill="#173042"/>
</svg>
