<svg width="68" height="68" viewBox="0 0 68 68" fill="none" xmlns="http://www.w3.org/2000/svg">
<path fill-rule="evenodd" clip-rule="evenodd" d="M23.6467 37.7791H26.5337C28.5185 37.7791 28.6216 41.0227 26.5337 41.0227H23.5694C21.6104 41.0227 21.5073 37.7791 23.6467 37.7791V37.7791ZM18.3367 58.6647H15.9911C15.1404 58.5064 14.4445 58.0581 14.4445 56.8187V13.2281C14.4445 12.1205 15.2178 11.3821 15.888 11.3821H43.7783C44.4743 11.3821 45.0672 11.9096 45.2476 12.4633C45.4023 13.0171 45.2992 29.3405 45.2992 30.3162C44.8094 30.0525 42.4122 30.4217 41.7935 30.5008C40.118 30.7382 38.8292 31.3711 37.4115 32.004C36.7671 32.3204 35.6845 33.0852 35.0916 33.5335C34.4729 34.0081 34.4472 34.14 34.0863 34.4301C33.5965 34.7992 33.4677 34.9838 33.1068 35.4585C32.0757 36.6979 31.6117 37.1726 30.7869 38.8867C30.3229 39.8097 29.9878 40.6535 29.7043 41.7611C28.5701 46.165 29.1114 49.8569 31.1735 53.8388C31.8179 55.0519 32.4108 55.6057 33.081 56.4759C33.9059 57.5571 35.2205 58.4273 35.3751 58.6647C29.7043 58.6647 24.0076 58.6647 18.3367 58.6647V58.6647ZM35.1174 32.2413H23.6467C21.5073 32.2413 21.6104 29.0241 23.5694 29.0241H35.2978C35.9422 29.0241 36.7155 29.7097 36.6897 30.6591C36.664 31.5557 35.9938 32.2413 35.1174 32.2413ZM35.0143 23.4863H23.8272C21.3011 23.4863 21.8166 20.2427 23.389 20.2427H35.1947C37.2568 20.2427 37.1279 23.4863 35.0143 23.4863V23.4863Z" fill="white"/>
<path fill-rule="evenodd" clip-rule="evenodd" d="M46.4848 49.6986C46.4848 47.5099 49.6554 47.4571 49.6554 49.6986C49.6554 51.8347 46.4848 51.6764 46.4848 49.6986ZM40.8913 51.2809C40.1695 51.2809 39.6282 50.7535 39.422 50.1997C39.1385 49.3822 39.4478 48.802 39.9118 48.3274L46.4075 41.682C46.8199 41.2864 47.3097 40.6535 48.0314 40.6535C48.9336 40.6535 49.6554 41.3919 49.6554 42.3149C49.6554 43.3169 48.3923 44.2927 47.8252 44.8728L43.4432 49.3558C42.8761 49.936 41.8708 51.2809 40.8913 51.2809ZM39.2674 42.3149C39.2674 40.9436 40.814 40.0997 41.9481 41.0491C42.541 41.5765 42.5925 42.7632 42.0512 43.3961C41.4841 44.029 40.4015 44.0817 39.7313 43.3961C39.5251 43.2115 39.2674 42.6577 39.2674 42.3149V42.3149ZM32.3076 45.453C32.3076 47.589 32.5396 49.3558 33.416 51.149C33.6223 51.5182 33.6996 51.7819 33.9058 52.1247C35.1946 54.3399 36.7928 55.9748 39.1127 57.1615C43.0823 59.1657 48.1345 58.7174 51.6659 56.0012C52.3104 55.5002 53.4703 54.4453 53.9343 53.8125C55.4036 51.8347 56.2542 50.0151 56.5635 47.4571C56.9244 44.6355 56.2026 41.3655 54.6303 39.0713C53.7539 37.7791 52.929 36.8825 51.7175 35.9595C51.0989 35.4849 50.5575 35.1684 49.8616 34.7992C46.5364 33.1115 42.4637 33.0851 39.1642 34.7465C36.999 35.8277 34.7049 37.9637 33.6738 40.2052C33.0036 41.7083 32.3076 43.4488 32.3076 45.453V45.453Z" fill="white"/>
</svg>
