<svg width="60" height="60" viewBox="0 0 60 60" fill="none" xmlns="http://www.w3.org/2000/svg">
<path fill-rule="evenodd" clip-rule="evenodd" d="M20.8647 33.3344H23.4121C25.1634 33.3344 25.2543 36.1964 23.4121 36.1964H20.7965C19.068 36.1964 18.977 33.3344 20.8647 33.3344ZM16.1794 51.7629H14.1098C13.3591 51.6232 12.7451 51.2277 12.7451 50.1341V11.6718C12.7451 10.6945 13.4274 10.043 14.0188 10.043H38.6279C39.242 10.043 39.7652 10.5084 39.9243 10.997C40.0608 11.4856 39.9699 25.8886 39.9699 26.7495C39.5377 26.5169 37.4225 26.8426 36.8766 26.9124C35.3982 27.1219 34.261 27.6803 33.0101 28.2388C32.4415 28.5179 31.4863 29.1928 30.9632 29.5883C30.4172 30.0071 30.3946 30.1235 30.0761 30.3794C29.6439 30.7051 29.5303 30.868 29.2119 31.2869C28.3021 32.3804 27.8927 32.7993 27.1649 34.3117C26.7555 35.1261 26.4598 35.8707 26.2097 36.848C25.2089 40.7338 25.6865 43.9913 27.506 47.5048C28.0746 48.5751 28.5977 49.0638 29.1891 49.8316C29.9169 50.7856 31.0769 51.5534 31.2133 51.7629C26.2096 51.7629 21.1831 51.7629 16.1794 51.7629ZM30.9859 28.4481H20.8647C18.977 28.4481 19.068 25.6094 20.7965 25.6094H31.1451C31.7137 25.6094 32.396 26.2144 32.3732 27.0521C32.3506 27.8432 31.7592 28.4481 30.9859 28.4481ZM30.8949 20.7231H21.024C18.7951 20.7231 19.2499 17.8611 20.6373 17.8611H31.0541C32.8736 17.8611 32.7599 20.7231 30.8949 20.7231Z" fill="#173042"/>
<path fill-rule="evenodd" clip-rule="evenodd" d="M41.0159 43.8516C41.0159 41.9204 43.8135 41.8738 43.8135 43.8516C43.8135 45.7364 41.0159 45.5967 41.0159 43.8516ZM36.0804 45.2477C35.4436 45.2477 34.9659 44.7824 34.784 44.2937C34.5339 43.5724 34.8068 43.0605 35.2162 42.6417L40.9477 36.7781C41.3116 36.429 41.7437 35.8706 42.3805 35.8706C43.1766 35.8706 43.8135 36.5221 43.8135 37.3365C43.8135 38.2207 42.699 39.0817 42.1986 39.5935L38.3321 43.5491C37.8317 44.061 36.9447 45.2477 36.0804 45.2477ZM34.6476 37.3365C34.6476 36.1266 36.0122 35.382 37.0129 36.2197C37.5361 36.685 37.5815 37.7321 37.1039 38.2905C36.6035 38.849 35.6483 38.8955 35.0569 38.2905C34.875 38.1277 34.6476 37.639 34.6476 37.3365ZM28.5066 40.1055C28.5066 41.9902 28.7113 43.5491 29.4846 45.1313C29.6666 45.4571 29.7348 45.6898 29.9168 45.9923C31.0539 47.9468 32.4641 49.3894 34.5111 50.4365C38.0137 52.2049 42.4715 51.8093 45.5874 49.4127C46.1561 48.9706 47.1796 48.0398 47.589 47.4815C48.8854 45.7364 49.6359 44.1308 49.9089 41.8738C50.2273 39.3841 49.5904 36.4988 48.2031 34.4745C47.4298 33.3344 46.7019 32.5433 45.633 31.7288C45.0872 31.3101 44.6094 31.0308 43.9954 30.705C41.0614 29.2159 37.4679 29.1926 34.5565 30.6585C32.6461 31.6125 30.6219 33.4973 29.7121 35.475C29.1207 36.8013 28.5066 38.337 28.5066 40.1055Z" fill="#173042"/>
</svg>
