<svg width="60" height="60" viewBox="0 0 60 60" fill="none" xmlns="http://www.w3.org/2000/svg">
<path fill-rule="evenodd" clip-rule="evenodd" d="M41.7637 44.8946H48.0247V52.6733H41.7637V44.8946ZM30.0004 50.1117C30.0909 50.1117 32.5046 51.2195 32.7515 51.3451L35.5026 52.6733H24.4982L30.0004 50.1117ZM7.32682 44.8946H18.2364V52.6733H7.32682V44.8946ZM36.3562 47.1711C36.3871 47.5394 36.5164 47.8682 36.6011 48.2545C36.6959 48.6917 36.754 48.9394 36.8387 49.345C36.9694 49.9775 37.3046 51.0809 37.3046 51.6301L33.3826 49.8598C33.0093 49.6796 32.3717 49.3464 31.9927 49.2581C32.2439 48.9149 34.7316 47.9357 35.2485 47.6758C35.6448 47.4769 35.9894 47.3649 36.3562 47.1711ZM22.6955 51.6301C22.6955 51.0034 23.0294 49.9775 23.1464 49.424C23.2383 48.9882 23.2914 48.7692 23.3833 48.3334C23.4522 48.0068 23.613 47.5423 23.6439 47.1711C24.112 47.4188 27.7153 48.859 28.0081 49.2581L22.6955 51.6301ZM24.308 44.0402L30.0004 41.5196C30.3379 41.5196 35.2104 43.9282 35.6921 44.0402C35.6921 44.5076 35.8789 45.1379 35.9772 45.5586L29.9997 48.2659L24.0236 45.5586C24.1213 45.1379 24.308 44.5076 24.308 44.0402ZM48.0247 35.5026H52.6733V52.6733H49.6379V43.2814H48.0247V35.5026ZM31.9927 40.5303L34.5535 39.3924C34.8565 40.0234 34.9046 41.3961 35.2176 42.048L32.4004 40.7859C32.3961 40.7837 32.2281 40.6961 32.2145 40.6875C32.0243 40.5734 32.119 40.6401 31.9927 40.5303ZM24.7825 42.048C25.0956 41.3961 25.1436 40.0234 25.4466 39.3924C26.0109 39.663 27.5868 40.2589 28.0081 40.6251C27.6514 40.7084 25.1989 41.9511 24.7825 42.048ZM36.451 40.246H43.2814V43.2814H40.1512V52.6733C38.9961 52.6733 39.3091 52.8621 38.9544 51.3086C38.8266 50.7471 38.7204 50.3199 38.5954 49.77L36.451 40.246ZM20.5137 52.6733H19.8496V43.2814H16.7188V40.246H23.5491C23.5161 40.6409 23.3165 41.3731 23.2074 41.8017C23.0667 42.3553 22.9798 42.7932 22.8614 43.3531C22.6517 44.3482 22.3459 45.4926 22.1341 46.5149L20.8964 52.0129C20.826 52.3316 20.8483 52.6733 20.5137 52.6733ZM25.8264 37.6844C25.8264 37.3269 25.8889 37.5049 25.9211 37.1151H34.0797C34.1601 38.0857 34.6304 37.4949 32.1492 38.6953C29.8116 39.8267 30.2769 39.933 27.9134 38.7283C27.5709 38.5531 27.2091 38.4239 26.8689 38.2544C26.4969 38.0699 25.8264 37.8589 25.8264 37.6844ZM27.7231 35.1229C27.7231 34.8191 31.3379 31.3544 31.5181 31.2339C32.5634 32.7946 32.277 31.5404 32.277 35.4079H27.7231V35.1229ZM8.84524 30.8541H13.4931V32.277H8.84524V30.8541ZM27.7231 32.6568V29.2416H30.8541C30.8426 29.7621 30.7844 29.6444 30.2136 30.2136C29.6716 30.7543 28.0994 32.4048 27.7231 32.6568ZM21.3674 31.8024V25.0669C21.7916 25.1659 24.2146 26.4431 24.9405 26.8064C26.2442 27.4582 26.0159 26.9392 26.0159 29.3364C26.0159 29.6839 24.1536 30.457 23.8026 30.6329C23.2433 30.9122 21.8684 31.6861 21.3674 31.8024ZM7.32682 27.7231H15.1063V29.1461H7.32682V27.7231ZM32.3717 28.482C32.3717 27.347 32.8449 26.4244 33.3919 25.8027C35.4947 23.4106 40.1512 24.6138 40.1512 28.482C40.1512 30.5051 38.4031 32.277 36.6406 32.277C35.4064 32.277 34.3626 32.1707 33.3912 31.068C32.8944 30.5044 32.3717 29.5065 32.3717 28.482ZM27.7231 24.2132L30.5999 27.0289C30.8296 27.2601 30.8447 27.2127 30.8541 27.6284H27.7231V24.2132ZM10.4577 24.593H11.9754V26.0159H10.4577V24.593ZM28.0793 22.2446L32.277 22.2209V24.4982C32.277 24.6676 32.025 24.934 31.9116 25.0812C31.7544 25.2844 31.6553 25.4315 31.5181 25.6361L28.0793 22.2446ZM38.6328 13.5886H40.1512V18.2364H38.6328V13.5886ZM19.8496 13.5886H21.3674V18.2364H19.8496V13.5886ZM23.7394 15.1063H27.6284V16.7188H32.3717V15.1063H36.2615C36.1689 15.504 34.1134 18.4698 33.6238 19.2042C33.4013 19.5388 32.8427 20.2675 32.7515 20.6085H27.2494C27.1359 20.1842 24.4092 16.3548 23.9066 15.5084C23.7746 15.2865 23.8169 15.2807 23.7394 15.1063ZM29.2416 10.4577H30.7593V15.1063H29.2416V10.4577ZM5.71436 54.2858H54.2858V33.8894H52.7681V30.7593H51.1556V33.8894H49.6379C49.6379 31.9446 49.9696 32.277 48.0247 32.277V33.8894H46.4123V43.2814H44.8946V38.6328H36.0719L35.3131 35.4079H33.9849V33.4156C35.7453 34.3468 37.8811 33.9699 39.35 32.9942C42.3323 31.0149 42.8032 26.428 39.4074 23.9139C38.7771 23.4464 37.8998 23.0846 36.927 22.9784C36.1861 22.898 36.1897 22.8793 35.4215 22.9934C35.1932 23.0279 34.9154 23.0946 34.7222 23.1485C34.3532 23.2526 34.341 23.3301 33.9849 23.3596C33.9849 22.5081 33.8643 21.727 34.168 21.2661L36.0339 18.4834C36.2601 18.1439 36.7748 17.278 37.0204 17.0986V19.8496H41.7637V11.9754H40.246V8.84524H38.6328V11.9754H37.0204V13.4931H32.3717V8.84524H30.8541V5.71436H29.1461V8.84524H27.6284V13.4931H22.9798V11.9754H21.3674V8.84524H19.7549V11.9754H18.2364V19.8496H22.9798V17.0986L25.8709 21.3221C26.1624 21.8024 26.0159 24.8558 26.0159 25.5414C25.0008 25.0044 23.9741 24.5205 22.9166 23.9921C22.3394 23.7035 20.2488 22.5469 19.7549 22.506V34.364C20.2488 34.3231 22.3394 33.1665 22.9166 32.8779C23.9741 32.3495 25.0008 31.8656 26.0159 31.3286V35.4079H24.6878L23.9289 38.6328H15.1063V43.2814H11.9754V33.9849H15.1063V30.8541C15.4653 30.8541 15.9125 30.8814 16.2564 30.8662C16.8415 30.8404 16.7353 30.7256 16.7245 30.1009L16.7295 26.5745C16.7252 25.9571 16.6699 26.0009 16.0633 26.0073C15.2376 26.0166 14.4142 26.0159 13.5886 26.0159C13.5886 25.2234 13.58 24.4307 13.5936 23.6389C13.6101 22.7077 13.7408 22.8851 11.9754 22.8851V19.7549C9.91639 19.7549 10.3629 19.1346 10.3629 22.8851H8.84524V26.0159H5.71436V30.8541H7.23206C7.23206 34.7294 6.48756 33.9849 10.3629 33.9849V43.2814H5.71436V54.2858Z" fill="#173042"/>
<path fill-rule="evenodd" clip-rule="evenodd" d="M42.8572 51.4286H47.1429V50H42.8572V51.4286Z" fill="#173042"/>
<path fill-rule="evenodd" clip-rule="evenodd" d="M42.8572 48.5715H47.1429V45.7144H42.8572V48.5715Z" fill="#173042"/>
<path fill-rule="evenodd" clip-rule="evenodd" d="M50 38.5714H51.4286V37.1428H50V38.5714Z" fill="#173042"/>
<path fill-rule="evenodd" clip-rule="evenodd" d="M11.4285 51.4286H14.2856V50H11.4285V51.4286Z" fill="#173042"/>
<path fill-rule="evenodd" clip-rule="evenodd" d="M50 41.4286H51.4286V40H50V41.4286Z" fill="#173042"/>
<path fill-rule="evenodd" clip-rule="evenodd" d="M11.4285 48.5715H14.2856V45.7144H11.4285V48.5715Z" fill="#173042"/>
<path fill-rule="evenodd" clip-rule="evenodd" d="M8.57153 51.4286H10.0001V50H8.57153V51.4286Z" fill="#173042"/>
<path fill-rule="evenodd" clip-rule="evenodd" d="M15.7144 51.4286H17.1429V50H15.7144V51.4286Z" fill="#173042"/>
<path fill-rule="evenodd" clip-rule="evenodd" d="M8.57153 48.5715H10.0001V45.7144H8.57153V48.5715Z" fill="#173042"/>
<path fill-rule="evenodd" clip-rule="evenodd" d="M15.7144 48.5715H17.1429V45.7144H15.7144V48.5715Z" fill="#173042"/>
<path fill-rule="evenodd" clip-rule="evenodd" d="M35.7144 27.8148C35.7144 28.2656 35.917 28.5714 36.4031 28.5714C37.3896 28.5714 37.3896 27.1428 36.4031 27.1428C35.9867 27.1428 35.7144 27.4085 35.7144 27.8148Z" fill="#173042"/>
</svg>
