<svg width="60" height="60" viewBox="0 0 60 60" fill="none" xmlns="http://www.w3.org/2000/svg">
<path fill-rule="evenodd" clip-rule="evenodd" d="M34.8148 27.5114C35.2669 26.7984 35.9685 26.3886 36.6468 25.8477C39.2897 23.7661 38.0968 23.848 42.0806 26.6263L43.25 27.5114C42.1897 27.4213 42.0339 26.8394 41.2075 26.7901C40.5448 26.7574 39.6561 27.4622 39.0558 27.4458C38.3541 27.4213 37.7538 26.7082 37.0833 26.7656C36.374 26.823 35.8906 27.413 34.8148 27.5114ZM55.7002 30.0438V32.4368C55.5442 36.4279 54.601 40.37 52.8858 43.7628C54.6711 45.0167 55.5442 47.3934 55.7002 49.6799V51.1632C55.5833 52.7941 55.0921 54.2283 54.2969 54.9577C52.1063 53.8514 54.0942 53.4088 54.0942 50.0979C54.0942 46.0904 49.9078 42.8203 46.8595 42.0746C47.2259 42.5909 47.2494 42.4188 47.7561 43.0416C51.3266 47.4261 48.0601 51.8353 44.7079 55.0151C43.6476 56.0149 43.2578 55.9576 42.6419 54.7447C43.0941 53.8595 44.7079 52.5975 45.7058 51.4173C52.574 43.3366 38.9856 39.2554 33.4037 39.1242C34.0897 40.1897 34.0897 39.952 33.4037 41.0256C30.3086 40.9518 31.6963 39.3291 31.7977 38.9111H28.383L30.9947 40.3945C31.6574 40.8453 32.6007 41.7877 32.6007 42.9187C32.6007 48.8357 17.4141 53.5317 13.4693 55.1053C12.6975 55.4167 10.7095 56.3346 10.7095 54.9577C10.7095 53.753 12.1284 53.6547 13.4459 53.1875C17.7337 51.6878 24.3837 48.9751 27.9464 46.4673C31.3689 44.0661 31.3533 43.6891 30.1917 41.8697C29.7162 42.2057 29.9266 42.091 29.568 42.4762L28.9365 43.0826C28.4766 43.4596 28.079 43.7136 27.5878 43.9841C26.6056 44.5086 25.6701 44.9594 24.5007 45.3773L7.22473 50.8682C6.65563 51.0567 6.04753 51.278 5.50962 51.4173C5.07304 51.5321 4.28564 51.6058 4.28564 50.7371C4.28564 49.4996 5.46284 49.5242 6.76477 49.1226C7.77825 48.803 8.72156 48.4424 9.71165 48.1966C9.56353 47.6393 9.01781 47 8.70597 46.5083C5.22116 41.0256 4.28564 36.8869 4.28564 30.0438C4.28564 21.8893 9.06458 13.7185 15.1299 9.13732L18.9421 6.81802C23.2689 4.58068 26.5588 4.28564 31.4001 4.28564C38.7751 4.28564 45.2458 8.66198 49.822 14.0546C51.1395 15.6035 52.5194 17.9883 53.3614 19.8323C54.7881 22.9547 55.5598 26.4787 55.7002 30.0438ZM11.3176 26.8803C11.5203 26.6918 11.7152 26.5034 11.9725 26.2984L16.9385 22.4466L19.2929 24.6184C19.7373 25.0118 19.9634 25.3642 20.4155 25.7575C21.0314 26.2903 21.3277 26.1919 21.5616 27.0852C20.3532 27.0607 19.9712 26.528 19.0512 26.3886C18.2638 26.2738 17.266 27.0852 16.5332 27.0852C15.9017 27.0852 14.9583 26.1591 14.0619 26.3886C12.2843 26.8394 13.789 27.0934 11.3176 26.8803ZM6.09432 28.5686C6.15668 25.4789 7.97315 20.8076 9.46998 18.1768C17.3751 4.33482 36.0855 1.84342 47.1168 13.5218C51.6697 18.3325 53.5719 24.1676 54.0864 30.9042C54.1956 32.2811 53.7278 35.633 53.3692 37.0999C53.1042 38.2064 52.9482 38.862 52.613 39.8864C52.3012 40.878 51.7554 41.5993 51.6852 42.5007C51.1162 42.3369 50.9992 42.1483 50.5158 41.8287C50.1027 41.5419 49.822 41.4107 49.3465 41.1567C48.4811 40.706 47.7561 40.3863 46.7894 40.0421C44.7702 39.3291 43.328 38.8292 41.1217 38.3948C33.0918 36.8377 29.0925 37.0098 21.1562 37.0098C18.7628 37.0098 17.6324 38.5669 20.8677 39.2144C21.7876 39.3947 22.5673 39.5668 23.3859 39.7389L28.383 41.0256C27.658 42.1647 26.3015 42.7466 24.8982 43.2629C21.9825 44.3447 14.4126 46.8607 11.5125 47.5655C8.68258 43.1154 7.0922 40.9108 6.17227 34.8217C6.06313 34.1168 6.1255 33.5431 6.03195 32.8466C5.75909 30.8141 5.89162 31.1501 7.14678 30.0929C7.66911 29.6503 8.79173 28.6587 9.33744 28.3801C10.2262 27.9211 11.1773 28.9866 12.3155 28.9866C12.7599 28.9866 13.7188 28.2899 14.3581 28.2736C14.896 28.2653 15.7925 28.9866 16.5332 28.9866C17.5232 28.9866 18.03 28.3146 18.7784 28.2653C19.441 28.2326 20.2674 28.9866 20.9535 28.9866C21.6005 28.9866 22.4893 28.5194 23.1675 28.3555C24.3681 29.2079 24.9762 30.0683 26.091 30.978C27.1279 31.8139 30.41 35.5346 31.4001 35.5346C31.8678 35.5346 32.2031 35.1823 32.2031 34.6906C32.2031 33.9038 29.9422 32.3958 29.3887 31.5189L33.0061 28.7735C33.8169 28.7735 34.6433 29.4127 35.2123 29.4127C35.797 29.4127 36.5689 28.7735 37.021 28.7735C37.9019 28.7735 38.2294 29.4127 39.2351 29.4127C39.7496 29.4127 40.3421 28.7735 41.2386 28.7735C41.7531 28.7735 42.3535 29.4127 43.25 29.4127C44.8014 29.4127 43.6476 27.7573 46.5009 29.7897L48.1771 30.9862C48.9957 31.5517 50.6484 32.9777 51.4826 33.2071C51.5215 33.1744 51.5761 33.0842 51.5917 33.117L51.9192 32.822C52.1686 32.5597 52.1063 32.6498 52.2856 32.3631C52.0205 31.1829 50.7731 30.7404 49.3075 29.5848C48.1849 28.7161 46.9999 27.9539 45.8227 27.1262C37.3874 21.2337 39.5781 21.2747 35.875 24.1922L27.9855 30.4617C27.4709 29.6503 22.2398 25.0938 21.203 24.0775C15.9875 18.98 17.4609 19.9552 14.2099 22.3155C12.5104 23.553 7.18575 27.9621 6.09432 28.5686Z" fill="#173042"/>
<path fill-rule="evenodd" clip-rule="evenodd" d="M26.7762 11.0386C27.7039 11.3008 29.8868 13.1202 30.5884 13.3825C31.5395 13.7267 33.5431 11.2517 34.4085 11.2517C37.0669 11.2517 36.1548 13.1612 34.6112 14.2102C34.3149 14.4069 32.4049 15.6526 32.4049 15.8984C32.4049 17.6523 33.0052 18.8488 33.0052 20.5452C32.4673 20.1272 31.0718 17.7015 30.5962 16.9556C26.1291 19.4389 27.9222 18.6767 26.9788 20.5452C26.5189 20.3649 26.8152 20.5288 26.5033 20.2011C26.3084 19.9879 26.2928 19.9224 26.1681 19.7093L24.8506 17.6605C24.6167 17.2589 24.4374 16.9556 25.1702 16.9556C26.6593 16.9556 26.1291 17.4556 27.2985 16.4476C27.8442 15.9804 28.5303 15.2347 29.1852 15.0543C29.0214 14.2921 27.2907 11.8417 26.7762 11.0386ZM24.7726 10.4075C24.7726 12.2351 26.6593 13.1284 26.7762 14.6281C25.7627 15.2018 22.7612 15.0543 22.7612 17.1606C22.7612 17.1687 26.1213 25.6428 28.5849 21.1763C29.2008 20.0535 28.7018 19.8568 30.1909 19.4881C31.5395 22.168 32.0307 22.8646 33.6055 22.8646C35.8508 22.8646 34.2915 17.5293 34.2058 16.5295C34.962 16.3164 37.6204 14.6937 37.6204 12.9399C37.6204 11.3418 37.636 9.35033 34.4085 9.35033C33.7068 9.35033 32.9273 9.89123 32.4516 10.2518C31.8592 10.7108 31.3759 11.055 30.7989 11.4647L29.8556 10.7599C28.2964 9.78469 27.5246 8.93237 26.1759 8.93237C25.6536 8.93237 24.7726 10.0551 24.7726 10.4075Z" fill="#173042"/>
<path fill-rule="evenodd" clip-rule="evenodd" d="M36.4205 48.6226C37.3794 48.6226 39.7728 45.8198 37.4261 45.2461C36.8571 45.6395 34.4871 48.6226 36.4205 48.6226Z" fill="#173042"/>
<path fill-rule="evenodd" clip-rule="evenodd" d="M31.7969 51.3684C31.7969 53.6303 34.8139 51.5077 34.8139 50.3112C34.8139 48.2951 31.7969 50.5898 31.7969 51.3684Z" fill="#173042"/>
<path fill-rule="evenodd" clip-rule="evenodd" d="M35.4143 41.4437C35.9132 42.4271 38.4236 44.9841 38.4236 42.5009C38.4236 42.3288 36.6851 38.9113 35.4143 41.4437Z" fill="#173042"/>
<path fill-rule="evenodd" clip-rule="evenodd" d="M28.187 53.4827C28.187 56.3593 30.5959 54.4498 30.5959 53.4745L29.793 52.6304L28.187 53.4827Z" fill="#173042"/>
</svg>
