<svg width="60" height="60" viewBox="0 0 60 60" fill="none" xmlns="http://www.w3.org/2000/svg">
<path fill-rule="evenodd" clip-rule="evenodd" d="M46.0008 42.0223C47.3542 41.651 48.4683 43.1613 48.6635 44.7698C48.9104 46.8155 47.9202 48.4637 46.8044 48.7705C45.3992 49.1555 44.2402 47.675 44.0501 45.9994C43.8091 43.8742 44.8138 42.3465 46.0008 42.0223ZM21.4533 42.0248C22.8118 41.6398 23.9064 43.1539 24.1177 44.7686C24.39 46.8453 23.3523 48.4675 22.2509 48.7718C19.2591 49.5952 18.2375 42.9365 21.4533 42.0248ZM39.1924 28.3744C39.6624 27.9881 48.6312 28.5732 50.2001 28.1944C50.7058 29.2414 51.2472 30.4412 51.7656 31.5206C52.7983 33.6681 52.9281 33.4719 52.7983 35.4133C52.6863 37.095 52.5887 38.8128 52.4902 40.5033C52.4241 41.6448 52.4359 43.8109 50.89 43.6793C50.7822 43.3712 50.694 42.9154 50.593 42.5813C49.4008 38.6427 45.9143 37.1596 43.3679 40.1704C42.4786 41.2212 42.3845 41.9105 41.8185 43.7116L38.2768 43.6731C38.3311 41.764 39.1075 32.2845 38.9471 31.389C38.8708 30.6474 39.0498 31.1989 38.7961 30.558C38.707 30.332 38.6493 30.0413 38.645 29.7209C38.6349 28.9967 38.9149 28.5409 39.1924 28.3744ZM39.6998 19.7259C40.5253 19.7085 45.4663 19.6389 45.9024 19.7644C46.459 19.9234 46.8654 21.1219 47.361 22.1616C47.5791 22.6174 48.5319 24.5663 48.5786 24.8705L39.396 24.8556L39.6998 19.7259ZM36.8488 28.4191C37.2204 28.4912 36.937 28.3781 37.2892 28.2639C37.772 28.1087 38.1529 28.6129 38.2352 29.1458C38.2776 29.4202 38.2667 30.3332 38.2599 30.6561C38.2463 31.3045 38.1445 31.3716 37.7575 31.1716C37.6464 30.3915 37.9688 28.9694 37.2993 29.1508C37.2162 29.9717 37.4877 31.8548 36.6884 30.9443L35.94 43.7029L26.3416 43.6756C26.0726 42.9526 26.0235 42.4036 25.6943 41.6572C25.3811 40.9479 25.1096 40.5592 24.727 40.0959C21.7648 36.4976 17.7106 39.8226 17.3211 43.7277C16.0687 43.6085 13.3212 43.6967 11.8236 43.7054C11.2356 43.7079 10.7553 43.7091 10.4744 43.1017C10.1316 42.3626 10.4753 39.3295 10.5398 38.2414C10.6365 36.6255 10.7078 35.0146 10.8351 33.416C13.0276 33.3726 15.2397 33.4123 17.4339 33.4123C18.4335 33.4123 19.7623 33.5228 20.7211 33.4049C21.6273 33.2931 22.1992 31.6349 21.5263 30.6586C21.3795 30.8996 21.3532 31.0337 21.1309 31.1666C20.9688 31.2648 20.6956 31.3083 20.4385 31.2511C19.9922 31.153 19.775 30.753 19.7495 30.0289L11.0353 29.9941L11.3357 24.8743C12.5694 24.7351 14.1307 24.8531 15.4001 24.8531H23.5365C24.8041 24.8531 26.3408 25.2804 26.4706 23.3428C26.6293 20.9779 24.6234 21.4598 23.6765 21.4598L11.5809 21.4623C11.5224 20.8624 11.7752 17.1101 11.8643 16.3338L20.0999 16.3102C20.5598 16.3115 20.9595 16.3425 21.3133 16.0009C21.9922 15.3463 22.2306 12.892 20.3121 12.8969L12.0679 12.8994C12.0773 12.2014 12.202 9.63901 12.3301 9.11113C12.633 7.86408 13.3908 7.74609 14.2079 7.74981L36.5823 7.74857C38.4787 7.73243 37.9816 9.32601 37.7457 13.4248C37.4571 18.4366 37.0838 23.426 36.8488 28.4191ZM9.72266 12.8907C8.66711 12.9441 7.55556 12.8982 6.49322 12.8982C5.44531 12.8982 4.38297 12.7951 4.29218 14.4234C4.17848 16.4443 5.57683 16.309 6.28279 16.309C7.35022 16.309 8.42019 16.3003 9.48763 16.3102L9.20931 21.4449C8.08419 21.6039 6.75795 21.1132 6.62983 22.9578C6.47116 25.227 8.28358 24.8594 8.99634 24.8494C8.98276 25.3164 8.7333 29.7706 8.69087 29.8711C8.49995 30.3295 6.03417 29.7817 5.18142 30.0612C4.03084 30.4387 4.03593 32.6323 4.93196 33.2434C5.39185 33.5563 7.81181 33.4247 8.48213 33.4098C8.46941 35.3487 8.23861 37.9397 8.10794 39.9009C7.934 42.5105 7.80502 43.6557 8.78166 45.4715C9.59793 46.9881 10.7578 47.1074 12.4549 47.1074C14.0475 47.1074 15.7157 47.0415 17.2939 47.1086C17.8166 48.9817 18.223 50.3914 19.6859 51.4795C19.8709 51.6173 20.0906 51.7627 20.324 51.8807C20.4521 51.9453 20.5115 51.9602 20.6489 52.0136L21.0334 52.2334C20.2077 52.3067 19.3185 52.262 18.4861 52.262C17.6639 52.262 16.8239 52.0521 16.3266 52.7414C15.8277 53.4308 15.8718 54.7051 16.3936 55.2727C16.9036 55.8292 17.8743 55.6529 18.627 55.6529C18.8696 55.6529 33.285 55.741 33.7305 55.6218C34.3516 55.4554 34.8896 54.4356 34.5713 53.3003C34.2863 52.2868 33.6999 52.2607 32.7946 52.262C29.4854 52.2657 25.9335 52.4396 22.654 52.2446C22.7185 52.1713 22.7058 52.1738 22.8203 52.0968C23.3693 51.7266 23.9955 51.7614 25.0222 50.379C25.2623 50.056 25.572 49.4624 25.7943 48.9395C26.1312 48.147 26.2212 47.4043 26.3416 47.1223L41.8423 47.1061C42.449 49.3667 42.9504 50.6013 44.4252 51.6099C44.9826 51.9925 45.423 51.9925 45.8863 52.2496C43.367 52.3477 40.7019 52.1688 38.2615 52.2607C37.4996 52.2905 36.9107 53.0209 37.0329 54.2257C37.1458 55.3411 37.7015 55.6591 38.5433 55.6529H54.0465C54.9077 55.6566 55.5305 55.4616 55.6798 54.2965C56.026 51.5999 53.3328 52.262 52.0117 52.262C50.3223 52.262 48.5175 52.3514 46.8425 52.2496C48.3826 51.8534 49.4848 50.9019 50.2858 49.0611C50.5828 48.3781 50.6608 47.7719 50.89 47.1074C52.565 47.0825 53.5874 45.9038 54.1889 44.5102C54.872 42.9278 54.833 40.3579 54.9611 38.2464C55.298 32.667 55.4516 33.4111 53.702 29.6115C53.3523 28.8514 52.9951 28.1223 52.643 27.3621L48.5175 18.6167C47.1531 15.7562 45.3644 16.3264 42.4736 16.3264C41.7252 16.3264 40.6323 16.4195 39.9272 16.3052C39.8474 15.1041 40.3981 10.3805 40.3107 8.77453C40.1877 6.52265 39.0888 4.83343 37.6676 4.43596C36.7249 4.17265 16.1077 4.33536 15.1896 4.33536C13.0141 4.33536 12.0747 4.2894 10.8402 6.21089C9.82872 7.7846 9.87115 10.2923 9.72266 12.8907Z" fill="#173042"/>
<path fill-rule="evenodd" clip-rule="evenodd" d="M9.7594 52.3515C8.74374 52.8198 8.75222 54.8108 9.54728 55.4405C9.92571 55.7399 12.3041 55.8032 12.7988 55.5834C13.7449 55.1598 13.9205 53.37 13.0805 52.5279C12.6477 52.0944 10.0912 52.1975 9.7594 52.3515Z" fill="#173042"/>
<path fill-rule="evenodd" clip-rule="evenodd" d="M36.8756 28.6949C37.1021 28.7247 37.7139 27.9894 38.0142 28.9607C38.1483 29.3942 38.0914 30.481 38.083 31.0499C37.6655 30.8872 37.9693 30.8239 37.8827 29.6128C37.8411 29.0377 37.6052 28.6266 37.2557 28.9582C36.8009 29.3917 37.4398 30.7207 36.8815 30.9853L36.8756 28.6949ZM36.8484 28.4191L36.8756 28.6949C36.8314 28.7931 36.8662 28.5819 36.8119 28.9209C36.7899 29.0626 36.7924 29.0626 36.7831 29.2054L36.688 30.9443C37.4873 31.8548 37.2158 29.9717 37.2989 29.1508C37.9684 28.9694 37.646 30.3916 37.7572 31.1716C38.1441 31.3716 38.2459 31.3045 38.2595 30.6561C38.2662 30.3332 38.2773 29.4202 38.2348 29.1458C38.1526 28.6129 37.7715 28.1087 37.2888 28.2639C36.9367 28.3781 37.22 28.4912 36.8484 28.4191Z" fill="#173042"/>
<path fill-rule="evenodd" clip-rule="evenodd" d="M21.5263 30.6585C21.4584 30.5131 21.5017 30.5789 21.4245 30.4609C21.0366 29.8622 20.2832 29.9579 19.7495 30.0287C19.7749 30.7529 19.9921 31.1528 20.4385 31.2509C20.6956 31.3081 20.9688 31.2646 21.1309 31.1665C21.3532 31.0335 21.3795 30.8994 21.5263 30.6585Z" fill="#173042"/>
<path fill-rule="evenodd" clip-rule="evenodd" d="M36.8757 28.6951L36.8817 30.9855C37.44 30.7209 36.8011 29.3919 37.2559 28.9584C37.6055 28.6267 37.8414 29.0379 37.883 29.6129C37.9695 30.824 37.6658 30.8874 38.0832 31.0501C38.0917 30.4812 38.1485 29.3944 38.0145 28.9609C37.7141 27.9896 37.1023 28.7249 36.8757 28.6951Z" fill="#173042"/>
<path fill-rule="evenodd" clip-rule="evenodd" d="M38.9471 31.389C38.9572 31.3641 38.9725 31.3021 38.9759 31.3157L39.1923 28.3745C38.9148 28.541 38.6348 28.9968 38.645 29.7209C38.6493 30.0414 38.707 30.332 38.7961 30.5581C39.0497 31.199 38.8707 30.6475 38.9471 31.389Z" fill="#173042"/>
</svg>
